<?xml version="1.0" encoding="UTF-8" standalone="no"?>
<svg
   xmlns:sketch="http://www.bohemiancoding.com/sketch/ns"
   xmlns:dc="http://purl.org/dc/elements/1.1/"
   xmlns:cc="http://creativecommons.org/ns#"
   xmlns:rdf="http://www.w3.org/1999/02/22-rdf-syntax-ns#"
   xmlns:svg="http://www.w3.org/2000/svg"
   xmlns="http://www.w3.org/2000/svg"
   xmlns:sodipodi="http://sodipodi.sourceforge.net/DTD/sodipodi-0.dtd"
   xmlns:inkscape="http://www.inkscape.org/namespaces/inkscape"
   width="50px"
   height="50px"
   viewBox="0 0 50 50"
   version="1.1"
   id="svg2"
   inkscape:version="0.48.4 r9939"
   sodipodi:docname="Remove.svg">
  <metadata
     id="metadata15">
    <rdf:RDF>
      <cc:Work
         rdf:about="">
        <dc:format>image/svg+xml</dc:format>
        <dc:type
           rdf:resource="http://purl.org/dc/dcmitype/StillImage" />
        <dc:title>Facebook</dc:title>
      </cc:Work>
    </rdf:RDF>
  </metadata>
  <sodipodi:namedview
     pagecolor="#ffffff"
     bordercolor="#666666"
     borderopacity="1"
     objecttolerance="10"
     gridtolerance="10"
     guidetolerance="10"
     inkscape:pageopacity="0"
     inkscape:pageshadow="2"
     inkscape:window-width="958"
     inkscape:window-height="1027"
     id="namedview13"
     showgrid="false"
     inkscape:zoom="6.675088"
     inkscape:cx="21.314043"
     inkscape:cy="24.386444"
     inkscape:window-x="0"
     inkscape:window-y="24"
     inkscape:window-maximized="0"
     inkscape:current-layer="svg2"
     showguides="true"
     inkscape:guide-bbox="true">
    <sodipodi:guide
       orientation="1,0"
       position="25.018397,25.018397"
       id="guide3798" />
    <sodipodi:guide
       orientation="0,1"
       position="21.048412,25.018397"
       id="guide3800" />
  </sodipodi:namedview>
  <title
     id="title4">Facebook</title>
  <description
     id="description6">Created with Sketch (http://www.bohemiancoding.com/sketch)</description>
  <defs
     id="defs8" />
  <g
     id="Page-1"
     stroke="none"
     stroke-width="1"
     fill="none"
     fill-rule="evenodd"
     sketch:type="MSPage">
    <g
       id="Facebook"
       sketch:type="MSArtboardGroup"
       fill="#000000">
      <path
         d="M 25,50 C 38.807119,50 50,38.807119 50,25 50,11.192881 38.807119,0 25,0 11.192881,0 0,11.192881 0,25 0,38.807119 11.192881,50 25,50 z m 0,-3 C 37.150265,47 47,37.150265 47,25 47,12.849735 37.150265,3 25,3 12.849735,3 3,12.849735 3,25 3,37.150265 12.849735,47 25,47 z"
         id="Oval-1"
         sketch:type="MSShapeGroup"
         style="fill:#222222;fill-opacity:1;stroke:none"
         inkscape:connector-curvature="0"
         sodipodi:nodetypes="ssssssssss" />
    </g>
  </g>
  <path
     style="fill:#222222;fill-opacity:1;stroke:none"
     d="M 22.15625 7.09375 L 22.15625 22.15625 L 7.09375 22.15625 L 7.09375 27.84375 L 22.15625 27.84375 L 22.15625 42.90625 L 27.84375 42.90625 L 27.84375 27.84375 L 42.90625 27.84375 L 42.90625 22.15625 L 27.84375 22.15625 L 27.84375 7.09375 L 22.15625 7.09375 z "
     id="rect3204" />
</svg>
