<?xml version="1.0" encoding="UTF-8" standalone="no"?>
<svg
   xmlns:sketch="http://www.bohemiancoding.com/sketch/ns"
   xmlns:dc="http://purl.org/dc/elements/1.1/"
   xmlns:cc="http://creativecommons.org/ns#"
   xmlns:rdf="http://www.w3.org/1999/02/22-rdf-syntax-ns#"
   xmlns:svg="http://www.w3.org/2000/svg"
   xmlns="http://www.w3.org/2000/svg"
   xmlns:sodipodi="http://sodipodi.sourceforge.net/DTD/sodipodi-0.dtd"
   xmlns:inkscape="http://www.inkscape.org/namespaces/inkscape"
   width="50px"
   height="50px"
   viewBox="0 0 50 50"
   version="1.1"
   id="svg2"
   inkscape:version="0.48.4 r9939"
   sodipodi:docname="Administration.svg">
  <metadata
     id="metadata15">
    <rdf:RDF>
      <cc:Work
         rdf:about="">
        <dc:format>image/svg+xml</dc:format>
        <dc:type
           rdf:resource="http://purl.org/dc/dcmitype/StillImage" />
        <dc:title>Facebook</dc:title>
      </cc:Work>
    </rdf:RDF>
  </metadata>
  <sodipodi:namedview
     pagecolor="#ffffff"
     bordercolor="#666666"
     borderopacity="1"
     objecttolerance="10"
     gridtolerance="10"
     guidetolerance="10"
     inkscape:pageopacity="0"
     inkscape:pageshadow="2"
     inkscape:window-width="1920"
     inkscape:window-height="1056"
     id="namedview13"
     showgrid="false"
     inkscape:zoom="3.337544"
     inkscape:cx="69.539848"
     inkscape:cy="1.2763268"
     inkscape:window-x="0"
     inkscape:window-y="24"
     inkscape:window-maximized="1"
     inkscape:current-layer="svg2"
     showguides="true"
     inkscape:guide-bbox="true">
    <sodipodi:guide
       orientation="1,0"
       position="25.018397,25.018397"
       id="guide3798" />
    <sodipodi:guide
       orientation="0,1"
       position="21.048412,25.018397"
       id="guide3800" />
  </sodipodi:namedview>
  <title
     id="title4">Facebook</title>
  <description
     id="description6">Created with Sketch (http://www.bohemiancoding.com/sketch)</description>
  <defs
     id="defs8" />
  <g
     id="Page-1"
     stroke="none"
     stroke-width="1"
     fill="none"
     fill-rule="evenodd"
     sketch:type="MSPage">
    <g
       id="Facebook"
       sketch:type="MSArtboardGroup"
       fill="#000000">
      <path
         d="M 25,50 C 38.807119,50 50,38.807119 50,25 50,11.192881 38.807119,0 25,0 11.192881,0 0,11.192881 0,25 0,38.807119 11.192881,50 25,50 z m 0,-3 C 37.150265,47 47,37.150265 47,25 47,12.849735 37.150265,3 25,3 12.849735,3 3,12.849735 3,25 3,37.150265 12.849735,47 25,47 z"
         id="Oval-1"
         sketch:type="MSShapeGroup"
         style="fill:#222222;fill-opacity:1;stroke:none"
         inkscape:connector-curvature="0"
         sodipodi:nodetypes="ssssssssss" />
    </g>
  </g>
  <path
     style="fill:#222222;fill-opacity:1;stroke:none"
     d="M 23.03125 6.75 C 21.804206 6.8833766 20.610603 7.1047426 19.46875 7.46875 L 20.28125 10.125 L 17.1875 11.5 L 15.78125 9.15625 C 14.739947 9.7687125 13.770992 10.481599 12.875 11.28125 L 14.65625 13.34375 L 12.375 15.875 L 10.15625 14.3125 C 9.4565447 15.292683 8.8413805 16.326548 8.34375 17.4375 L 10.8125 18.5625 L 9.78125 21.8125 L 7.125 21.28125 C 6.8914562 22.442491 6.7520714 23.645459 6.75 24.875 L 9.4375 24.90625 L 9.8125 28.3125 L 7.1875 28.90625 C 7.4510364 30.087455 7.8325333 31.229743 8.3125 32.3125 L 10.75 31.25 L 12.46875 34.21875 L 10.375 35.8125 C 11.086736 36.766588 11.900455 37.639914 12.78125 38.4375 L 14.5625 36.53125 L 17.3125 38.53125 L 16.03125 40.8125 C 17.065573 41.398422 18.165227 41.903779 19.3125 42.28125 L 20.15625 39.8125 L 23.5 40.5 L 23.25 43.09375 C 23.834621 43.150147 24.431837 43.1875 25.03125 43.1875 C 25.651463 43.1875 26.239422 43.154081 26.84375 43.09375 L 26.59375 40.5 L 29.9375 39.8125 L 30.78125 42.25 C 31.924936 41.870516 33.000348 41.368051 34.03125 40.78125 L 32.78125 38.53125 L 35.53125 36.53125 L 37.28125 38.4375 C 38.167115 37.634319 38.973007 36.742755 39.6875 35.78125 L 37.625 34.21875 L 39.34375 31.25 L 41.71875 32.28125 C 42.192386 31.208228 42.582396 30.075725 42.84375 28.90625 L 40.28125 28.3125 L 40.65625 24.90625 L 43.28125 24.875 C 43.279179 23.645564 43.171005 22.442398 42.9375 21.28125 L 40.3125 21.8125 L 39.28125 18.5625 L 41.6875 17.4375 C 41.190556 16.32808 40.604731 15.29153 39.90625 14.3125 L 37.71875 15.875 L 35.4375 13.34375 L 37.21875 11.3125 C 36.326407 10.511347 35.350166 9.8024062 34.3125 9.1875 L 32.90625 11.5 L 29.8125 10.125 L 30.625 7.5 C 29.489896 7.135184 28.282313 6.8867872 27.0625 6.75 L 26.75 9.46875 L 23.34375 9.46875 L 23.03125 6.75 z M 25.03125 12.34375 C 31.966054 12.34375 37.5625 17.971446 37.5625 24.90625 C 37.5625 31.841054 31.966054 37.46875 25.03125 37.46875 C 18.096446 37.46875 12.46875 31.841054 12.46875 24.90625 C 12.46875 17.971446 18.096446 12.34375 25.03125 12.34375 z "
     id="path3802" />
</svg>
