<?xml version="1.0" encoding="UTF-8" standalone="no"?>
<svg xmlns:sketch="http://www.bohemiancoding.com/sketch/ns" xmlns:rdf="http://www.w3.org/1999/02/22-rdf-syntax-ns#" xmlns="http://www.w3.org/2000/svg" height="50px" width="50px" version="1.1" xmlns:cc="http://creativecommons.org/ns#" viewBox="0 0 50 50" xmlns:dc="http://purl.org/dc/elements/1.1/">
<metadata>
<rdf:RDF>
<cc:Work rdf:about="">
<dc:format>image/svg+xml</dc:format>
<dc:type rdf:resource="http://purl.org/dc/dcmitype/StillImage"/>
<dc:title>Facebook</dc:title>
</cc:Work>
</rdf:RDF>
</metadata>
<title>Facebook</title>
<description>Created with Sketch (http://www.bohemiancoding.com/sketch)</description>
<g fill-rule="evenodd" sketch:type="MSPage" stroke="none" stroke-width="1" fill="none">
<g fill="#000" sketch:type="MSArtboardGroup">
<path d="M25,50c13.807,0,25-11.193,25-25s-11.193-25-25-25-25,11.193-25,25,11.193,25,25,25zm0-3c12.15,0,22-9.85,22-22s-9.85-22-22-22-22,9.85-22,22,9.85,22,22,22z" sketch:type="MSShapeGroup" fill="#222"/>
</g>
</g>
<path fill="#222" d="M23.031,6.75c-1.227,0.1334-2.42,0.3547-3.562,0.7188l0.812,2.6562-3.093,1.375-1.407-2.3438c-1.041,0.6125-2.01,1.3258-2.906,2.1248l1.781,2.063-2.281,2.531-2.219-1.563c-0.6995,0.981-1.3146,2.015-1.8122,3.126l2.4682,1.124-1.0308,3.25-2.6562-0.531c-0.2335,1.161-0.3729,2.364-0.375,3.594l2.6875,0.031,0.375,3.406-2.625,0.594c0.2635,1.181,0.645,2.324,1.125,3.406l2.4375-1.062,1.719,2.969-2.094,1.593c0.712,0.955,1.525,1.828,2.406,2.626l1.781-1.907,2.75,2-1.281,2.281c1.035,0.586,2.134,1.092,3.281,1.469l0.844-2.469,3.344,0.688-0.25,2.594c0.585,0.056,1.182,0.094,1.781,0.094,0.62,0,1.208-0.034,1.813-0.094l-0.25-2.594,3.344-0.688,0.843,2.438c1.144-0.379,2.219-0.882,3.25-1.469l-1.25-2.25,2.75-2,1.75,1.907c0.886-0.804,1.692-1.695,2.407-2.657l-2.063-1.562,1.719-2.969,2.375,1.031c0.473-1.073,0.863-2.205,1.125-3.375l-2.563-0.594,0.375-3.406,2.625-0.031c-0.002-1.229-0.11-2.433-0.343-3.594l-2.626,0.531-1.031-3.25,2.407-1.124c-0.497-1.11-1.083-2.146-1.782-3.126l-2.187,1.563-2.281-2.531,1.781-2.032c-0.893-0.801-1.869-1.5096-2.907-2.1245l-1.406,2.3125-3.094-1.375,0.813-2.625c-1.135-0.3648-2.343-0.6132-3.563-0.75l-0.312,2.7188h-3.406l-0.313-2.7188zm2,5.594c6.935,0,12.531,5.627,12.531,12.562s-5.596,12.563-12.531,12.563-12.562-5.628-12.562-12.563,5.627-12.562,12.562-12.562z"/>
</svg>
