<?xml version="1.0" encoding="UTF-8" standalone="no"?>
<svg
   width="50"
   height="50"
   viewBox="0 0 13.229166 13.229167"
   version="1.1"
   id="svg8"
   inkscape:version="1.2.2 (b0a8486541, 2022-12-01)"
   sodipodi:docname="bio.svg"
   xmlns:inkscape="http://www.inkscape.org/namespaces/inkscape"
   xmlns:sodipodi="http://sodipodi.sourceforge.net/DTD/sodipodi-0.dtd"
   xmlns="http://www.w3.org/2000/svg"
   xmlns:svg="http://www.w3.org/2000/svg"
   xmlns:rdf="http://www.w3.org/1999/02/22-rdf-syntax-ns#"
   xmlns:cc="http://creativecommons.org/ns#"
   xmlns:dc="http://purl.org/dc/elements/1.1/">
  <defs
     id="defs2" />
  <sodipodi:namedview
     id="base"
     pagecolor="#ffffff"
     bordercolor="#666666"
     borderopacity="1.0"
     inkscape:pageopacity="0.0"
     inkscape:pageshadow="2"
     inkscape:zoom="2.8"
     inkscape:cx="48.571429"
     inkscape:cy="71.25"
     inkscape:document-units="mm"
     inkscape:current-layer="layer1"
     inkscape:document-rotation="0"
     showgrid="false"
     units="px"
     inkscape:window-width="1420"
     inkscape:window-height="1011"
     inkscape:window-x="26"
     inkscape:window-y="23"
     inkscape:window-maximized="0"
     inkscape:showpageshadow="2"
     inkscape:pagecheckerboard="0"
     inkscape:deskcolor="#d1d1d1" />
  <metadata
     id="metadata5">
    <rdf:RDF>
      <cc:Work
         rdf:about="">
        <dc:format>image/svg+xml</dc:format>
        <dc:type
           rdf:resource="http://purl.org/dc/dcmitype/StillImage" />
      </cc:Work>
    </rdf:RDF>
  </metadata>
  <g
     inkscape:label="Layer 1"
     inkscape:groupmode="layer"
     id="layer1">
    <path
       style="fill:#000000;stroke-width:0.0250098"
       d="m 3.6767388,13.191932 c -0.06255,-0.04382 -0.07212,-0.148658 -0.03226,-0.353741 0.01283,-0.06602 0.04728,-0.277589 0.07657,-0.470164 0.07291,-0.479516 0.291484,-1.261567 0.377106,-1.349276 0.03125,-0.03201 0.03226,-0.04717 -0.0402,0.604255 -0.151496,1.362109 -0.178544,1.562341 -0.214083,1.584841 -0.05191,0.03286 -0.104666,0.02784 -0.167136,-0.01591 z m -2.224203,-0.10885 c -0.207689,-0.130275 -0.205026,-0.675294 0.0084,-1.72795 0.105916,-0.522285 0.237003,-0.88835 0.481854,-1.345596 0.194329,-0.3628971 0.376166,-0.6110581 0.669461,-0.9136421 0.323218,-0.333453 0.628516,-0.505177 1.14641,-0.644833 0.67439,-0.181856 0.882148,-0.18483 1.687054,-0.02416 0.437006,0.08723 0.557845,0.102124 0.828812,0.102124 0.291856,0 0.618645,-0.0407 0.810432,-0.100936 0.04127,-0.01296 0.288862,-0.06865 0.550214,-0.123759 0.41962,-0.08848 0.514668,-0.100198 0.812819,-0.100233 0.717759,-7.1e-5 1.180038,0.145126 1.7006632,0.534207 0.401353,0.299946 0.628219,0.567339 0.883397,1.041209 0.249148,0.4626711 0.365505,0.8006311 0.641495,1.8632281 0.06788,0.261351 0.157593,0.603838 0.199358,0.761081 0.08706,0.327755 0.07916,0.415106 -0.0509,0.563237 -0.142996,0.162863 -0.397508,0.183196 -0.568537,0.04542 -0.116847,-0.09413 -0.169542,-0.237538 -0.3287,-0.894552 -0.342587,-1.414221 -0.557152,-1.983596 -0.906455,-2.4054021 -0.1391742,-0.168062 -0.5106952,-0.463401 -0.6891102,-0.547804 -0.201787,-0.09546 -0.54629,-0.15983 -0.856203,-0.159978 -0.261396,-1.42e-4 -0.641503,0.06391 -1.162954,0.195905 -0.592339,0.149943 -1.13236,0.170897 -1.69107,0.06562 -0.184096,-0.03469 -0.430383,-0.08601 -0.547303,-0.114053 -0.419696,-0.10065 -0.582354,-0.09337 -1.095045,0.04899 -0.342575,0.09512 -0.599205,0.220362 -0.73928,0.360781 -0.35427,0.35514 -0.655326,0.8128731 -0.846846,1.2875631 -0.111301,0.275864 -0.317949,1.09494 -0.407261,1.61423 -0.08594,0.499661 -0.158348,0.633978 -0.354722,0.657977 -0.06816,0.0083 -0.118855,-0.0028 -0.176031,-0.03867 z m 7.545717,-0.02729 c -0.02751,-0.02751 -0.05045,-0.06972 -0.05098,-0.09379 -4.96e-4,-0.02407 -0.01757,-0.218211 -0.03788,-0.431419 -0.02031,-0.213208 -0.04403,-0.658467 -0.05272,-0.989463 -0.01544,-0.587972 -0.0019,-0.838377 0.04121,-0.760488 0.02529,0.04573 0.163098,0.920262 0.200872,1.274765 0.01539,0.144432 0.04473,0.375147 0.06521,0.512701 0.0686,0.460807 0.06811,0.450363 0.02281,0.495666 -0.0561,0.0561 -0.127468,0.05308 -0.188529,-0.008 z M 5.5469058,8.1685029 c -0.444267,-0.08049 -0.854834,-0.226867 -1.126016,-0.401444 -0.08973,-0.05776 -0.26474,-0.201708 -0.388917,-0.319879 -0.190372,-0.181164 -0.256817,-0.267398 -0.423723,-0.549922 l -0.197945,-0.335066 -0.18844,0.0015 c -0.311182,0.0024 -0.505115,-0.09152 -0.681232,-0.32992 -0.164305,-0.222412 -0.204036,-0.350119 -0.204043,-0.655853 -5e-6,-0.223021 0.01072,-0.294049 0.07113,-0.471236 0.03912,-0.11475 0.100502,-0.252363 0.136396,-0.305807 0.08289,-0.123413 0.243441,-0.241936 0.381725,-0.281791 0.09232,-0.02661 0.108671,-0.04151 0.115254,-0.105077 0.0042,-0.04074 0.04578,-0.23726 0.09236,-0.436713 0.04658,-0.199453 0.09251,-0.407659 0.102069,-0.462681 0.0096,-0.05502 0.05578,-0.176841 0.102717,-0.270711 l 0.08533,-0.170672 -0.141337,-0.191969 c -0.199042,-0.270346 -0.448066,-0.704544 -0.538358,-0.938677 -0.08665,-0.224689 -0.11758,-0.478368 -0.07667,-0.62883 0.04443,-0.163414 0.181593,-0.36562497 0.3106,-0.45789597 0.211299,-0.151129 0.46288,-0.148604 0.779465,0.0078 0.09732,0.04809 0.189283,0.08743 0.20436,0.08743 0.01592,0 0.0337,-0.07497 0.04241,-0.1789 0.02025,-0.241582 0.08375,-0.406148 0.211643,-0.548546 0.193281,-0.215197 0.412985,-0.270445 0.738407,-0.185683 0.222285,0.0579 0.40221,0.163229 0.767879,0.449531 0.185698,0.145393 0.395883,0.292234 0.467079,0.326315 0.210674,0.100847 0.565379,0.21078597 0.847023,0.26253197 0.447148,0.08215 0.384158,0.05841 1.328767,0.500944 0.345685,0.161949 0.569053,0.311072 0.808234,0.539584 0.240033,0.229325 0.398375,0.444318 0.518116,0.703482 0.151331,0.327537 0.281632,0.939595 0.282236,1.325738 l 2.12e-4,0.1313 h 0.08834 c 0.200426,0 0.393422,0.131642 0.50791,0.346444 0.210574,0.395075 0.142435,1.008492 -0.139524,1.256055 -0.05032,0.04418 -0.176477,0.120875 -0.280357,0.170436 -0.1680594,0.08018 -0.2109204,0.09012 -0.3889504,0.0902 -0.110043,5e-5 -0.224025,-0.0087 -0.253295,-0.01938 -0.0478,-0.01749 -0.07072,0.01149 -0.225087,0.28463 -0.132103,0.233737 -0.233032,0.371341 -0.436197,0.594697 -0.383526,0.421643 -0.557813,0.571384 -0.864318,0.742592 -0.421793,0.235605 -0.69799,0.328353 -1.184759,0.397849 -0.385874,0.05509 -1.021382,0.06912 -1.250488,0.02762 z m 1.077425,-0.640224 c 0.46404,-0.05515 0.88519,-0.20868 1.238177,-0.45138 0.101289,-0.06964 0.514116,-0.489938 0.672814,-0.684984 0.102042,-0.125415 0.42146,-0.720196 0.503502,-0.937559 0.07639,-0.202401 0.221926,-0.777537 0.261479,-1.033357 0.06259,-0.404794 -0.02411,-0.935111 -0.219469,-1.342414 -0.09385,-0.195665 -0.147868,-0.270589 -0.316699,-0.439239 -0.232287,-0.232038 -0.441432,-0.36486 -0.846252,-0.537428 -0.155464,-0.06627 -0.359575,-0.155326 -0.453578,-0.197898 -0.094,-0.04257 -0.290955,-0.100859 -0.43767,-0.129529 -0.412308,-0.08057 -0.632947,-0.140789 -0.915058,-0.249756 -0.296022,-0.114341 -0.443474,-0.204142 -0.828981,-0.504865 -0.3068,-0.23932497 -0.456683,-0.32654097 -0.540551,-0.31454497 -0.05278,0.0075 -0.05922,0.02731 -0.0874,0.267949 -0.04626,0.39501297 -0.118749,0.53758697 -0.320709,0.63079697 -0.184699,0.08524 -0.497098,0.04396 -0.791347,-0.104575 -0.0798,-0.04028 -0.161091,-0.07324 -0.180645,-0.07324 -0.05464,0 -0.06925,0.06979 -0.03852,0.183999 0.03943,0.146554 0.0741,0.208625 0.341629,0.611543 0.2586,0.389474 0.384639,0.514564 0.817043,0.810896 0.235863,0.161639 0.623692,0.345813 0.860466,0.408622 0.153339,0.04068 0.861787,0.08356 1.40482,0.08503 0.728306,0.002 1.259302,0.167737 1.662851,0.519086 0.304282,0.264921 0.456312,0.548769 0.499293,0.932207 l 0.01542,0.137553 -0.08272,-0.212582 c -0.0455,-0.116921 -0.121109,-0.268855 -0.168024,-0.337632 -0.193163,-0.283179 -0.559237,-0.574869 -0.819933,-0.653327 -0.177178,-0.05332 -0.542097,-0.04103 -1.157872,0.039 -0.989977,0.128666 -1.350412,0.126164 -1.71726,-0.01192 -0.08895,-0.03348 -0.278071,-0.0998 -0.420257,-0.147384 -0.142186,-0.04758 -0.329745,-0.12361 -0.416796,-0.16896 -0.08705,-0.04535 -0.165571,-0.0859 -0.174489,-0.09012 -0.0089,-0.0042 -0.05103,0.05318 -0.09357,0.127542 -0.09273,0.162078 -0.216302,0.659046 -0.240615,0.967691 -0.02836,0.359963 0.06093,0.919505 0.223327,1.399498 0.06057,0.179028 0.373104,0.727248 0.491417,0.861999 0.134108,0.152741 0.41363,0.363205 0.586458,0.441568 0.511796,0.232061 0.959726,0.284472 1.689737,0.197712 z m -3.428342,-1.510518 c 0,-0.0057 -0.02745,-0.126642 -0.061,-0.268854 -0.03355,-0.142213 -0.07513,-0.356603 -0.0924,-0.476425 -0.03744,-0.259701 -0.06857,-0.25765 -0.149827,0.0099 -0.09825,0.323462 -0.03121,0.609694 0.165675,0.707345 0.07255,0.03598 0.137554,0.04924 0.137554,0.02806 z m 6.696825,-0.478596 c 0.1358272,-0.05675 0.2021622,-0.130404 0.2438352,-0.270732 0.07773,-0.261744 0.01491,-0.490872 -0.134576,-0.490872 -0.03978,0 -0.08295,0.01407 -0.09593,0.03126 -0.02128,0.0282 -0.208983,0.705205 -0.208017,0.750293 6.38e-4,0.03101 0.09613,0.02123 0.19469,-0.01995 z"
       id="path847"
       sodipodi:nodetypes="sssssssssssssssscssssssssscsssssssssscssssssscssscsssssssssscsssssssssssssssscssssssssssccsssssssssssssssssssssssscsssssssssssssssssssssssscs" />
  </g>
</svg>
