<?xml version="1.0" encoding="UTF-8"?>
<svg width="50" height="50" version="1.1" viewBox="0 0 13.229 13.229" xmlns="http://www.w3.org/2000/svg"><path d="m3.6767 13.192c-0.06255-0.04382-0.07212-0.14866-0.03226-0.35374 0.01283-0.06602 0.04728-0.27759 0.07657-0.47016 0.07291-0.47952 0.29148-1.2616 0.37711-1.3493 0.03125-0.03201 0.03226-0.04717-0.0402 0.60426-0.1515 1.3621-0.17854 1.5623-0.21408 1.5848-0.05191 0.03286-0.10467 0.02784-0.16714-0.01591zm-2.2242-0.10885c-0.20769-0.13028-0.20503-0.67529 0.0084-1.728 0.10592-0.52228 0.237-0.88835 0.48185-1.3456 0.19433-0.3629 0.37617-0.61106 0.66946-0.91364 0.32322-0.33345 0.62852-0.50518 1.1464-0.64483 0.67439-0.18186 0.88215-0.18483 1.6871-0.02416 0.43701 0.08723 0.55784 0.10212 0.82881 0.10212 0.29186 0 0.61864-0.0407 0.81043-0.10094 0.04127-0.01296 0.28886-0.06865 0.55021-0.12376 0.41962-0.08848 0.51467-0.1002 0.81282-0.10023 0.71776-7.1e-5 1.18 0.14513 1.7007 0.53421 0.40135 0.29995 0.62822 0.56734 0.8834 1.0412 0.24915 0.46267 0.3655 0.80063 0.6415 1.8632 0.06788 0.26135 0.15759 0.60384 0.19936 0.76108 0.08706 0.32776 0.07916 0.41511-0.0509 0.56324-0.143 0.16286-0.39751 0.1832-0.56854 0.04542-0.11685-0.09413-0.16954-0.23754-0.3287-0.89455-0.34259-1.4142-0.55715-1.9836-0.90646-2.4054-0.13917-0.16806-0.5107-0.4634-0.68911-0.5478-0.20179-0.09546-0.54629-0.15983-0.8562-0.15998-0.2614-1.42e-4 -0.6415 0.06391-1.163 0.1959-0.59234 0.14994-1.1324 0.1709-1.6911 0.06562-0.1841-0.03469-0.43038-0.08601-0.5473-0.11405-0.4197-0.10065-0.58235-0.09337-1.095 0.04899-0.34258 0.09512-0.5992 0.22036-0.73928 0.36078-0.35427 0.35514-0.65533 0.81287-0.84685 1.2876-0.1113 0.27586-0.31795 1.0949-0.40726 1.6142-0.08594 0.49966-0.15835 0.63398-0.35472 0.65798-0.06816 0.0083-0.11886-0.0028-0.17603-0.03867zm7.5457-0.02729c-0.02751-0.02751-0.05045-0.06972-0.05098-0.09379-4.96e-4 -0.02407-0.01757-0.21821-0.03788-0.43142s-0.04403-0.65847-0.05272-0.98946c-0.01544-0.58797-0.0019-0.83838 0.04121-0.76049 0.02529 0.04573 0.1631 0.92026 0.20087 1.2748 0.01539 0.14443 0.04473 0.37515 0.06521 0.5127 0.0686 0.46081 0.06811 0.45036 0.02281 0.49567-0.0561 0.0561-0.12747 0.05308-0.18853-8e-3zm-3.4513-4.8873c-0.44427-0.08049-0.85483-0.22687-1.126-0.40144-0.08973-0.05776-0.26474-0.20171-0.38892-0.31988-0.19037-0.18116-0.25682-0.2674-0.42372-0.54992l-0.19794-0.33507-0.18844 0.0015c-0.31118 0.0024-0.50512-0.09152-0.68123-0.32992-0.1643-0.22241-0.20404-0.35012-0.20404-0.65585-5e-6 -0.22302 0.01072-0.29405 0.07113-0.47124 0.03912-0.11475 0.1005-0.25236 0.1364-0.30581 0.08289-0.12341 0.24344-0.24194 0.38172-0.28179 0.09232-0.02661 0.10867-0.04151 0.11525-0.10508 0.0042-0.04074 0.04578-0.23726 0.09236-0.43671s0.09251-0.40766 0.10207-0.46268c0.0096-0.05502 0.05578-0.17684 0.10272-0.27071l0.08533-0.17067-0.14134-0.19197c-0.19904-0.27035-0.44807-0.70454-0.53836-0.93868-0.08665-0.22469-0.11758-0.47837-0.07667-0.62883 0.04443-0.16341 0.18159-0.36562 0.3106-0.4579 0.2113-0.15113 0.46288-0.1486 0.77946 0.0078 0.09732 0.04809 0.18928 0.08743 0.20436 0.08743 0.01592 0 0.0337-0.07497 0.04241-0.1789 0.02025-0.24158 0.08375-0.40615 0.21164-0.54855 0.19328-0.2152 0.41298-0.27044 0.73841-0.18568 0.22228 0.0579 0.40221 0.16323 0.76788 0.44953 0.1857 0.14539 0.39588 0.29223 0.46708 0.32632 0.21067 0.10085 0.56538 0.21079 0.84702 0.26253 0.44715 0.08215 0.38416 0.05841 1.3288 0.50094 0.34568 0.16195 0.56905 0.31107 0.80823 0.53958 0.24003 0.22932 0.39838 0.44432 0.51812 0.70348 0.15133 0.32754 0.28163 0.9396 0.28224 1.3257l2.12e-4 0.1313h0.08834c0.20043 0 0.39342 0.13164 0.50791 0.34644 0.21057 0.39508 0.14244 1.0085-0.13952 1.2561-0.05032 0.04418-0.17648 0.12088-0.28036 0.17044-0.16806 0.08018-0.21092 0.09012-0.38895 0.0902-0.11004 5e-5 -0.22402-0.0087-0.2533-0.01938-0.0478-0.01749-0.07072 0.01149-0.22509 0.28463-0.1321 0.23374-0.23303 0.37134-0.4362 0.5947-0.38353 0.42164-0.55781 0.57138-0.86432 0.74259-0.42179 0.2356-0.69799 0.32835-1.1848 0.39785-0.38587 0.05509-1.0214 0.06912-1.2505 0.02762zm1.0774-0.64022c0.46404-0.05515 0.88519-0.20868 1.2382-0.45138 0.10129-0.06964 0.51412-0.48994 0.67281-0.68498 0.10204-0.12542 0.42146-0.7202 0.5035-0.93756 0.07639-0.2024 0.22193-0.77754 0.26148-1.0334 0.06259-0.40479-0.02411-0.93511-0.21947-1.3424-0.09385-0.19566-0.14787-0.27059-0.3167-0.43924-0.23229-0.23204-0.44143-0.36486-0.84625-0.53743-0.15546-0.06627-0.35958-0.15533-0.45358-0.1979-0.094-0.04257-0.29096-0.10086-0.43767-0.12953-0.41231-0.08057-0.63295-0.14079-0.91506-0.24976-0.29602-0.11434-0.44347-0.20414-0.82898-0.50486-0.3068-0.23932-0.45668-0.32654-0.54055-0.31454-0.05278 0.0075-0.05922 0.02731-0.0874 0.26795-0.04626 0.39501-0.11875 0.53759-0.32071 0.6308-0.1847 0.08524-0.4971 0.04396-0.79135-0.10458-0.0798-0.04028-0.16109-0.07324-0.18064-0.07324-0.05464 0-0.06925 0.06979-0.03852 0.184 0.03943 0.14655 0.0741 0.20862 0.34163 0.61154 0.2586 0.38947 0.38464 0.51456 0.81704 0.8109 0.23586 0.16164 0.62369 0.34581 0.86047 0.40862 0.15334 0.04068 0.86179 0.08356 1.4048 0.08503 0.72831 2e-3 1.2593 0.16774 1.6629 0.51909 0.30428 0.26492 0.45631 0.54877 0.49929 0.93221l0.01542 0.13755-0.08272-0.21258c-0.0455-0.11692-0.12111-0.26886-0.16802-0.33763-0.19316-0.28318-0.55924-0.57487-0.81993-0.65333-0.17718-0.05332-0.5421-0.04103-1.1579 0.039-0.98998 0.12867-1.3504 0.12616-1.7173-0.01192-0.08895-0.03348-0.27807-0.0998-0.42026-0.14738-0.14219-0.04758-0.32974-0.12361-0.4168-0.16896-0.08705-0.04535-0.16557-0.0859-0.17449-0.09012-0.0089-0.0042-0.05103 0.05318-0.09357 0.12754-0.09273 0.16208-0.2163 0.65905-0.24062 0.96769-0.02836 0.35996 0.06093 0.9195 0.22333 1.3995 0.06057 0.17903 0.3731 0.72725 0.49142 0.862 0.13411 0.15274 0.41363 0.3632 0.58646 0.44157 0.5118 0.23206 0.95973 0.28447 1.6897 0.19771zm-3.4283-1.5105c0-0.0057-0.02745-0.12664-0.061-0.26885-0.03355-0.14221-0.07513-0.3566-0.0924-0.47642-0.03744-0.2597-0.06857-0.25765-0.14983 0.0099-0.09825 0.32346-0.03121 0.60969 0.16568 0.70734 0.07255 0.03598 0.13755 0.04924 0.13755 0.02806zm6.6968-0.4786c0.13583-0.05675 0.20216-0.1304 0.24384-0.27073 0.07773-0.26174 0.01491-0.49087-0.13458-0.49087-0.03978 0-0.08295 0.01407-0.09593 0.03126-0.02128 0.0282-0.20898 0.7052-0.20802 0.75029 6.38e-4 0.03101 0.09613 0.02123 0.19469-0.01995z" stroke-width=".02501"/></svg>
