<?xml version="1.0" encoding="UTF-8" standalone="no"?>
<!-- Created with Inkscape (http://www.inkscape.org/) -->

<svg
   xmlns:dc="http://purl.org/dc/elements/1.1/"
   xmlns:cc="http://creativecommons.org/ns#"
   xmlns:rdf="http://www.w3.org/1999/02/22-rdf-syntax-ns#"
   xmlns:svg="http://www.w3.org/2000/svg"
   xmlns="http://www.w3.org/2000/svg"
   xmlns:sodipodi="http://sodipodi.sourceforge.net/DTD/sodipodi-0.dtd"
   xmlns:inkscape="http://www.inkscape.org/namespaces/inkscape"
   width="44.742085"
   height="36.405403"
   id="svg4611"
   version="1.1"
   inkscape:version="0.48.4 r9939"
   sodipodi:docname="blog.svg">
  <defs
     id="defs4613" />
  <sodipodi:namedview
     id="base"
     pagecolor="#ffffff"
     bordercolor="#666666"
     borderopacity="1.0"
     inkscape:pageopacity="0.0"
     inkscape:pageshadow="2"
     inkscape:zoom="15.839192"
     inkscape:cx="28.126321"
     inkscape:cy="22.587065"
     inkscape:document-units="px"
     inkscape:current-layer="layer1"
     showgrid="false"
     fit-margin-top="0"
     fit-margin-left="0"
     fit-margin-right="0"
     fit-margin-bottom="0"
     inkscape:window-width="1920"
     inkscape:window-height="1056"
     inkscape:window-x="0"
     inkscape:window-y="24"
     inkscape:window-maximized="1" />
  <metadata
     id="metadata4616">
    <rdf:RDF>
      <cc:Work
         rdf:about="">
        <dc:format>image/svg+xml</dc:format>
        <dc:type
           rdf:resource="http://purl.org/dc/dcmitype/StillImage" />
        <dc:title></dc:title>
      </cc:Work>
    </rdf:RDF>
  </metadata>
  <g
     inkscape:label="Layer 1"
     inkscape:groupmode="layer"
     id="layer1"
     transform="translate(-352.76063,-513.77442)">
    <path
       style="font-size:medium;font-style:normal;font-variant:normal;font-weight:normal;font-stretch:normal;text-indent:0;text-align:start;text-decoration:none;line-height:normal;letter-spacing:normal;word-spacing:normal;text-transform:none;direction:ltr;block-progression:tb;writing-mode:lr-tb;text-anchor:start;baseline-shift:baseline;color:#000000;fill:#222222;fill-opacity:1;fill-rule:nonzero;stroke:none;stroke-width:1.1099385px;marker:none;visibility:visible;display:inline;overflow:visible;enable-background:accumulate;font-family:Sans;-inkscape-font-specification:Sans"
       d="M 37.53125,0.21875 C 37.446457,0.31202565 16.6875,18.734375 16.6875,18.734375 l -6.03125,12.546875 -0.5625,1.1875 1.25,-0.4375 12.8125,-4.453125 c 0,0 20.485728,-18.1212738 20.59375,-18.234375 C 44.858022,9.2306488 45.015609,9.0918676 44.9375,8.8125 44.859391,8.5331324 43.48109,5.65267 42.15625,3.9375 40.83141,2.22233 38.474374,0.39427965 38.125,0.125 37.775626,-0.14427965 37.616043,0.12547435 37.53125,0.21875 z m 0.6875,1.34375 1.75,2.28125 -20.375,17.75 c -1.304398,0.121424 -2.445804,0.06206 -1.5625,-1.9375 z m 2.9375,4 1.75,2.25 -20.375,17.78125 c -1.252917,0.126999 -2.408781,0.09542 -1.5625,-1.9375 z M 13.125,27.3125 15.34375,29.875 11.125,31.53125 z"
       transform="translate(352.54426,513.7658)"
       id="path4083"
       inkscape:connector-curvature="0"
       sodipodi:nodetypes="zccccczzszzcccccccccccccc" />
    <path
       style="font-size:medium;font-style:normal;font-variant:normal;font-weight:normal;font-stretch:normal;text-indent:0;text-align:start;text-decoration:none;line-height:normal;letter-spacing:normal;word-spacing:normal;text-transform:none;direction:ltr;block-progression:tb;writing-mode:lr-tb;text-anchor:start;baseline-shift:baseline;color:#000000;fill:#222222;fill-opacity:1;stroke:none;stroke-width:0.81999999;marker:none;visibility:visible;display:inline;overflow:visible;enable-background:accumulate;font-family:Sans;-inkscape-font-specification:Sans"
       d="m 372.46875,545.75 c -1.01255,0.008 -2.32785,0.39431 -3.875,0.90625 -1.54715,0.51194 -3.31718,1.16387 -5.125,1.6875 -3.57615,1.03581 -7.26076,1.57364 -9.75,0 -0.12948,-0.17335 -0.15986,-0.23727 -0.125,-0.3125 0.0379,-0.0818 0.24105,-0.31366 0.8125,-0.5 1.14289,-0.37269 3.54871,-0.62736 7.8125,-0.59375 a 0.410041,0.410041 0 1 0 0,-0.8125 c -4.29967,-0.0339 -6.72033,0.18734 -8.0625,0.625 -0.67108,0.21883 -1.11403,0.50913 -1.3125,0.9375 -0.19847,0.42837 -0.0121,0.88832 0.25,1.21875 l 0.0312,0.0312 0.0625,0.0625 c 2.86526,1.88608 6.84822,1.19177 10.53125,0.125 1.84151,-0.53338 3.59423,-1.18098 5.125,-1.6875 1.53077,-0.50652 2.83603,-0.86868 3.625,-0.875 l 0.0312,0 c 1.62027,-0.0643 2.71768,0.0198 3.4375,0.15625 0.71982,0.13645 1.02905,0.32369 1.1875,0.5 0.15845,0.17631 0.20414,0.3682 0.25,0.65625 0.0459,0.28805 0.0951,0.68583 0.375,1.03125 a 0.41013765,0.41013765 0 1 0 0.625,-0.53125 c -0.1056,-0.13032 -0.13866,-0.31817 -0.1875,-0.625 -0.0488,-0.30683 -0.11638,-0.70519 -0.4375,-1.0625 -0.32112,-0.35731 -0.83595,-0.62575 -1.65625,-0.78125 -0.8203,-0.1555 -1.96895,-0.22202 -3.625,-0.15625 z"
       id="path4085"
       inkscape:connector-curvature="0" />
  </g>
</svg>
