<?xml version="1.0" encoding="UTF-8"?>
<svg width="50" height="50" version="1.1" viewBox="0 0 13.229 13.229" xmlns="http://www.w3.org/2000/svg"><path d="m1.3505 11.13c-1.1259-0.02066-1.1615-0.05407-1.2778-0.10078-0.08397-0.03363-0.09825-0.15667-0.02649-0.22834 0.061-0.061 0.07078-0.06144 0.79013-0.03396 0.4006 0.01528 0.42645 0.02396 0.76823 0.01923l0.62144-0.0088 0.01517-0.07968c0.0088-0.04385 0.04242-0.20537 0.07572-0.35895s0.0943-0.46223 0.1356-0.68587c0.09759-0.5288 0.21038-0.9562 0.27664-1.0483 0.07451-0.10364 0.23928-0.11553 0.32641-0.023629 0.05671 0.059787 0.06243 0.09023 0.04836 0.25881-0.02561 0.30843-0.1054 0.99626-0.12445 1.072-0.01308 0.05209 0.01198 0.10935 0.09902 0.22638 0.06418 0.08616 0.1512 0.1886 0.19352 0.22771l0.07693 0.07111 0.28674-0.06539c0.15771-0.03594 0.45358-0.11754 0.65749-0.18134 0.20391-0.06374 0.41284-0.11599 0.46428-0.11599 0.12205 0 0.23783 0.11303 0.23783 0.23218 0 0.1542-0.10023 0.22654-0.51439 0.37124-0.4811 0.16807-1.5372 0.43198-1.8665 0.46639-0.04044 0.0044-0.60918-0.0022-1.2639-0.01418zm3.9943-1.0499c-0.12186-0.10891-0.13051-0.26653-0.02319-0.42364 0.22504-0.32959 1.3376-1.4648 2.275-2.3212 0.25867-0.23633 0.83405-0.79677 1.2786-1.2454 0.44458-0.44864 0.87445-0.86824 0.95528-0.93244 0.25057-0.19899 0.95529-0.89071 0.95529-0.93765 0-0.024508-0.0455-0.22688-0.10122-0.44976-0.11314-0.45318-0.14844-0.50923-0.40799-0.648-0.083745-0.04473-0.23332-0.13849-0.33249-0.20832l-0.1803-0.12696-0.29698 0.025827c-0.16334 0.014177-0.3216 0.019343-0.35171 0.01143-0.06869-0.017914-0.14722 0.049676-1.0776 0.92745-0.78095 0.73679-1.256 1.2042-1.9002 1.8699-0.38232 0.39501-1.023 1.0285-2.1561 2.1321-0.291 0.2834-0.57182 0.53287-0.62405 0.55437-0.11062 0.045499-0.22095 0.025168-0.30185-0.05572-0.08957-0.08957-0.10232-0.19412-0.04044-0.3325 0.06561-0.14666 0.60289-0.71079 0.93688-0.98372 0.2822-0.2306 1.6188-1.5688 2.3417-2.3445 0.28562-0.30648 0.78113-0.80194 1.1011-1.101s0.69475-0.64986 0.83278-0.77952c0.36674-0.34448 0.56656-0.50744 0.67979-0.55442 0.06407-0.026596 0.28178-0.049236 0.6026-0.062864 0.55578-0.023519 0.56145-0.02231 0.76193 0.16057 0.06484 0.059127 0.20374 0.16513 0.30863 0.23551 0.3435 0.23049 0.49059 0.37306 0.58631 0.56835 0.09605 0.19598 0.19478 0.59975 0.23728 0.97057 0.02319 0.20224 0.0189 0.24951-0.03616 0.39681-0.0533 0.14244-0.11732 0.22097-0.43248 0.5301-0.20347 0.19959-0.46254 0.44245-0.57571 0.53971-0.334 0.28704-3.8403 3.7656-4.224 4.1905-0.19374 0.21457-0.39002 0.40968-0.43619 0.43355-0.13039 0.06737-0.25018 0.05418-0.35457-0.03902zm6.3081-0.75701c-0.485-0.02088-1.153-0.05122-1.4844-0.06715-0.33141-0.01605-0.99937-0.03055-1.4844-0.0322-0.48499-0.0022-0.95768-0.01099-1.0504-0.02088l-0.1686-0.0178 0.12336-0.14736 0.12338-0.14736 1.1475 0.01967c0.63112 0.01099 1.7493 0.04572 2.4849 0.07748 0.73556 0.03176 0.76143 0.05781 0.94779 0.05792 0.37312 1.65e-4 0.46949 0.03341 0.46949 0.16185 0 0.03913-0.0289 0.09034-0.06528 0.11591-0.0799 0.05594 0.25588 0.05594-1.0433-6.6e-5zm-7.0817-0.02978c-0.10913-0.10913-0.08539-0.1411 0.71695-0.96348 0.20268-0.20774 0.58676-0.57655 0.8535-0.81958 0.26674-0.24304 0.98173-0.93283 1.5889-1.5329 2.3276-2.3004 2.3385-2.3108 2.4191-2.3108 0.08627 0 0.14625 0.085394 0.11714 0.16689-0.05088 0.14253-0.41921 0.52499-1.4372 1.4926-0.32244 0.30646-0.90421 0.87522-1.2928 1.2639-0.38861 0.38869-0.93091 0.9132-1.2051 1.1656-0.27422 0.25237-0.74327 0.71209-1.0424 1.0216-0.55725 0.5767-0.6156 0.61865-0.71803 0.51621zm-3.8114-0.30481s-0.60365 0.06985-0.5619-0.16532c0.02308-0.12998 0.12033-0.1781 0.4023-0.15958 0.46927 7.69e-5 0.98281 0.00879 1.1412 0.019233l0.28797 0.019013-0.0088 0.14979c-0.0088 0.14955-0.0088 0.1498-0.1116 0.15151-0.0566 9.45e-4 -0.57373-0.0055-1.1492-0.01473zm3.1196-0.38191c-0.062644-0.11694-0.030223-0.15336 1.2188-1.3712 0.2425-0.23644 0.54672-0.52235 0.67605-0.63535 0.12933-0.113 0.82375-0.78957 1.5432-1.5035 1.356-1.3457 1.9812-1.9389 2.101-1.9935 0.10913-0.049676 0.22109-0.00879 0.22109 0.080998 0 0.11819-0.03781 0.16524-0.38926 0.48474-0.18199 0.16544-0.90625 0.87082-1.6095 1.5675-0.70323 0.69671-1.4109 1.3807-1.5725 1.52s-0.64446 0.60058-1.0729 1.0251c-0.42841 0.42446-0.81861 0.79653-0.86711 0.82679-0.11353 0.070887-0.21036 0.070228-0.24881-0.0011zm7.7882-1.5644c-0.52541-0.013408-1.2245-0.032531-1.5535-0.042642l-0.59826-0.018244 0.31472-0.32153 0.57317 0.017145c0.31524 0.00989 1.1552-0.023094 1.8665-0.00485 0.57959 0.022955 0.46296 0.031045 0.61631 0.13311 0.06671 0.049179 0.06572 0.16089-0.0022 0.2224-0.06133 0.0555 0.45226 0.057149-1.2166 0.014617zm-11.341-0.17565c-0.10892-0.027569-0.01506-0.1911 0.12716-0.22713 0.12878-0.032641 0.83828-0.051434 2.2185-0.040884l0.95428 0.00769-0.15727 0.15925-0.15726 0.15924-1.7585-0.0011c-0.41264-0.00488-0.82412 0.030407-1.2268-0.057061zm11.965-1.906c-0.3602-0.012199-0.66269-0.029893-0.67218-0.039345-0.0099-0.00989 0.04671-0.092208 0.12501-0.18382l0.14229-0.16656 0.22766 0.020881c1.0426 0.095628 1.0884 0.030003 1.0884 0.18797 0 0.046928-0.02682 0.10715-0.06177 0.13881-0.05429 0.049126-0.11407 0.05638-0.49234 0.060007-0.23684 0.0022 0.0031-0.0055-0.35709-0.017914zm-11.842-0.074843c-0.10976-0.00456-0.09682-0.17325-0.0466-0.23365 0.07572-0.091219-0.2638-0.10243 1.7559-0.10781 1.1155-0.0033 2.3455-0.0033 2.7333-6.485e-4l0.70514 0.0044-0.17633 0.17633-0.17632 0.17632-2.658 0.00769c-1.7677 0.0044-1.8798-0.011923-1.9168-0.013461zm11.791-2.1891c-0.7482-0.012859-0.86428-0.021211-0.9495-0.0677-0.10419-0.056819-0.32911-0.26875-0.32911-0.31 0-0.026267 1.171-0.015716 1.7952 0.013958 0.30245 0.014397 0.37251 0.026596 0.41886 0.072865 0.07067 0.070667 0.07067 0.14814 0 0.23533-0.05297 0.065392-0.07341 0.068689-0.43355 0.069348-0.20782 4.176e-4 -0.03306-0.0055-0.50189-0.013958zm-11.746-0.1235c-0.15253-0.082427-0.15842-0.25523-0.01099-0.31146 0.26305-0.10012 1.523-0.12898 4.8199-0.084734 1.9892 0.026706 2.636 0.049456 2.65 0.093527 0.0055 0.016156-0.05374 0.10067-0.1309 0.18786l-0.14027 0.15847-1.0031-0.036927c-0.55168-0.020332-1.0157-0.029124-1.0312-0.019563-0.0155 0.00989-0.80037 0.0022-1.7442-0.016705-1.641-0.032641-1.8605-0.020991-3.1039 0.053632-0.16111 0.00989-0.25737 0.0022-0.30574-0.024068z" stroke-width=".029393"/></svg>
