<?xml version="1.0" encoding="UTF-8" standalone="no"?>
<!-- Created with Inkscape (http://www.inkscape.org/) -->
<svg xmlns:rdf="http://www.w3.org/1999/02/22-rdf-syntax-ns#" xmlns="http://www.w3.org/2000/svg" height="36.405" width="44.742" version="1.1" xmlns:cc="http://creativecommons.org/ns#" xmlns:dc="http://purl.org/dc/elements/1.1/">
<metadata>
<rdf:RDF>
<cc:Work rdf:about="">
<dc:format>image/svg+xml</dc:format>
<dc:type rdf:resource="http://purl.org/dc/dcmitype/StillImage"/>
<dc:title/>
</cc:Work>
</rdf:RDF>
</metadata>
<g fill="#222" transform="translate(-352.76063,-513.77442)">
<path style="baseline-shift:baseline;block-progression:tb;color:#000000;direction:ltr;text-indent:0;text-align:start;enable-background:accumulate;text-transform:none;" d="M37.531,0.21875c-0.085,0.09328-20.843,18.515-20.843,18.515l-6.0312,12.547-0.5625,1.1875,1.25-0.4375,12.812-4.4531s20.486-18.121,20.594-18.234c0.108-0.1124,0.266-0.2511,0.188-0.5305-0.079-0.2794-1.457-3.1598-2.782-4.875s-3.682-3.5432-4.031-3.8125c-0.349-0.26928-0.509,0.00047-0.594,0.09375zm0.6875,1.3438,1.75,2.2812-20.375,17.75c-1.3044,0.12142-2.4458,0.06206-1.5625-1.9375zm2.9375,4,1.75,2.25-20.375,17.781c-1.2529,0.127-2.4088,0.09542-1.5625-1.9375zm-28.031,21.749,2.219,2.563-4.219,1.656z" fill-rule="nonzero" transform="translate(352.54426,513.7658)"/>
<path style="baseline-shift:baseline;block-progression:tb;color:#000000;direction:ltr;text-indent:0;text-align:start;enable-background:accumulate;text-transform:none;" d="m372.47,545.75c-1.0126,0.008-2.3278,0.39431-3.875,0.90625s-3.3172,1.1639-5.125,1.6875c-3.5762,1.0358-7.2608,1.5736-9.75,0-0.12948-0.17335-0.15986-0.23727-0.125-0.3125,0.0379-0.0818,0.24105-0.31366,0.8125-0.5,1.1429-0.37269,3.5487-0.62736,7.8125-0.59375a0.41004,0.41004,0,1,0,0,-0.8125c-4.2997-0.0339-6.7203,0.18734-8.0625,0.625-0.67108,0.21883-1.114,0.50913-1.3125,0.9375-0.19847,0.42837-0.0121,0.88832,0.25,1.2188l0.0312,0.0312,0.0625,0.0625c2.8653,1.8861,6.8482,1.1918,10.531,0.125,1.8415-0.53338,3.5942-1.181,5.125-1.6875,1.5308-0.50652,2.836-0.86868,3.625-0.875h0.0312c1.6203-0.0643,2.7177,0.0198,3.4375,0.15625,0.71982,0.13645,1.029,0.32369,1.1875,0.5,0.15845,0.17631,0.20414,0.3682,0.25,0.65625,0.0459,0.28805,0.0951,0.68583,0.375,1.0312a0.41014,0.41014,0,1,0,0.625,-0.53125c-0.1056-0.13032-0.13866-0.31817-0.1875-0.625-0.0488-0.30683-0.11638-0.70519-0.4375-1.0625s-0.83595-0.62575-1.6562-0.78125c-0.8203-0.1555-1.969-0.22202-3.625-0.15625z"/>
</g>
</svg>
