<?xml version="1.0" encoding="UTF-8" standalone="no"?>
<svg
   width="50"
   height="50"
   viewBox="0 0 13.229166 13.229167"
   version="1.1"
   id="svg8"
   inkscape:version="1.2.2 (b0a8486541, 2022-12-01)"
   sodipodi:docname="blog.svg"
   xmlns:inkscape="http://www.inkscape.org/namespaces/inkscape"
   xmlns:sodipodi="http://sodipodi.sourceforge.net/DTD/sodipodi-0.dtd"
   xmlns="http://www.w3.org/2000/svg"
   xmlns:svg="http://www.w3.org/2000/svg"
   xmlns:rdf="http://www.w3.org/1999/02/22-rdf-syntax-ns#"
   xmlns:cc="http://creativecommons.org/ns#"
   xmlns:dc="http://purl.org/dc/elements/1.1/">
  <defs
     id="defs2" />
  <sodipodi:namedview
     id="base"
     pagecolor="#ffffff"
     bordercolor="#666666"
     borderopacity="1.0"
     inkscape:pageopacity="0.0"
     inkscape:pageshadow="2"
     inkscape:zoom="5.6"
     inkscape:cx="41.607143"
     inkscape:cy="25.625"
     inkscape:document-units="mm"
     inkscape:current-layer="layer1"
     inkscape:document-rotation="0"
     showgrid="false"
     units="px"
     inkscape:window-width="1420"
     inkscape:window-height="1011"
     inkscape:window-x="26"
     inkscape:window-y="23"
     inkscape:window-maximized="0"
     inkscape:snap-global="false"
     inkscape:showpageshadow="2"
     inkscape:pagecheckerboard="0"
     inkscape:deskcolor="#d1d1d1" />
  <metadata
     id="metadata5">
    <rdf:RDF>
      <cc:Work
         rdf:about="">
        <dc:format>image/svg+xml</dc:format>
        <dc:type
           rdf:resource="http://purl.org/dc/dcmitype/StillImage" />
      </cc:Work>
    </rdf:RDF>
  </metadata>
  <g
     inkscape:label="Layer 1"
     inkscape:groupmode="layer"
     id="layer1">
    <path
       style="fill:#000000;stroke-width:0.0293934"
       d="m 1.3504615,11.130482 c -1.12591299,-0.02066 -1.16150299,-0.05407 -1.27782299,-0.10078 -0.08397,-0.03363 -0.09825,-0.156666 -0.02649,-0.228344 0.061,-0.061 0.07078,-0.06144 0.79013,-0.03396 0.40060399,0.01528 0.42644599,0.02396 0.76822999,0.01923 l 0.621441,-0.0088 0.01517,-0.07968 c 0.0088,-0.04385 0.04242,-0.205374 0.07572,-0.358951 0.0333,-0.153577 0.0943,-0.4622263 0.135598,-0.6858663 0.09759,-0.528805 0.210385,-0.9562032 0.276645,-1.0483451 0.07451,-0.1036376 0.239279,-0.1155291 0.326409,-0.023629 0.05671,0.059787 0.06243,0.09023 0.04836,0.2588081 -0.02561,0.30843 -0.105396,0.996263 -0.124453,1.071996 -0.01308,0.05209 0.01198,0.1093533 0.09902,0.2263773 0.06418,0.08616 0.151203,0.188603 0.193515,0.227706 l 0.07693,0.07111 0.286745,-0.06539 c 0.15771,-0.03594 0.453577,-0.117541 0.657489,-0.181339 0.203913,-0.06374 0.412837,-0.11599 0.464282,-0.11599 0.122046,0 0.237828,0.113034 0.237828,0.232179 0,0.154203 -0.100231,0.226541 -0.514386,0.371238 -0.481096,0.168073 -1.537244,0.431981 -1.866478,0.466391 -0.04044,0.0044 -0.609176,-0.0022 -1.263918,-0.01418 z m 3.994347,-1.049895 C 5.2229495,9.9716737 5.2143005,9.8140527 5.3216185,9.6569477 5.5466545,9.3273617 6.6592145,8.1921944 7.5966025,7.3357056 7.8552685,7.0993721 8.4306495,6.5389375 8.8752255,6.0902953 9.3198015,5.641653 9.7496725,5.2220579 9.8305055,5.1578531 10.081071,4.9588644 10.785796,4.2671407 10.785796,4.2202015 c 0,-0.024508 -0.0455,-0.2268818 -0.101219,-0.4497632 C 10.571433,3.3172571 10.536133,3.261207 10.276588,3.1224337 10.192843,3.0777035 10.043266,2.9839461 9.9441005,2.9141143 l -0.180305,-0.1269589 -0.296977,0.025827 c -0.163337,0.014177 -0.321596,0.019343 -0.351709,0.01143 -0.06869,-0.017914 -0.147225,0.049676 -1.077634,0.9274526 -0.780953,0.7367945 -1.25595,1.2042081 -1.900218,1.869852 -0.382316,0.39501 -1.022957,1.0285295 -2.15607,2.1321112 -0.290998,0.2834045 -0.57182,0.5328712 -0.624046,0.5543681 -0.110616,0.045499 -0.220947,0.025168 -0.301846,-0.05572 -0.08957,-0.08957 -0.102318,-0.19412 -0.04044,-0.3324977 0.06561,-0.1466643 0.60289,-0.7107917 0.936883,-0.9837225 0.282195,-0.2305965 1.618835,-1.5688411 2.341705,-2.344497 0.285625,-0.3064839 0.781129,-0.8019445 1.10112,-1.101021 0.319991,-0.2990765 0.694746,-0.6498619 0.832783,-0.7795244 0.366743,-0.3444771 0.566556,-0.5074399 0.679788,-0.554423 0.06407,-0.026596 0.281778,-0.049236 0.602604,-0.062864 0.5557755,-0.023519 0.5614465,-0.02231 0.7619295,0.1605669 0.06484,0.059127 0.203737,0.1651279 0.308627,0.2355092 0.343499,0.2304866 0.490592,0.3730626 0.586306,0.5683476 0.09605,0.1959774 0.194779,0.5997466 0.237279,0.9705672 0.02319,0.2022418 0.0189,0.2495107 -0.03616,0.3968124 -0.0533,0.1424441 -0.117321,0.2209691 -0.432476,0.5301017 -0.203473,0.1995931 -0.462545,0.4424547 -0.575711,0.5397071 -0.334003,0.2870422 -3.8403415,3.7655749 -4.2239765,4.1905009 -0.193736,0.214573 -0.390021,0.4096823 -0.436191,0.4335523 -0.130387,0.06737 -0.250181,0.05418 -0.354566,-0.03902 z M 11.652859,9.3235817 c -0.484998,-0.02088 -1.152961,-0.05122 -1.484371,-0.06715 -0.3314095,-0.01605 -0.9993725,-0.03055 -1.4843705,-0.0322 -0.484987,-0.0022 -0.957676,-0.01099 -1.050411,-0.02088 l -0.168601,-0.0178 0.123365,-0.147357 0.123376,-0.147357 1.147488,0.01967 c 0.631124,0.01099 1.7493225,0.04572 2.4848975,0.07748 0.735563,0.03176 0.761433,0.05781 0.947794,0.05792 0.373118,1.65e-4 0.469491,0.03341 0.469491,0.161853 0,0.03913 -0.0289,0.09034 -0.06528,0.115914 -0.0799,0.05594 0.255875,0.05594 -1.043332,-6.6e-5 z m -7.0817165,-0.02978 c -0.109133,-0.109133 -0.08539,-0.141103 0.716946,-0.9634783 0.202681,-0.207737 0.586756,-0.5765463 0.853499,-0.8195838 0.266744,-0.2430374 0.981734,-0.9328268 1.588866,-1.5328702 2.3275505,-2.3003713 2.3384855,-2.310812 2.4191205,-2.310812 0.08627,0 0.146247,0.085394 0.117145,0.1668863 C 10.215839,3.9764757 9.8475075,4.3589349 8.8294735,5.3265128 8.5070325,5.6329707 7.9252655,6.201736 7.5366625,6.5904266 7.1480495,6.9791173 6.6057485,7.503625 6.3315315,7.7559931 6.0573155,8.0083612 5.5882635,8.4680816 5.2891765,8.7775878 4.7319285,9.3542877 4.6735815,9.3962377 4.5711425,9.2937977 Z M 0.75971651,8.9889887 c 0,0 -0.603654,0.06985 -0.5619,-0.165315 0.02308,-0.1299832 0.120326,-0.178101 0.4023,-0.1595777 0.46927099,7.69e-5 0.98280999,0.00879 1.14118999,0.019233 l 0.287966,0.019013 -0.0088,0.1497857 c -0.0088,0.149554 -0.0088,0.149796 -0.111605,0.151511 -0.0566,9.45e-4 -0.573733,-0.0055 -1.14922399,-0.01473 z M 3.8793305,8.6070748 C 3.8166865,8.4901389 3.8491075,8.4537174 5.0981225,7.2358485 5.3406215,6.9994052 5.6448415,6.713495 5.7741745,6.6004937 c 0.129333,-0.1130014 0.823749,-0.7895695 1.543157,-1.5034934 1.356027,-1.3457069 1.981216,-1.9389034 2.100987,-1.9934808 0.109133,-0.049676 0.22109,-0.00879 0.22109,0.080998 0,0.1181887 -0.03781,0.1652377 -0.389262,0.484745 -0.181987,0.1654356 -0.906253,0.8708201 -1.609494,1.5675223 -0.703231,0.6967133 -1.410879,1.3807218 -1.572545,1.5200227 -0.161666,0.1393009 -0.644455,0.6005819 -1.072864,1.0250566 -0.428409,0.4244638 -0.818606,0.7965263 -0.867106,0.8267933 -0.113528,0.070887 -0.210363,0.070228 -0.248807,-0.0011 z M 11.667553,7.0426737 C 11.142144,7.0292656 10.443046,7.0101427 10.11401,7.0000317 L 9.5157465,6.9817877 9.6731045,6.821023 9.8304625,6.6602582 10.403635,6.6774032 c 0.315243,0.00989 1.155159,-0.023094 1.866489,-0.00485 0.57959,0.022955 0.462955,0.031045 0.616308,0.1331057 0.06671,0.049179 0.06572,0.1608857 -0.0022,0.2223979 -0.06133,0.0555 0.45226,0.057149 -1.21657,0.014617 z M 0.32654451,6.8670282 c -0.108924,-0.027569 -0.01506,-0.1910978 0.127157,-0.2271346 0.128783,-0.032641 0.83828199,-0.051434 2.21846499,-0.040884 l 0.954279,0.00769 -0.157269,0.1592481 -0.157259,0.1592371 -1.758532,-0.0011 C 1.1407435,6.9192048 0.72926951,6.9544918 0.32654451,6.8670238 Z M 12.291258,4.9610734 c -0.360204,-0.012199 -0.662688,-0.029893 -0.672183,-0.039345 -0.0099,-0.00989 0.04671,-0.092208 0.125013,-0.1838222 l 0.142291,-0.1665566 0.227661,0.020881 c 1.042591,0.095628 1.088371,0.030003 1.088371,0.1879655 0,0.046928 -0.02682,0.1071545 -0.06177,0.1388063 -0.05429,0.049126 -0.114067,0.05638 -0.492339,0.060007 -0.236839,0.0022 0.0031,-0.0055 -0.357093,-0.017914 z M 0.44954751,4.8862304 c -0.109759,-0.00456 -0.09682,-0.1732496 -0.0466,-0.2336518 0.07572,-0.091219 -0.263805,-0.1024287 1.75587599,-0.1078139 1.115484,-0.0033 2.345464,-0.0033 2.733298,-6.485e-4 l 0.705142,0.0044 -0.176326,0.1763269 -0.176316,0.1763159 -2.65796,0.00769 C 0.81893051,4.913249 0.70688651,4.896926 0.66989151,4.895388 Z M 12.240725,2.6971017 c -0.748202,-0.012859 -0.864281,-0.021211 -0.949499,-0.0677 -0.104187,-0.056819 -0.329113,-0.2687546 -0.329113,-0.3100008 0,-0.026267 1.171039,-0.015716 1.795195,0.013958 0.30245,0.014397 0.372513,0.026596 0.418858,0.072865 0.07067,0.070667 0.07067,0.148137 0,0.2353333 -0.05297,0.065392 -0.07341,0.068689 -0.433552,0.069348 -0.207825,4.176e-4 -0.03306,-0.0055 -0.501889,-0.013958 z M 0.49464051,2.5736047 c -0.152533,-0.082427 -0.158424,-0.2552256 -0.01099,-0.3114625 0.263051,-0.1001208 1.52299399,-0.1289811 4.81985799,-0.084734 1.989162,0.026706 2.636023,0.049456 2.650047,0.093527 0.0055,0.016156 -0.05374,0.1006703 -0.130904,0.1878556 l -0.140269,0.158467 -1.003055,-0.036927 c -0.551675,-0.020332 -1.015715,-0.029124 -1.031189,-0.019563 -0.0155,0.00989 -0.800373,0.0022 -1.744234,-0.016705 -1.640959,-0.032641 -1.860469,-0.020991 -3.10390099,0.053632 -0.161106,0.00989 -0.257369,0.0022 -0.305737,-0.024068 z"
       id="path854"
       sodipodi:nodetypes="ssssscssssssssscsssssscscssssssscssssssssssssssssssssssssccssccccscscccssssssssssscscscsccssccssssssssscscscssccccssscccsssccssscsssssssccssscsssscccssssscsscsscccccc" />
  </g>
</svg>
