<?xml version="1.0" encoding="UTF-8" standalone="no"?>
<!-- Created with Inkscape (http://www.inkscape.org/) -->
<svg xmlns:rdf="http://www.w3.org/1999/02/22-rdf-syntax-ns#" xmlns="http://www.w3.org/2000/svg" height="36.844" width="44.406" version="1.1" xmlns:cc="http://creativecommons.org/ns#" xmlns:dc="http://purl.org/dc/elements/1.1/">
<metadata>
<rdf:RDF>
<cc:Work rdf:about="">
<dc:format>image/svg+xml</dc:format>
<dc:type rdf:resource="http://purl.org/dc/dcmitype/StillImage"/>
<dc:title/>
</cc:Work>
</rdf:RDF>
</metadata>
<g transform="translate(-289.22134,-365.36865)">
<path fill="#222" d="M44.594,0.8125c-8.174,5.3927-13.218-3.3817-21.782,2.4063-5.799-6.8128-17.338,4.8425-22.437-2.3126l-0.09375,36.062c6.1002-0.0368,8.3578-5.2984,22.375-0.625,13.871-4.4455,16.673,0.26796,22.031,1.3125l-0.093-36.844zm-17.906,3c3.747-0.2495,10.628,2.4154,15.406,0.9063l-0.094,7.6562c-3.678-1.055-13.921-2.139-17.344-0.656v-7.1875c0.468-0.4542,1.167-0.6614,2.032-0.719zm-9.3438,0.375c1.127-0.0057,2.145,0.1816,3.031,0.6875v4c-3.243-0.8264-6.109,0.0374-9.594,0.625v-4.2812c2.484-0.4748,4.684-1.0218,6.563-1.0313zm-10.219,1.3125v16.344c-2.184-0.33679-3.1975,0.42058-4.75,0.25l-0.0625-16.406c1.6855,1.0517,3.0467,0.7006,4.8125-0.1875zm9.3438,7.2188c0.2598-0.01725,0.53926-0.01196,0.8125,0,0.72863,0.0319,1.5155,0.17446,2.4062,0.5v8.25c-3.1432-0.61723-5.3299-0.52034-8.875,0.25l0.09375-7.7812c2.2035-0.32839,3.7439-1.098,5.5625-1.2188zm14.093,1.531c4.2372,0.0055,8.3011,1.0084,11.188,1.2188l0.1875,7.375c-4.4992,0.61661-13.012-1.7339-17.156-0.375v-7.4375c1.902-0.573,3.854-0.785,5.78-0.782zm-14.594,9.6875c1.346,0.01269,2.5188,0.19872,3.375,0.65625l0.095,7.344c-4.978-2.19-12.414-1.13-17.219,0.75v-7.7188c4.0332,0.35456,9.7119-1.0693,13.75-1.0312zm12.469,1.875c3.974-0.0286,9.5621,1.0477,13.531,0.78125v5.7812c-4.729-1.412-12.038-2.208-16.937-0.563l0.094-5.531c0.84262-0.34381,1.9878-0.45922,3.3125-0.46875z" transform="translate(288.94009,364.55615)"/>
</g>
</svg>
