<?xml version="1.0" encoding="UTF-8" standalone="no"?>
<svg
   xmlns:dc="http://purl.org/dc/elements/1.1/"
   xmlns:cc="http://creativecommons.org/ns#"
   xmlns:rdf="http://www.w3.org/1999/02/22-rdf-syntax-ns#"
   xmlns:svg="http://www.w3.org/2000/svg"
   xmlns="http://www.w3.org/2000/svg"
   xmlns:sodipodi="http://sodipodi.sourceforge.net/DTD/sodipodi-0.dtd"
   xmlns:inkscape="http://www.inkscape.org/namespaces/inkscape"
   width="50"
   height="50"
   viewBox="0 0 13.229166 13.229167"
   version="1.1"
   id="svg8"
   inkscape:version="1.0.2 (e86c8708, 2021-01-15)"
   sodipodi:docname="icon_comic.svg">
  <defs
     id="defs2" />
  <sodipodi:namedview
     id="base"
     pagecolor="#ffffff"
     bordercolor="#666666"
     borderopacity="1.0"
     inkscape:pageopacity="0.0"
     inkscape:pageshadow="2"
     inkscape:zoom="5.6"
     inkscape:cx="32.781058"
     inkscape:cy="20.631828"
     inkscape:document-units="mm"
     inkscape:current-layer="layer1"
     inkscape:document-rotation="0"
     showgrid="false"
     units="px"
     inkscape:window-width="1420"
     inkscape:window-height="1027"
     inkscape:window-x="0"
     inkscape:window-y="25"
     inkscape:window-maximized="0" />
  <metadata
     id="metadata5">
    <rdf:RDF>
      <cc:Work
         rdf:about="">
        <dc:format>image/svg+xml</dc:format>
        <dc:type
           rdf:resource="http://purl.org/dc/dcmitype/StillImage" />
        <dc:title />
      </cc:Work>
    </rdf:RDF>
  </metadata>
  <g
     inkscape:label="Layer 1"
     inkscape:groupmode="layer"
     id="layer1">
    <path
       style="fill:#000000;stroke-width:0.0193599"
       d="m 0.74062405,10.848431 c -0.380374,-0.02797 -0.5973,-0.09144 -0.674728,-0.197421 -0.0657099959,-0.08994 -0.08526,-0.556667 -0.04508,-1.0762462 0.03227,-0.417276 0.05334,-0.975778 0.09071,-2.404451 0.01072,-0.409947 0.02782,-0.889105 0.038,-1.064797 0.04073,-0.703397 0.05868,-1.161246 0.06906,-1.761754 0.01524,-0.881546 0.04184,-1.082461 0.159799,-1.20661 0.114663,-0.12068 0.113409,-0.120491 0.73976605,-0.111674 0.335155,0.0047 0.410105,-3.84e-4 0.667918,-0.04533 0.159719,-0.02785 0.447214,-0.09372 0.638878,-0.146375 0.641266,-0.176169 1.218984,-0.303297 1.897273,-0.417497 0.289826,-0.0488 0.334677,-0.05138 0.696957,-0.04012 0.21296,0.0066 0.488602,0.02533 0.612541,0.04159 0.253063,0.03319 0.625508,0.131235 0.805708,0.212105 0.07404,0.03323 0.136492,0.04939 0.163822,0.04239 0.02429,-0.0062 0.109033,-0.02911 0.188316,-0.05086 0.565563,-0.155176 1.533932,-0.176486 2.271815,-0.04999 0.332922,0.05707 1.4460209,0.279175 1.4683799,0.292994 0.02583,0.01596 0.865589,0.221147 1.100836,0.268975 0.36929,0.07508 0.581343,0.09439 0.889968,0.08103 0.245257,-0.01062 0.291117,-0.0078 0.349195,0.02134 0.08176,0.04104 0.146659,0.134573 0.183639,0.264663 0.03529,0.124169 0.06227,1.061697 0.07774,2.701927 0.0062,0.65485 0.01929,1.351807 0.02914,1.548794 0.07059,1.412011 0.09016,2.6845152 0.04362,2.8371532 -0.01314,0.0431 -0.04976,0.103149 -0.08139,0.133445 -0.04845,0.04642 -0.07972,0.05716 -0.198747,0.06826 -0.300861,0.02807 -0.973588,-0.03568 -1.515809,-0.143646 -0.311052,-0.06194 -0.734715,-0.140303 -0.842157,-0.155776 -0.106762,-0.01538 -0.6401259,-0.114427 -0.8905569,-0.165386 -0.236497,-0.04812 -0.840519,-0.138496 -1.295444,-0.193823 -0.281118,-0.03419 -0.408005,-0.04075 -0.600158,-0.03104 -0.251929,0.01273 -0.6826,0.07807 -0.969667,0.147113 -0.213966,0.05146 -0.308452,0.05008 -0.684756,-0.01004 -0.510792,-0.08159 -0.748774,-0.0965 -1.331177,-0.08338 -0.750327,0.01691 -1.042978,0.0658 -1.739894,0.290702 -0.374782,0.120945 -0.685172,0.200254 -1.268076,0.324015 -0.388678,0.08252 -0.692347,0.105677 -1.04543705,0.07971 z M 1.1762231,10.325614 c 0.101156,-0.01048 0.253615,-0.03273 0.338798,-0.04943 0.329956,-0.06471 1.085741,-0.263163 1.43349,-0.3763962 0.663737,-0.216125 1.071022,-0.284701 1.80057,-0.303167 0.545768,-0.01381 0.83886,0.0062 1.234417,0.08434 0.136406,0.02694 0.253479,0.04351 0.260164,0.03683 0.0067,-0.0067 0.01999,-1.307872 0.02957,-2.891526 0.0096,-1.583654 0.02136,-3.051025 0.02618,-3.260825 l 0.0088,-0.381454 -0.06075,-0.03142 c -0.09508,-0.04917 -0.445119,-0.141846 -0.652593,-0.172786 -0.103656,-0.01546 -0.353994,-0.03389 -0.556305,-0.04096 -0.353965,-0.01237 -0.381014,-0.01059 -0.717143,0.04721 -0.630388,0.108411 -1.166232,0.227295 -1.74716,0.387631 -0.336259,0.09281 -0.575672,0.144158 -0.923686,0.198114 -0.08626,0.01337 -0.306217,0.02285 -0.496454,0.02139 l -0.34157405,-0.0026 -0.0087,0.05934 c -0.0048,0.03264 -0.01044,0.278346 -0.01255,0.546013 -0.0039,0.489894 -0.01778,0.820764 -0.06971,1.657945 -0.01552,0.250227 -0.03712,0.777301 -0.04799,1.171275 -0.01087,0.393975 -0.02439,0.79037 -0.03003,0.880877 -0.0056,0.09051 -0.02313,0.469005 -0.03886,0.841104 -0.01572,0.372099 -0.0378,0.772849 -0.04905,0.890557 -0.01125,0.117707 -0.01779,0.318556 -0.01452,0.4463322 l 0.0059,0.232319 0.17424,0.01086 c 0.09583,0.006 0.196019,0.01236 0.222639,0.01418 0.02662,0.0018 0.13116305,-0.0053 0.23231905,-0.01573 z m -0.37839405,-0.179369 -0.0572,-0.04918 -0.0059,-0.6119862 c -0.0035,-0.367716 0.0027,-0.683285 0.01564,-0.790618 0.01183,-0.09825 0.02881,-0.335448 0.03775,-0.527111 0.0093,-0.199486 0.02645,-0.370682 0.04011,-0.40041 0.03151,-0.06857 0.09022,-0.08831 0.29956005,-0.100742 0.210071,-0.01247 0.511509,-0.05127 0.934051,-0.120202 0.4874,-0.07952 0.504163,-0.06406 0.472001,0.435315 -0.01139,0.176857 -0.02585,0.665681 -0.03214,1.086276 -0.01208,0.808408 -0.0137,0.821889 -0.10465,0.870563 -0.04781,0.02559 -0.338531,0.08209 -0.698142,0.1356882 -0.154395,0.02301 -0.337347,0.05519 -0.406559,0.07151 -0.06921,0.01632 -0.195928,0.03426 -0.281593,0.03987 -0.14624405,0.0096 -0.15925005,0.0072 -0.21296005,-0.03897 z M 1.7684301,9.7855398 c 0.128726,-0.02161 0.289897,-0.0592 0.358159,-0.08351 l 0.12411,-0.04421 0.0135,-0.880751 c 0.01262,-0.82293 0.009,-1.025951 -0.01824,-1.025951 -0.0061,0 -0.107656,0.01707 -0.225776,0.03792 -0.118122,0.02086 -0.297528,0.05239 -0.398683,0.07006 -0.101156,0.01768 -0.271039,0.03764 -0.377519,0.04436 l -0.1936,0.01221 -0.02356,0.358159 c -0.01296,0.196987 -0.0293401,0.63173 -0.0364001,0.966094 l -0.01284,0.607936 0.278398,-0.01151 c 0.15312,-0.0063 0.383721,-0.02919 0.512448,-0.05081 z m 1.050917,-0.03392 c -0.03577,-0.04347 -0.03328,-0.786159 0.0028,-0.829617 0.04314,-0.05198 0.314221,-0.122135 0.553195,-0.143161 0.889342,-0.07825 1.929478,-0.09434 2.331118,-0.03606 0.29761,0.04318 0.41957,0.08119 0.43782,0.136441 0.0078,0.02374 0.01192,0.156234 0.0091,0.294435 -0.0075,0.363481 -0.04482,0.41794 -0.26021,0.379849 -0.430605,-0.07615 -1.160511,-0.08613 -1.696747,-0.02319 -0.405029,0.04754 -0.652028,0.09224 -1.020135,0.18462 -0.315934,0.07929 -0.321359,0.07984 -0.35689,0.03668 z m 0.41388,-0.285552 c 0.433771,-0.116282 0.965741,-0.182952 1.587265,-0.198929 0.412123,-0.01059 0.90443,0.01111 1.026315,0.04525 0.02995,0.0084 0.03388,-0.0063 0.03388,-0.126655 0,-0.160466 -0.0047,-0.164799 -0.199813,-0.18397 -0.697893,-0.06857 -1.52378,-0.04672 -2.469719,0.06534 -0.07868,0.0093 -0.154934,0.02882 -0.169445,0.04333 -0.02559,0.02559 -0.06772,0.393265 -0.04739,0.413592 0.0052,0.0052 0.02075,0.005 0.03462,-2.75e-4 0.01387,-0.0053 0.105802,-0.03128 0.20429,-0.05768 z m -0.389543,-0.831411 c -0.06403,-0.06815 -0.0837,-0.24656 -0.07654,-0.694266 0.0069,-0.434246 0.01745,-0.479457 0.126241,-0.542802 0.06324,-0.03682 0.569336,-0.147653 0.848028,-0.185708 0.392585,-0.0536 0.59253,-0.08125 0.735678,-0.101702 0.323436,-0.04622 1.276553,0.02558 1.513757,0.114034 0.169155,0.06308 0.169743,0.06536 0.176258,0.682819 0.0038,0.358747 -0.0013,0.553424 -0.0151,0.57922 -0.02562,0.04788 -0.129591,0.103863 -0.166543,0.08968 -0.08286,-0.0318 -0.67722,-0.07542 -1.005019,-0.07377 -0.533059,0.0027 -1.405546,0.07845 -1.82961,0.158876 -0.172325,0.03268 -0.258628,0.02527 -0.307156,-0.02639 z m 0.511247,-0.262254 c 0.376635,-0.0541 0.795409,-0.09265 1.297215,-0.119402 0.373403,-0.01991 0.472603,-0.01856 0.793757,0.01077 0.201864,0.01844 0.387104,0.03478 0.411644,0.03631 l 0.04462,0.0028 -0.0018,-0.415983 c -9.66e-4,-0.228792 -0.008,-0.422059 -0.01558,-0.429484 -0.03122,-0.03053 -0.484084,-0.07753 -0.84733,-0.08795 -0.417679,-0.01197 -1.036721,0.01794 -1.299247,0.06279 -0.423465,0.07234 -0.714509,0.133358 -0.727364,0.152492 -0.0078,0.01165 -0.01436,0.207246 -0.01452,0.43467 l -2.74e-4,0.413497 0.04356,-0.01073 c 0.02396,-0.0059 0.165849,-0.0283 0.315315,-0.04977 z M 0.96932105,7.3818598 c -0.03394,-0.01013 -0.08066,-0.04228 -0.103827,-0.07143 -0.04137,-0.05206 -0.04193,-0.06128 -0.03097,-0.51764 0.02192,-0.913266 0.05854,-1.499406 0.100147,-1.602751 0.0236,-0.05862 0.10496005,-0.08507 0.39643405,-0.128858 0.154395,-0.0232 0.337346,-0.05459 0.406558,-0.06977 0.06921,-0.01518 0.186823,-0.0375 0.261359,-0.0496 0.07454,-0.0121 0.266199,-0.05197 0.425919,-0.08858 0.492518,-0.112906 0.495112,-0.113235 0.57938,-0.07325 0.136666,0.06485 0.134854,0.04939 0.135958,1.159666 8.89e-4,0.892338 -0.0021,0.989955 -0.03132,1.027122 -0.04124,0.05244 -0.300743,0.174205 -0.451698,0.211954 -0.105332,0.02634 -0.295351,0.0616 -0.735678,0.136495 -0.08518,0.01449 -0.281203,0.03582 -0.435598,0.0474 -0.154396,0.01158 -0.319923,0.02479 -0.367839,0.02936 -0.04792,0.0046 -0.114885,10e-6 -0.14882205,-0.01012 z M 1.4763021,7.1112848 c 0.138423,-0.01217 0.338799,-0.03804 0.445278,-0.05749 0.598753,-0.109374 0.745327,-0.141667 0.844012,-0.185955 l 0.108964,-0.0489 0.0016,-0.661632 c 9.11e-4,-0.363898 0.0076,-0.77271 0.01484,-0.908472 l 0.01319,-0.246839 h -0.04737 c -0.02605,0 -0.09033,0.01239 -0.142843,0.02753 -0.118288,0.03411 -1.019934,0.208505 -1.33451,0.258112 l -0.232319,0.03664 -0.0021,0.618097 c -0.0012,0.339953 -0.0121,0.742984 -0.02432,0.895625 -0.01222,0.152642 -0.01698,0.286009 -0.01058,0.296373 0.0064,0.01036 0.03477,0.01438 0.06304,0.0089 0.02827,-0.0054 0.164653,-0.01986 0.303076,-0.03203 z m 1.923977,-0.204349 c -0.04772,-0.0145 -0.05575,-0.126837 -0.05573,-0.779922 1.2e-5,-0.626439 0.02737,-1.260276 0.05963,-1.381594 0.01581,-0.05946 0.03589,-0.08099 0.11052,-0.118516 0.201085,-0.101111 0.366167,-0.141509 0.923674,-0.226032 0.06389,-0.0097 0.246838,-0.01763 0.406558,-0.01765 0.574785,-5.5e-5 1.120055,0.123159 1.217796,0.275215 0.07516,0.116927 0.08739,0.486833 0.04049,1.224436 -0.01557,0.244903 -0.02845,0.538365 -0.02862,0.652137 -3.3e-4,0.230537 -0.01533,0.289757 -0.08483,0.335294 -0.04393,0.02878 -0.07001,0.02811 -0.344503,-0.0089 -0.689507,-0.09301 -1.078652,-0.09218 -1.497295,0.0032 -0.166914,0.03802 -0.668464,0.06643 -0.747694,0.04235 z m 0.805773,-0.288651 c 0.127776,-0.02627 0.372573,-0.05802 0.543993,-0.07055 0.314589,-0.02299 0.383056,-0.01918 0.977596,0.05448 l 0.08895,0.01102 0.01338,-0.316786 c 0.0074,-0.174231 0.02162,-0.395189 0.0317,-0.491017 0.02203,-0.209457 0.02458,-0.938927 0.0034,-0.972258 -0.08321,-0.130964 -1.143146,-0.228678 -1.653623,-0.152445 -0.295139,0.04408 -0.533831,0.0884 -0.589026,0.109388 l -0.04558,0.01733 v 0.929756 0.929756 l 0.198439,-4.39e-4 c 0.133748,-3.29e-4 0.274176,-0.01602 0.430758,-0.04822 z m -3.133283,-1.907753 c -0.06444,-0.04016 -0.09017,-0.140971 -0.08976,-0.351628 5.49e-4,-0.268045 0.0266101,-0.437947 0.07462,-0.485954 0.03299,-0.03299 0.09416,-0.04319 0.441443,-0.07361 0.641336,-0.05617 1.099851,-0.141529 1.545381,-0.287682 0.410791,-0.134758 0.468892,-0.147656 0.977677,-0.217042 0.393817,-0.05371 0.512196,-0.06216 0.880877,-0.06289 0.43427,-8.62e-4 0.642088,0.01793 0.966287,0.08737 0.204029,0.0437 0.25582,0.0733 0.276628,0.15812 0.0085,0.03471 0.01112,0.201114 0.0058,0.369794 -0.0094,0.296846 -0.01121,0.307924 -0.05723,0.345133 -0.03177,0.02569 -0.06389,0.03482 -0.0968,0.02752 -0.398185,-0.08826 -0.508388,-0.09795 -1.114046,-0.09796 -0.366615,-4e-6 -0.668138,0.0092 -0.774856,0.02376 -0.210462,0.02864 -0.57554,0.117085 -1.122418,0.27193 -0.223607,0.06331 -0.528526,0.134558 -0.677597,0.158324 -0.149072,0.02376 -0.393007,0.06464 -0.542078,0.09083 -0.320376,0.05629 -0.641505,0.07664 -0.693932,0.04397 z m 0.597132,-0.272361 c 0.117128,-0.02053 0.330571,-0.05449 0.474318,-0.07546 0.309067,-0.04511 0.400614,-0.06611 0.84252,-0.193288 0.54861,-0.157891 0.874592,-0.23186 1.161233,-0.263497 0.316001,-0.03488 1.097889,-0.04098 1.345516,-0.01049 0.09051,0.01114 0.213358,0.02614 0.272998,0.03334 l 0.108441,0.01309 -0.0064,-0.191086 -0.0064,-0.191086 -0.06329,-0.0047 c -0.03481,-0.0026 -0.215662,-0.01899 -0.401903,-0.0365 -0.422395,-0.03972 -0.779557,-0.02875 -1.306975,0.04014 -0.486347,0.06353 -0.608222,0.08969 -0.965664,0.207276 -0.444938,0.14637 -0.997999,0.25021 -1.537363,0.288648 -0.167289,0.01192 -0.3099,0.02741 -0.316908,0.03443 -0.01138,0.01138 -0.02522,0.288353 -0.01881,0.376416 0.0029,0.03997 0.05415,0.03664 0.418752,-0.02726 z m 11.0351609,5.384452 c 0,-0.431015 -0.01064,-0.757823 -0.06715,-2.061833 -0.02142,-0.494354 -0.04237,-1.646254 -0.06532,-3.591267 l -0.0056,-0.474319 -0.327845,-0.01209 c -0.434901,-0.01603 -0.766618,-0.07982 -1.702402,-0.327361 -0.357347,-0.09453 -0.6767259,-0.160723 -1.5003939,-0.31097 -0.474524,-0.08656 -1.041509,-0.113932 -1.459941,-0.07048 -0.296453,0.03078 -0.468526,0.07117 -0.674492,0.158306 l -0.0726,0.03072 -6.37e-4,0.411139 c -3.29e-4,0.226126 -0.0093,0.546174 -0.01987,0.711218 -0.02269,0.353953 -0.04423,5.459714 -0.02304,5.459039 0.008,-2.74e-4 0.04935,-0.0088 0.09194,-0.01904 0.381974,-0.09162 0.828017,-0.135711 1.171276,-0.115783 0.380421,0.02209 1.26825,0.140233 1.674635,0.222848 0.202146,0.0411 0.8391069,0.158949 0.9389559,0.1737302 0.04792,0.0071 0.309275,0.05518 0.580798,0.106864 0.271523,0.05168 0.58951,0.108377 0.706638,0.125987 0.204747,0.03078 0.605985,0.06483 0.706637,0.05995 l 0.0484,-0.0023 V 9.8226618 Z M 12.092896,10.08488 c -0.0048,-0.0048 -0.09122,-0.01839 -0.191987,-0.03014 -0.10076,-0.01175 -0.209339,-0.02865 -0.241283,-0.03756 -0.03194,-0.0089 -0.136487,-0.02682 -0.232319,-0.03979 -0.09583,-0.01298 -0.245453,-0.03972 -0.332492,-0.05943 -0.08704,-0.01971 -0.374535,-0.07551 -0.638877,-0.124006 -0.264344,-0.04849 -0.4995499,-0.09237 -0.5226809,-0.0975 -0.07815,-0.01734 -0.09155,-0.113646 -0.09018,-0.648226 0.0013,-0.493714 0.02857,-0.845216 0.07092,-0.913031 0.04337,-0.06945 0.04552,-0.06936 0.5453209,0.02204 0.467622,0.08552 0.748043,0.119305 1.781114,0.214597 0.301854,0.02784 0.279664,-0.04142 0.274028,0.85537 -0.0049,0.771457 -0.0082,0.8032672 -0.08928,0.8466582 -0.03605,0.01929 -0.314761,0.02854 -0.332276,0.01102 z m 0.181406,-0.8575742 c -0.0041,-0.327426 -0.01042,-0.604928 -0.01411,-0.616673 -0.0072,-0.02302 -0.240042,-0.052 -0.687691,-0.0856 -0.286674,-0.02152 -0.851703,-0.103911 -1.22396,-0.178473 -0.114159,-0.02287 -0.211315,-0.03769 -0.2159,-0.03295 -0.0046,0.0047 -0.01137,0.258471 -0.01508,0.563842 l -0.0067,0.555219 0.135519,0.03969 c 0.07454,0.02183 0.261844,0.06237 0.416239,0.09009 0.154395,0.02772 0.367839,0.07244 0.474318,0.09939 0.10648,0.02695 0.250227,0.05616 0.319439,0.06493 0.06921,0.0088 0.182467,0.02604 0.251679,0.03839 0.104058,0.01858 0.286316,0.03724 0.533684,0.05465 0.03978,0.0028 0.03996,-5.92e-4 0.03259,-0.592501 z m -2.8894679,0.390684 c -0.124215,-0.03046 -0.660979,-0.0943 -1.068438,-0.12707 -0.320501,-0.02578 -0.678205,-0.01416 -0.988463,0.03211 -0.273218,0.04074 -0.32564,0.03508 -0.362955,-0.0392 -0.02391,-0.0476 -0.02876,-0.147122 -0.02686,-0.551757 0.0025,-0.535114 0.03027,-0.83934 0.08187,-0.897379 0.05382,-0.06055 0.120388,-0.08413 0.341732,-0.121083 0.263164,-0.04393 1.124629,-0.05081 1.374555,-0.01096 0.08518,0.01358 0.298628,0.04613 0.474319,0.07233 0.416916,0.06217 0.400729,0.05739 0.438899,0.129741 0.02891,0.0548 0.03246,0.120787 0.02842,0.527277 -0.0095,0.956167 -0.0067,0.91045 -0.05929,0.966428 -0.05202,0.05538 -0.07868,0.05761 -0.233785,0.01957 z m 0.02513,-0.806923 c -0.0077,-0.364433 -0.01865,-0.551664 -0.03285,-0.561142 -0.01172,-0.0078 -0.05993,-0.01436 -0.107125,-0.01452 -0.09244,-3.29e-4 -0.300507,-0.02264 -0.669228,-0.07179 -0.403608,-0.0538 -1.278923,-0.0062 -1.354605,0.0737 -0.01921,0.02027 -0.02762,0.153912 -0.0344,0.546343 l -0.009,0.519506 0.06011,-0.01079 c 0.46737,-0.08394 1.120845,-0.07191 1.889622,0.03476 0.101156,0.01404 0.203059,0.02672 0.226453,0.02819 l 0.04253,0.0027 z m 2.6271819,-0.594736 c -0.07986,-0.0087 -0.266861,-0.0263 -0.415559,-0.03902 -0.400737,-0.03427 -0.572566,-0.06512 -0.605826,-0.108767 -0.02361,-0.03098 -0.02644,-0.141117 -0.01811,-0.704636 0.0063,-0.427975 0.01781,-0.689563 0.03197,-0.728169 0.04137,-0.112791 0.162897,-0.129993 0.45577,-0.06452 0.196805,0.044 0.691941,0.09687 0.769092,0.08212 0.0669,-0.01279 0.182091,0.02625 0.200023,0.06778 0.01902,0.04405 0.0521,1.249532 0.03718,1.354626 -0.0081,0.05722 -0.02578,0.09185 -0.0574,0.112563 -0.0576,0.03774 -0.210046,0.04849 -0.397136,0.02801 z m 0.210237,-0.23081 c 0.02159,-0.01368 0.02419,-0.106766 0.01446,-0.517581 -0.0065,-0.275499 -0.01183,-0.519177 -0.0118,-0.541508 0,-0.03879 -0.01225,-0.04112 -0.275819,-0.05221 -0.21819,-0.0092 -0.539954,-0.04307 -0.739575,-0.07788 -0.01378,-0.0024 -0.0203,0.176891 -0.0203,0.557897 v 0.561438 l 0.222639,0.02287 c 0.122452,0.01258 0.331539,0.03078 0.464639,0.04045 0.133099,0.0097 0.259423,0.01885 0.280718,0.0204 0.0213,0.0015 0.05056,-0.0047 0.06504,-0.01386 z m -1.797752,0.01582 c -0.03727,-0.0092 -0.294271,-0.06086 -0.5711169,-0.114715 -0.590962,-0.114951 -0.887245,-0.194002 -0.950761,-0.253673 -0.05604,-0.05265 -0.07847,-0.124184 -0.09348,-0.298083 -0.07518,-0.87109 -0.04149,-1.218622 0.124805,-1.287502 0.08049,-0.03334 0.452616,-0.01217 0.687118,0.0391 0.09583,0.02095 0.238547,0.0521 0.317146,0.06923 0.1545599,0.03368 0.4917069,0.154794 0.6398089,0.229843 0.05058,0.02563 0.119496,0.07796 0.153143,0.116279 l 0.06118,0.06968 v 0.653256 c 0,0.692917 -5.98e-4,0.697901 -0.09365,0.773192 -0.03355,0.02714 -0.171526,0.02885 -0.274187,0.0034 z m 0.0968,-0.721849 c 0,-0.259389 0.0054,-0.511306 0.01209,-0.559815 0.01196,-0.08723 0.01126,-0.08861 -0.06292,-0.125687 -0.125336,-0.06264 -0.5264339,-0.190705 -0.7622859,-0.243387 -0.298991,-0.06678 -0.638286,-0.103132 -0.658432,-0.07054 -0.01589,0.02571 -0.0069,0.995068 0.0102,1.096071 0.01002,0.05928 0.01508,0.06193 0.227597,0.118974 0.200772,0.05389 0.360488,0.09078 0.9046299,0.208913 0.111803,0.02427 0.231593,0.0448 0.266199,0.04561 l 0.06292,0.0015 z m -3.5525479,0.375101 c -0.03688,-0.04098 -0.03898,-0.07447 -0.04427,-0.705012 l -0.0055,-0.661993 0.04475,-0.06641 c 0.09422,-0.139809 0.355365,-0.179478 0.999211,-0.151783 0.471079,0.02026 0.512451,0.03152 0.543793,0.147912 0.0509,0.189005 0.09775,1.141903 0.06202,1.261172 -0.01169,0.03903 -0.04591,0.09458 -0.07605,0.123449 l -0.05479,0.05249 -0.540963,0.0079 c -0.297529,0.0044 -0.61937,0.01408 -0.715201,0.0216 -0.164419,0.0129 -0.176422,0.01125 -0.212961,-0.02935 z m 0.534582,-0.24386 c 0.141845,-0.0077 0.38834,-0.01487 0.547767,-0.0159 l 0.289868,-0.0019 0.0036,-0.1452 c 0.002,-0.07986 -0.0077,-0.249743 -0.02147,-0.377519 -0.01381,-0.127776 -0.03091,-0.299933 -0.03801,-0.382572 -0.01013,-0.117864 -0.02063,-0.15438 -0.04869,-0.169399 -0.05003,-0.02677 -0.837058,-0.02101 -0.957918,0.007 l -0.0968,0.02245 -0.0062,0.232215 c -0.01019,0.379366 0.01546,0.865728 0.04506,0.854372 0.0137,-0.0053 0.140959,-0.01587 0.282801,-0.02358 z m 4.0150029,-1.179035 c -0.313782,-0.03053 -0.561537,-0.08014 -0.896923,-0.17957 -0.357543,-0.106002 -0.323739,0.02314 -0.317977,-1.21469 0.0026,-0.564342 0.0096,-1.054424 0.01541,-1.089072 0.02692,-0.159448 0.138617,-0.17433 0.542939,-0.07234 0.35485,0.08951 0.788579,0.177217 1.005029,0.203232 0.311009,0.03738 0.398371,0.07929 0.435401,0.208863 0.03371,0.117948 0.05659,0.642318 0.05927,1.358412 0.0027,0.71729 -2.2e-4,0.741697 -0.09051,0.776051 -0.0838,0.03186 -0.470739,0.03654 -0.752641,0.0091 z m 0.579555,-0.245832 c 0.0026,-0.0034 -4.39e-4,-0.410632 -0.0067,-0.904949 l -0.0114,-0.898758 -0.16456,-0.03574 c -0.09051,-0.01965 -0.270834,-0.05294 -0.400723,-0.07397 -0.12989,-0.02103 -0.273638,-0.05061 -0.319439,-0.06573 -0.0458,-0.01512 -0.132805,-0.03745 -0.193344,-0.04962 -0.06054,-0.01217 -0.17603,-0.04248 -0.25665,-0.06735 -0.09621,-0.02968 -0.150853,-0.03831 -0.159012,-0.02511 -0.01818,0.02941 -0.05201,1.72269 -0.03648,1.826199 0.0072,0.0483 0.02345,0.09048 0.03601,0.09373 0.01256,0.0033 0.08383,0.02395 0.158365,0.04598 0.237187,0.07011 0.514679,0.122317 0.793756,0.149342 0.232579,0.02252 0.545147,0.02586 0.560196,0.006 z m -2.5155489,-0.09391 c -0.716224,-0.157656 -0.762808,-0.163967 -1.209995,-0.163914 -0.434056,5.5e-5 -0.677652,0.02925 -1.060173,0.127083 -0.187496,0.04795 -0.223555,0.04708 -0.286314,-0.0069 l -0.05153,-0.04433 -0.0076,-0.386432 c -0.02549,-1.290895 -0.0038,-1.961551 0.06661,-2.061068 0.09168,-0.129542 0.438611,-0.200931 0.980877,-0.201838 0.339978,-5.71e-4 0.561289,0.02242 0.831066,0.08634 0.08596,0.02037 0.256478,0.05433 0.37893,0.07548 0.122451,0.02115 0.309759,0.05582 0.416238,0.07704 0.10648,0.02122 0.236337,0.04553 0.28857,0.05402 0.06971,0.01133 0.1051629,0.02917 0.1332809,0.06709 0.03593,0.04845 0.0386,0.08812 0.04297,0.638878 0.0026,0.322969 0.0149,0.796303 0.02743,1.051854 0.0268,0.546929 0.01607,0.627505 -0.0934,0.70112 -0.08401,0.0565 -0.1431629,0.05463 -0.4569359,-0.01444 z m 0.29995,-0.255923 c 0,-0.01331 -0.01358,-0.263779 -0.03001,-0.556598 -0.01644,-0.292819 -0.0274,-0.727316 -0.02436,-0.965549 l 0.0055,-0.43315 -0.270749,-0.05368 c -0.148911,-0.02953 -0.401428,-0.07746 -0.561147,-0.106508 -0.15972,-0.02905 -0.360095,-0.06583 -0.445279,-0.08174 -0.311029,-0.05807 -1.218557,-0.02351 -1.291236,0.04917 -0.01114,0.01114 -0.0231,0.435921 -0.02982,1.05974 l -0.01123,1.041142 0.06598,-0.01407 c 0.456805,-0.09737 0.578747,-0.112265 0.995263,-0.121549 0.46385,-0.01034 0.581296,0.0027 1.171276,0.129685 0.143747,0.03095 0.278783,0.05999 0.300079,0.06454 0.07767,0.01659 0.125835,0.01221 0.12571,-0.01144 z"
       id="path854"
       sodipodi:nodetypes="sssscssscssssssssssssssssssssssssssssssssssssscssssssscsssssssscssssscssssssssssssssscssssscsscsssssssssssssssssssscssssssssscsssscsssccssssccsccsssssssssssssssssssccscsssccsssssssssscsscssssscsscsscssccccccscsssssssssssssssssssssscccsssssssssssscsssssccscsssssssccsssssssscsssssssssssscsssssssssssssssssssssscssscssscsssssssssssssscssscssssssssssssscssssssssssssscssscssssscssssscssssscsssssssssssscssccssssssssssssssscsssssssssssscsscssssscssssc" />
  </g>
</svg>
