<?xml version="1.0" encoding="UTF-8"?>
<svg width="50" height="50" version="1.1" viewBox="0 0 13.229 13.229" xmlns="http://www.w3.org/2000/svg"><path d="m0.74062 10.848c-0.38037-0.02797-0.5973-0.09144-0.67473-0.19742-0.06571-0.08994-0.08526-0.55667-0.04508-1.0762 0.03227-0.41728 0.05334-0.97578 0.09071-2.4045 0.01072-0.40995 0.02782-0.8891 0.038-1.0648 0.04073-0.7034 0.05868-1.1612 0.06906-1.7618 0.01524-0.88155 0.04184-1.0825 0.1598-1.2066 0.11466-0.12068 0.11341-0.12049 0.73977-0.11167 0.33516 0.0047 0.4101-3.84e-4 0.66792-0.04533 0.15972-0.02785 0.44721-0.09372 0.63888-0.14638 0.64127-0.17617 1.219-0.3033 1.8973-0.4175 0.28983-0.0488 0.33468-0.05138 0.69696-0.04012 0.21296 0.0066 0.4886 0.02533 0.61254 0.04159 0.25306 0.03319 0.62551 0.13124 0.80571 0.2121 0.07404 0.03323 0.13649 0.04939 0.16382 0.04239 0.02429-0.0062 0.10903-0.02911 0.18832-0.05086 0.56556-0.15518 1.5339-0.17649 2.2718-0.04999 0.33292 0.05707 1.446 0.27918 1.4684 0.29299 0.02583 0.01596 0.86559 0.22115 1.1008 0.26898 0.36929 0.07508 0.58134 0.09439 0.88997 0.08103 0.24526-0.01062 0.29112-0.0078 0.3492 0.02134 0.08176 0.04104 0.14666 0.13457 0.18364 0.26466 0.03529 0.12417 0.06227 1.0617 0.07774 2.7019 0.0062 0.65485 0.01929 1.3518 0.02914 1.5488 0.07059 1.412 0.09016 2.6845 0.04362 2.8372-0.01314 0.0431-0.04976 0.10315-0.08139 0.13344-0.04845 0.04642-0.07972 0.05716-0.19875 0.06826-0.30086 0.02807-0.97359-0.03568-1.5158-0.14365-0.31105-0.06194-0.73472-0.1403-0.84216-0.15578-0.10676-0.01538-0.64013-0.11443-0.89056-0.16539-0.2365-0.04812-0.84052-0.1385-1.2954-0.19382-0.28112-0.03419-0.408-0.04075-0.60016-0.03104-0.25193 0.01273-0.6826 0.07807-0.96967 0.14711-0.21397 0.05146-0.30845 0.05008-0.68476-0.01004-0.51079-0.08159-0.74877-0.0965-1.3312-0.08338-0.75033 0.01691-1.043 0.0658-1.7399 0.2907-0.37478 0.12094-0.68517 0.20025-1.2681 0.32402-0.38868 0.08252-0.69235 0.10568-1.0454 0.07971zm0.4356-0.52282c0.10116-0.01048 0.25362-0.03273 0.3388-0.04943 0.32996-0.06471 1.0857-0.26316 1.4335-0.3764 0.66374-0.21612 1.071-0.2847 1.8006-0.30317 0.54577-0.01381 0.83886 0.0062 1.2344 0.08434 0.13641 0.02694 0.25348 0.04351 0.26016 0.03683 0.0067-0.0067 0.01999-1.3079 0.02957-2.8915 0.0096-1.5837 0.02136-3.051 0.02618-3.2608l0.0088-0.38145-0.06075-0.03142c-0.09508-0.04917-0.44512-0.14185-0.65259-0.17279-0.10366-0.01546-0.35399-0.03389-0.5563-0.04096-0.35396-0.01237-0.38101-0.01059-0.71714 0.04721-0.63039 0.10841-1.1662 0.2273-1.7472 0.38763-0.33626 0.09281-0.57567 0.14416-0.92369 0.19811-0.08626 0.01337-0.30622 0.02285-0.49645 0.02139l-0.34157-0.0026-0.0087 0.05934c-0.0048 0.03264-0.01044 0.27835-0.01255 0.54601-0.0039 0.48989-0.01778 0.82076-0.06971 1.6579-0.01552 0.25023-0.03712 0.7773-0.04799 1.1713-0.01087 0.39398-0.02439 0.79037-0.03003 0.88088-0.0056 0.09051-0.02313 0.469-0.03886 0.8411-0.01572 0.3721-0.0378 0.77285-0.04905 0.89056-0.01125 0.11771-0.01779 0.31856-0.01452 0.44633l0.0059 0.23232 0.17424 0.01086c0.09583 6e-3 0.19602 0.01236 0.22264 0.01418 0.02662 0.0018 0.13116-0.0053 0.23232-0.01573zm-0.37839-0.17937-0.0572-0.04918-0.0059-0.61199c-0.0035-0.36772 0.0027-0.68328 0.01564-0.79062 0.01183-0.09825 0.02881-0.33545 0.03775-0.52711 0.0093-0.19949 0.02645-0.37068 0.04011-0.40041 0.03151-0.06857 0.09022-0.08831 0.29956-0.10074 0.21007-0.01247 0.51151-0.05127 0.93405-0.1202 0.4874-0.07952 0.50416-0.06406 0.472 0.43532-0.01139 0.17686-0.02585 0.66568-0.03214 1.0863-0.01208 0.80841-0.0137 0.82189-0.10465 0.87056-0.04781 0.02559-0.33853 0.08209-0.69814 0.13569-0.1544 0.02301-0.33735 0.05519-0.40656 0.07151-0.06921 0.01632-0.19593 0.03426-0.28159 0.03987-0.14624 0.0096-0.15925 0.0072-0.21296-0.03897zm0.9706-0.36071c0.12873-0.02161 0.2899-0.0592 0.35816-0.08351l0.12411-0.04421 0.0135-0.88075c0.01262-0.82293 9e-3 -1.026-0.01824-1.026-0.0061 0-0.10766 0.01707-0.22578 0.03792-0.11812 0.02086-0.29753 0.05239-0.39868 0.07006-0.10116 0.01768-0.27104 0.03764-0.37752 0.04436l-0.1936 0.01221-0.02356 0.35816c-0.01296 0.19699-0.02934 0.63173-0.0364 0.96609l-0.01284 0.60794 0.2784-0.01151c0.15312-0.0063 0.38372-0.02919 0.51245-0.05081zm1.0509-0.03392c-0.03577-0.04347-0.03328-0.78616 0.0028-0.82962 0.04314-0.05198 0.31422-0.12214 0.5532-0.14316 0.88934-0.07825 1.9295-0.09434 2.3311-0.03606 0.29761 0.04318 0.41957 0.08119 0.43782 0.13644 0.0078 0.02374 0.01192 0.15623 0.0091 0.29444-0.0075 0.36348-0.04482 0.41794-0.26021 0.37985-0.4306-0.07615-1.1605-0.08613-1.6967-0.02319-0.40503 0.04754-0.65203 0.09224-1.0201 0.18462-0.31593 0.07929-0.32136 0.07984-0.35689 0.03668zm0.41388-0.28555c0.43377-0.11628 0.96574-0.18295 1.5873-0.19893 0.41212-0.01059 0.90443 0.01111 1.0263 0.04525 0.02995 0.0084 0.03388-0.0063 0.03388-0.12666 0-0.16047-0.0047-0.1648-0.19981-0.18397-0.69789-0.06857-1.5238-0.04672-2.4697 0.06534-0.07868 0.0093-0.15493 0.02882-0.16944 0.04333-0.02559 0.02559-0.06772 0.39326-0.04739 0.41359 0.0052 0.0052 0.02075 5e-3 0.03462-2.75e-4 0.01387-0.0053 0.1058-0.03128 0.20429-0.05768zm-0.38954-0.83141c-0.06403-0.06815-0.0837-0.24656-0.07654-0.69427 0.0069-0.43425 0.01745-0.47946 0.12624-0.5428 0.06324-0.03682 0.56934-0.14765 0.84803-0.18571 0.39258-0.0536 0.59253-0.08125 0.73568-0.1017 0.32344-0.04622 1.2766 0.02558 1.5138 0.11403 0.16916 0.06308 0.16974 0.06536 0.17626 0.68282 0.0038 0.35875-0.0013 0.55342-0.0151 0.57922-0.02562 0.04788-0.12959 0.10386-0.16654 0.08968-0.08286-0.0318-0.67722-0.07542-1.005-0.07377-0.53306 0.0027-1.4055 0.07845-1.8296 0.15888-0.17232 0.03268-0.25863 0.02527-0.30716-0.02639zm0.51125-0.26225c0.37664-0.0541 0.79541-0.09265 1.2972-0.1194 0.3734-0.01991 0.4726-0.01856 0.79376 0.01077 0.20186 0.01844 0.3871 0.03478 0.41164 0.03631l0.04462 0.0028-0.0018-0.41598c-9.66e-4 -0.22879-8e-3 -0.42206-0.01558-0.42948-0.03122-0.03053-0.48408-0.07753-0.84733-0.08795-0.41768-0.01197-1.0367 0.01794-1.2992 0.06279-0.42346 0.07234-0.71451 0.13336-0.72736 0.15249-0.0078 0.01165-0.01436 0.20725-0.01452 0.43467l-2.74e-4 0.4135 0.04356-0.01073c0.02396-0.0059 0.16585-0.0283 0.31532-0.04977zm-2.3856-0.99054c-0.03394-0.01013-0.08066-0.04228-0.10383-0.07143-0.04137-0.05206-0.04193-0.06128-0.03097-0.51764 0.02192-0.91327 0.05854-1.4994 0.10015-1.6028 0.0236-0.05862 0.10496-0.08507 0.39643-0.12886 0.1544-0.0232 0.33735-0.05459 0.40656-0.06977 0.06921-0.01518 0.18682-0.0375 0.26136-0.0496 0.07454-0.0121 0.2662-0.05197 0.42592-0.08858 0.49252-0.11291 0.49511-0.11324 0.57938-0.07325 0.13667 0.06485 0.13485 0.04939 0.13596 1.1597 8.89e-4 0.89234-0.0021 0.98996-0.03132 1.0271-0.04124 0.05244-0.30074 0.1742-0.4517 0.21195-0.10533 0.02634-0.29535 0.0616-0.73568 0.1365-0.08518 0.01449-0.2812 0.03582-0.4356 0.0474-0.1544 0.01158-0.31992 0.02479-0.36784 0.02936-0.04792 0.0046-0.11488 1e-5 -0.14882-0.01012zm0.50698-0.27058c0.13842-0.01217 0.3388-0.03804 0.44528-0.05749 0.59875-0.10937 0.74533-0.14167 0.84401-0.18596l0.10896-0.0489 0.0016-0.66163c9.11e-4 -0.3639 0.0076-0.77271 0.01484-0.90847l0.01319-0.24684h-0.04737c-0.02605 0-0.09033 0.01239-0.14284 0.02753-0.11829 0.03411-1.0199 0.2085-1.3345 0.25811l-0.23232 0.03664-0.0021 0.6181c-0.0012 0.33995-0.0121 0.74298-0.02432 0.89562-0.01222 0.15264-0.01698 0.28601-0.01058 0.29637 0.0064 0.01036 0.03477 0.01438 0.06304 0.0089 0.02827-0.0054 0.16465-0.01986 0.30308-0.03203zm1.924-0.20435c-0.04772-0.0145-0.05575-0.12684-0.05573-0.77992 1.2e-5 -0.62644 0.02737-1.2603 0.05963-1.3816 0.01581-0.05946 0.03589-0.08099 0.11052-0.11852 0.20108-0.10111 0.36617-0.14151 0.92367-0.22603 0.06389-0.0097 0.24684-0.01763 0.40656-0.01765 0.57478-5.5e-5 1.1201 0.12316 1.2178 0.27522 0.07516 0.11693 0.08739 0.48683 0.04049 1.2244-0.01557 0.2449-0.02845 0.53836-0.02862 0.65214-3.3e-4 0.23054-0.01533 0.28976-0.08483 0.33529-0.04393 0.02878-0.07001 0.02811-0.3445-0.0089-0.68951-0.09301-1.0787-0.09218-1.4973 0.0032-0.16691 0.03802-0.66846 0.06643-0.74769 0.04235zm0.80577-0.28865c0.12778-0.02627 0.37257-0.05802 0.54399-0.07055 0.31459-0.02299 0.38306-0.01918 0.9776 0.05448l0.08895 0.01102 0.01338-0.31679c0.0074-0.17423 0.02162-0.39519 0.0317-0.49102 0.02203-0.20946 0.02458-0.93893 0.0034-0.97226-0.08321-0.13096-1.1431-0.22868-1.6536-0.15244-0.29514 0.04408-0.53383 0.0884-0.58903 0.10939l-0.04558 0.01733v1.8595l0.19844-4.39e-4c0.13375-3.29e-4 0.27418-0.01602 0.43076-0.04822zm-3.1333-1.9078c-0.06444-0.04016-0.09017-0.14097-0.08976-0.35163 5.49e-4 -0.26804 0.02661-0.43795 0.07462-0.48595 0.03299-0.03299 0.09416-0.04319 0.44144-0.07361 0.64134-0.05617 1.0999-0.14153 1.5454-0.28768 0.41079-0.13476 0.46889-0.14766 0.97768-0.21704 0.39382-0.05371 0.5122-0.06216 0.88088-0.06289 0.43427-8.62e-4 0.64209 0.01793 0.96629 0.08737 0.20403 0.0437 0.25582 0.0733 0.27663 0.15812 0.0085 0.03471 0.01112 0.20111 0.0058 0.36979-0.0094 0.29685-0.01121 0.30792-0.05723 0.34513-0.03177 0.02569-0.06389 0.03482-0.0968 0.02752-0.39818-0.08826-0.50839-0.09795-1.114-0.09796-0.36662-4e-6 -0.66814 0.0092-0.77486 0.02376-0.21046 0.02864-0.57554 0.11708-1.1224 0.27193-0.22361 0.06331-0.52853 0.13456-0.6776 0.15832-0.14907 0.02376-0.39301 0.06464-0.54208 0.09083-0.32038 0.05629-0.6415 0.07664-0.69393 0.04397zm0.59713-0.27236c0.11713-0.02053 0.33057-0.05449 0.47432-0.07546 0.30907-0.04511 0.40061-0.06611 0.84252-0.19329 0.54861-0.15789 0.87459-0.23186 1.1612-0.2635 0.316-0.03488 1.0979-0.04098 1.3455-0.01049 0.09051 0.01114 0.21336 0.02614 0.273 0.03334l0.10844 0.01309-0.0128-0.38217-0.06329-0.0047c-0.03481-0.0026-0.21566-0.01899-0.4019-0.0365-0.4224-0.03972-0.77956-0.02875-1.307 0.04014-0.48635 0.06353-0.60822 0.08969-0.96566 0.20728-0.44494 0.14637-0.998 0.25021-1.5374 0.28865-0.16729 0.01192-0.3099 0.02741-0.31691 0.03443-0.01138 0.01138-0.02522 0.28835-0.01881 0.37642 0.0029 0.03997 0.05415 0.03664 0.41875-0.02726zm11.035 5.3845c0-0.43102-0.01064-0.75782-0.06715-2.0618-0.02142-0.49435-0.04237-1.6463-0.06532-3.5913l-0.0056-0.47432-0.32784-0.01209c-0.4349-0.01603-0.76662-0.07982-1.7024-0.32736-0.35735-0.09453-0.67673-0.16072-1.5004-0.31097-0.47452-0.08656-1.0415-0.11393-1.4599-0.07048-0.29645 0.03078-0.46853 0.07117-0.67449 0.15831l-0.0726 0.03072-6.37e-4 0.41114c-3.29e-4 0.22613-0.0093 0.54617-0.01987 0.71122-0.02269 0.35395-0.04423 5.4597-0.02304 5.459 8e-3 -2.74e-4 0.04935-0.0088 0.09194-0.01904 0.38197-0.09162 0.82802-0.13571 1.1713-0.11578 0.38042 0.02209 1.2682 0.14023 1.6746 0.22285 0.20215 0.0411 0.83911 0.15895 0.93896 0.17373 0.04792 0.0071 0.30928 0.05518 0.5808 0.10686 0.27152 0.05168 0.58951 0.10838 0.70664 0.12599 0.20475 0.03078 0.60598 0.06483 0.70664 0.05995l0.0484-0.0023v-0.47432zm-0.61217 0.26226c-0.0048-0.0048-0.09122-0.01839-0.19199-0.03014-0.10076-0.01175-0.20934-0.02865-0.24128-0.03756-0.03194-0.0089-0.13649-0.02682-0.23232-0.03979-0.09583-0.01298-0.24545-0.03972-0.33249-0.05943-0.08704-0.01971-0.37454-0.07551-0.63888-0.12401-0.26434-0.04849-0.49955-0.09237-0.52268-0.0975-0.07815-0.01734-0.09155-0.11365-0.09018-0.64823 0.0013-0.49371 0.02857-0.84522 0.07092-0.91303 0.04337-0.06945 0.04552-0.06936 0.54532 0.02204 0.46762 0.08552 0.74804 0.1193 1.7811 0.2146 0.30185 0.02784 0.27966-0.04142 0.27403 0.85537-0.0049 0.77146-0.0082 0.80327-0.08928 0.84666-0.03605 0.01929-0.31476 0.02854-0.33228 0.01102zm0.18141-0.85757c-0.0041-0.32743-0.01042-0.60493-0.01411-0.61667-0.0072-0.02302-0.24004-0.052-0.68769-0.0856-0.28667-0.02152-0.8517-0.10391-1.224-0.17847-0.11416-0.02287-0.21132-0.03769-0.2159-0.03295-0.0046 0.0047-0.01137 0.25847-0.01508 0.56384l-0.0067 0.55522 0.13552 0.03969c0.07454 0.02183 0.26184 0.06237 0.41624 0.09009s0.36784 0.07244 0.47432 0.09939c0.10648 0.02695 0.25023 0.05616 0.31944 0.06493 0.06921 0.0088 0.18247 0.02604 0.25168 0.03839 0.10406 0.01858 0.28632 0.03724 0.53368 0.05465 0.03978 0.0028 0.03996-5.92e-4 0.03259-0.5925zm-2.8895 0.39068c-0.12422-0.03046-0.66098-0.0943-1.0684-0.12707-0.3205-0.02578-0.6782-0.01416-0.98846 0.03211-0.27322 0.04074-0.32564 0.03508-0.36296-0.0392-0.02391-0.0476-0.02876-0.14712-0.02686-0.55176 0.0025-0.53511 0.03027-0.83934 0.08187-0.89738 0.05382-0.06055 0.12039-0.08413 0.34173-0.12108 0.26316-0.04393 1.1246-0.05081 1.3746-0.01096 0.08518 0.01358 0.29863 0.04613 0.47432 0.07233 0.41692 0.06217 0.40073 0.05739 0.4389 0.12974 0.02891 0.0548 0.03246 0.12079 0.02842 0.52728-0.0095 0.95617-0.0067 0.91045-0.05929 0.96643-0.05202 0.05538-0.07868 0.05761-0.23378 0.01957zm0.02513-0.80692c-0.0077-0.36443-0.01865-0.55166-0.03285-0.56114-0.01172-0.0078-0.05993-0.01436-0.10712-0.01452-0.09244-3.29e-4 -0.30051-0.02264-0.66923-0.07179-0.40361-0.0538-1.2789-0.0062-1.3546 0.0737-0.01921 0.02027-0.02762 0.15391-0.0344 0.54634l-9e-3 0.51951 0.06011-0.01079c0.46737-0.08394 1.1208-0.07191 1.8896 0.03476 0.10116 0.01404 0.20306 0.02672 0.22645 0.02819l0.04253 0.0027zm2.6272-0.59474c-0.07986-0.0087-0.26686-0.0263-0.41556-0.03902-0.40074-0.03427-0.57257-0.06512-0.60583-0.10877-0.02361-0.03098-0.02644-0.14112-0.01811-0.70464 0.0063-0.42798 0.01781-0.68956 0.03197-0.72817 0.04137-0.11279 0.1629-0.12999 0.45577-0.06452 0.1968 0.044 0.69194 0.09687 0.76909 0.08212 0.0669-0.01279 0.18209 0.02625 0.20002 0.06778 0.01902 0.04405 0.0521 1.2495 0.03718 1.3546-0.0081 0.05722-0.02578 0.09185-0.0574 0.11256-0.0576 0.03774-0.21005 0.04849-0.39714 0.02801zm0.21024-0.23081c0.02159-0.01368 0.02419-0.10677 0.01446-0.51758-0.0065-0.2755-0.01183-0.51918-0.0118-0.54151 0-0.03879-0.01225-0.04112-0.27582-0.05221-0.21819-0.0092-0.53995-0.04307-0.73958-0.07788-0.01378-0.0024-0.0203 0.17689-0.0203 0.5579v0.56144l0.22264 0.02287c0.12245 0.01258 0.33154 0.03078 0.46464 0.04045 0.1331 0.0097 0.25942 0.01885 0.28072 0.0204 0.0213 0.0015 0.05056-0.0047 0.06504-0.01386zm-1.7978 0.01582c-0.03727-0.0092-0.29427-0.06086-0.57112-0.11472-0.59096-0.11495-0.88724-0.194-0.95076-0.25367-0.05604-0.05265-0.07847-0.12418-0.09348-0.29808-0.07518-0.87109-0.04149-1.2186 0.1248-1.2875 0.08049-0.03334 0.45262-0.01217 0.68712 0.0391 0.09583 0.02095 0.23855 0.0521 0.31715 0.06923 0.15456 0.03368 0.49171 0.15479 0.63981 0.22984 0.05058 0.02563 0.1195 0.07796 0.15314 0.11628l0.06118 0.06968v0.65326c0 0.69292-5.98e-4 0.6979-0.09365 0.77319-0.03355 0.02714-0.17153 0.02885-0.27419 0.0034zm0.0968-0.72185c0-0.25939 0.0054-0.51131 0.01209-0.55982 0.01196-0.08723 0.01126-0.08861-0.06292-0.12569-0.12534-0.06264-0.52643-0.1907-0.76229-0.24339-0.29899-0.06678-0.63829-0.10313-0.65843-0.07054-0.01589 0.02571-0.0069 0.99507 0.0102 1.0961 0.01002 0.05928 0.01508 0.06193 0.2276 0.11897 0.20077 0.05389 0.36049 0.09078 0.90463 0.20891 0.1118 0.02427 0.23159 0.0448 0.2662 0.04561l0.06292 0.0015zm-3.5525 0.3751c-0.03688-0.04098-0.03898-0.07447-0.04427-0.70501l-0.0055-0.66199 0.04475-0.06641c0.09422-0.13981 0.35536-0.17948 0.99921-0.15178 0.47108 0.02026 0.51245 0.03152 0.54379 0.14791 0.0509 0.189 0.09775 1.1419 0.06202 1.2612-0.01169 0.03903-0.04591 0.09458-0.07605 0.12345l-0.05479 0.05249-0.54096 0.0079c-0.29753 0.0044-0.61937 0.01408-0.7152 0.0216-0.16442 0.0129-0.17642 0.01125-0.21296-0.02935zm0.53458-0.24386c0.14184-0.0077 0.38834-0.01487 0.54777-0.0159l0.28987-0.0019 0.0036-0.1452c2e-3 -0.07986-0.0077-0.24974-0.02147-0.37752-0.01381-0.12778-0.03091-0.29993-0.03801-0.38257-0.01013-0.11786-0.02063-0.15438-0.04869-0.1694-0.05003-0.02677-0.83706-0.02101-0.95792 7e-3l-0.0968 0.02245-0.0062 0.23222c-0.01019 0.37937 0.01546 0.86573 0.04506 0.85437 0.0137-0.0053 0.14096-0.01587 0.2828-0.02358zm4.015-1.179c-0.31378-0.03053-0.56154-0.08014-0.89692-0.17957-0.35754-0.106-0.32374 0.02314-0.31798-1.2147 0.0026-0.56434 0.0096-1.0544 0.01541-1.0891 0.02692-0.15945 0.13862-0.17433 0.54294-0.07234 0.35485 0.08951 0.78858 0.17722 1.005 0.20323 0.31101 0.03738 0.39837 0.07929 0.4354 0.20886 0.03371 0.11795 0.05659 0.64232 0.05927 1.3584 0.0027 0.71729-2.2e-4 0.7417-0.09051 0.77605-0.0838 0.03186-0.47074 0.03654-0.75264 0.0091zm0.57956-0.24583c0.0026-0.0034-4.39e-4 -0.41063-0.0067-0.90495l-0.0114-0.89876-0.16456-0.03574c-0.09051-0.01965-0.27083-0.05294-0.40072-0.07397-0.12989-0.02103-0.27364-0.05061-0.31944-0.06573-0.0458-0.01512-0.1328-0.03745-0.19334-0.04962-0.06054-0.01217-0.17603-0.04248-0.25665-0.06735-0.09621-0.02968-0.15085-0.03831-0.15901-0.02511-0.01818 0.02941-0.05201 1.7227-0.03648 1.8262 0.0072 0.0483 0.02345 0.09048 0.03601 0.09373 0.01256 0.0033 0.08383 0.02395 0.15836 0.04598 0.23719 0.07011 0.51468 0.12232 0.79376 0.14934 0.23258 0.02252 0.54515 0.02586 0.5602 6e-3zm-2.5155-0.09391c-0.71622-0.15766-0.76281-0.16397-1.21-0.16391-0.43406 5.5e-5 -0.67765 0.02925-1.0602 0.12708-0.1875 0.04795-0.22356 0.04708-0.28631-0.0069l-0.05153-0.04433-0.0076-0.38643c-0.02549-1.2909-0.0038-1.9616 0.06661-2.0611 0.09168-0.12954 0.43861-0.20093 0.98088-0.20184 0.33998-5.71e-4 0.56129 0.02242 0.83107 0.08634 0.08596 0.02037 0.25648 0.05433 0.37893 0.07548 0.12245 0.02115 0.30976 0.05582 0.41624 0.07704 0.10648 0.02122 0.23634 0.04553 0.28857 0.05402 0.06971 0.01133 0.10516 0.02917 0.13328 0.06709 0.03593 0.04845 0.0386 0.08812 0.04297 0.63888 0.0026 0.32297 0.0149 0.7963 0.02743 1.0519 0.0268 0.54693 0.01607 0.6275-0.0934 0.70112-0.08401 0.0565-0.14316 0.05463-0.45694-0.01444zm0.29995-0.25592c0-0.01331-0.01358-0.26378-0.03001-0.5566-0.01644-0.29282-0.0274-0.72732-0.02436-0.96555l0.0055-0.43315-0.27075-0.05368c-0.14891-0.02953-0.40143-0.07746-0.56115-0.10651-0.15972-0.02905-0.3601-0.06583-0.44528-0.08174-0.31103-0.05807-1.2186-0.02351-1.2912 0.04917-0.01114 0.01114-0.0231 0.43592-0.02982 1.0597l-0.01123 1.0411 0.06598-0.01407c0.4568-0.09737 0.57875-0.11226 0.99526-0.12155 0.46385-0.01034 0.5813 0.0027 1.1713 0.12968 0.14375 0.03095 0.27878 0.05999 0.30008 0.06454 0.07767 0.01659 0.12584 0.01221 0.12571-0.01144z" stroke-width=".01936"/></svg>
