<?xml version="1.0" encoding="UTF-8" standalone="no"?>
<svg xmlns:sketch="http://www.bohemiancoding.com/sketch/ns" xmlns:rdf="http://www.w3.org/1999/02/22-rdf-syntax-ns#" xmlns="http://www.w3.org/2000/svg" height="50px" width="50px" version="1.1" xmlns:cc="http://creativecommons.org/ns#" viewBox="0 0 50 50" xmlns:dc="http://purl.org/dc/elements/1.1/">
<metadata>
<rdf:RDF>
<cc:Work rdf:about="">
<dc:format>image/svg+xml</dc:format>
<dc:type rdf:resource="http://purl.org/dc/dcmitype/StillImage"/>
<dc:title>Facebook</dc:title>
</cc:Work>
</rdf:RDF>
</metadata>
<title>Facebook</title>
<description>Created with Sketch (http://www.bohemiancoding.com/sketch)</description>
<g fill-rule="evenodd" sketch:type="MSPage" stroke="none" stroke-width="1" fill="none">
<g fill="#000" sketch:type="MSArtboardGroup">
<path sketch:type="MSShapeGroup" fill="#222" d="M25,50c13.807,0,25-11.193,25-25s-11.193-25-25-25-25,11.193-25,25,11.193,25,25,25zm0-3c12.15,0,22-9.85,22-22s-9.85-22-22-22-22,9.85-22,22,9.85,22,22,22zm1.815-11v-11.001h3.254l0.431-3.791h-3.685l0.005-1.898c0-0.989,0.101-1.518,1.623-1.518h2.034v-3.792h-3.255c-3.909,0-5.285,1.839-5.285,4.932v2.276h-2.437v3.791h2.437v11.001h4.878z"/>
</g>
</g>
</svg>
