<?xml version="1.0" encoding="UTF-8" standalone="no"?>
<svg xmlns:sketch="http://www.bohemiancoding.com/sketch/ns" xmlns:rdf="http://www.w3.org/1999/02/22-rdf-syntax-ns#" xmlns="http://www.w3.org/2000/svg" height="50px" width="50px" version="1.1" xmlns:cc="http://creativecommons.org/ns#" viewBox="0 0 50 50" xmlns:dc="http://purl.org/dc/elements/1.1/">
<metadata>
<rdf:RDF>
<cc:Work rdf:about="">
<dc:format>image/svg+xml</dc:format>
<dc:type rdf:resource="http://purl.org/dc/dcmitype/StillImage"/>
<dc:title>Google +</dc:title>
</cc:Work>
</rdf:RDF>
</metadata>
<title>Google +</title>
<description>Created with Sketch (http://www.bohemiancoding.com/sketch)</description>
<g fill-rule="evenodd" sketch:type="MSPage" stroke="none" stroke-width="1" fill="#222">
<g fill="#222" sketch:type="MSArtboardGroup">
<path sketch:type="MSShapeGroup" fill="#222" d="M25,0c-13.807,0-25,11.193-25,25s11.193,25,25,25,25-11.193,25-25-11.193-25-25-25zm0,3c-12.15,0-22,9.85-22,22s9.85,22,22,22,22-9.85,22-22-9.85-22-22-22zm13.245,19.11v5.278h-2.241v-5.278h-5.23v-2.197h5.23v-5.232h2.241v5.232h3.993c0.294,0.712,0.55,1.446,0.762,2.197h-4.755zm-26.519,15.166c2.914-1.784,6.838-2.02,8.961-2.154-0.657-0.842-1.415-1.734-1.415-3.198,0-0.791,0.236-1.262,0.472-1.817-0.523,0.05-1.028,0.101-1.5,0.101-4.969,0-7.782-3.703-7.782-7.354,0-2.154,0.994-4.548,2.999-6.279,2.678-2.2,5.861-2.575,8.388-2.575h9.652l-2.998,1.685h-2.898c1.078,0.89,3.319,2.763,3.319,6.327,0,3.467-1.971,5.099-3.925,6.647-0.623,0.606-1.314,1.263-1.314,2.289,0,1.027,0.691,1.599,1.213,2.02l1.684,1.312c2.072,1.717,3.942,3.316,3.942,6.547,0,2.13-0.995,4.269-2.935,5.91-1.043,0.17-2.113,0.26-3.204,0.263,1.969-0.863,2.989-2.442,2.989-4.339,0-2.39-1.533-3.652-5.104-6.193-0.37-0.034-0.606-0.034-1.078-0.034-0.421,0-2.948,0.085-4.918,0.741-1.028,0.37-4.026,1.498-4.026,4.83,0,0.362,0.038,0.713,0.114,1.051-4.9393-3.66-2.7998-3.144-3.362-3.144,0.5622-0.944,1.434-1.873,2.726-2.636zm7.175-21.731c-1.212,0-2.526,0.609-3.284,1.546-0.792,0.983-1.028,2.245-1.028,3.457,0,3.147,1.819,8.347,5.862,8.347,1.162,0,2.426-0.572,3.184-1.313,1.078-1.077,1.162-2.574,1.162-3.416,0-3.382-2.005-8.621-5.896-8.621z"/>
</g>
</g>
</svg>
