<?xml version="1.0" encoding="UTF-8" standalone="no"?>
<!-- Created with Inkscape (http://www.inkscape.org/) -->
<svg xmlns:rdf="http://www.w3.org/1999/02/22-rdf-syntax-ns#" xmlns="http://www.w3.org/2000/svg" height="36.749" width="39.363" version="1.1" xmlns:cc="http://creativecommons.org/ns#" xmlns:dc="http://purl.org/dc/elements/1.1/">
<metadata>
<rdf:RDF>
<cc:Work rdf:about="">
<dc:format>image/svg+xml</dc:format>
<dc:type rdf:resource="http://purl.org/dc/dcmitype/StillImage"/>
<dc:title/>
</cc:Work>
</rdf:RDF>
</metadata>
<g transform="translate(-523.17555,-185.41621)">
<path fill="#222" d="M19.438,0l-19.438,11.094h4.3438v25.531h19.75v-9.187h6.375v9.187h4.719v-25.625h4.187l-19.937-11zm-9.8755,13.188h2.4065v2.5h-2.4065v-2.5zm3.6255,0h2.75v2.5h-2.75v-2.5zm10.906,0h2.468v2.406h-2.468v-2.406zm3.687,0h2.688v2.406h-2.688v-2.406zm-3.687,3.624h2.468v2.75h-2.468v-2.75zm3.687,0h2.688v2.75h-2.688v-2.75zm-18.218,0.094h2.4065v2.656h-2.4065v-2.656zm3.6255,0h2.75v2.656h-2.75v-2.656zm-3.6255,10.532h2.4995v2.562h-2.4995v-2.562zm3.6875,0h2.688v2.562h-2.688v-2.562zm-3.6875,3.781h2.4995v2.593h-2.4995v-2.593zm3.6875,0h2.688v2.593h-2.688v-2.593z" transform="translate(523.17555,185.41621)"/>
</g>
</svg>
