<?xml version="1.0" encoding="UTF-8" standalone="no"?>
<!-- Created with Inkscape (http://www.inkscape.org/) -->

<svg
   xmlns:dc="http://purl.org/dc/elements/1.1/"
   xmlns:cc="http://creativecommons.org/ns#"
   xmlns:rdf="http://www.w3.org/1999/02/22-rdf-syntax-ns#"
   xmlns:svg="http://www.w3.org/2000/svg"
   xmlns="http://www.w3.org/2000/svg"
   xmlns:sodipodi="http://sodipodi.sourceforge.net/DTD/sodipodi-0.dtd"
   xmlns:inkscape="http://www.inkscape.org/namespaces/inkscape"
   width="39.363178"
   height="36.749088"
   id="svg3195"
   version="1.1"
   inkscape:version="0.48.4 r9939"
   sodipodi:docname="New document 6">
  <defs
     id="defs3197" />
  <sodipodi:namedview
     id="base"
     pagecolor="#ffffff"
     bordercolor="#666666"
     borderopacity="1.0"
     inkscape:pageopacity="0.0"
     inkscape:pageshadow="2"
     inkscape:zoom="15.839192"
     inkscape:cx="29.763531"
     inkscape:cy="11.542212"
     inkscape:document-units="px"
     inkscape:current-layer="layer1"
     showgrid="false"
     fit-margin-top="0"
     fit-margin-left="0"
     fit-margin-right="0"
     fit-margin-bottom="0"
     inkscape:window-width="1920"
     inkscape:window-height="1056"
     inkscape:window-x="0"
     inkscape:window-y="24"
     inkscape:window-maximized="1" />
  <metadata
     id="metadata3200">
    <rdf:RDF>
      <cc:Work
         rdf:about="">
        <dc:format>image/svg+xml</dc:format>
        <dc:type
           rdf:resource="http://purl.org/dc/dcmitype/StillImage" />
        <dc:title></dc:title>
      </cc:Work>
    </rdf:RDF>
  </metadata>
  <g
     inkscape:label="Layer 1"
     inkscape:groupmode="layer"
     id="layer1"
     transform="translate(-523.17555,-185.41621)">
    <path
       style="fill:#222222;fill-opacity:1;stroke:none"
       d="M 19.4375 0 L 0 11.09375 L 4.34375 11.09375 L 4.34375 36.625 L 24.09375 36.625 L 24.09375 27.4375 L 30.46875 27.4375 L 30.46875 36.625 L 35.1875 36.625 L 35.1875 11 L 39.375 11 L 19.4375 0 z M 9.5625 13.1875 L 11.96875 13.1875 L 11.96875 15.6875 L 9.5625 15.6875 L 9.5625 13.1875 z M 13.1875 13.1875 L 15.9375 13.1875 L 15.9375 15.6875 L 13.1875 15.6875 L 13.1875 13.1875 z M 24.09375 13.1875 L 26.5625 13.1875 L 26.5625 15.59375 L 24.09375 15.59375 L 24.09375 13.1875 z M 27.78125 13.1875 L 30.46875 13.1875 L 30.46875 15.59375 L 27.78125 15.59375 L 27.78125 13.1875 z M 24.09375 16.8125 L 26.5625 16.8125 L 26.5625 19.5625 L 24.09375 19.5625 L 24.09375 16.8125 z M 27.78125 16.8125 L 30.46875 16.8125 L 30.46875 19.5625 L 27.78125 19.5625 L 27.78125 16.8125 z M 9.5625 16.90625 L 11.96875 16.90625 L 11.96875 19.5625 L 9.5625 19.5625 L 9.5625 16.90625 z M 13.1875 16.90625 L 15.9375 16.90625 L 15.9375 19.5625 L 13.1875 19.5625 L 13.1875 16.90625 z M 9.5625 27.4375 L 12.0625 27.4375 L 12.0625 30 L 9.5625 30 L 9.5625 27.4375 z M 13.25 27.4375 L 15.9375 27.4375 L 15.9375 30 L 13.25 30 L 13.25 27.4375 z M 9.5625 31.21875 L 12.0625 31.21875 L 12.0625 33.8125 L 9.5625 33.8125 L 9.5625 31.21875 z M 13.25 31.21875 L 15.9375 31.21875 L 15.9375 33.8125 L 13.25 33.8125 L 13.25 31.21875 z "
       transform="translate(523.17555,185.41621)"
       id="rect3046" />
  </g>
</svg>
