<?xml version="1.0" encoding="UTF-8"?>
<svg width="50" height="50" version="1.1" viewBox="0 0 13.229 13.229" xml:space="preserve" xmlns="http://www.w3.org/2000/svg"><path d="m2.0093 11.775c-0.44752-0.02605-0.5622-0.07529-0.64984-0.27901-0.044821-0.1042-0.043018-0.18225 0.01137-0.49135 0.021817-0.124 0.02649-0.30295 0.022894-0.87917-0.004178-0.67789-0.001209-0.75234 0.044877-1.1814 0.032549-0.30204 0.055685-0.65428 0.067924-1.0349 0.029239-0.90898 0.042897-1.6109 0.093546-1.7126 0.10665-0.21413 0.42591-0.44239 1.6364-1.17 0.31229-0.1877 0.62803-0.38817 0.70164-0.44548 0.07362-0.057313 0.2235-0.16191 0.33307-0.23242 0.10957-0.07052 0.276-0.1825 0.36984-0.24884 0.49312-0.34863 0.585-0.4113 0.74624-0.50902 0.15933-0.096559 0.42386-0.2816 0.73056-0.51103 0.20492-0.15329 0.37527-0.26015 0.53459-0.33535 0.085626-0.040412 0.17071-0.081769 0.18908-0.091886 0.2523-0.13906 0.29157-0.1366 0.57742 0.036101 0.12092 0.07306 0.30495 0.19565 0.40895 0.27244 0.20649 0.15245 0.68677 0.48877 0.97776 0.68467 0.10133 0.068222 0.27442 0.20117 0.38464 0.29544 0.11022 0.094272 0.26634 0.2219 0.34693 0.28362 0.080592 0.061723 0.23719 0.18721 0.348 0.27887 0.11081 0.091654 0.312 0.255 0.44709 0.36298 0.13509 0.10798 0.29169 0.23546 0.348 0.28327 0.05631 0.047812 0.23014 0.18502 0.38628 0.30489 0.32426 0.24894 0.51429 0.43626 0.57201 0.56387 0.04864 0.10751 0.0536 0.84462 0.01852 1.3043-0.01269 0.16622-0.03123 0.46706-0.0412 0.66854-0.01002 0.20148-0.02633 0.50232-0.03633 0.66854-0.01002 0.16622-0.02154 0.67724-0.02562 1.1356-0.0075 0.83305-0.03026 1.3308-0.06758 1.4725-0.05585 0.21203-0.20402 0.34027-0.44821 0.38792-0.15479 0.03019-1.0906 0.06758-1.1072 0.04422-0.00506-0.0072-0.035519-0.02645-0.067738-0.04295-0.1514-0.07756-0.17977-0.18019-0.19475-0.7045-0.00942-0.32982 0.029628-1.5583 0.060073-1.8898 0.085186-0.9276 0.124-1.5701 0.10323-1.7086l-0.012968-0.086358h-0.12283c-0.19052 0-0.66965-0.033154-1.0929-0.07561-0.47374-0.047527-1.154-0.056885-1.3124-0.018046-0.088516 0.021706-0.10479 0.03233-0.11223 0.073268-0.01917 0.10545 0.00184 2.5966 0.023493 2.7861 0.017003 0.14881 0.017108 0.29797 4.786e-4 0.65938-0.035683 0.77492-0.053608 0.86115-0.20125 0.9681l-0.071518 0.05181-0.72931 0.0132c-0.40112 0.0073-1.331 0.02078-2.0664 0.03003-0.73539 0.0092-1.4607 0.02034-1.6118 0.02465-0.15111 0.0043-0.38189 0.0016-0.51285-6e-3zm2.2071-0.63901c1.4928-0.0252 2.3524-0.04298 2.359-0.04882 0.00295-0.0028 0.010208-0.20153 0.016086-0.44202 0.00751-0.30685 0.00375-0.48915-0.012621-0.61126-0.015021-0.11206-0.026951-0.51961-0.033508-1.1448-0.019988-1.9049-0.018919-1.9332 0.078158-2.0744 0.081698-0.11886 0.18308-0.17538 0.44104-0.24584l0.21979-0.06004 0.50369 0.00209c0.37175 0.00154 0.59485 0.012008 0.85169 0.039873 0.1914 0.020773 0.52933 0.046636 0.75096 0.057489 0.59567 0.029152 0.67536 0.041445 0.79279 0.12232 0.10641 0.073291 0.22014 0.24225 0.2632 0.39103 0.03737 0.12914 0.02856 0.77335-0.01804 1.3188-0.02195 0.25688-0.05199 0.62366-0.06675 0.81506-0.02857 0.3704-0.07073 1.587-0.05714 1.6484 0.0045 0.02015 0.0087 0.06342 0.0094 0.09616l0.0014 0.05952 0.21521-2.06e-4c0.11837-1.05e-4 0.24489-5e-3 0.28117-0.01113l0.06595-0.01088 0.01461-0.25905c8e-3 -0.14248 0.01287-0.5022 0.01078-0.79937-4e-3 -0.54769 0.01968-1.3409 0.05229-1.7583 0.0098-0.12592 0.02711-0.38555 0.03839-0.57696 0.02166-0.36768 0.06034-0.74874 0.08117-0.79977 0.01176-0.028748-0.02588-0.43207-0.02747-0.56935-0.001307-0.11356-0.24118-0.2509-0.35441-0.33679-0.26298-0.19954-0.34446-0.26653-0.89806-0.73842-0.26687-0.22746-0.5385-0.45627-1.0697-0.90106-0.05723-0.047922-0.16175-0.12571-0.23227-0.17288-0.070516-0.047163-0.21063-0.14877-0.31137-0.2258-0.10074-0.07703-0.2491-0.18392-0.32969-0.23755-0.08059-0.053629-0.21247-0.14833-0.29306-0.21045-0.17586-0.13556-0.36712-0.26591-0.39016-0.26591-0.00919 0-0.11472 0.050726-0.23453 0.11272-0.21499 0.11125-0.38808 0.22248-0.63897 0.4106-0.070591 0.052936-0.2561 0.17377-0.41224 0.26853-0.15614 0.094756-0.45977 0.29123-0.67472 0.4366-0.21495 0.14537-0.47152 0.31788-0.57017 0.38336-0.098648 0.065483-0.23651 0.16614-0.30639 0.22368-0.12812 0.10552-0.79454 0.53527-1.1206 0.72265-0.096933 0.055696-0.24218 0.14616-0.32277 0.20103-0.36938 0.2058-0.45799 0.23783-0.68618 0.45284-0.11916 0.2224-0.058632 0.27024-0.056877 0.58186-0.024687 0.019804-0.031747 0.13715-0.050264 0.83809-0.011843 0.44828-0.029591 0.87276-0.03941 0.94328-0.057225 0.41099-0.080086 0.80054-0.082759 1.4103-0.00165 0.35258-0.00946 0.71671-0.017473 0.80916l-0.014681 0.1681 0.061711 0.0083c0.076337 0.01023 0.74873 4e-3 2.2138-0.02081zm-1.3968-0.63919c-0.047977-0.017869-0.11683-0.056184-0.153-0.08514-0.12374-0.099092-0.12478-0.10636-0.1224-0.86315 0.0012069-0.37273 0.011205-0.78484 0.022333-0.9158 0.011128-0.13096 0.032186-0.52659 0.046833-0.87917 0.014636-0.35258 0.034221-0.6667 0.043546-0.69804 0.028678-0.096416 0.050968-0.12473 0.15219-0.19324 0.14751-0.099825 0.28051-0.11554 0.92194-0.10892 0.44538 0.00462 0.60511-0.00143 0.98906-0.037487 0.25185-0.023631 0.5362-0.042963 0.6319-0.042963 0.15449 0 0.18094 0.00495 0.23584 0.044106 0.1434 0.10228 0.1762 0.29737 0.1604 0.95412-0.00638 0.26696-0.020024 0.58016-0.030196 0.69601-0.010116 0.11585-0.026567 0.46614-0.036376 0.77843-0.020024 0.6374-0.032154 0.75776-0.093304 0.92625-0.032505 0.08963-0.069145 0.14474-0.15329 0.23069-0.13999 0.14299-0.19927 0.16108-0.47688 0.14553-0.1135-0.0063-0.24947-3e-3 -0.31137 0.0077-0.10526 0.01816-0.64948 0.04313-1.392 0.06386-0.30387 0.0085-0.35906 0.0056-0.43524-0.02276zm0.91322-0.58437 0.16308-0.011568-0.001207-0.12123c-0.00165-0.14611 0.02218-0.88414 0.031351-0.9694l0.00648-0.060579-0.90099-0.00704-0.011887 0.35553c-0.00648 0.19554-0.011886 0.46135-0.011886 0.59069v0.23516h0.28108c0.1546 0 0.35447-0.0052 0.44416-0.01157zm1.4024-0.06093c0.00165-0.01553 0.00363-0.25261 0.00462-0.52683l0.00165-0.49859-0.073258-0.00946c-0.064935-0.0084649-0.20848-0.020902-0.68227-0.059323l-0.13279-0.010776v0.55823c0 0.30703 0.00539 0.56364 0.012008 0.57025 0.0066 0.0066 0.20442 0.01034 0.43958 0.0084 0.36996-0.0031 0.42797-0.0075 0.43058-0.03186zm0.042149-1.608c0.00671-0.12844 0.019463-0.35041 0.02836-0.49327 0.01579-0.25411 0.00648-0.52501-0.01755-0.51016-0.0066 0.00407-0.21307 0.024654-0.45873 0.045646-0.24566 0.021003-0.44856 0.040093-0.4509 0.042424-0.00242 0.00231-0.00692 0.25259-0.010337 0.55613l-0.00604 0.55189 0.18316 0.017572c0.10074 0.00968 0.3039 0.018858 0.45148 0.020431l0.26832 0.00286zm-1.2101-0.082419c0.00616-0.1637 0.013239-0.41797 0.015681-0.56505l0.00451-0.26741-0.37111-0.011535c-0.20411-0.00638-0.40811-0.00649-0.45332-2.604e-4l-0.082209 0.011272-7.972e-4 0.12114c-3.992e-4 0.066627-0.00792 0.31484-0.016517 0.55157-0.011568 0.31958-0.010228 0.43389 0.0055 0.44388 0.011612 0.00736 0.21596 0.01358 0.45414 0.013734l0.43306 2.606e-4zm-3.5784-1.5233c-0.084298-0.037882-0.1255-0.077029-0.16734-0.159-0.084727-0.16602-0.033946-0.26803 0.29117-0.58464 0.26872-0.26172 0.7902-0.67444 1.2109-0.95839 0.13697-0.092435 0.42624-0.29302 0.64283-0.44572s0.48738-0.32938 0.60176-0.39259c0.11438-0.063218 0.29159-0.17726 0.39379-0.25343 0.20132-0.15003 0.44192-0.32071 0.74447-0.5281 0.23273-0.15954 0.44682-0.31312 0.69209-0.49648 0.29129-0.21776 0.58865-0.39789 0.98358-0.59583 0.20161-0.10105 0.40777-0.21335 0.45814-0.24955 0.31618-0.22729 0.75069-0.46485 0.92849-0.50763 0.1873-0.045074 0.23013-0.026985 0.48151 0.20328 0.095983 0.087916 0.25071 0.21071 0.34385 0.27286 0.093132 0.062151 0.21054 0.14719 0.26091 0.18896 0.050369 0.041775 0.14867 0.11619 0.21844 0.16538 0.069775 0.049175 0.14037 0.10239 0.15687 0.11824 0.035097 0.033704 0.16414 0.13508 0.19647 0.15434 0.017255 0.010228 0.021755-0.066736 0.01986-0.34001-0.00279-0.40053 0.010721-0.45684 0.12875-0.53704 0.1105-0.075083 0.23064-0.091281 0.49448-0.066671 0.12765 0.011898 0.30626 0.02163 0.39693 0.021608 0.19436-3.63e-5 0.56737 0.058017 0.65368 0.10175 0.12639 0.064042 0.18226 0.14718 0.18167 0.27035-2.08e-4 0.042072 0.0074 0.34849 0.01679 0.68093 0.0094 0.33244 0.01928 0.77929 0.0219 0.99301l0.0047 0.38858 0.13757 0.10569c0.07567 0.058126 0.22831 0.18823 0.33921 0.28911 0.1109 0.10088 0.23866 0.21275 0.2839 0.24859 0.60944 0.48279 0.81986 0.65965 1.0439 0.87735 0.0957 0.093018 0.22972 0.21408 0.29782 0.26903 0.0681 0.054949 0.13713 0.12022 0.15339 0.14504 0.03412 0.052068 0.05319 0.18595 0.03616 0.2538-0.01636 0.065153-0.11829 0.17615-0.18886 0.20563-0.17874 0.074677-0.3058 0.00308-0.7568-0.42651-0.1362-0.12974-0.43292-0.38384-0.65937-0.56467-0.22644-0.18082-0.49762-0.40608-0.60261-0.50057-0.23608-0.21248-0.54214-0.45948-0.94632-0.76373-0.17035-0.12823-0.3427-0.26385-0.38299-0.30137-0.084994-0.079152-0.33581-0.2716-0.49453-0.37945-0.060443-0.041071-0.17624-0.1274-0.25732-0.19184-0.081085-0.064438-0.27156-0.20151-0.42329-0.3046-0.15172-0.10309-0.31204-0.21923-0.35626-0.25808-0.044222-0.03885-0.12932-0.10189-0.1891-0.14008-0.059785-0.03819-0.20205-0.15554-0.31615-0.26077l-0.20745-0.19134-0.35239 0.21026c-0.19381 0.11564-0.39772 0.23292-0.45313 0.26062-0.22569 0.11284-0.52966 0.29821-0.73042 0.44542-0.37982 0.27853-0.57538 0.40913-0.78065 0.52134-0.11081 0.060579-0.26329 0.1533-0.33885 0.20606-0.075556 0.05276-0.25408 0.16615-0.39673 0.25199-0.14265 0.085838-0.32398 0.20111-0.40295 0.25616-0.078976 0.055048-0.26761 0.17023-0.41919 0.25595-0.30723 0.17374-0.44101 0.25806-0.72271 0.4555-0.56437 0.39557-0.76481 0.54829-1.1626 0.88581-0.3211 0.27245-0.69158 0.57176-0.81605 0.65928-0.083374 0.058622-0.20768 0.074038-0.2919 0.036189zm9.71-3.8102c-0.0093-0.29764-0.02008-0.54374-0.02377-0.54687-0.0038-0.00319-0.14891-0.010887-0.32271-0.017121l-0.31599-0.011425 0.00355 0.32483c0.00195 0.17865-0.00204 0.35779-0.00887 0.39809l-0.012398 0.073269 0.22411 0.17055c0.12326 0.093798 0.27768 0.2171 0.34316 0.27399l0.11905 0.10344 0.0055-0.11379c3e-3 -0.062591-0.0023-0.35732-0.0116-0.65496z" stroke-width=".018316"/></svg>
