<?xml version="1.0" encoding="UTF-8" standalone="no"?>
<svg
   width="50"
   height="50"
   viewBox="0 0 13.229166 13.229167"
   version="1.1"
   id="svg8"
   inkscape:version="1.2.2 (b0a8486541, 2022-12-01)"
   sodipodi:docname="icon_house.svg"
   xml:space="preserve"
   xmlns:inkscape="http://www.inkscape.org/namespaces/inkscape"
   xmlns:sodipodi="http://sodipodi.sourceforge.net/DTD/sodipodi-0.dtd"
   xmlns="http://www.w3.org/2000/svg"
   xmlns:svg="http://www.w3.org/2000/svg"
   xmlns:rdf="http://www.w3.org/1999/02/22-rdf-syntax-ns#"
   xmlns:cc="http://creativecommons.org/ns#"
   xmlns:dc="http://purl.org/dc/elements/1.1/"><defs
     id="defs2" /><sodipodi:namedview
     id="base"
     pagecolor="#ffffff"
     bordercolor="#666666"
     borderopacity="1.0"
     inkscape:pageopacity="0.0"
     inkscape:pageshadow="2"
     inkscape:zoom="8"
     inkscape:cx="21.4375"
     inkscape:cy="29.0625"
     inkscape:document-units="mm"
     inkscape:current-layer="layer1"
     inkscape:document-rotation="0"
     showgrid="false"
     units="px"
     inkscape:window-width="1854"
     inkscape:window-height="1131"
     inkscape:window-x="0"
     inkscape:window-y="0"
     inkscape:window-maximized="1"
     inkscape:showpageshadow="2"
     inkscape:pagecheckerboard="0"
     inkscape:deskcolor="#d1d1d1" /><metadata
     id="metadata5"><rdf:RDF><cc:Work
         rdf:about=""><dc:format>image/svg+xml</dc:format><dc:type
           rdf:resource="http://purl.org/dc/dcmitype/StillImage" /><dc:title /></cc:Work></rdf:RDF></metadata><g
     inkscape:label="Layer 1"
     inkscape:groupmode="layer"
     id="layer1"><path
       style="fill:#000000;stroke-width:0.0183161"
       d="m 2.0093215,11.774726 c -0.4475206,-0.02605 -0.5622048,-0.07529 -0.6498391,-0.279007 -0.044821,-0.104202 -0.043018,-0.182248 0.01137,-0.491353 0.021817,-0.123997 0.02649,-0.30295 0.022894,-0.879171 C 1.3895684,9.4473064 1.3925374,9.3728534 1.4386232,8.943811 1.4711723,8.6417667 1.4943086,8.2895315 1.5065476,7.9089556 1.5357868,6.9999709 1.5494444,6.2980285 1.6000935,6.1963463 1.7067471,5.9822178 2.0260063,5.7539611 3.2365021,5.0263953 3.5487907,4.8386964 3.8645344,4.6382274 3.9381462,4.5809111 4.0117667,4.5235981 4.1616414,4.4190031 4.2712124,4.3484868 4.38078,4.2779672 4.5472075,4.1659903 4.6410559,4.0996427 5.1341795,3.7510101 5.2260606,3.6883386 5.3872945,3.5906261 5.5466262,3.4940672 5.8111566,3.3090272 6.1178514,3.0795982 6.3227676,2.9263069 6.4931197,2.8194433 6.6524427,2.7442447 c 0.085626,-0.040412 0.1707141,-0.081769 0.1890828,-0.091886 0.2522988,-0.1390599 0.2915659,-0.1366044 0.5774242,0.036101 0.1209211,0.07306 0.304947,0.1956548 0.4089466,0.272438 0.2064922,0.1524511 0.6867731,0.4887668 0.977755,0.68467 0.1013305,0.068222 0.2744166,0.2011684 0.3846362,0.2954401 0.1102205,0.094272 0.2663381,0.2219008 0.3469284,0.283619 0.080592,0.061723 0.2371932,0.1872072 0.3480044,0.2788651 0.1108126,0.091654 0.3120047,0.255001 0.4470937,0.362984 0.135089,0.1079842 0.291692,0.235455 0.348005,0.2832704 0.05631,0.047812 0.23014,0.1850158 0.386285,0.3048892 0.324258,0.2489386 0.514287,0.4362625 0.572009,0.5638697 0.04864,0.1075113 0.0536,0.8446233 0.01852,1.3043357 -0.01269,0.1662185 -0.03123,0.4670589 -0.0412,0.6685352 -0.01002,0.2014762 -0.02633,0.5023176 -0.03633,0.6685351 -0.01002,0.1662175 -0.02154,0.6772354 -0.02562,1.135595 -0.0075,0.8330498 -0.03026,1.3307868 -0.06758,1.4724678 -0.05585,0.212027 -0.204018,0.340266 -0.44821,0.387919 -0.154788,0.03019 -1.0906306,0.06758 -1.1071583,0.04422 -0.00506,-0.0072 -0.035519,-0.02645 -0.067738,-0.04295 -0.1514001,-0.07756 -0.1797698,-0.180192 -0.1947488,-0.7045 -0.00942,-0.329817 0.029628,-1.5582566 0.060073,-1.8897933 C 9.8138069,8.1352728 9.852621,7.4927869 9.8318477,7.354256 L 9.8188792,7.2678981 H 9.6960488 c -0.190519,0 -0.6696517,-0.033154 -1.0929471,-0.07561 -0.4737416,-0.047527 -1.1540415,-0.056885 -1.3123843,-0.018046 -0.088516,0.021706 -0.1047887,0.03233 -0.1122301,0.073268 -0.01917,0.1054549 0.00184,2.5965651 0.023493,2.7861189 0.017003,0.148814 0.017108,0.297973 4.786e-4,0.659378 -0.035683,0.774924 -0.053608,0.861146 -0.2012477,0.968101 l -0.071518,0.05181 -0.7293105,0.0132 c -0.4011238,0.0073 -1.3309938,0.02078 -2.0663835,0.03003 -0.7353886,0.0092 -1.4607033,0.02034 -1.6118097,0.02465 -0.1511063,0.0043 -0.3818889,0.0016 -0.5128477,-0.006 z m 2.2070818,-0.63901 c 1.4927731,-0.0252 2.352392,-0.04298 2.3589896,-0.04882 0.00295,-0.0028 0.010208,-0.201529 0.016086,-0.44202 0.00751,-0.306846 0.00375,-0.489152 -0.012621,-0.61126 C 6.5638368,9.9215602 6.5519068,9.5140058 6.5453497,8.8888612 6.5253616,6.9839998 6.5264305,6.9556722 6.6235074,6.8144351 6.7052058,6.6955722 6.8065903,6.6390563 7.064548,6.5685908 l 0.2197924,-0.06004 0.5036909,0.00209 c 0.3717478,0.00154 0.5948507,0.012008 0.8516948,0.039873 0.1914027,0.020773 0.5293333,0.046636 0.7509572,0.057489 0.5956737,0.029152 0.6753587,0.041445 0.7927857,0.1223168 0.106411,0.073291 0.220141,0.2422506 0.2632,0.3910291 0.03737,0.1291434 0.02856,0.773348 -0.01804,1.3187537 -0.02195,0.2568824 -0.05199,0.6236602 -0.06675,0.8150637 -0.02857,0.3703997 -0.07073,1.5869949 -0.05714,1.6484429 0.0045,0.02015 0.0087,0.06342 0.0094,0.09616 l 0.0014,0.05952 0.215213,-2.06e-4 c 0.118367,-1.05e-4 0.244894,-0.005 0.28117,-0.01113 l 0.06595,-0.01088 0.01461,-0.25905 c 0.008,-0.142478 0.01287,-0.502195 0.01078,-0.7993718 -0.004,-0.547694 0.01968,-1.340887 0.05229,-1.7583392 0.0098,-0.1259237 0.02711,-0.3855529 0.03839,-0.5769554 0.02166,-0.3676806 0.06034,-0.748736 0.08117,-0.7997667 C 11.086872,6.8148419 11.049232,6.41152 11.047642,6.2742376 11.046335,6.1606808 10.80646,6.0233413 10.693232,5.9374435 10.430255,5.7379052 10.348772,5.6709099 9.7951735,5.1990225 9.5283073,4.9715642 9.2566737,4.7427532 8.725457,4.2979662 8.6682266,4.2500442 8.5637064,4.1722538 8.4931901,4.1250904 8.4226739,4.0779271 8.2825561,3.9763175 8.1818178,3.8992914 8.0810791,3.8222619 7.9327199,3.7153687 7.8521292,3.6617439 7.7715392,3.6081146 7.6396634,3.5134185 7.5590727,3.4512979 7.3832099,3.3157394 7.1919503,3.1853909 7.16891,3.1853909 c -0.00919,0 -0.1147222,0.050726 -0.234534,0.1127224 C 6.7193825,3.4093622 6.5462926,3.5205904 6.2954022,3.708717 6.2248112,3.7616534 6.0393001,3.8824879 5.8831584,3.9772468 5.7270136,4.0720023 5.423389,4.268474 5.2084378,4.4138425 4.9934867,4.5592098 4.7369133,4.7317217 4.6382717,4.7972006 4.5396233,4.8626838 4.4017578,4.9633367 4.3318858,5.0208817 4.2037662,5.1264026 3.5373435,5.5561521 3.2112577,5.743531 3.1143249,5.7992275 2.9690796,5.8896933 2.8884896,5.9445596 2.5191116,6.1503633 2.4304981,6.1823882 2.2023142,6.3973966 2.0831584,6.6197997 2.1436819,6.6676391 2.1454372,6.9792593 c -0.024687,0.019804 -0.031747,0.1371454 -0.050264,0.8380879 -0.011843,0.4482848 -0.029591,0.8727594 -0.03941,0.9432757 -0.057225,0.4109863 -0.080086,0.8005408 -0.082759,1.4103341 -0.00165,0.352584 -0.00946,0.716707 -0.017473,0.80916 l -0.014681,0.168099 0.061711,0.0083 c 0.076337,0.01023 0.7487281,0.004 2.2138344,-0.02081 z M 2.8195677,10.496528 C 2.771591,10.478659 2.7027414,10.440344 2.6665712,10.411388 2.5428271,10.312296 2.5417944,10.305027 2.5441719,9.5482408 2.5453788,9.1755096 2.555377,8.7633994 2.5665053,8.6324395 2.5776337,8.5014796 2.5986917,8.1058529 2.6133386,7.7532703 2.6279742,7.4006868 2.6475593,7.0865705 2.6568844,7.0552353 2.6855624,6.9588195 2.7078529,6.9305004 2.8090761,6.8619986 2.9565888,6.7621737 3.0895908,6.7464589 3.7310166,6.7530798 c 0.4453819,0.00462 0.6051126,-0.00143 0.9890633,-0.037487 0.2518472,-0.023631 0.5362019,-0.042963 0.6319042,-0.042963 0.1544932,0 0.180935,0.00495 0.2358365,0.044106 0.1434001,0.1022766 0.1762,0.2973688 0.1604004,0.9541203 C 5.741841,7.9378122 5.728197,8.2510168 5.718025,8.3668656 5.707909,8.4827143 5.691458,8.8330085 5.681649,9.1452961 5.661625,9.7826942 5.649495,9.9030522 5.588345,10.071545 5.55584,10.161175 5.5192,10.216287 5.435057,10.302236 c -0.1399857,0.142986 -0.1992714,0.161077 -0.4768776,0.145528 -0.1134999,-0.0063 -0.2494653,-0.003 -0.3113715,0.0077 -0.105257,0.01816 -0.6494752,0.04313 -1.3920202,0.06386 -0.3038687,0.0085 -0.3590649,0.0056 -0.4352422,-0.02276 z M 3.7327926,9.9121552 3.895874,9.9005872 3.894667,9.7793592 C 3.893017,9.6332467 3.916847,8.8952237 3.926018,8.8099602 l 0.00648,-0.060579 -0.4504919,-0.00352 -0.450495,-0.00352 -0.011887,0.3555296 c -0.00648,0.1955399 -0.011886,0.4613513 -0.011886,0.5906923 v 0.2351621 h 0.2810843 c 0.1545966,0 0.3544706,-0.0052 0.4441613,-0.01157 z m 1.4024272,-0.06093 c 0.00165,-0.01553 0.00363,-0.2526083 0.00462,-0.5268328 l 0.00165,-0.4985911 -0.073258,-0.00946 C 5.0032965,8.8078764 4.8597568,8.7954395 4.3859593,8.7570182 L 4.2531651,8.7462418 v 0.5582297 c 0,0.3070266 0.00539,0.5636387 0.012008,0.5702457 0.0066,0.0066 0.204421,0.01034 0.4395823,0.0084 0.3699623,-0.0031 0.4279747,-0.0075 0.4305841,-0.03186 z m 0.042149,-1.6079993 c 0.00671,-0.1284407 0.019463,-0.3504108 0.02836,-0.4932666 0.01579,-0.2541058 0.00648,-0.5250108 -0.01755,-0.5101613 -0.0066,0.00407 -0.2130719,0.024654 -0.4587325,0.045646 -0.2456596,0.021003 -0.4485642,0.040093 -0.4508977,0.042424 -0.00242,0.00231 -0.00692,0.2525906 -0.010337,0.5561272 l -0.00604,0.5518859 0.1831608,0.017572 c 0.1007372,0.00968 0.3039006,0.018858 0.4514771,0.020431 l 0.2683164,0.00286 z M 3.967292,8.1608072 C 3.973452,7.9971079 3.980531,7.742837 3.982973,7.5957609 l 0.00451,-0.2674103 -0.3711114,-0.011535 c -0.204111,-0.00638 -0.4081054,-0.00649 -0.4533214,-2.604e-4 l -0.082209,0.011272 -7.972e-4,0.1211434 c -3.992e-4,0.066627 -0.00792,0.3148354 -0.016517,0.5515691 -0.011568,0.3195793 -0.010228,0.433893 0.0055,0.4438843 0.011612,0.00736 0.2159607,0.01358 0.4541416,0.013734 l 0.4330572,2.606e-4 z M 0.38890273,6.6374583 C 0.30460471,6.599576 0.26340029,6.5604289 0.22156248,6.4784599 0.13683561,6.3124414 0.18761675,6.2104293 0.51273042,5.8938159 0.78145374,5.6320984 1.3029293,5.219379 1.7236606,4.9354301 1.8606268,4.8429949 2.1499011,4.6424137 2.3664874,4.4897052 2.5830737,4.3369967 2.8538665,4.1603294 2.968245,4.0971124 3.0826225,4.0338944 3.2598319,3.9198524 3.3620397,3.8436829 3.5633575,3.693652 3.8039643,3.5229754 4.1065123,3.3155799 4.3392446,3.1560394 4.5533336,3.0024621 4.7986072,2.8191047 5.0898994,2.601345 5.3872583,2.4212105 5.7821855,2.223274 5.9837938,2.1222286 6.1899577,2.0099283 6.2403276,1.9737196 6.5565121,1.746425 6.9910143,1.5088686 7.1688186,1.4660852 7.3561167,1.4210112 7.398945,1.4391002 7.6503295,1.6693626 c 0.095983,0.087916 0.2507149,0.2107077 0.3438476,0.2728623 0.093132,0.062151 0.2105435,0.1471872 0.2609129,0.1889623 0.050369,0.041775 0.1486686,0.1161941 0.2184442,0.1653753 0.069775,0.049175 0.1403671,0.102387 0.1568715,0.1182415 0.035097,0.033704 0.1641441,0.1350846 0.1964736,0.1543415 0.017255,0.010228 0.021755,-0.066736 0.01986,-0.3400138 C 8.8439493,1.8286008 8.8574603,1.7722895 8.9754881,1.692091 9.0859841,1.617008 9.2061232,1.60081 9.4699722,1.62542 9.5976176,1.637318 9.776234,1.64705 9.8668978,1.647028 c 0.1943612,-3.63e-5 0.5673712,0.058017 0.6536752,0.1017488 0.126393,0.064042 0.182259,0.1471849 0.181674,0.2703507 -2.08e-4,0.042072 0.0074,0.3484896 0.01679,0.6809258 0.0094,0.3324351 0.01928,0.7792905 0.0219,0.993011 l 0.0047,0.3885825 0.137572,0.1056859 c 0.07567,0.058126 0.22831,0.1882278 0.33921,0.2891094 0.110902,0.1008805 0.238656,0.2127475 0.283899,0.248589 0.609442,0.4827892 0.819864,0.6596468 1.043852,0.8773459 0.0957,0.093018 0.22972,0.214077 0.29782,0.269029 0.0681,0.054949 0.137126,0.1202198 0.153389,0.1450385 0.03412,0.052068 0.05319,0.1859461 0.03616,0.2538046 -0.01636,0.065153 -0.11829,0.1761451 -0.188859,0.2056306 -0.178738,0.074677 -0.305796,0.00308 -0.756802,-0.4265142 C 11.955674,5.9196232 11.658955,5.6655229 11.432508,5.4847 11.206063,5.303876 10.934887,5.0786202 10.829897,4.9841308 10.593819,4.7716461 10.287762,4.5246473 9.883572,4.2203991 9.71322,4.0921696 9.5408732,3.9565505 9.5005779,3.9190255 9.4155838,3.8398737 9.1647713,3.6474266 9.0060451,3.5395755 8.9456025,3.4985042 8.8298065,3.4121785 8.7487221,3.3477376 8.6676371,3.2832991 8.4771574,3.1462251 8.3254326,3.0431366 8.1737086,2.9400458 8.0133895,2.8239111 7.9691692,2.7850566 7.9249474,2.7462065 7.8398526,2.6831645 7.7800677,2.6449774 7.7202827,2.6067871 7.578017,2.4894407 7.4639214,2.3842056 L 7.2564752,2.1928669 6.9040865,2.403127 C 6.7102731,2.518769 6.5063655,2.6360506 6.4509596,2.6637515 6.2252669,2.7765905 5.9212948,2.9619571 5.72054,3.1091718 5.3407217,3.3876973 5.1451604,3.5182976 4.9398861,3.6305087 4.8290748,3.6910876 4.6765961,3.7838111 4.6010401,3.8365682 4.5254843,3.8893287 4.3469596,4.0027209 4.2043139,4.0885584 4.0616637,4.1743959 3.8803339,4.2896706 3.8013603,4.3447227 3.7223846,4.3997705 3.5337455,4.5149528 3.3821685,4.6006738 3.0749371,4.7744162 2.9411622,4.8587317 2.6594598,5.0561766 2.095092,5.4517418 1.8946484,5.6044634 1.4968565,5.9419876 1.1757532,6.214442 0.8052718,6.5137483 0.68080193,6.6012638 0.5974276,6.6598854 0.47312267,6.6753023 0.38890053,6.6374528 Z M 10.098866,2.827287 c -0.0093,-0.2976448 -0.02008,-0.5437354 -0.02377,-0.5468715 -0.0038,-0.00319 -0.1489145,-0.010887 -0.3227085,-0.017121 l -0.3159894,-0.011425 0.00355,0.3248267 c 0.00195,0.1786533 -0.00204,0.3577937 -0.00887,0.3980887 l -0.012398,0.073269 0.2241097,0.1705534 c 0.1232599,0.093798 0.2776838,0.2171009 0.3431636,0.2739917 l 0.1190536,0.1034426 0.0055,-0.1137913 c 0.003,-0.062591 -0.0023,-0.3573186 -0.0116,-0.6549624 z"
       id="path449"
       sodipodi:nodetypes="ccsccccccccssccccssccssccccccscccscccsccsccscccccccccccssccccccsccccccccccccscccsccsssccsscccccsccccccccccscccccscccccscccccccccccccscsccccccccscsccccccccccsccccccccccccccccccscscssccccscccccccccccccsccsscccscsssccccccssccccccsssccccccccccccccc" /></g></svg>
