<?xml version="1.0" encoding="UTF-8" standalone="no"?>
<svg xmlns:sketch="http://www.bohemiancoding.com/sketch/ns" xmlns:rdf="http://www.w3.org/1999/02/22-rdf-syntax-ns#" xmlns="http://www.w3.org/2000/svg" height="50px" width="50px" version="1.1" xmlns:cc="http://creativecommons.org/ns#" viewBox="0 0 50 50" xmlns:dc="http://purl.org/dc/elements/1.1/">
<metadata>
<rdf:RDF>
<cc:Work rdf:about="">
<dc:format>image/svg+xml</dc:format>
<dc:type rdf:resource="http://purl.org/dc/dcmitype/StillImage"/>
<dc:title>LinkedIn</dc:title>
</cc:Work>
</rdf:RDF>
</metadata>
<title>LinkedIn</title>
<description>Created with Sketch (http://www.bohemiancoding.com/sketch)</description>
<g fill-rule="evenodd" sketch:type="MSPage" stroke="none" stroke-width="1" fill="#222">
<g fill="#222" sketch:type="MSArtboardGroup">
<path sketch:type="MSShapeGroup" fill="#222" d="M25,50c13.807,0,25-11.193,25-25s-11.193-25-25-25-25,11.193-25,25,11.193,25,25,25zm0-3c12.15,0,22-9.85,22-22s-9.85-22-22-22-22,9.85-22,22,9.85,22,22,22zm-11-26.882v14.54h4.71v-14.54h-4.71zm2.665-7.118c-1.612,0-2.665,1.086-2.665,2.512,0,1.396,1.022,2.513,2.604,2.513h0.03c1.642,0,2.665-1.117,2.665-2.513-0.031-1.426-1.023-2.512-2.634-2.512zm13.912,7.118c-2.501,0-3.62,1.411-4.246,2.401v-2.059h-4.71c0.062,1.364,0,14.54,0,14.54h4.71v-8.12c0-0.435,0.031-0.868,0.156-1.18,0.34-0.868,1.115-1.767,2.416-1.767,1.705,0,2.387,1.334,2.387,3.288v7.779h4.71v-8.337c0-4.466-2.324-6.545-5.423-6.545z"/>
</g>
</g>
</svg>
