<?xml version="1.0" encoding="UTF-8" standalone="no"?>
<svg
   xmlns:dc="http://purl.org/dc/elements/1.1/"
   xmlns:cc="http://creativecommons.org/ns#"
   xmlns:rdf="http://www.w3.org/1999/02/22-rdf-syntax-ns#"
   xmlns:svg="http://www.w3.org/2000/svg"
   xmlns="http://www.w3.org/2000/svg"
   xmlns:sodipodi="http://sodipodi.sourceforge.net/DTD/sodipodi-0.dtd"
   xmlns:inkscape="http://www.inkscape.org/namespaces/inkscape"
   width="50px"
   height="50px"
   viewBox="0 0 50 50"
   version="1.1"
   id="svg2"
   inkscape:version="0.48.4 r9939"
   sodipodi:docname="Logout.svg">
  <metadata
     id="metadata15">
    <rdf:RDF>
      <cc:Work
         rdf:about="">
        <dc:format>image/svg+xml</dc:format>
        <dc:type
           rdf:resource="http://purl.org/dc/dcmitype/StillImage" />
        <dc:title>Facebook</dc:title>
      </cc:Work>
    </rdf:RDF>
  </metadata>
  <sodipodi:namedview
     pagecolor="#ffffff"
     bordercolor="#666666"
     borderopacity="1"
     objecttolerance="10"
     gridtolerance="10"
     guidetolerance="10"
     inkscape:pageopacity="0"
     inkscape:pageshadow="2"
     inkscape:window-width="1920"
     inkscape:window-height="1056"
     id="namedview13"
     showgrid="false"
     inkscape:zoom="9.44"
     inkscape:cx="46.857938"
     inkscape:cy="24.945855"
     inkscape:window-x="0"
     inkscape:window-y="24"
     inkscape:window-maximized="1"
     inkscape:current-layer="svg2"
     showguides="true"
     inkscape:guide-bbox="true">
    <sodipodi:guide
       orientation="1,0"
       position="25.018397,25.018397"
       id="guide3798" />
    <sodipodi:guide
       orientation="0,1"
       position="21.048412,25.018397"
       id="guide3800" />
  </sodipodi:namedview>
  <title
     id="title4">Facebook</title>
  <description
     id="description6">Created with Sketch (http://www.bohemiancoding.com/sketch)</description>
  <defs
     id="defs8">
    <marker
       inkscape:stockid="TriangleOutS"
       orient="auto"
       refY="0.0"
       refX="0.0"
       id="TriangleOutS"
       style="overflow:visible">
      <path
         id="path4639"
         d="M 5.77,0.0 L -2.88,5.0 L -2.88,-5.0 L 5.77,0.0 z "
         style="fill-rule:evenodd;stroke:#000000;stroke-width:1.0pt"
         transform="scale(0.2)" />
    </marker>
    <marker
       inkscape:stockid="TriangleOutM"
       orient="auto"
       refY="0.0"
       refX="0.0"
       id="TriangleOutM"
       style="overflow:visible">
      <path
         id="path4636"
         d="M 5.77,0.0 L -2.88,5.0 L -2.88,-5.0 L 5.77,0.0 z "
         style="fill-rule:evenodd;stroke:#000000;stroke-width:1.0pt"
         transform="scale(0.4)" />
    </marker>
    <marker
       inkscape:stockid="TriangleOutL"
       orient="auto"
       refY="0.0"
       refX="0.0"
       id="TriangleOutL"
       style="overflow:visible">
      <path
         id="path4633"
         d="M 5.77,0.0 L -2.88,5.0 L -2.88,-5.0 L 5.77,0.0 z "
         style="fill-rule:evenodd;stroke:#000000;stroke-width:1.0pt"
         transform="scale(0.8)" />
    </marker>
    <marker
       inkscape:stockid="Arrow2Lend"
       orient="auto"
       refY="0.0"
       refX="0.0"
       id="Arrow2Lend"
       style="overflow:visible;">
      <path
         id="path4512"
         style="fill-rule:evenodd;stroke-width:0.62500000;stroke-linejoin:round;"
         d="M 8.7185878,4.0337352 L -2.2072895,0.016013256 L 8.7185884,-4.0017078 C 6.9730900,-1.6296469 6.9831476,1.6157441 8.7185878,4.0337352 z "
         transform="scale(1.1) rotate(180) translate(1,0)" />
    </marker>
    <marker
       inkscape:stockid="Arrow1Mend"
       orient="auto"
       refY="0.0"
       refX="0.0"
       id="Arrow1Mend"
       style="overflow:visible;">
      <path
         id="path4500"
         d="M 0.0,0.0 L 5.0,-5.0 L -12.5,0.0 L 5.0,5.0 L 0.0,0.0 z "
         style="fill-rule:evenodd;stroke:#000000;stroke-width:1.0pt;"
         transform="scale(0.4) rotate(180) translate(10,0)" />
    </marker>
    <marker
       inkscape:stockid="Arrow1Lstart"
       orient="auto"
       refY="0.0"
       refX="0.0"
       id="Arrow1Lstart"
       style="overflow:visible">
      <path
         id="path4491"
         d="M 0.0,0.0 L 5.0,-5.0 L -12.5,0.0 L 5.0,5.0 L 0.0,0.0 z "
         style="fill-rule:evenodd;stroke:#000000;stroke-width:1.0pt"
         transform="scale(0.8) translate(12.5,0)" />
    </marker>
    <marker
       inkscape:stockid="Arrow1Lend"
       orient="auto"
       refY="0.0"
       refX="0.0"
       id="Arrow1Lend"
       style="overflow:visible;">
      <path
         id="path4494"
         d="M 0.0,0.0 L 5.0,-5.0 L -12.5,0.0 L 5.0,5.0 L 0.0,0.0 z "
         style="fill-rule:evenodd;stroke:#000000;stroke-width:1.0pt;"
         transform="scale(0.8) rotate(180) translate(12.5,0)" />
    </marker>
  </defs>
  <path
     style="fill:#222222;fill-opacity:1;fill-rule:evenodd;stroke:none"
     d="M 25 0 C 11.192881 0 0 11.192881 0 25 C 0 38.807119 11.192881 50 25 50 C 25.683752 50 26.361399 49.960158 27.03125 49.90625 C 27.092782 49.9013 27.157345 49.911645 27.21875 49.90625 C 27.334545 49.89607 27.447165 49.886755 27.5625 49.875 C 28.121156 49.81806 28.671614 49.749398 29.21875 49.65625 C 29.271702 49.647252 29.322162 49.63433 29.375 49.625 C 29.427763 49.615671 29.478602 49.603409 29.53125 49.59375 C 30.11264 49.487082 30.683445 49.364933 31.25 49.21875 C 31.332773 49.197393 31.417562 49.178432 31.5 49.15625 C 32.178623 48.973648 32.845528 48.73705 33.5 48.5 C 34.01462 48.313604 34.532996 48.124869 35.03125 47.90625 C 35.174798 47.843257 35.326628 47.784348 35.46875 47.71875 C 36.01958 47.464463 36.5342 47.167335 37.0625 46.875 C 37.196179 46.801121 37.336582 46.732492 37.46875 46.65625 C 37.861619 46.429237 38.246007 46.184912 38.625 45.9375 C 38.895697 45.761008 39.174201 45.592811 39.4375 45.40625 C 39.887521 45.086918 40.3227 44.753941 40.75 44.40625 C 40.801604 44.364261 40.854989 44.323642 40.90625 44.28125 C 41.392099 43.880292 41.858482 43.467185 42.3125 43.03125 C 42.721177 42.638418 43.118707 42.232115 43.5 41.8125 C 43.584594 41.719426 43.6668 41.625597 43.75 41.53125 C 43.929766 41.327378 44.108104 41.115946 44.28125 40.90625 C 44.55052 40.57997 44.809774 40.246116 45.0625 39.90625 C 45.291249 39.598987 45.503999 39.286644 45.71875 38.96875 C 45.892937 38.710919 46.054052 38.452057 46.21875 38.1875 C 46.480476 37.767116 46.731758 37.342803 46.96875 36.90625 C 47.064966 36.729133 47.157973 36.554669 47.25 36.375 C 47.528023 35.831939 47.792657 35.283888 48.03125 34.71875 C 48.066226 34.636058 48.090891 34.551894 48.125 34.46875 C 48.391553 33.817915 48.631811 33.145656 48.84375 32.46875 C 49.055689 31.791844 49.251633 31.106504 49.40625 30.40625 L 45.65625 32.5625 C 42.571861 40.986361 34.492395 47 25 47 C 12.849735 47 3 37.150265 3 25 C 3 12.849735 12.849735 3 25 3 C 34.457286 3 42.51519 8.9688716 45.625 17.34375 L 49.40625 19.53125 C 49.394752 19.479772 49.386815 19.426357 49.375 19.375 C 49.233987 18.76221 49.060183 18.157187 48.875 17.5625 C 48.865185 17.530943 48.853687 17.500254 48.84375 17.46875 C 48.730753 17.110871 48.597226 16.75698 48.46875 16.40625 C 48.293501 15.927622 48.109419 15.464412 47.90625 15 C 47.780985 14.713548 47.666827 14.436989 47.53125 14.15625 C 47.180162 13.427623 46.792589 12.718509 46.375 12.03125 C 46.193427 11.732421 46.006077 11.446689 45.8125 11.15625 C 45.783377 11.11257 45.74814 11.074736 45.71875 11.03125 C 45.498883 10.705804 45.265796 10.37679 45.03125 10.0625 C 45.026424 10.056046 45.036082 10.037699 45.03125 10.03125 C 44.63839 9.506898 44.213196 8.991357 43.78125 8.5 C 43.761797 8.4778623 43.73828 8.4595683 43.71875 8.4375 C 43.645555 8.3548178 43.574267 8.269201 43.5 8.1875 C 43.109307 7.7577018 42.700668 7.3391908 42.28125 6.9375 C 42.125763 6.7885851 41.971783 6.6449008 41.8125 6.5 C 41.516521 6.2309884 41.214927 5.9734927 40.90625 5.71875 C 40.723052 5.5675613 40.531274 5.4272657 40.34375 5.28125 C 39.945413 4.9709623 39.542077 4.6611887 39.125 4.375 C 39.09429 4.3539292 39.062059 4.333437 39.03125 4.3125 C 39.012098 4.2994837 38.98794 4.2942145 38.96875 4.28125 C 38.579041 4.0179677 38.186183 3.7727114 37.78125 3.53125 C 37.495201 3.3606788 37.199537 3.1905732 36.90625 3.03125 C 36.465432 2.7918401 36.018805 2.5569236 35.5625 2.34375 C 35.52091 2.324331 35.479215 2.3004464 35.4375 2.28125 C 35.077471 2.115513 34.712746 1.9613866 34.34375 1.8125 C 33.838221 1.6084498 33.333797 1.4213202 32.8125 1.25 C 32.378245 1.1072124 31.944377 0.96302351 31.5 0.84375 C 31.490342 0.8411578 31.478413 0.84633091 31.46875 0.84375 C 31.395954 0.82430533 31.323056 0.80005242 31.25 0.78125 C 30.684146 0.63561602 30.111831 0.5125122 29.53125 0.40625 C 29.478528 0.39658865 29.427838 0.38433001 29.375 0.375 C 29.323117 0.36584909 29.270742 0.35258032 29.21875 0.34375 C 28.67239 0.25095675 28.120287 0.18172012 27.5625 0.125 C 27.478382 0.11644624 27.396862 0.10146731 27.3125 0.09375 C 27.281829 0.090941496 27.249453 0.096447606 27.21875 0.09375 C 27.157263 0.08835665 27.092863 0.098697198 27.03125 0.09375 C 26.362469 0.040050838 25.682549 0 25 0 z "
     id="path6494" />
  <g
     id="g6499"
     style="fill:#222222;fill-opacity:1">
    <path
       style="font-size:medium;font-style:normal;font-variant:normal;font-weight:normal;font-stretch:normal;text-indent:0;text-align:start;text-decoration:none;line-height:normal;letter-spacing:normal;word-spacing:normal;text-transform:none;direction:ltr;block-progression:tb;writing-mode:lr-tb;text-anchor:start;baseline-shift:baseline;color:#000000;fill:#222222;fill-opacity:1;stroke:none;stroke-width:12;marker:none;visibility:visible;display:inline;overflow:visible;enable-background:accumulate;font-family:Sans;-inkscape-font-specification:Sans"
       d="M 31.125 12.96875 L 31.125 18.96875 L 7.53125 18.96875 L 7.53125 30.96875 L 31.125 30.96875 L 31.125 36.96875 L 51.875 24.96875 L 31.125 12.96875 z "
       id="path4485" />
  </g>
</svg>
