<?xml version="1.0" encoding="UTF-8" standalone="no"?>
<!-- Created with Inkscape (http://www.inkscape.org/) -->

<svg
   xmlns:dc="http://purl.org/dc/elements/1.1/"
   xmlns:cc="http://creativecommons.org/ns#"
   xmlns:rdf="http://www.w3.org/1999/02/22-rdf-syntax-ns#"
   xmlns:svg="http://www.w3.org/2000/svg"
   xmlns="http://www.w3.org/2000/svg"
   xmlns:sodipodi="http://sodipodi.sourceforge.net/DTD/sodipodi-0.dtd"
   xmlns:inkscape="http://www.inkscape.org/namespaces/inkscape"
   width="503.99277"
   height="452.77795"
   id="svg2"
   version="1.1"
   inkscape:version="0.48.4 r9939"
   sodipodi:docname="logo.svg">
  <defs
     id="defs4">
    <inkscape:perspective
       sodipodi:type="inkscape:persp3d"
       inkscape:vp_x="0 : 526.18109 : 1"
       inkscape:vp_y="0 : 1000 : 0"
       inkscape:vp_z="744.09448 : 526.18109 : 1"
       inkscape:persp3d-origin="372.04724 : 350.78739 : 1"
       id="perspective11" />
    <inkscape:perspective
       id="perspective3617"
       inkscape:persp3d-origin="0.5 : 0.33333333 : 1"
       inkscape:vp_z="1 : 0.5 : 1"
       inkscape:vp_y="0 : 1000 : 0"
       inkscape:vp_x="0 : 0.5 : 1"
       sodipodi:type="inkscape:persp3d" />
    <inkscape:perspective
       id="perspective3617-6"
       inkscape:persp3d-origin="0.5 : 0.33333333 : 1"
       inkscape:vp_z="1 : 0.5 : 1"
       inkscape:vp_y="0 : 1000 : 0"
       inkscape:vp_x="0 : 0.5 : 1"
       sodipodi:type="inkscape:persp3d" />
    <inkscape:perspective
       id="perspective3653"
       inkscape:persp3d-origin="0.5 : 0.33333333 : 1"
       inkscape:vp_z="1 : 0.5 : 1"
       inkscape:vp_y="0 : 1000 : 0"
       inkscape:vp_x="0 : 0.5 : 1"
       sodipodi:type="inkscape:persp3d" />
    <inkscape:perspective
       id="perspective3653-7"
       inkscape:persp3d-origin="0.5 : 0.33333333 : 1"
       inkscape:vp_z="1 : 0.5 : 1"
       inkscape:vp_y="0 : 1000 : 0"
       inkscape:vp_x="0 : 0.5 : 1"
       sodipodi:type="inkscape:persp3d" />
    <inkscape:perspective
       id="perspective3689"
       inkscape:persp3d-origin="0.5 : 0.33333333 : 1"
       inkscape:vp_z="1 : 0.5 : 1"
       inkscape:vp_y="0 : 1000 : 0"
       inkscape:vp_x="0 : 0.5 : 1"
       sodipodi:type="inkscape:persp3d" />
    <inkscape:perspective
       id="perspective3689-0"
       inkscape:persp3d-origin="0.5 : 0.33333333 : 1"
       inkscape:vp_z="1 : 0.5 : 1"
       inkscape:vp_y="0 : 1000 : 0"
       inkscape:vp_x="0 : 0.5 : 1"
       sodipodi:type="inkscape:persp3d" />
    <inkscape:perspective
       id="perspective3689-00"
       inkscape:persp3d-origin="0.5 : 0.33333333 : 1"
       inkscape:vp_z="1 : 0.5 : 1"
       inkscape:vp_y="0 : 1000 : 0"
       inkscape:vp_x="0 : 0.5 : 1"
       sodipodi:type="inkscape:persp3d" />
    <inkscape:perspective
       id="perspective3689-2"
       inkscape:persp3d-origin="0.5 : 0.33333333 : 1"
       inkscape:vp_z="1 : 0.5 : 1"
       inkscape:vp_y="0 : 1000 : 0"
       inkscape:vp_x="0 : 0.5 : 1"
       sodipodi:type="inkscape:persp3d" />
    <inkscape:perspective
       id="perspective3747"
       inkscape:persp3d-origin="0.5 : 0.33333333 : 1"
       inkscape:vp_z="1 : 0.5 : 1"
       inkscape:vp_y="0 : 1000 : 0"
       inkscape:vp_x="0 : 0.5 : 1"
       sodipodi:type="inkscape:persp3d" />
    <inkscape:perspective
       id="perspective3772"
       inkscape:persp3d-origin="0.5 : 0.33333333 : 1"
       inkscape:vp_z="1 : 0.5 : 1"
       inkscape:vp_y="0 : 1000 : 0"
       inkscape:vp_x="0 : 0.5 : 1"
       sodipodi:type="inkscape:persp3d" />
    <inkscape:perspective
       id="perspective3797"
       inkscape:persp3d-origin="0.5 : 0.33333333 : 1"
       inkscape:vp_z="1 : 0.5 : 1"
       inkscape:vp_y="0 : 1000 : 0"
       inkscape:vp_x="0 : 0.5 : 1"
       sodipodi:type="inkscape:persp3d" />
    <inkscape:perspective
       id="perspective3834"
       inkscape:persp3d-origin="0.5 : 0.33333333 : 1"
       inkscape:vp_z="1 : 0.5 : 1"
       inkscape:vp_y="0 : 1000 : 0"
       inkscape:vp_x="0 : 0.5 : 1"
       sodipodi:type="inkscape:persp3d" />
    <inkscape:perspective
       id="perspective3865"
       inkscape:persp3d-origin="0.5 : 0.33333333 : 1"
       inkscape:vp_z="1 : 0.5 : 1"
       inkscape:vp_y="0 : 1000 : 0"
       inkscape:vp_x="0 : 0.5 : 1"
       sodipodi:type="inkscape:persp3d" />
    <inkscape:perspective
       id="perspective3890"
       inkscape:persp3d-origin="0.5 : 0.33333333 : 1"
       inkscape:vp_z="1 : 0.5 : 1"
       inkscape:vp_y="0 : 1000 : 0"
       inkscape:vp_x="0 : 0.5 : 1"
       sodipodi:type="inkscape:persp3d" />
    <inkscape:perspective
       id="perspective3921"
       inkscape:persp3d-origin="0.5 : 0.33333333 : 1"
       inkscape:vp_z="1 : 0.5 : 1"
       inkscape:vp_y="0 : 1000 : 0"
       inkscape:vp_x="0 : 0.5 : 1"
       sodipodi:type="inkscape:persp3d" />
    <inkscape:perspective
       id="perspective3952"
       inkscape:persp3d-origin="0.5 : 0.33333333 : 1"
       inkscape:vp_z="1 : 0.5 : 1"
       inkscape:vp_y="0 : 1000 : 0"
       inkscape:vp_x="0 : 0.5 : 1"
       sodipodi:type="inkscape:persp3d" />
    <inkscape:perspective
       id="perspective4049"
       inkscape:persp3d-origin="0.5 : 0.33333333 : 1"
       inkscape:vp_z="1 : 0.5 : 1"
       inkscape:vp_y="0 : 1000 : 0"
       inkscape:vp_x="0 : 0.5 : 1"
       sodipodi:type="inkscape:persp3d" />
    <inkscape:perspective
       id="perspective4093"
       inkscape:persp3d-origin="0.5 : 0.33333333 : 1"
       inkscape:vp_z="1 : 0.5 : 1"
       inkscape:vp_y="0 : 1000 : 0"
       inkscape:vp_x="0 : 0.5 : 1"
       sodipodi:type="inkscape:persp3d" />
    <inkscape:perspective
       id="perspective4127"
       inkscape:persp3d-origin="0.5 : 0.33333333 : 1"
       inkscape:vp_z="1 : 0.5 : 1"
       inkscape:vp_y="0 : 1000 : 0"
       inkscape:vp_x="0 : 0.5 : 1"
       sodipodi:type="inkscape:persp3d" />
    <inkscape:perspective
       id="perspective4161"
       inkscape:persp3d-origin="0.5 : 0.33333333 : 1"
       inkscape:vp_z="1 : 0.5 : 1"
       inkscape:vp_y="0 : 1000 : 0"
       inkscape:vp_x="0 : 0.5 : 1"
       sodipodi:type="inkscape:persp3d" />
    <inkscape:perspective
       id="perspective4240"
       inkscape:persp3d-origin="0.5 : 0.33333333 : 1"
       inkscape:vp_z="1 : 0.5 : 1"
       inkscape:vp_y="0 : 1000 : 0"
       inkscape:vp_x="0 : 0.5 : 1"
       sodipodi:type="inkscape:persp3d" />
    <inkscape:perspective
       id="perspective4295"
       inkscape:persp3d-origin="0.5 : 0.33333333 : 1"
       inkscape:vp_z="1 : 0.5 : 1"
       inkscape:vp_y="0 : 1000 : 0"
       inkscape:vp_x="0 : 0.5 : 1"
       sodipodi:type="inkscape:persp3d" />
    <inkscape:perspective
       id="perspective4295-7"
       inkscape:persp3d-origin="0.5 : 0.33333333 : 1"
       inkscape:vp_z="1 : 0.5 : 1"
       inkscape:vp_y="0 : 1000 : 0"
       inkscape:vp_x="0 : 0.5 : 1"
       sodipodi:type="inkscape:persp3d" />
    <inkscape:perspective
       id="perspective4295-5"
       inkscape:persp3d-origin="0.5 : 0.33333333 : 1"
       inkscape:vp_z="1 : 0.5 : 1"
       inkscape:vp_y="0 : 1000 : 0"
       inkscape:vp_x="0 : 0.5 : 1"
       sodipodi:type="inkscape:persp3d" />
    <inkscape:perspective
       id="perspective4342"
       inkscape:persp3d-origin="0.5 : 0.33333333 : 1"
       inkscape:vp_z="1 : 0.5 : 1"
       inkscape:vp_y="0 : 1000 : 0"
       inkscape:vp_x="0 : 0.5 : 1"
       sodipodi:type="inkscape:persp3d" />
    <inkscape:perspective
       id="perspective4342-4"
       inkscape:persp3d-origin="0.5 : 0.33333333 : 1"
       inkscape:vp_z="1 : 0.5 : 1"
       inkscape:vp_y="0 : 1000 : 0"
       inkscape:vp_x="0 : 0.5 : 1"
       sodipodi:type="inkscape:persp3d" />
    <inkscape:perspective
       id="perspective4433"
       inkscape:persp3d-origin="0.5 : 0.33333333 : 1"
       inkscape:vp_z="1 : 0.5 : 1"
       inkscape:vp_y="0 : 1000 : 0"
       inkscape:vp_x="0 : 0.5 : 1"
       sodipodi:type="inkscape:persp3d" />
    <inkscape:perspective
       id="perspective4494"
       inkscape:persp3d-origin="0.5 : 0.33333333 : 1"
       inkscape:vp_z="1 : 0.5 : 1"
       inkscape:vp_y="0 : 1000 : 0"
       inkscape:vp_x="0 : 0.5 : 1"
       sodipodi:type="inkscape:persp3d" />
    <inkscape:perspective
       id="perspective4669"
       inkscape:persp3d-origin="0.5 : 0.33333333 : 1"
       inkscape:vp_z="1 : 0.5 : 1"
       inkscape:vp_y="0 : 1000 : 0"
       inkscape:vp_x="0 : 0.5 : 1"
       sodipodi:type="inkscape:persp3d" />
    <inkscape:perspective
       id="perspective4749"
       inkscape:persp3d-origin="0.5 : 0.33333333 : 1"
       inkscape:vp_z="1 : 0.5 : 1"
       inkscape:vp_y="0 : 1000 : 0"
       inkscape:vp_x="0 : 0.5 : 1"
       sodipodi:type="inkscape:persp3d" />
    <inkscape:perspective
       id="perspective4914"
       inkscape:persp3d-origin="0.5 : 0.33333333 : 1"
       inkscape:vp_z="1 : 0.5 : 1"
       inkscape:vp_y="0 : 1000 : 0"
       inkscape:vp_x="0 : 0.5 : 1"
       sodipodi:type="inkscape:persp3d" />
    <inkscape:perspective
       id="perspective4936"
       inkscape:persp3d-origin="0.5 : 0.33333333 : 1"
       inkscape:vp_z="1 : 0.5 : 1"
       inkscape:vp_y="0 : 1000 : 0"
       inkscape:vp_x="0 : 0.5 : 1"
       sodipodi:type="inkscape:persp3d" />
    <inkscape:perspective
       id="perspective4964"
       inkscape:persp3d-origin="0.5 : 0.33333333 : 1"
       inkscape:vp_z="1 : 0.5 : 1"
       inkscape:vp_y="0 : 1000 : 0"
       inkscape:vp_x="0 : 0.5 : 1"
       sodipodi:type="inkscape:persp3d" />
    <inkscape:perspective
       id="perspective5023"
       inkscape:persp3d-origin="0.5 : 0.33333333 : 1"
       inkscape:vp_z="1 : 0.5 : 1"
       inkscape:vp_y="0 : 1000 : 0"
       inkscape:vp_x="0 : 0.5 : 1"
       sodipodi:type="inkscape:persp3d" />
    <inkscape:perspective
       id="perspective5062"
       inkscape:persp3d-origin="0.5 : 0.33333333 : 1"
       inkscape:vp_z="1 : 0.5 : 1"
       inkscape:vp_y="0 : 1000 : 0"
       inkscape:vp_x="0 : 0.5 : 1"
       sodipodi:type="inkscape:persp3d" />
    <inkscape:perspective
       id="perspective5105"
       inkscape:persp3d-origin="0.5 : 0.33333333 : 1"
       inkscape:vp_z="1 : 0.5 : 1"
       inkscape:vp_y="0 : 1000 : 0"
       inkscape:vp_x="0 : 0.5 : 1"
       sodipodi:type="inkscape:persp3d" />
    <inkscape:perspective
       id="perspective5292"
       inkscape:persp3d-origin="0.5 : 0.33333333 : 1"
       inkscape:vp_z="1 : 0.5 : 1"
       inkscape:vp_y="0 : 1000 : 0"
       inkscape:vp_x="0 : 0.5 : 1"
       sodipodi:type="inkscape:persp3d" />
    <inkscape:perspective
       id="perspective5546"
       inkscape:persp3d-origin="0.5 : 0.33333333 : 1"
       inkscape:vp_z="1 : 0.5 : 1"
       inkscape:vp_y="0 : 1000 : 0"
       inkscape:vp_x="0 : 0.5 : 1"
       sodipodi:type="inkscape:persp3d" />
    <inkscape:perspective
       id="perspective5546-9"
       inkscape:persp3d-origin="0.5 : 0.33333333 : 1"
       inkscape:vp_z="1 : 0.5 : 1"
       inkscape:vp_y="0 : 1000 : 0"
       inkscape:vp_x="0 : 0.5 : 1"
       sodipodi:type="inkscape:persp3d" />
    <inkscape:perspective
       id="perspective5581"
       inkscape:persp3d-origin="0.5 : 0.33333333 : 1"
       inkscape:vp_z="1 : 0.5 : 1"
       inkscape:vp_y="0 : 1000 : 0"
       inkscape:vp_x="0 : 0.5 : 1"
       sodipodi:type="inkscape:persp3d" />
    <inkscape:perspective
       id="perspective5651"
       inkscape:persp3d-origin="0.5 : 0.33333333 : 1"
       inkscape:vp_z="1 : 0.5 : 1"
       inkscape:vp_y="0 : 1000 : 0"
       inkscape:vp_x="0 : 0.5 : 1"
       sodipodi:type="inkscape:persp3d" />
    <inkscape:perspective
       id="perspective5698"
       inkscape:persp3d-origin="0.5 : 0.33333333 : 1"
       inkscape:vp_z="1 : 0.5 : 1"
       inkscape:vp_y="0 : 1000 : 0"
       inkscape:vp_x="0 : 0.5 : 1"
       sodipodi:type="inkscape:persp3d" />
    <inkscape:perspective
       id="perspective5764"
       inkscape:persp3d-origin="0.5 : 0.33333333 : 1"
       inkscape:vp_z="1 : 0.5 : 1"
       inkscape:vp_y="0 : 1000 : 0"
       inkscape:vp_x="0 : 0.5 : 1"
       sodipodi:type="inkscape:persp3d" />
    <inkscape:perspective
       id="perspective5913"
       inkscape:persp3d-origin="0.5 : 0.33333333 : 1"
       inkscape:vp_z="1 : 0.5 : 1"
       inkscape:vp_y="0 : 1000 : 0"
       inkscape:vp_x="0 : 0.5 : 1"
       sodipodi:type="inkscape:persp3d" />
    <inkscape:perspective
       id="perspective5960"
       inkscape:persp3d-origin="0.5 : 0.33333333 : 1"
       inkscape:vp_z="1 : 0.5 : 1"
       inkscape:vp_y="0 : 1000 : 0"
       inkscape:vp_x="0 : 0.5 : 1"
       sodipodi:type="inkscape:persp3d" />
    <inkscape:perspective
       id="perspective5988"
       inkscape:persp3d-origin="0.5 : 0.33333333 : 1"
       inkscape:vp_z="1 : 0.5 : 1"
       inkscape:vp_y="0 : 1000 : 0"
       inkscape:vp_x="0 : 0.5 : 1"
       sodipodi:type="inkscape:persp3d" />
    <inkscape:perspective
       id="perspective6024"
       inkscape:persp3d-origin="0.5 : 0.33333333 : 1"
       inkscape:vp_z="1 : 0.5 : 1"
       inkscape:vp_y="0 : 1000 : 0"
       inkscape:vp_x="0 : 0.5 : 1"
       sodipodi:type="inkscape:persp3d" />
    <inkscape:perspective
       id="perspective6058"
       inkscape:persp3d-origin="0.5 : 0.33333333 : 1"
       inkscape:vp_z="1 : 0.5 : 1"
       inkscape:vp_y="0 : 1000 : 0"
       inkscape:vp_x="0 : 0.5 : 1"
       sodipodi:type="inkscape:persp3d" />
    <inkscape:perspective
       id="perspective6094"
       inkscape:persp3d-origin="0.5 : 0.33333333 : 1"
       inkscape:vp_z="1 : 0.5 : 1"
       inkscape:vp_y="0 : 1000 : 0"
       inkscape:vp_x="0 : 0.5 : 1"
       sodipodi:type="inkscape:persp3d" />
    <inkscape:perspective
       id="perspective6135"
       inkscape:persp3d-origin="0.5 : 0.33333333 : 1"
       inkscape:vp_z="1 : 0.5 : 1"
       inkscape:vp_y="0 : 1000 : 0"
       inkscape:vp_x="0 : 0.5 : 1"
       sodipodi:type="inkscape:persp3d" />
    <inkscape:perspective
       id="perspective6246"
       inkscape:persp3d-origin="0.5 : 0.33333333 : 1"
       inkscape:vp_z="1 : 0.5 : 1"
       inkscape:vp_y="0 : 1000 : 0"
       inkscape:vp_x="0 : 0.5 : 1"
       sodipodi:type="inkscape:persp3d" />
    <inkscape:perspective
       id="perspective6360"
       inkscape:persp3d-origin="0.5 : 0.33333333 : 1"
       inkscape:vp_z="1 : 0.5 : 1"
       inkscape:vp_y="0 : 1000 : 0"
       inkscape:vp_x="0 : 0.5 : 1"
       sodipodi:type="inkscape:persp3d" />
    <inkscape:perspective
       id="perspective6410"
       inkscape:persp3d-origin="0.5 : 0.33333333 : 1"
       inkscape:vp_z="1 : 0.5 : 1"
       inkscape:vp_y="0 : 1000 : 0"
       inkscape:vp_x="0 : 0.5 : 1"
       sodipodi:type="inkscape:persp3d" />
    <inkscape:perspective
       id="perspective6492"
       inkscape:persp3d-origin="0.5 : 0.33333333 : 1"
       inkscape:vp_z="1 : 0.5 : 1"
       inkscape:vp_y="0 : 1000 : 0"
       inkscape:vp_x="0 : 0.5 : 1"
       sodipodi:type="inkscape:persp3d" />
    <inkscape:perspective
       id="perspective6585"
       inkscape:persp3d-origin="0.5 : 0.33333333 : 1"
       inkscape:vp_z="1 : 0.5 : 1"
       inkscape:vp_y="0 : 1000 : 0"
       inkscape:vp_x="0 : 0.5 : 1"
       sodipodi:type="inkscape:persp3d" />
    <inkscape:perspective
       id="perspective6667"
       inkscape:persp3d-origin="0.5 : 0.33333333 : 1"
       inkscape:vp_z="1 : 0.5 : 1"
       inkscape:vp_y="0 : 1000 : 0"
       inkscape:vp_x="0 : 0.5 : 1"
       sodipodi:type="inkscape:persp3d" />
    <inkscape:perspective
       id="perspective6693"
       inkscape:persp3d-origin="0.5 : 0.33333333 : 1"
       inkscape:vp_z="1 : 0.5 : 1"
       inkscape:vp_y="0 : 1000 : 0"
       inkscape:vp_x="0 : 0.5 : 1"
       sodipodi:type="inkscape:persp3d" />
    <inkscape:perspective
       id="perspective6717"
       inkscape:persp3d-origin="0.5 : 0.33333333 : 1"
       inkscape:vp_z="1 : 0.5 : 1"
       inkscape:vp_y="0 : 1000 : 0"
       inkscape:vp_x="0 : 0.5 : 1"
       sodipodi:type="inkscape:persp3d" />
    <inkscape:perspective
       id="perspective6739"
       inkscape:persp3d-origin="0.5 : 0.33333333 : 1"
       inkscape:vp_z="1 : 0.5 : 1"
       inkscape:vp_y="0 : 1000 : 0"
       inkscape:vp_x="0 : 0.5 : 1"
       sodipodi:type="inkscape:persp3d" />
    <inkscape:perspective
       id="perspective6765"
       inkscape:persp3d-origin="0.5 : 0.33333333 : 1"
       inkscape:vp_z="1 : 0.5 : 1"
       inkscape:vp_y="0 : 1000 : 0"
       inkscape:vp_x="0 : 0.5 : 1"
       sodipodi:type="inkscape:persp3d" />
    <inkscape:perspective
       id="perspective6765-6"
       inkscape:persp3d-origin="0.5 : 0.33333333 : 1"
       inkscape:vp_z="1 : 0.5 : 1"
       inkscape:vp_y="0 : 1000 : 0"
       inkscape:vp_x="0 : 0.5 : 1"
       sodipodi:type="inkscape:persp3d" />
    <inkscape:perspective
       id="perspective6765-8"
       inkscape:persp3d-origin="0.5 : 0.33333333 : 1"
       inkscape:vp_z="1 : 0.5 : 1"
       inkscape:vp_y="0 : 1000 : 0"
       inkscape:vp_x="0 : 0.5 : 1"
       sodipodi:type="inkscape:persp3d" />
    <inkscape:perspective
       id="perspective6765-7"
       inkscape:persp3d-origin="0.5 : 0.33333333 : 1"
       inkscape:vp_z="1 : 0.5 : 1"
       inkscape:vp_y="0 : 1000 : 0"
       inkscape:vp_x="0 : 0.5 : 1"
       sodipodi:type="inkscape:persp3d" />
    <inkscape:perspective
       id="perspective6765-4"
       inkscape:persp3d-origin="0.5 : 0.33333333 : 1"
       inkscape:vp_z="1 : 0.5 : 1"
       inkscape:vp_y="0 : 1000 : 0"
       inkscape:vp_x="0 : 0.5 : 1"
       sodipodi:type="inkscape:persp3d" />
    <inkscape:perspective
       id="perspective6886"
       inkscape:persp3d-origin="0.5 : 0.33333333 : 1"
       inkscape:vp_z="1 : 0.5 : 1"
       inkscape:vp_y="0 : 1000 : 0"
       inkscape:vp_x="0 : 0.5 : 1"
       sodipodi:type="inkscape:persp3d" />
    <inkscape:perspective
       id="perspective6886-3"
       inkscape:persp3d-origin="0.5 : 0.33333333 : 1"
       inkscape:vp_z="1 : 0.5 : 1"
       inkscape:vp_y="0 : 1000 : 0"
       inkscape:vp_x="0 : 0.5 : 1"
       sodipodi:type="inkscape:persp3d" />
    <inkscape:perspective
       id="perspective6886-7"
       inkscape:persp3d-origin="0.5 : 0.33333333 : 1"
       inkscape:vp_z="1 : 0.5 : 1"
       inkscape:vp_y="0 : 1000 : 0"
       inkscape:vp_x="0 : 0.5 : 1"
       sodipodi:type="inkscape:persp3d" />
    <inkscape:perspective
       id="perspective6886-8"
       inkscape:persp3d-origin="0.5 : 0.33333333 : 1"
       inkscape:vp_z="1 : 0.5 : 1"
       inkscape:vp_y="0 : 1000 : 0"
       inkscape:vp_x="0 : 0.5 : 1"
       sodipodi:type="inkscape:persp3d" />
    <inkscape:perspective
       id="perspective6886-9"
       inkscape:persp3d-origin="0.5 : 0.33333333 : 1"
       inkscape:vp_z="1 : 0.5 : 1"
       inkscape:vp_y="0 : 1000 : 0"
       inkscape:vp_x="0 : 0.5 : 1"
       sodipodi:type="inkscape:persp3d" />
    <inkscape:perspective
       id="perspective6886-1"
       inkscape:persp3d-origin="0.5 : 0.33333333 : 1"
       inkscape:vp_z="1 : 0.5 : 1"
       inkscape:vp_y="0 : 1000 : 0"
       inkscape:vp_x="0 : 0.5 : 1"
       sodipodi:type="inkscape:persp3d" />
    <inkscape:perspective
       id="perspective6886-97"
       inkscape:persp3d-origin="0.5 : 0.33333333 : 1"
       inkscape:vp_z="1 : 0.5 : 1"
       inkscape:vp_y="0 : 1000 : 0"
       inkscape:vp_x="0 : 0.5 : 1"
       sodipodi:type="inkscape:persp3d" />
    <inkscape:perspective
       id="perspective6992"
       inkscape:persp3d-origin="0.5 : 0.33333333 : 1"
       inkscape:vp_z="1 : 0.5 : 1"
       inkscape:vp_y="0 : 1000 : 0"
       inkscape:vp_x="0 : 0.5 : 1"
       sodipodi:type="inkscape:persp3d" />
    <inkscape:perspective
       id="perspective7024"
       inkscape:persp3d-origin="0.5 : 0.33333333 : 1"
       inkscape:vp_z="1 : 0.5 : 1"
       inkscape:vp_y="0 : 1000 : 0"
       inkscape:vp_x="0 : 0.5 : 1"
       sodipodi:type="inkscape:persp3d" />
    <inkscape:perspective
       id="perspective7156"
       inkscape:persp3d-origin="0.5 : 0.33333333 : 1"
       inkscape:vp_z="1 : 0.5 : 1"
       inkscape:vp_y="0 : 1000 : 0"
       inkscape:vp_x="0 : 0.5 : 1"
       sodipodi:type="inkscape:persp3d" />
    <inkscape:perspective
       id="perspective7156-5"
       inkscape:persp3d-origin="0.5 : 0.33333333 : 1"
       inkscape:vp_z="1 : 0.5 : 1"
       inkscape:vp_y="0 : 1000 : 0"
       inkscape:vp_x="0 : 0.5 : 1"
       sodipodi:type="inkscape:persp3d" />
    <inkscape:perspective
       id="perspective7191"
       inkscape:persp3d-origin="0.5 : 0.33333333 : 1"
       inkscape:vp_z="1 : 0.5 : 1"
       inkscape:vp_y="0 : 1000 : 0"
       inkscape:vp_x="0 : 0.5 : 1"
       sodipodi:type="inkscape:persp3d" />
    <inkscape:perspective
       id="perspective7191-9"
       inkscape:persp3d-origin="0.5 : 0.33333333 : 1"
       inkscape:vp_z="1 : 0.5 : 1"
       inkscape:vp_y="0 : 1000 : 0"
       inkscape:vp_x="0 : 0.5 : 1"
       sodipodi:type="inkscape:persp3d" />
    <inkscape:perspective
       id="perspective7191-3"
       inkscape:persp3d-origin="0.5 : 0.33333333 : 1"
       inkscape:vp_z="1 : 0.5 : 1"
       inkscape:vp_y="0 : 1000 : 0"
       inkscape:vp_x="0 : 0.5 : 1"
       sodipodi:type="inkscape:persp3d" />
    <inkscape:perspective
       id="perspective7191-0"
       inkscape:persp3d-origin="0.5 : 0.33333333 : 1"
       inkscape:vp_z="1 : 0.5 : 1"
       inkscape:vp_y="0 : 1000 : 0"
       inkscape:vp_x="0 : 0.5 : 1"
       sodipodi:type="inkscape:persp3d" />
    <inkscape:perspective
       id="perspective7802"
       inkscape:persp3d-origin="0.5 : 0.33333333 : 1"
       inkscape:vp_z="1 : 0.5 : 1"
       inkscape:vp_y="0 : 1000 : 0"
       inkscape:vp_x="0 : 0.5 : 1"
       sodipodi:type="inkscape:persp3d" />
    <inkscape:perspective
       id="perspective7824"
       inkscape:persp3d-origin="0.5 : 0.33333333 : 1"
       inkscape:vp_z="1 : 0.5 : 1"
       inkscape:vp_y="0 : 1000 : 0"
       inkscape:vp_x="0 : 0.5 : 1"
       sodipodi:type="inkscape:persp3d" />
    <inkscape:perspective
       id="perspective7896"
       inkscape:persp3d-origin="0.5 : 0.33333333 : 1"
       inkscape:vp_z="1 : 0.5 : 1"
       inkscape:vp_y="0 : 1000 : 0"
       inkscape:vp_x="0 : 0.5 : 1"
       sodipodi:type="inkscape:persp3d" />
  </defs>
  <sodipodi:namedview
     id="base"
     pagecolor="#ffffff"
     bordercolor="#666666"
     borderopacity="1.0"
     inkscape:pageopacity="0.0"
     inkscape:pageshadow="2"
     inkscape:zoom="1.4142136"
     inkscape:cx="164.14307"
     inkscape:cy="236.69482"
     inkscape:document-units="px"
     inkscape:current-layer="layer1"
     showgrid="false"
     inkscape:window-width="1920"
     inkscape:window-height="1056"
     inkscape:window-x="0"
     inkscape:window-y="24"
     inkscape:window-maximized="1"
     showguides="true"
     inkscape:guide-bbox="true"
     fit-margin-top="0"
     fit-margin-left="0"
     fit-margin-right="0"
     fit-margin-bottom="0" />
  <metadata
     id="metadata7">
    <rdf:RDF>
      <cc:Work
         rdf:about="">
        <dc:format>image/svg+xml</dc:format>
        <dc:type
           rdf:resource="http://purl.org/dc/dcmitype/StillImage" />
        <dc:title></dc:title>
      </cc:Work>
    </rdf:RDF>
  </metadata>
  <g
     inkscape:label="Layer 1"
     inkscape:groupmode="layer"
     id="layer1"
     transform="translate(-138.25666,-149.75165)"
     style="display:inline">
    <path
       style="fill:#222222;fill-opacity:1;stroke:none"
       d="m 260.53125,11.25 c -20.51683,0.0243 -40.94113,3.35398 -60,9.9375 -27.27227,9.4207 -49.53777,23.30648 -69.875,43.5625 -24.45177,24.35412 -40.58836,53.53766 -47.84375,86.5 -4.56623,20.74519 -5.14558,44.65849 -1.59375,65.625 6.12793,36.17329 22.79332,68.26014 49.21875,94.6875 30.46157,30.46378 68.97915,48.48964 113.3125,53.03125 7.18591,0.73615 30.26021,0.315 37.5,-0.6875 15.17369,-2.1011 27.17659,-5.82075 40.6875,-12.59375 3.362,-1.68537 7.21899,-3.64106 10.21875,-5.21875 1.49988,-0.78885 2.78178,-1.50401 3.6875,-2.03125 0.45286,-0.26362 0.82323,-0.46446 1.09375,-0.65625 0.13526,-0.0959 0.24237,-0.17512 0.375,-0.3125 0.0663,-0.0687 0.12751,-0.13411 0.21875,-0.34375 0.0456,-0.10482 0.10851,-0.2844 0.0937,-0.5 -0.0146,-0.2156 -0.12515,-0.46889 -0.28125,-0.625 -0.27428,-0.27423 -0.46104,-0.26429 -0.5625,-0.28125 -0.10146,-0.017 -0.13468,-5.2e-4 -0.1875,0 -0.10564,10e-4 -0.1979,-0.0108 -0.28125,0 -0.16669,0.0217 -0.34062,0.0802 -0.5625,0.125 -0.44376,0.0896 -1.02014,0.22055 -1.65625,0.375 -1.27222,0.3089 -2.77884,0.68612 -3.8125,0.96875 -6.5412,1.78858 -16.81842,3.58609 -27.8125,4.84375 -36.9271,4.22428 -58.98872,3.6718 -82.03125,-2.03125 -26.54809,-6.57072 -50.91532,-19.24574 -70.4062,-36.625 -16.11037,-14.36499 -28.0466,-29.92915 -37.15625,-48.375 -7.80291,-15.79989 -12.63684,-31.36524 -15.625,-50.4375 -1.27295,-8.12486 -1.27317,-35.10469 0,-43.59375 3.76663,-25.11444 13.51169,-49.78301 27.21875,-68.875 27.81856,-38.74734 71.69955,-64.4898 118.21875,-69.375 14.25946,-1.49745 34.11608,-0.79216 48.1875,1.75 31.24459,5.64467 60.54888,20.12972 83.46875,41.1875 6.52866,5.99825 8.28782,7.84219 13.46875,14.0625 21.673,26.02091 34.36621,55.8477 37.78125,88.8125 0.79142,7.63954 0.66199,24.29127 -0.25,32.8125 -2.76747,25.85799 -11.30516,49.50198 -25.03125,69.21875 -9.02037,12.4143 -18.68274,23.33755 -32.90625,27.90625 -5.57673,1.77549 -14.24993,2.21814 -20.53125,1.03125 -2.70906,-0.51189 -6.06068,-1.43328 -8.84375,-2.34375 -1.39154,-0.45524 -2.63929,-0.90879 -3.59375,-1.3125 -0.95446,-0.40371 -1.66516,-0.85291 -1.6875,-0.875 -0.22294,-0.22039 -0.73948,-0.97019 -1.28125,-1.9375 -0.54177,-0.96731 -1.1591,-2.16897 -1.75,-3.46875 -1.18181,-2.59956 -2.31012,-5.57583 -2.8125,-7.5625 -1.29813,-5.13337 -1.03219,-15.15593 0.5625,-20.65625 2.4873,-8.57901 3.30605,-15.83689 3.34375,-29.53125 0.01,-3.5215 -0.0249,-6.78196 -0.0937,-9.1875 -0.0107,-0.37492 -0.0191,-0.57532 -0.0312,-0.90625 L 329.625,228 l -1.5,0.9375 -1.0625,-1.375 -10.34375,-13.28125 c -18.51192,6.62073 -36.46686,14.951 -53.625,25.84375 -2.3466,22.87901 2.72573,42.44163 17.40625,58.3125 l 0.46875,0.53125 0.0312,0.71875 0.53125,13.3125 0.0937,2.375 -2.34375,-0.40625 c -14.18099,-2.50239 -29.76489,-1.37199 -45.90625,1.25 l -4.78125,4.625 3.90625,0.84375 c -0.006,0.01 -0.0264,0.0222 -0.0312,0.0312 -0.0218,0.0384 -0.0123,-0.0432 -0.0937,0.15625 -3.5e-4,8.6e-4 -0.0625,0.37414 -0.0625,0.375 0,8.6e-4 0.0622,0.37415 0.0625,0.375 3.4e-4,8.5e-4 0.10649,0.1877 0.15625,0.25 0.0498,0.0623 0.0835,0.0904 0.125,0.125 0.16602,0.13851 0.24849,0.16457 0.3125,0.1875 0.12801,0.0459 0.18453,0.0516 0.25,0.0625 0.13093,0.0219 0.28387,0.0193 0.4375,0.0312 0.30726,0.0239 0.68371,0.0512 1.125,0.0625 0.86695,0.0221 2.22351,0.0474 3.0625,0.0625 l 1.53125,0.0312 0.53125,0 c -0.008,0.0475 -0.0266,0.0729 -0.0312,0.125 -0.0402,0.45238 0.33192,1.05111 0.65625,1.25 0.32433,0.19889 0.57366,0.265 0.875,0.34375 1.36753,0.35738 2.50631,0.48361 3.5625,0.125 1.05619,-0.35861 1.8441,-1.14566 2.71875,-2.25 l 1.34375,-1.71875 13.15625,0.3125 c 8.41371,0.18549 15.6219,0.1207 20.875,-0.15625 2.62655,-0.13848 4.76399,-0.34888 6.34375,-0.59375 0.78988,-0.12244 1.4396,-0.24252 1.96875,-0.40625 0.52915,-0.16373 0.97816,-0.26147 1.375,-0.78125 0.44009,-0.5764 0.56807,-1.27779 0.65625,-2.1875 0.0882,-0.90971 0.0904,-2.05159 0.0312,-3.5625 l -0.125,-3.75 4.75,-3 0.0312,0 4.78125,-3.03125 2.28125,1.21875 c 1.36127,0.72705 4.0102,2.76178 5.59375,4.3125 8.17677,8.00738 19.55722,12.6319 33.9375,13.90625 38.24093,1.7476 59.33548,-20.3504 76.15625,-51.65625 8.54296,-18.91003 16.92449,-39.04712 20.09375,-58.40625 C 446.75477,173.65155 438.24755,132.49234 417.125,98 404.06275,76.66984 387.23789,58.80776 366.46875,44.25 346.46332,30.22755 321.41625,19.56957 297.3125,14.8125 285.18664,12.41935 272.84128,11.23543 260.53125,11.25 z m 17.3125,55.03125 0.0625,0.15625 -0.1875,-0.09375 0.75,2.21875 3.71875,11.125 0.0625,0.1875 0.125,0.15625 9.28125,10.25 5.3125,27 0.28125,1.5 0.28125,-0.21875 0.0625,0.15625 1.0625,-0.875 9.03125,-7.125 3.53125,4.71875 c -2.48275,5.23257 -2.55529,12.04672 0.34375,19.0625 4.20426,10.17443 13.27084,17.80095 22.59375,19.8125 -2.12713,3.13153 -3.71475,6.27778 -4.40625,9.25 -0.0101,0.0429 0.005,0.0282 0,0.0625 -0.0111,0.0479 0.004,0.0275 0,0.0625 l -11.21875,7.71875 -15.875,-20.625 L 302.0625,150 l -0.75,0.625 -0.0937,0.0625 -0.0625,0.0625 -12.34375,7.90625 -6.78125,4.84375 37.28125,47.75 -0.0312,0.0312 9.75,12.5 3.6875,-2.3125 0,0.0312 15.3125,-9.65625 0.46875,-0.28125 0,-0.0312 0.625,-0.34375 -0.6875,-0.875 -17.9376,-23.3437 c 4.50201,-3.30253 9.04463,-6.55158 13.53125,-9.875 l -0.21875,-0.25 c 3.97618,-0.58308 8.30515,-2.10806 12.6875,-4.65625 l 1.65625,2.15625 -5.15625,4.34375 -0.0312,0 -3.53125,2.875 -0.5,0.40625 0.15625,0.59375 5.5625,24.625 c 24.18192,-1.87004 44.93654,-22.2065 53.09375,-35.15625 l 0.625,-1 c -8.69988,-3.02525 -20.94353,-7.84238 -30.71875,-11.5 l -0.53125,-0.1875 -0.40625,0.34375 c -3.33835,2.2457 -5.2151,3.48654 -8.71875,6.40625 l -1.3125,-1.75 c 5.15542,-5.12278 8.65553,-10.72062 9.8125,-15.8125 0.13957,-0.5999 0.26849,-1.18061 0.34375,-1.78125 0.15234,-1.25627 0.14467,-2.48314 -0.0312,-3.625 -0.28803,-1.79821 -0.90163,-3.08996 -1.9375,-4.53125 -1.93343,-2.41016 -5.00323,-3.59395 -8.53125,-3.71875 -3.16818,-0.11207 -6.76753,0.71882 -10.5,2.15625 -6e-5,-3.353 -0.58823,-6.9191 -2.09375,-10.5625 -5.4177,-13.11101 -18.94077,-22.12414 -30.625,-20.0625 -0.7546,0.13314 -1.479,0.34422 -2.1875,0.5625 L 317.75,102.75 325.9375,96.28125 327.15625,95.3125 325.75,94.65625 300.65625,82.96875 292.375,74 l -0.125,-0.125 -0.15625,-0.0625 -12.125,-6.40625 -2.125,-1.125 z M 207.625,85.1875 c -0.0355,0.02795 -0.0967,0.110855 -0.1875,0.28125 -0.20289,0.38075 -0.4167,1.18152 -0.375,2.34375 l 0.0625,1.84375 -1.84375,0.125 -3.28125,0.1875 -0.1875,0 -0.1875,-0.03125 c -0.36755,-0.04854 -0.40885,-0.01142 -0.46875,0 -0.029,0.13089 -0.13385,0.74106 -0.15625,1.65625 l -0.0625,1.90625 -1.875,-0.0625 -5.375,-0.1875 c -0.38024,0.11034 -0.77366,0.43285 -1.15625,1.34375 -0.40162,0.95621 -0.6443,2.38239 -0.625,3.78125 0.0193,1.39886 0.29544,2.78539 0.6875,3.6875 0.37948,0.87316 0.71545,1.0457 0.78125,1.0625 l 5.75,0 1.78125,0 0.0937,1.8125 c 0.0413,0.98098 0.164,1.76528 0.25,1.9375 0.0215,0.043 0.0158,0.0784 0,0.0937 0.007,-0.01 0.0497,-0.0366 0.375,-0.0625 l 0.0625,0 0.0625,0 3.46875,-0.0937 2,-0.0625 -0.0937,2 c -0.0405,1.11883 0.1529,1.83507 0.3125,2.125 0.14937,0.27135 0.1855,0.29255 0.53125,0.34375 L 223,111.59375 c 1.28444,-0.56294 2.44069,-2.0743 3.1875,-4.53125 0.77845,-2.56089 1.06559,-5.90984 0.84375,-9.15625 -0.22184,-3.24641 -0.94489,-6.40319 -1.96875,-8.59375 -0.51193,-1.09528 -1.08739,-1.93582 -1.625,-2.4375 -0.53761,-0.50168 -0.96637,-0.6754 -1.40625,-0.6875 l -0.0312,0 -0.0625,0 -14.25,-1 c -0.0172,-9.55e-4 -0.027,-0.02795 -0.0625,0 z M 253.4375,89.5 c -2.55117,0.0067 -5.65587,0.435222 -9.3125,1.65625 -0.004,0.005 -0.0274,-0.005 -0.0312,0 -3.30605,4.3857 -4.26201,10.18913 -3.90625,15.25 l 7.25,11.96875 c 4.80211,0.15147 9.26287,-0.70766 13.46875,-2.5 0.59652,-0.40018 1.19995,-0.81138 1.78125,-1.28125 -0.0195,0.0166 0.0274,-0.0308 0.0625,-0.0625 0.0313,-0.0246 0.0614,-0.0428 0.0937,-0.0625 0.1158,-0.0703 0.26983,-0.17631 0.46875,-0.3125 0.39784,-0.27239 0.9211,-0.66718 1.5,-1.25 1.15781,-1.16564 2.51499,-3.04061 3.5,-5.9375 l 0.0625,-0.1875 0,-0.15625 c 0.009,0.0117 0.039,-0.13314 0.15625,-0.40625 0.15635,-0.3642 0.38669,-0.90922 0.53125,-1.65625 0.28913,-1.49407 0.28752,-3.75665 -0.71875,-7.46875 -0.44364,-1.72867 -1.62988,-2.99016 -3.03125,-3.9375 -1.40137,-0.94734 -3.0466,-1.60939 -4.65625,-2.28125 -1.5635,-0.687296 -3.93867,-1.383634 -7.21875,-1.375 z m -23,5.125 c 0.15235,0.993442 0.27379,2.007433 0.34375,3.03125 0.24737,3.62005 -0.0362,7.32904 -1,10.5 -0.96384,3.17096 -2.67386,6.00474 -5.625,7.09375 l -0.34375,0.125 -0.34375,-0.0312 -15.75,-0.375 -0.125,0 -0.0937,0 c -1.38077,-0.19411 -2.68419,-1.08311 -3.34375,-2.28125 -0.3536,-0.64233 -0.54565,-1.32714 -0.65625,-2.0625 l -1.5625,0.0312 -0.0937,0 0,-0.0312 c -1.67237,0.0907 -3.32457,-0.83519 -3.9375,-2.0625 -0.29143,-0.58355 -0.44595,-1.14221 -0.53125,-1.6875 l -4.21875,0 -0.125,0 -0.125,0 c -1.91692,-0.24464 -3.08175,-1.77489 -3.75,-3.3125 -0.66825,-1.53761 -0.975,-3.30852 -1,-5.125 -0.0103,-0.749516 0.0307,-1.508821 0.125,-2.25 l -7.09375,1.84375 -4.40625,42.59375 9.5,7.8125 20.15625,-10.34375 0.3125,-0.15625 0.375,-0.0312 49.15625,-5.25 -2.09375,-10.78125 c -2.56145,0.4209 -5.211,0.57052 -7.9375,0.40625 l -1,-0.0625 -0.53125,-0.875 L 236.625,108 l -0.25,-0.40625 -0.0312,-0.4375 c -0.27635,-3.27813 -0.0824,-6.95068 0.875,-10.5 L 230.4375,94.625 z m -69.59375,3 c -2.26544,-0.05909 -4.18053,0.499711 -5.5,2.25 -2.32214,3.64113 -1.7218,11.76867 0.75,13.15625 -0.26668,3.59932 -0.21354,6.92906 0.65625,9.625 0.93232,2.88973 2.94896,5.09767 6.21875,5.71875 l 0.28125,0.0625 0.25,-0.0937 c 0.33285,-0.12758 0.61881,-0.45927 0.9375,-0.6875 L 173.5,135.125 177,101 c -5.65856,-0.64204 -11.62537,-3.256824 -16.15625,-3.375 z m 23.34375,19.59375 0.21875,0.0937 2.8125,1.34375 0.1875,0.0937 0.0312,0.1875 0.78125,3.21875 0.0625,0.25 -0.21875,0.15625 -2.8125,1.96875 -0.15625,0.125 -0.21875,-0.0625 -2.90625,-1.125 -0.21875,-0.0937 -0.0312,-0.21875 -0.5625,-3.4375 -0.0312,-0.25 0.1875,-0.15625 2.6875,-1.96875 0.1875,-0.125 z m 53.5625,8.34375 0.15625,0.1875 1.84375,2.875 0.125,0.1875 -0.125,0.21875 -1.53125,2.8125 -0.0937,0.1875 -0.21875,0.0312 -3.3125,0.5625 -0.28125,0.0625 -0.15625,-0.25 -1.84375,-2.96875 -0.125,-0.1875 0.0937,-0.21875 1.34375,-2.90625 0.0937,-0.21875 0.25,0 3.53125,-0.34375 0.25,-0.0312 z m -19.34375,0.9375 0.21875,0.0937 3.03125,1.53125 0.21875,0.0937 0,0.25 0.0937,3.21875 0,0.1875 -0.125,0.125 -2.59375,2.1875 -0.21875,0.1875 -0.25,-0.125 -3.09375,-1.65625 -0.21875,-0.0937 0,-0.21875 -0.3125,-3.1875 -0.0312,-0.21875 0.1875,-0.15625 2.875,-2.09375 0.21875,-0.125 z m -17.84375,2.875 0.25,0 3.4375,0.0625 0.25,0 0.125,0.21875 1.46875,2.875 0.0937,0.1875 -0.0625,0.1875 -1.40625,3.125 -0.125,0.25 -0.28125,0 -3.53125,-0.15625 -0.21875,0 -0.125,-0.1875 -1.6875,-2.75 -0.125,-0.21875 0.125,-0.1875 1.71875,-3.1875 0.0937,-0.21875 z m -13.71875,5.09375 0.15625,0.1875 2.34375,2.25 0.125,0.125 0,0.21875 -0.3125,3.375 -0.0312,0.28125 -0.28125,0.0937 -3.40625,1 -0.21875,0.0625 -0.15625,-0.15625 -2.46875,-2.0625 -0.1875,-0.15625 0.0312,-0.21875 0.625,-3.5625 0.0312,-0.25 0.25,-0.0625 3.25,-1.0625 0.25,-0.0625 z m 67.6875,2.25 -46.59375,4.96875 -14.90625,7.625 c 4.58974,5.64375 9.9876,13.86162 13.71875,22.78125 4.11128,9.82836 6.11973,20.38597 3.03125,29.15625 -2.18123,1.11317 -4.23413,2.15922 -6.1875,3.1875 l -0.4375,-0.4375 0,0.6875 c -13.1614,6.94894 -21.50222,12.2381 -29.71875,19.1875 -8.97717,1.60196 -10.35764,3.01957 -19.15625,8.21875 l -0.5,0.3125 0.0312,0.59375 0.625,8.375 0.21875,2.8125 1.5625,-2.34375 1.28125,-1.90625 0.75,4.625 0.375,2.1875 1.34375,-1.75 2.6875,-3.5 0.78125,3.46875 L 164,247.5 l 1.21875,-2.28125 3.3125,-6.09375 0.15625,-0.3125 -0.0625,-0.34375 -0.40625,-2.125 0.75,-0.78125 0.84375,4.40625 0.34375,1.78125 1.28125,-1.28125 0.28125,-0.3125 3.46875,-11.46875 0.21875,-0.71875 0.65625,-0.375 5.40625,-3.15625 1.46875,-2.03125 0.46875,-0.65625 0.8125,-0.125 11.25,-1.53125 0.0937,-0.0312 29.5,-9.3125 c -6.35789,-16.05075 -5.72131,-28.53094 -3.53125,-44.40625 l 3.84375,0.53125 44.125,6.1875 1.71875,0.25 -0.0625,1.75 c -0.52195,13.43647 -1.05579,26.31627 -6.3125,37.625 9.75245,-10.67088 19.11366,-21.47727 24.375,-33.71875 l -11.46875,-14.6875 -1.25,-1.59375 1.65625,-1.1875 7.25,-5.1875 c -1.62194,-1.20054 -3.84046,-2.73829 -6.40625,-4.46875 -5.19562,-3.5041 -11.72875,-7.70373 -17.125,-10.90625 -2.67444,-1.58721 -4.72774,-2.67518 -6.125,-3.46875 -0.53603,-0.30444 -0.88423,-0.53433 -1.21875,-0.75 z m -29.625,33.96875 c -1.1201,8.92796 -1.5841,16.60109 -0.25,24.6875 l 40.25,4.9375 c 1.5979,-7.30394 1.97761,-15.21266 2.3125,-23.65625 l -42.3125,-5.96875 z m 6.8125,2.40625 c 2.55344,0 4.59375,2.14297 4.59375,4.6875 0,2.54454 -2.04031,4.71875 -4.59375,4.71875 -2.55345,0 -4.59375,-2.17421 -4.59375,-4.71875 0,-2.54453 2.0403,-4.6875 4.59375,-4.6875 z m 8.09375,2.5625 15.34375,1.34375 -0.625,7.3125 -15.375,-1.375 0.65625,-7.28125 z m 21.8125,1.6875 c 2.01252,0 3.59375,1.682 3.59375,3.6875 0,2.00549 -1.58123,3.71875 -3.59375,3.71875 -2.01252,0 -3.625,-1.71326 -3.625,-3.71875 0,-2.0055 1.61248,-3.6875 3.625,-3.6875 z m 30.25,5.0625 c -7.53609,16.15433 -21.19498,29.43977 -33.21875,42.8125 l 3.5625,10.9375 C 278.92608,225.68223 296.34994,217.5449 314.25,211.0625 l -5.71875,-7.34375 -28.75,16.84375 -1.5625,0.90625 -1.03125,-1.5 -2.65625,-4 -0.75,-1.15625 0.8125,-1.09375 20.625,-27.03125 -3.34375,-4.28125 z m -61.40625,2.1875 c 2.47947,0 4.4375,2.09168 4.4375,4.5625 0,2.47082 -1.95803,4.59375 -4.4375,4.59375 -2.47947,0 -4.46875,-2.12293 -4.46875,-4.59375 0,-2.47082 1.98928,-4.5625 4.46875,-4.5625 z m 9.75,1 5,0.53125 -1.09375,9.25 -5.03125,-0.53125 1.125,-9.25 z m 9.78125,1.125 5,0.53125 -1.09375,9.25 -5.03125,-0.53125 1.125,-9.25 z m 8.78125,1.1875 5,0.53125 -1.125,9.28125 -5,-0.53125 1.125,-9.28125 z m 38.90625,1.90625 -19.15625,25.15625 0.875,1.34375 26.71875,-15.65625 -8.4375,-10.84375 z m -72.21875,9.53125 c 0.87966,3.7494 2.11671,7.6628 3.90625,11.875 l 0.8125,1.9375 -2,0.65625 -31.53125,9.96875 -0.15625,0.0625 -0.15625,0 -10.78125,1.46875 -1.25,1.75 -0.21875,0.34375 -0.375,0.1875 -5.03125,2.9375 -2.96875,9.8125 2.28125,-1.65625 -0.5,1.8125 -0.84375,3.03125 2.40625,-2.03125 5.1875,-4.375 0.15625,-0.125 0.0937,-0.1875 1.40625,-2.84375 2.4375,-1.03125 0.21875,2.25 0.1875,1.8125 1.40625,-1.15625 6.84375,-5.625 c 4.97955,0.31846 9.98964,0.63783 15.0625,0.875 l 0,-0.0312 c 10.48217,-0.46239 27.84204,-2.84186 39.25,-6.59375 6.67655,-5.99261 10.41179,-12.8252 12.59375,-20.375 l -38.4375,-4.75 z m 29.5,27.0625 c -0.43544,0.41377 -0.88345,0.84372 -1.34375,1.25 l -0.3125,0.25 -0.375,0.125 c -10.60798,3.55692 -25.52742,5.77518 -36.4375,6.59375 l 0.125,0.53125 c 1.11458,3.24913 0.79041,5.32207 0.34375,7.53125 15.43827,-9.05944 31.40123,-6.71749 41.375,-5.96875 l -3.375,-10.3125 z m -10.625,13.375 c -8.71683,-0.0445 -18.53066,1.39434 -28.03125,7.90625 -0.1406,4.04657 0.26623,9.39038 1.0625,13.4375 2.26257,11.49979 7.08805,21.77404 14.6875,31.375 0.4723,0.59671 0.91724,1.17053 1.25,1.59375 0.25981,0.33044 0.36367,0.46789 0.4375,0.5625 0.0101,0.093 0.0188,0.18936 0.0312,0.34375 0.0325,0.39245 0.0532,0.95421 0.0937,1.625 0.0811,1.34158 0.20048,3.13322 0.28125,4.90625 0.0808,1.77303 0.14687,3.54325 0.1875,4.875 0.0159,0.52231 0.0257,0.8923 0.0312,1.25 -0.26653,-0.014 -0.5044,-0.007 -0.875,-0.0312 -1.11243,-0.0735 -2.61771,-0.20235 -4.28125,-0.34375 -4.93617,-0.41954 -7.14676,-0.49599 -11.53125,-0.5 -7.11392,-0.006 -10.24538,0.31684 -15.75,2.09375 l -0.21875,-0.75 -13.40625,1.6875 -0.3125,0.0625 -0.21875,0.1875 -4.65625,4.34375 -1.34375,1.28125 1.78125,0.375 4.3125,0.9375 c -0.008,0.0202 -0.0231,0.0403 -0.0312,0.0625 -0.0182,0.0476 -0.0408,0.0822 -0.0625,0.1875 -0.0108,0.0527 -0.0363,0.12089 -0.0312,0.25 0.003,0.0646 -0.004,0.13857 0.0312,0.25 0.0176,0.0557 0.0934,0.18694 0.0937,0.1875 3.2e-4,5.6e-4 0.15584,0.21834 0.15625,0.21875 0.31468,0.31468 0.37126,0.23083 0.4375,0.25 0.0662,0.0192 0.1145,0.0236 0.15625,0.0312 0.0835,0.0153 0.15814,0.0208 0.25,0.0312 0.18373,0.0211 0.40736,0.042 0.6875,0.0625 0.56028,0.041 1.32208,0.0939 2.125,0.125 l 2.875,0.0937 0.25,0 c -0.0202,0.0401 -0.0444,0.086 -0.0625,0.125 -0.0362,0.0781 -0.0907,0.13127 -0.125,0.25 -0.0171,0.0594 -0.0252,0.14436 -0.0312,0.28125 -0.006,0.13689 -0.0374,0.43133 0.28125,0.75 0.20913,0.20913 0.28267,0.19374 0.34375,0.21875 0.0611,0.025 0.11736,0.0511 0.15625,0.0625 0.0778,0.0228 0.14034,0.0143 0.21875,0.0312 0.15682,0.0338 0.33558,0.0871 0.5625,0.125 0.45383,0.0759 1.0508,0.16616 1.6875,0.25 0.63017,0.083 1.23777,0.16219 1.6875,0.21875 0.44973,0.0566 0.6453,0.0786 0.8125,0.0937 0.39223,0.0357 0.50748,-0.0765 0.59375,-0.125 1.27037,-1.1419 2.13086,-2.4974 3.1875,-3.90625 L 208.6875,317 c 2.74895,-0.0641 7.42503,-0.0333 10.3125,0.0625 2.56756,0.0851 5.71834,0.14273 7.8125,0.15625 l 4.375,-4.21875 0.40625,-0.40625 0.59375,-0.0937 c 5.47749,-0.90085 10.92105,-1.6198 16.28125,-2.09375 l 0.21875,-2.1875 0.25,-2.625 2.4375,1.03125 7.40625,3.21875 c 6.41998,-0.13842 12.69775,0.15017 18.8125,1.0625 L 277.1875,300.5 c -14.87014,-16.39872 -20.16073,-36.7877 -18,-59.8125 -4.27187,-0.26256 -9.3342,-0.87811 -14.84375,-0.90625 z"
       transform="translate(129.45562,138.56415)"
       id="path4585-2-5-1"
       inkscape:connector-curvature="0" />
    <path
       inkscape:connector-curvature="0"
       style="fill:#000000;fill-opacity:1;stroke:#000000;stroke-width:1.26524401;stroke-miterlimit:4;stroke-opacity:1;stroke-dasharray:none"
       d=""
       id="path4986" />
    <path
       inkscape:connector-curvature="0"
       style="fill:#000000;fill-opacity:1;stroke:#ffffff;stroke-width:0.37957314;stroke-miterlimit:4;stroke-opacity:1;stroke-dasharray:none"
       d=""
       id="path7242" />
    <path
       style="fill:#000000;fill-opacity:1;stroke:#000000;stroke-width:0.04360025;stroke-linejoin:round;stroke-miterlimit:4;stroke-opacity:1;stroke-dasharray:none"
       d=""
       id="path4197"
       inkscape:connector-curvature="0" />
    <path
       inkscape:connector-curvature="0"
       style="fill:#000000;fill-opacity:1;stroke:#000000;stroke-width:1.93010962;stroke-miterlimit:4;stroke-opacity:1;stroke-dasharray:none"
       d=""
       id="path4986-2" />
    <path
       inkscape:connector-curvature="0"
       style="fill:#000000;fill-opacity:1;stroke:#ffffff;stroke-width:0.57903284;stroke-miterlimit:4;stroke-opacity:1;stroke-dasharray:none"
       d=""
       id="path7242-3" />
    <path
       style="fill:none;stroke:none"
       d="m 260.71875,11.1875 c -30.4571,0 -59.15594,7.312959 -84.375,20.1875 -3.05361,1.558895 -6.05172,3.186425 -9,4.90625 -1.46133,0.852439 -2.90944,1.734129 -4.34375,2.625 -28.04522,17.419247 -50.85679,42.106986 -65.625,71.34375 -0.467005,0.92453 -0.924167,1.84772 -1.375,2.78125 -0.84481,1.74933 -1.681621,3.50121 -2.46875,5.28125 -0.08267,0.18705 -0.167993,0.37514 -0.25,0.5625 -0.06735,0.15378 -0.120581,0.31474 -0.1875,0.46875 -0.30799,0.70935 -0.607791,1.44238 -0.90625,2.15625 -0.395123,0.94391 -0.777466,1.89179 -1.15625,2.84375 -0.381447,0.96105 -0.760606,1.93727 -1.125,2.90625 -0.01645,0.0436 -0.04609,0.0814 -0.0625,0.125 -0.714036,1.89827 -1.382741,3.82194 -2.03125,5.75 -5.836578,17.3525 -9.03125,35.87569 -9.03125,55.125 0,25.09831 5.385962,48.96372 15.0625,70.59375 1.826315,4.08237 3.811166,8.08467 5.9375,12 18.77308,34.5679 48.9626,62.33731 85.6875,78.59375 15.41283,6.82256 31.95834,11.65361 49.3125,14.0625 0.23983,0.0351 0.47855,0.0595 0.71875,0.0937 0.67728,0.0913 1.35161,0.16595 2.03125,0.25 2.06305,0.27379 4.12964,0.53599 6.21875,0.75 1.12903,0.11566 2.74082,0.18924 4.53125,0.25 4.1096,0.26988 8.25746,0.4375 12.4375,0.4375 5.73002,0 11.32262,-0.41662 16.875,-1.03125 0.0825,-0.009 0.16751,0.009 0.25,0 1.33784,-0.10602 2.50128,-0.21844 3.40625,-0.34375 1.50899,-0.20895 2.98662,-0.44512 4.4375,-0.6875 0.69924,-0.0985 1.39543,-0.17931 2.09375,-0.28125 14.61009,-2.54326 27.05924,-7.64539 38.5625,-13.84375 2.05554,-1.04426 4.07035,-2.08373 5.8125,-3 1.49988,-0.78885 2.78178,-1.50401 3.6875,-2.03125 0.45286,-0.26362 0.82323,-0.46446 1.09375,-0.65625 0.13526,-0.0959 0.24237,-0.17512 0.375,-0.3125 0.0663,-0.0687 0.12751,-0.13411 0.21875,-0.34375 0.0168,-0.0386 0.0458,-0.0994 0.0625,-0.15625 1.99359,-1.22614 3.9713,-2.49163 5.9375,-3.75 -2.89869,1.04785 -5.79924,2.00165 -8.6875,2.84375 -0.25593,0.0585 -0.46307,0.0866 -0.75,0.15625 -1.27222,0.3089 -2.77884,0.68612 -3.8125,0.96875 -6.5412,1.78858 -16.81842,3.58609 -27.8125,4.84375 -36.9271,4.22428 -58.98872,3.6718 -82.03125,-2.03125 C 193.88926,339.05428 169.52213,326.37926 150.03125,309 133.92088,294.63501 121.98465,279.07085 112.875,260.625 105.07209,244.82511 100.23816,229.25976 97.25,210.1875 c -1.27295,-8.12486 -1.27317,-35.10469 0,-43.59375 3.53122,-23.54479 12.30881,-46.68529 24.6875,-65.21875 0.005,-0.007 -0.005,-0.0241 0,-0.0312 0.82066,-1.22819 1.67951,-2.438645 2.53125,-3.625 27.81856,-38.74734 71.69955,-64.4898 118.21875,-69.375 14.25946,-1.49745 34.11608,-0.79216 48.1875,1.75 31.24459,5.64467 60.54888,20.12972 83.46875,41.1875 2.93626,2.697713 4.87305,4.51935 6.625,6.3125 0.68608,0.712748 1.35852,1.430794 2.03125,2.15625 0.0854,0.09212 0.16479,0.188927 0.25,0.28125 1.3375,1.48137 2.73198,3.114743 4.5625,5.3125 21.673,26.02091 34.36621,55.8477 37.78125,88.8125 0.79142,7.63954 0.66199,24.29127 -0.25,32.8125 -2.76747,25.85799 -11.30516,49.50198 -25.03125,69.21875 -0.89625,1.28741 -1.62143,2.32011 -2.34375,3.3125 -0.15908,0.21855 -0.37719,0.51037 -0.53125,0.71875 -1.4987,1.95666 -3.08119,3.84511 -4.6875,5.6875 -1.11639,1.22297 -2.37927,2.55639 -4,4.21875 l -3.375,3.46875 -0.0937,0.0625 c -0.73102,0.68659 -1.43869,1.36828 -2.1875,2.03125 l 0.125,0.125 -0.0312,0.0312 0.53125,0.65625 0.375,0.46875 c -0.11088,-0.11969 -0.2523,-0.24572 -0.4375,-0.34375 -0.4178,-0.22113 -0.96111,-0.1967 -1.375,-0.0625 -0.82779,0.26841 -1.66284,0.84836 -3.3125,1.9375 -4.60906,3.04303 -6.49381,3.98002 -11.5625,5.59375 -5.57673,1.77549 -14.24993,2.21814 -20.53125,1.03125 -2.70906,-0.51189 -6.06068,-1.43328 -8.84375,-2.34375 -1.39154,-0.45524 -2.63929,-0.90879 -3.59375,-1.3125 -0.95446,-0.40371 -1.66516,-0.85291 -1.6875,-0.875 -0.22294,-0.22039 -0.73948,-0.97019 -1.28125,-1.9375 -0.54177,-0.96731 -1.1591,-2.16897 -1.75,-3.46875 -1.18181,-2.59956 -2.31012,-5.57583 -2.8125,-7.5625 -1.29813,-5.13337 -1.03219,-15.15593 0.5625,-20.65625 2.4873,-8.57901 3.30605,-15.83689 3.34375,-29.53125 0.01,-3.5215 -0.0249,-6.78196 -0.0937,-9.1875 -0.0344,-1.20277 -0.0764,-2.18591 -0.125,-2.90625 -0.0243,-0.36017 -0.063,-0.64075 -0.0937,-0.875 -0.0154,-0.11712 -0.0365,-0.23258 -0.0625,-0.34375 -0.026,-0.11117 0.10168,-0.17947 -0.28125,-0.5625 -0.13132,-0.13136 -0.27443,-0.12395 -0.40625,-0.1875 l 18.28125,-11.53125 0.46875,-0.28125 0,-0.0312 0.625,-0.34375 -0.6875,-0.875 -45.78145,-59.5313 L 302.0625,150 l -0.75,0.625 -0.0937,0.0625 -0.0625,0.0625 -12.84375,8.21875 c -0.0318,-0.0569 -0.0663,-0.17672 -0.0937,-0.21875 -0.0765,-0.11722 -0.13865,-0.22569 -0.21875,-0.3125 -0.1602,-0.17362 -0.35738,-0.3285 -0.59375,-0.53125 -0.47274,-0.40549 -1.12399,-0.92799 -1.9375,-1.53125 -1.62701,-1.20652 -3.87094,-2.7792 -6.46875,-4.53125 -5.19562,-3.5041 -11.72875,-7.70373 -17.125,-10.90625 -2.67444,-1.58721 -4.72774,-2.67518 -6.125,-3.46875 -0.69863,-0.39678 -1.2549,-0.72984 -1.59375,-0.96875 -0.25414,-0.17918 -0.36833,-0.32604 -0.375,-0.3125 -0.10833,-0.2916 -0.24852,-0.74285 -0.40625,-1.15625 -0.0833,-0.2184 -0.17435,-0.42429 -0.28125,-0.625 -0.0534,-0.10035 -0.10906,-0.18431 -0.21875,-0.3125 -0.10969,-0.12819 -0.29504,-0.40625 -0.8125,-0.40625 -0.12892,0 -0.0915,-0.003 -0.125,0 -0.0335,0.003 -0.0778,0.0262 -0.125,0.0312 -0.0944,0.0103 -0.24288,0.0121 -0.40625,0.0312 -0.32675,0.0383 -0.78388,0.11528 -1.375,0.1875 -1.18225,0.14445 -2.87753,0.3361 -4.9375,0.59375 -4.11993,0.5153 -9.7359,1.21683 -15.875,2 -10.24427,1.30687 -16.72297,2.22695 -20.6875,2.96875 -1.98227,0.3709 -3.31894,0.68411 -4.25,1.03125 -0.46553,0.17357 -0.83399,0.36296 -1.15625,0.625 -0.32226,0.26204 -0.65216,0.73413 -0.625,1.25 0.0184,0.34991 0.12675,0.44486 0.1875,0.53125 0.0607,0.0864 0.1108,0.14175 0.15625,0.1875 0.0909,0.0915 0.18322,0.14159 0.28125,0.21875 0.19606,0.15432 0.45173,0.33294 0.75,0.53125 0.59654,0.39661 1.39502,0.90058 2.28125,1.40625 6.8503,3.90872 11.06063,7.81882 14.15625,13.125 -3.31924,-5.57407 -8.49447,-10.01052 -16.625,-14.4375 l -2.3125,-1.28125 -0.4375,-0.25 -0.4375,0.21875 -3.53125,1.65625 c -0.97053,0.45607 -1.87839,0.88122 -2.53125,1.1875 -0.32643,0.15314 -0.5946,0.28734 -0.78125,0.375 -0.0933,0.0438 -0.16742,0.0696 -0.21875,0.0937 -0.0257,0.0121 -0.0473,0.024 -0.0625,0.0312 -0.0152,0.007 0.0737,-0.0419 -0.0625,0.0312 -9e-5,5e-5 -0.28118,0.21867 -0.28125,0.21875 -7e-5,8e-5 -0.15621,0.28114 -0.15625,0.28125 -8e-5,2.1e-4 -0.0625,0.37467 -0.0625,0.375 1e-5,3.3e-4 0.0311,0.18706 0.0312,0.1875 1.1e-4,4.4e-4 0.022,0.0991 0.0312,0.125 0.0372,0.10342 0.0467,0.12829 0.0625,0.15625 0.0317,0.0559 0.0445,0.0676 0.0625,0.0937 0.036,0.0526 0.0792,0.0951 0.125,0.15625 0.0916,0.12226 0.21932,0.30147 0.375,0.5 0.31136,0.39706 0.74491,0.91233 1.21875,1.5 2.20235,2.73138 5.94884,8.27796 8,11.84375 7.24638,12.59721 10.70921,25.55936 9.4375,34.46875 -0.14705,1.03019 -0.45912,2.51677 -0.78125,3.78125 -0.16106,0.63224 -0.32991,1.19271 -0.46875,1.625 -0.0694,0.21615 -0.10733,0.40985 -0.15625,0.53125 -0.0489,0.1214 -0.14302,0.19881 -0.0625,0.0937 -0.0233,0.0161 -0.0333,0.0119 -0.0625,0.0312 -0.15266,0.1017 -0.38442,0.24405 -0.65625,0.40625 -0.54365,0.3244 -1.29555,0.74802 -2.0625,1.15625 -1.18949,0.63314 -2.15328,1.36306 -3.28125,2 -0.12061,-0.0704 -0.24983,-0.1562 -0.25,-0.15625 -2.9e-4,-8e-5 -0.24958,-0.0312 -0.25,-0.0312 -8.5e-4,-1e-5 -0.17579,0.0221 -0.21875,0.0312 -0.0859,0.0186 -0.0969,0.0208 -0.125,0.0312 -0.0563,0.0209 -0.0954,0.0487 -0.125,0.0625 -0.0316,0.0147 -0.0611,0.0461 -0.0937,0.0625 -0.0285,0.0143 -0.0609,0.0143 -0.0937,0.0312 -0.0153,0.009 -0.0134,0.0206 -0.0312,0.0312 -0.13716,0.0715 -0.31781,0.13362 -0.53125,0.25 -0.45737,0.24939 -1.06978,0.58895 -1.75,0.96875 -1.36043,0.7596 -2.95572,1.67085 -3.9375,2.21875 -9.41172,5.25232 -15.87229,9.53112 -22.375,14.9375 l 0,0.0312 -0.90625,0.78125 -4.25,1.15625 c -1.22065,0.33749 -2.36456,0.64875 -3.1875,0.875 -0.41147,0.11313 -0.73205,0.21585 -0.96875,0.28125 -0.11835,0.0327 -0.21461,0.0438 -0.28125,0.0625 -0.0578,0.0162 -0.15686,0.0523 -0.1875,0.0625 -0.005,0.002 -0.0308,-2.4e-4 -0.0312,0 -0.0508,0.0203 -0.1157,0.0771 -0.21875,0.15625 -0.0566,0.0435 -0.18718,0.18705 -0.1875,0.1875 -9e-5,1.3e-4 -0.0416,0.0721 -0.0625,0.125 l -0.25,0 1.25,-2.28125 -3,1.75 -8.28125,4.90625 -0.5,0.3125 0.0312,0.59375 0.625,8.375 0.21875,2.8125 1.5625,-2.34375 2.1875,-3.25 c 0.0762,0.48707 0.15194,1.01071 0.21875,1.40625 0.091,0.53877 0.14432,0.82419 0.21875,1.125 l -0.0625,0.9375 0,0.1875 0.0312,0.15625 c 0.0372,0.12525 0.008,0.27157 0.34375,0.5625 0.16794,0.14547 0.53978,0.27753 0.84375,0.21875 0.30397,-0.0588 0.47341,-0.21812 0.5625,-0.3125 0.35635,-0.37754 0.28524,-0.44357 0.34375,-0.59375 0.11702,-0.30036 0.24939,-0.63163 0.34375,-0.75 0.5453,-0.68405 0.82747,-1.10857 1.0625,-1.625 l 1.125,5.0625 L 164,247.5 l 1.21875,-2.28125 3.3125,-6.09375 0.15625,-0.3125 -0.0625,-0.34375 -0.40625,-2.125 0.75,-0.78125 0.84375,4.40625 0.34375,1.78125 1.28125,-1.28125 3.1875,-3.21875 -0.625,2.1875 -0.75,2.6875 2.25,-1.625 2.5,-1.8125 -0.5,1.8125 -0.84375,3.03125 2.40625,-2.03125 5.1875,-4.375 0.15625,-0.125 0.0937,-0.1875 1.40625,-2.84375 2.4375,-1.03125 0.21875,2.25 0.1875,1.8125 1.40625,-1.15625 6.84375,-5.625 c 6.13481,0.39234 12.29731,0.7963 18.59375,1.03125 l 0.0625,0.28125 0.96875,3.625 c 0.46429,1.68234 0.72482,2.59685 0.8125,3.1875 0.0877,0.59065 0.0585,0.88539 -0.0625,1.59375 -0.0744,0.43566 -0.16556,0.84616 -0.21875,1.1875 -0.0532,0.34134 -0.0937,0.46574 -0.0937,0.8125 0,0.0734 9e-4,0.15539 0.0312,0.3125 0.0203,0.10474 0.14412,0.27991 0.25,0.4375 -0.24792,0.1547 -0.46887,0.24653 -0.71875,0.40625 l 0.34375,0.71875 -0.0312,0 -0.4375,0.25 -0.0312,0.5 -0.125,2.09375 c -0.26002,4.12813 0.1664,10.07304 1.03125,14.46875 2.26257,11.49979 7.08805,21.77404 14.6875,31.375 0.4723,0.59671 0.91724,1.17053 1.25,1.59375 0.25981,0.33044 0.36367,0.46789 0.4375,0.5625 0.0101,0.093 0.0186,0.18936 0.0312,0.34375 0.0325,0.39245 0.0532,0.95421 0.0937,1.625 0.0811,1.34158 0.20048,3.13322 0.28125,4.90625 0.0808,1.77303 0.14687,3.54325 0.1875,4.875 0.0159,0.52231 0.0257,0.8923 0.0312,1.25 -0.26653,-0.014 -0.5044,-0.007 -0.875,-0.0312 -1.11243,-0.0735 -2.61771,-0.20235 -4.28125,-0.34375 -4.93617,-0.41954 -7.14676,-0.49599 -11.53125,-0.5 -7.11395,-0.007 -10.24538,0.31675 -15.75,2.09375 l -0.21875,-0.75 -13.40625,1.6875 -0.3125,0.0625 -0.21875,0.1875 -4.65625,4.34375 -1.34375,1.28125 1.78125,0.375 4.3125,0.9375 c -0.008,0.0202 -0.0229,0.0403 -0.0312,0.0625 -0.0182,0.0476 -0.0408,0.0822 -0.0625,0.1875 -0.0108,0.0527 -0.0363,0.12089 -0.0312,0.25 0.003,0.0646 -0.004,0.13857 0.0312,0.25 0.0176,0.0557 0.0934,0.18694 0.0937,0.1875 3.2e-4,5.6e-4 0.15584,0.21834 0.15625,0.21875 0.31475,0.3147 0.37127,0.23083 0.4375,0.25 0.0662,0.0192 0.11451,0.0236 0.15625,0.0312 0.0835,0.0153 0.15814,0.0208 0.25,0.0312 0.18372,0.0211 0.40736,0.042 0.6875,0.0625 0.56027,0.041 1.32207,0.0939 2.125,0.125 l 2.875,0.0937 0.25,0 c -0.0202,0.0401 -0.0444,0.086 -0.0625,0.125 -0.0362,0.0781 -0.0907,0.13127 -0.125,0.25 -0.0171,0.0594 -0.0252,0.14436 -0.0312,0.28125 -0.006,0.13689 -0.0374,0.43133 0.28125,0.75 0.2092,0.20917 0.28269,0.19375 0.34375,0.21875 0.0611,0.025 0.11736,0.0511 0.15625,0.0625 0.0778,0.0228 0.14035,0.0145 0.21875,0.0312 0.15681,0.0338 0.33558,0.0871 0.5625,0.125 0.45383,0.0759 1.05079,0.16616 1.6875,0.25 0.63017,0.083 1.23777,0.16219 1.6875,0.21875 0.44973,0.0566 0.6453,0.0786 0.8125,0.0937 0.3913,0.0342 0.50786,-0.0766 0.59375,-0.125 0.0859,-0.0484 0.14616,-0.0917 0.1875,-0.125 0.0827,-0.0665 0.12346,-0.12255 0.1875,-0.1875 0.12809,-0.1299 0.27474,-0.30804 0.4375,-0.5 0.32551,-0.38391 0.73184,-0.8938 1.15625,-1.46875 l 1.21875,-1.625 4.5625,-0.125 c 2.74892,-0.0641 7.42502,-0.0333 10.3125,0.0625 2.93107,0.0972 6.87152,0.15423 8.8125,0.15625 l 2.125,0.0312 -2.03125,1.875 -1.34375,1.28125 1.78125,0.375 4.15625,0.90625 c -0.006,0.01 -0.0262,0.0222 -0.0312,0.0312 -0.0218,0.0384 -0.0123,-0.0432 -0.0937,0.15625 -3.5e-4,8.6e-4 -0.0625,0.37414 -0.0625,0.375 0,8.6e-4 0.0622,0.37415 0.0625,0.375 3.4e-4,8.5e-4 0.1065,0.18764 0.15625,0.25 0.0498,0.0624 0.0835,0.0903 0.125,0.125 0.16608,0.13868 0.24845,0.16454 0.3125,0.1875 0.12809,0.0459 0.18451,0.0516 0.25,0.0625 0.13097,0.0219 0.28387,0.0193 0.4375,0.0312 0.30727,0.0239 0.68373,0.0512 1.125,0.0625 0.86695,0.0221 2.22351,0.0474 3.0625,0.0625 l 1.53125,0.0312 0.53125,0 c -0.008,0.0475 -0.0266,0.0729 -0.0312,0.125 -0.0402,0.45238 0.33192,1.05111 0.65625,1.25 0.32433,0.19889 0.57366,0.265 0.875,0.34375 1.36753,0.35738 2.50631,0.48361 3.5625,0.125 1.05619,-0.35861 1.8441,-1.14566 2.71875,-2.25 l 1.34375,-1.71875 13.15625,0.3125 c 8.41371,0.18549 15.6219,0.1207 20.875,-0.15625 2.62655,-0.13848 4.76399,-0.34888 6.34375,-0.59375 0.78988,-0.12244 1.4396,-0.24252 1.96875,-0.40625 0.52915,-0.16373 0.97816,-0.26147 1.375,-0.78125 0.44009,-0.5764 0.56807,-1.27779 0.65625,-2.1875 0.0882,-0.90971 0.0903,-2.05159 0.0312,-3.5625 l -0.125,-3.75 4.75,-3 0.0312,0 4.78125,-3.03125 2.28125,1.21875 c 1.36127,0.72705 4.0102,2.76178 5.59375,4.3125 8.17677,8.00738 19.55722,12.6319 33.9375,13.90625 11.43606,1.01343 23.18435,-0.89066 33.34375,-5.34375 2.95725,-1.29623 6.45984,-3.24682 9.25,-5.0625 1.39508,-0.90784 2.60199,-1.78471 3.5,-2.53125 0.44901,-0.37327 0.83563,-0.69984 1.125,-1.03125 0.28937,-0.33141 0.59375,-0.5972 0.59375,-1.28125 0,-0.40926 -0.0912,-0.39896 -0.125,-0.46875 -0.0337,-0.0698 -0.0609,-0.1327 -0.0937,-0.1875 -0.0659,-0.10961 -0.15275,-0.23329 -0.25,-0.375 -0.1945,-0.28342 -0.45159,-0.64975 -0.78125,-1.09375 -0.65931,-0.888 -1.56794,-2.05115 -2.5625,-3.3125 -1.29858,-1.64692 -2.02273,-2.6312 -2.78125,-3.625 l 2.3125,2.9375 5,6.40625 c 0.0106,-0.0102 0.0206,-0.021 0.0312,-0.0312 l 0.1875,0.25 0.75,-0.875 1.78125,-2.03125 0.1875,-0.1875 c 13.84569,-14.00742 24.82904,-30.55611 32.65625,-48.78125 0.34406,-0.79312 0.69983,-1.57505 1.03125,-2.375 0.0427,-0.10396 0.0825,-0.20844 0.125,-0.3125 0.47937,-1.16411 0.9535,-2.35249 1.40625,-3.53125 0.24878,-0.6514 0.4779,-1.31347 0.71875,-1.96875 0.339,-0.92234 0.67678,-1.85138 1,-2.78125 0.0862,-0.24762 0.16489,-0.50173 0.25,-0.75 0.23461,-0.68533 0.49273,-1.37322 0.71875,-2.0625 0.0342,-0.10422 0.0598,-0.20817 0.0937,-0.3125 0.0983,-0.30181 0.18458,-0.6037 0.28125,-0.90625 0.17106,-0.53586 0.33405,-1.0549 0.5,-1.59375 0.27943,-0.90553 0.54782,-1.80685 0.8125,-2.71875 0.0156,-0.0536 0.047,-0.10266 0.0625,-0.15625 0.25038,-0.86812 0.51256,-1.74911 0.75,-2.625 0.0251,-0.0922 0.0376,-0.18902 0.0625,-0.28125 0.12059,-0.44784 0.22653,-0.89387 0.34375,-1.34375 0.13556,-0.51864 0.27542,-1.04198 0.40625,-1.5625 0.0748,-0.29872 0.14538,-0.60663 0.21875,-0.90625 0.16898,-0.68808 0.33928,-1.37124 0.5,-2.0625 0.0578,-0.24904 0.0994,-0.50034 0.15625,-0.75 0.1685,-0.73968 0.34098,-1.47556 0.5,-2.21875 0.0381,-0.17773 0.0874,-0.35321 0.125,-0.53125 0.17275,-0.81997 0.33882,-1.64464 0.5,-2.46875 0.014,-0.0715 0.0173,-0.14721 0.0312,-0.21875 0.18314,-0.94274 0.36332,-1.89578 0.53125,-2.84375 0.0803,-0.44773 0.17274,-0.89406 0.25,-1.34375 0.0965,-0.57083 0.19024,-1.14612 0.28125,-1.71875 0.13492,-0.83085 0.2502,-1.66246 0.375,-2.5 0.0285,-0.19765 0.0659,-0.39589 0.0937,-0.59375 1.8851,-12.92371 2.25278,-25.98447 1.1875,-38.90625 -0.10495,-1.27302 -0.21079,-2.54238 -0.34375,-3.8125 -0.0227,-0.21726 -0.0389,-0.43908 -0.0625,-0.65625 -0.0568,-0.54084 -0.12574,-1.08561 -0.1875,-1.625 -0.1119,-0.94863 -0.21626,-1.89717 -0.34375,-2.84375 -0.0385,-0.29331 -0.0851,-0.58214 -0.125,-0.875 C 429.2338,78.107689 353.04612,11.1875 260.71875,11.1875 z m -9.15625,124.5 c 0.005,0.0121 -0.005,0.0189 0,0.0312 0.14045,0.3681 0.29726,0.84987 0.4375,1.21875 0.22559,0.59334 0.61562,0.84118 1.0625,1.15625 0.44688,0.31507 1.00203,0.6242 1.71875,1.03125 1.43343,0.81411 3.45401,1.93338 6.09375,3.5 5.34876,3.17434 11.86625,7.32905 17.03125,10.8125 2.5825,1.74172 4.81959,3.32341 6.40625,4.5 0.7552,0.56002 1.34088,1.02848 1.75,1.375 -0.0759,0.0552 -0.10131,0.0954 -0.1875,0.15625 -0.62741,0.44307 -1.52265,1.02191 -2.5,1.625 -1.02262,0.63103 -1.94183,1.25232 -2.625,1.8125 -0.34158,0.28009 -0.61342,0.55513 -0.84375,0.8125 -0.23033,0.25737 -0.53125,0.40126 -0.53125,1.09375 0,0.46955 0.10273,0.50597 0.1875,0.6875 0.0848,0.18153 0.21044,0.39331 0.34375,0.625 0.26662,0.46337 0.63623,1.06168 1.09375,1.75 0.91505,1.37665 2.17775,3.13836 3.59375,4.96875 l 4.6875,6.09375 -1.3125,2.46875 c -4.30036,7.97072 -12.92204,20.5835 -18.875,27.65625 -1.67299,1.98769 -4.57617,5.11321 -7.125,7.71875 2.53639,-4.04459 3.99785,-7.47295 4.71875,-11.65625 0.44681,-2.59276 1.30242,-9.7862 2,-16.46875 0.34879,-3.34127 0.63734,-6.55186 0.84375,-8.9375 0.10321,-1.19282 0.20811,-2.19243 0.25,-2.90625 0.0209,-0.35691 0.0294,-0.61899 0.0312,-0.84375 9.8e-4,-0.11238 -0.0231,-0.20749 -0.0312,-0.3125 -0.004,-0.0525 0.0182,-0.102 0,-0.1875 -0.0182,-0.0855 0.0303,-0.21969 -0.28125,-0.53125 -0.20893,-0.20894 -0.28749,-0.19566 -0.34375,-0.21875 -0.0563,-0.0231 -0.0932,-0.0219 -0.125,-0.0312 -0.0636,-0.0188 -0.0993,-0.0499 -0.15625,-0.0625 -0.11396,-0.0251 -0.26639,-0.0324 -0.4375,-0.0625 -0.34223,-0.0601 -0.79832,-0.12699 -1.40625,-0.21875 -1.21585,-0.18352 -2.97031,-0.42882 -5.09375,-0.71875 -4.24689,-0.57987 -10.04125,-1.36307 -16.40625,-2.15625 -6.36085,-0.79266 -12.18124,-1.51986 -16.40625,-2.0625 -2.11251,-0.27132 -3.80808,-0.49602 -5,-0.65625 -0.37958,-0.051 -0.60697,-0.0875 -0.875,-0.125 0.15306,-0.53492 0.363,-1.22394 0.625,-2 l 1,-3 0.125,-0.375 -0.15625,-0.375 -1.71875,-3.40625 c -3.3533,-6.65877 -8.15838,-11.38281 -16.03125,-15.875 -0.82937,-0.47323 -1.55191,-0.92308 -2.09375,-1.28125 0.72172,-0.26387 1.97289,-0.55035 3.875,-0.90625 3.86926,-0.72398 10.35937,-1.63189 20.59375,-2.9375 6.13769,-0.78298 11.75724,-1.51622 15.875,-2.03125 2.05888,-0.25752 3.75855,-0.44971 4.9375,-0.59375 0.5498,-0.0672 0.96401,-0.11885 1.28125,-0.15625 z m -50.6875,8.9375 1.875,1.03125 c 9.09651,4.95295 14.11092,9.68446 17.125,16.03125 l 0.78125,1.65625 -0.40625,1.25 0,0.0312 c -1.88812,5.82445 -2.41823,14.37172 -1.4375,23.46875 0.74199,6.88257 2.51056,15.10151 4.3125,20.21875 l 0.625,1.8125 -1.5,0.34375 c -7.72685,1.83927 -18.33289,5.65249 -25.0625,9.03125 -0.82102,0.41222 -1.23577,0.60442 -2.0625,0.78125 -0.82673,0.17683 -2.07232,0.32407 -4.375,0.5625 -3.41932,0.35405 -4.7173,0.48395 -5.875,0.75 8.47205,-6.93123 15.3954,-11.78032 23.96875,-16.34375 0.79315,-0.42217 1.51446,-0.84184 2.09375,-1.1875 0.28965,-0.17283 0.55363,-0.30667 0.75,-0.4375 0.0982,-0.0654 0.16948,-0.12602 0.25,-0.1875 0.0805,-0.0615 0.16372,-0.0872 0.3125,-0.28125 0.17235,-0.22477 0.2052,-0.3738 0.28125,-0.5625 0.0761,-0.1887 0.14002,-0.41113 0.21875,-0.65625 0.15745,-0.49025 0.33187,-1.09002 0.5,-1.75 0.33626,-1.31996 0.67917,-2.84701 0.84375,-4 1.37603,-9.64019 -2.29158,-22.7991 -9.6875,-35.65625 -2.1255,-3.69503 -5.86005,-9.20723 -8.1875,-12.09375 -0.37171,-0.461 -0.66034,-0.83704 -0.9375,-1.1875 0.65285,-0.30628 1.52877,-0.7311 2.5,-1.1875 l 3.09375,-1.4375 z m 100.84375,8.0625 44.59375,58 -19.34375,12.15625 -7.9375,-10.34375 -0.8125,-1.0625 -0.0312,-0.0312 -0.375,-0.5 L 282.5,165 301.71875,152.6875 z m -80.09375,8.1875 1.3125,2.53125 -0.875,2.59375 c -0.28226,0.83607 -0.52062,1.6276 -0.6875,2.21875 0.22114,-1.03584 0.3998,-2.11576 0.6875,-3 l 0,-0.0312 0.53125,-1.65625 0.125,-0.34375 -0.15625,-0.34375 -0.9375,-1.96875 z m -0.5,8.40625 c -0.005,0.0601 -0.0128,0.10164 0,0.21875 0.0128,0.11711 -0.0326,0.37327 0.34375,0.6875 3.3e-4,2.8e-4 0.17655,0.10444 0.21875,0.125 0.0422,0.0206 0.0402,0.0231 0.0625,0.0312 0.0446,0.0164 0.0736,0.0258 0.0937,0.0312 0.0402,0.0109 0.0714,0.0267 0.0937,0.0312 0.0448,0.009 0.0763,-0.008 0.125,0 0.0974,0.0163 0.24271,0.0387 0.40625,0.0625 0.32707,0.0476 0.77543,0.1069 1.375,0.1875 0.31332,0.0421 0.93036,0.13705 1.3125,0.1875 l -0.125,0.8125 c -1.26507,8.95365 -1.46329,15.87426 -0.21875,22.78125 l 0.125,0.71875 0.71875,0.0937 37.625,4.125 0.8125,0.0937 0.21875,-0.8125 c 1.93433,-7.51553 2.49266,-13.84165 2.71875,-20.96875 l 0.0312,-0.875 -0.875,-0.125 -32.21875,-4.71875 c 3.52369,0.44693 6.92568,0.89083 11.3125,1.4375 6.35839,0.79236 12.16994,1.54658 16.40625,2.125 2.11816,0.28921 3.86306,0.5377 5.0625,0.71875 0.47796,0.0721 0.79451,0.13735 1.09375,0.1875 -0.005,0.10201 0.007,0.15906 0,0.28125 -0.0399,0.67992 -0.11637,1.66052 -0.21875,2.84375 -0.20476,2.36646 -0.52705,5.54177 -0.875,8.875 -0.51399,4.92382 -0.99337,8.71073 -1.4375,12.09375 l -0.40625,0.15625 -3.71875,1.46875 c -2.48982,-0.35567 -6.967,-0.8539 -15.8125,-1.84375 -5.10246,-0.57099 -9.82756,-1.09806 -13.34375,-1.5 -1.75809,-0.20097 -3.20779,-0.37773 -4.25,-0.5 -1.04221,-0.12227 -1.78893,-0.19406 -1.75,-0.1875 l -0.875,-0.15625 -1.5,-0.28125 0.40625,1.46875 0.28125,1.03125 c 0.74184,2.83802 2.09611,6.53428 3.5625,9.78125 0.43425,0.96154 0.80427,1.85587 1.0625,2.5 0.0271,0.0677 0.0381,0.0942 0.0625,0.15625 -0.15911,0.0526 -0.26653,0.0901 -0.46875,0.15625 -0.86558,0.2831 -2.09059,0.66395 -3.625,1.15625 -3.06882,0.98459 -7.28549,2.34914 -11.90625,3.8125 -15.20039,4.81388 -17.03599,5.09552 -20.125,5.71875 l -6.96875,1.4375 -0.0937,0 -0.0937,0.0312 0.0625,0.5 -2.46875,0.65625 0.5,-1.3125 c 0.22669,-0.57781 0.3429,-0.95053 0.40625,-1.0625 0.0634,-0.11197 -0.0153,-0.0593 0.28125,-0.15625 0.59303,-0.19396 2.42215,-0.36872 6.40625,-0.78125 2.31186,-0.23938 3.60277,-0.38179 4.59375,-0.59375 0.99098,-0.21196 1.67513,-0.50767 2.53125,-0.9375 6.52291,-3.27498 17.10095,-7.11526 24.625,-8.90625 l 2.53125,-0.59375 1.03125,-0.25 -0.34375,-1 -0.96875,-2.8125 c -1.71586,-4.87276 -3.46301,-13.06108 -4.1875,-19.78125 -0.74677,-6.92687 -0.55711,-13.4924 0.375,-18.625 z m 5.75,3.625 38.15625,5.59375 c -0.23252,6.4119 -0.79699,12.18321 -2.4375,18.84375 l -36,-3.9375 c -1.01258,-6.13587 -0.79036,-12.5014 0.28125,-20.5 z m 64.96875,9.375 1.40625,1.8125 c 0.60325,0.77687 1.12305,1.54519 1.46875,2.125 0.14771,0.24774 0.21276,0.44533 0.28125,0.59375 -0.14547,0.20356 -0.36154,0.48954 -0.625,0.84375 -0.54887,0.73793 -1.32221,1.77509 -2.28125,3.03125 -1.91809,2.51233 -4.52576,5.90774 -7.375,9.5625 -2.85342,3.66011 -5.45813,7.03357 -7.34375,9.53125 -0.94281,1.24884 -1.71551,2.2916 -2.25,3.03125 -0.26725,0.36982 -0.47397,0.6493 -0.625,0.875 -0.0755,0.11285 -0.13394,0.22079 -0.1875,0.3125 -0.0268,0.0459 -0.0638,0.0917 -0.0937,0.15625 -0.0301,0.0645 -0.0937,0.0589 -0.0937,0.4375 0,0.40887 0.11238,0.58971 0.21875,0.84375 0.10637,0.25404 0.24601,0.51708 0.40625,0.8125 0.32047,0.59085 0.72585,1.28368 1.15625,1.9375 0.4304,0.65382 0.87054,1.26634 1.25,1.75 0.18973,0.24183 0.3616,0.45152 0.53125,0.625 0.0848,0.0867 0.16745,0.16555 0.28125,0.25 0.1138,0.0845 0.22036,0.25 0.6875,0.25 5.7e-4,0 0.11859,-0.0252 0.15625,-0.0312 0.0377,-0.006 0.0707,0.006 0.0937,0 0.0464,-0.0118 0.0706,-0.0229 0.0937,-0.0312 0.0464,-0.0168 0.0711,-0.0208 0.0937,-0.0312 0.0454,-0.0209 0.0602,-0.0447 0.0937,-0.0625 0.0671,-0.0357 0.13983,-0.0798 0.21875,-0.125 0.15784,-0.0903 0.34084,-0.18925 0.5,-0.28125 l 0.78125,-0.46875 -0.375,-0.78125 -1.03125,-2.125 0,-0.0312 -1.125,-2.25 9.96875,-12.71875 9.5625,-12.25 4.125,5.375 4.28125,5.5625 -11.59375,8.125 c -3.97134,2.78363 -5.49778,3.84406 -8.0625,5.625 -0.0294,0.0204 -0.0641,0.0419 -0.0937,0.0625 l 1.03125,1.625 c 0.0303,-0.0165 0.0634,-0.046 0.0937,-0.0625 1.86153,-1.01105 3.8659,-2.04706 6.09375,-3.125 4.28846,-2.07496 8.03348,-4.38388 10.75,-6.1875 1.35826,-0.90181 2.472,-1.69503 3.25,-2.25 0.30938,-0.22069 0.51813,-0.35692 0.71875,-0.5 0.18895,0.18285 0.40787,0.37958 0.6875,0.6875 0.68635,0.75581 1.55602,1.81031 2.40625,2.875 0.85023,1.06469 1.68144,2.15335 2.25,2.96875 0.1389,0.19921 0.20822,0.3077 0.3125,0.46875 -0.39475,0.16315 -0.85437,0.37764 -1.46875,0.625 -1.43417,0.57742 -3.37707,1.33065 -5.5,2.15625 -1.80851,0.70332 -3.63819,1.41048 -5.4375,2.15625 l 0.3125,0.875 c -11.70205,4.87764 -27.00055,12.15913 -40.21875,21.3125 -5.14148,-1.81021 -10.20878,-3.14212 -15.5,-3.59375 l -0.0937,-0.875 c -0.40377,-0.0343 -0.81673,-0.0649 -1.25,-0.0937 -7.68671,-0.51338 -16.58805,1.83329 -24.8125,6.5 -0.46081,0.26148 -0.48228,0.24374 -0.78125,0.40625 0.0204,-0.12106 0.0411,-0.21845 0.0625,-0.34375 0.13033,-0.76316 0.21152,-1.39448 0.0937,-2.1875 -0.11772,-0.79302 -0.37832,-1.71976 -0.84375,-3.40625 l -0.65625,-2.4375 6.65625,-0.125 c 9.96332,-0.20737 16.57456,-0.93604 24.78125,-2.6875 1.45935,-0.31146 2.29909,-0.47213 2.96875,-0.75 0.66966,-0.27787 1.11955,-0.70133 1.5625,-1.1875 0.6975,-0.76554 0.59324,-0.68758 1.65625,-0.8125 0.22648,-0.0266 0.36122,-0.0536 0.5,-0.0625 0.55581,1.87676 0.94739,3.19002 1.34375,4.53125 l 0.28125,0.9375 0.96875,-0.3125 1.625,-0.53125 0.875,-0.28125 -0.25,-0.90625 -1.5625,-5.0625 5,-4.96875 c 9.16617,-9.16617 18.5759,-21.75955 25.625,-34.21875 l 1.96875,-3.5 z m -4.6875,4.3125 c -0.57905,0.98302 -1.17158,1.95959 -1.78125,2.9375 -0.70188,1.12581 -1.42281,2.25591 -2.15625,3.375 0.74244,-1.13753 1.47021,-2.27558 2.15625,-3.375 0.62463,-1.001 1.21402,-1.98411 1.78125,-2.9375 z m 9.8125,0.375 0.28125,0.34375 -0.3125,0.40625 -10.3125,13.21875 c 2.67608,-3.43589 5.1786,-6.67682 7,-9.0625 0.96192,-1.25993 1.75491,-2.31285 2.3125,-3.0625 0.27879,-0.37482 0.49628,-0.68171 0.65625,-0.90625 0.08,-0.11227 0.13456,-0.20156 0.1875,-0.28125 0.0529,-0.0797 0.0831,-0.0404 0.1875,-0.3125 0.0666,-0.17366 10e-4,-0.2313 0,-0.34375 z m -70.59375,13.125 c 0.31286,0.0393 0.51442,0.0773 1.1875,0.15625 1.04561,0.12267 2.49079,0.26765 4.25,0.46875 3.51843,0.4022 8.27127,0.96012 13.375,1.53125 8.98526,1.00549 13.61567,1.52998 16,1.875 l 0.25,0.0312 0.21875,-0.0937 2.5,-1 c -0.12227,1.53607 -0.32978,3.27509 -1.15625,5.625 -1.09797,3.12184 -3.21024,7.15343 -7.375,12.46875 -1.22063,1.55784 -2.64777,3.21276 -4.25,5 -20.86972,4.99063 -36.69091,3.27417 -53.15625,2.1875 l -0.15625,-1.09375 -1.71875,-0.125 -0.375,-0.0312 -0.3125,0.25 -1.375,1.15625 -0.0312,0 c -0.16014,0.12977 -0.2947,0.26535 -0.46875,0.40625 l 0.5625,0.96875 -1.875,1.53125 -0.3125,-0.84375 c -0.098,-0.28049 -0.18322,-0.3761 -0.15625,-0.3125 0.39301,-0.16841 0.83067,-0.39405 1,-0.8125 0.17271,-0.42681 0.12356,-0.83744 0.0625,-1.25 l 0.40625,-1.15625 -0.625,0.125 c -0.0277,-0.0642 -0.0245,-0.11935 -0.0625,-0.1875 -0.19412,-0.34808 -0.76745,-0.70524 -1.15625,-0.71875 -0.34162,-0.0119 -0.47613,0.07 -0.59375,0.0937 -0.0434,0.009 -0.17254,0.0525 -0.21875,0.0625 0.006,-0.11875 0.1595,-0.27451 0.15625,-0.375 -0.002,-0.0724 -0.0225,-0.14743 -0.0312,-0.21875 l 2.34375,-0.46875 c 3.05839,-0.61705 5.09013,-0.96041 20.3125,-5.78125 4.62246,-1.46391 8.86492,-2.79545 11.9375,-3.78125 1.53629,-0.4929 2.7841,-0.90225 3.65625,-1.1875 0.43608,-0.14263 0.76089,-0.26279 1,-0.34375 0.11956,-0.0405 0.20828,-0.0676 0.28125,-0.0937 0.0365,-0.0131 0.0894,-0.0171 0.125,-0.0312 0.0178,-0.007 0.0298,-0.0161 0.0625,-0.0312 0.0164,-0.008 0.0275,-0.0117 0.0625,-0.0312 0.0175,-0.01 0.0308,-0.0101 0.0625,-0.0312 0.0317,-0.0214 0.15599,-0.12474 0.15625,-0.125 5.2e-4,-5.2e-4 0.0896,-0.12895 0.125,-0.1875 0.0354,-0.0585 0.0757,-0.10877 0.0937,-0.15625 0.036,-0.095 0.055,-0.16174 0.0625,-0.21875 0.015,-0.11402 0.004,-0.19864 0,-0.25 -0.009,-0.10272 -0.0182,-0.13341 -0.0312,-0.1875 -0.0262,-0.10819 -0.0557,-0.20064 -0.0937,-0.3125 -0.0761,-0.22371 -0.20719,-0.50312 -0.34375,-0.84375 -0.27312,-0.68127 -0.64973,-1.61057 -1.09375,-2.59375 -1.36065,-3.01284 -2.56059,-6.42184 -3.28125,-9.0625 z m 81.90625,1.5625 0.28125,0.375 c -0.13744,-0.0441 -0.27985,-0.0955 -0.5625,0 -0.3395,0.11468 -0.26239,0.13343 -0.34375,0.1875 -0.0814,0.0541 -0.1677,0.10716 -0.28125,0.1875 -0.2271,0.16067 -0.5527,0.38176 -0.9375,0.65625 -0.7696,0.54898 -1.85385,1.30202 -3.1875,2.1875 -0.18162,0.12059 -0.52792,0.28132 -0.71875,0.40625 l 5.5,-3.84375 0.25,-0.15625 z m -31.8125,0.9375 c -1.24491,1.65648 -2.49963,3.28155 -3.78125,4.875 1.23232,-1.55337 2.49491,-3.16996 3.78125,-4.875 z m 38.9375,10.03125 0.0312,0.0625 c -0.12644,0.042 -0.21735,0.0433 -0.375,0.0937 0.12988,-0.0514 0.25195,-0.11631 0.34375,-0.15625 z m 0.96875,1.8125 c 0.0538,0.0457 0.0823,0.0552 0.15625,0.125 0.27832,0.26285 0.66689,0.6706 1.125,1.1875 0.91622,1.0338 2.10083,2.50453 3.3125,4.09375 1.23279,1.61694 2.40748,3.05577 3.3125,4.125 0.45251,0.53462 0.85313,0.99423 1.15625,1.3125 0.15156,0.15913 0.27801,0.26293 0.40625,0.375 0.0641,0.056 0.12784,0.12768 0.21875,0.1875 0.0909,0.0598 0.14724,0.1875 0.59375,0.1875 0.45993,0 0.66219,-0.12165 0.96875,-0.25 0.30656,-0.12835 0.61839,-0.30072 0.9375,-0.5 0.0224,-0.014 0.0391,-0.0187 0.0625,-0.0312 0.007,0.0857 0.0247,0.11977 0.0312,0.21875 0.0456,0.67537 0.091,1.65563 0.125,2.84375 0.068,2.37624 0.10345,5.62077 0.0937,9.125 -0.0375,13.61972 -0.84243,20.55694 -3.28125,28.96875 -1.74561,6.02086 -2.01303,15.9827 -0.5625,21.71875 0.55738,2.20413 1.72038,5.16651 2.9375,7.84375 0.60856,1.33862 1.23365,2.59147 1.8125,3.625 0.57885,1.03353 1.05067,1.83814 1.59375,2.375 0.55141,0.54509 1.28271,0.84568 2.3125,1.28125 1.02979,0.43557 2.32114,0.90755 3.75,1.375 2.85771,0.93489 6.23221,1.8402 9.0625,2.375 6.67472,1.26123 15.44356,0.82452 21.46875,-1.09375 5.14303,-1.63741 7.39444,-2.69926 12.0625,-5.78125 1.60735,-1.06121 2.49374,-1.58431 2.78125,-1.6875 0.0251,0.0275 -0.009,-0.006 0.0625,0.0937 0.44101,0.61673 2.32884,3.04673 4.3125,5.5625 0.98505,1.24927 1.85734,2.41569 2.5,3.28125 0.31033,0.41797 0.54869,0.75341 0.71875,1 -0.17941,0.20121 -0.45711,0.49108 -0.84375,0.8125 -0.80245,0.6671 -1.99097,1.49469 -3.34375,2.375 -2.70557,1.76063 -6.12768,3.70589 -8.9375,4.9375 -9.84112,4.31357 -21.29665,6.14076 -32.40625,5.15625 -14.06248,-1.24619 -24.94687,-5.70227 -32.75,-13.34375 -1.73553,-1.69954 -4.3114,-3.70643 -6.03125,-4.625 l -2.8125,-1.5 -0.5,-0.28125 -0.5,0.3125 -5.21875,3.34375 -0.0312,0 -5.21875,3.3125 -0.5,0.28125 0.0312,0.5625 L 291.5,314 c 0.0572,1.46676 0.0419,2.55834 -0.0312,3.3125 -0.0655,0.67614 -0.19755,1.02326 -0.25,1.125 -0.0458,0.0274 -0.17825,0.1167 -0.40625,0.1875 -0.3803,0.11768 -0.95389,0.23004 -1.6875,0.34375 -1.46722,0.22743 -3.56808,0.42605 -6.15625,0.5625 -5.17633,0.2729 -12.33953,0.34098 -20.71875,0.15625 l -13.625,-0.3125 -0.5,0 -0.28125,0.375 -1.65625,2.09375 c -0.78821,0.99519 -1.32357,1.44838 -1.84375,1.625 -0.4804,0.16311 -1.19115,0.0676 -2.25,-0.1875 0.1398,-0.21322 0.2893,-0.41021 0.53125,-0.75 0.13903,-0.19524 0.77163,-0.80945 1.5625,-1.375 0.79087,-0.56555 1.77037,-1.13189 2.6875,-1.59375 0.93353,-0.47011 1.75792,-0.95976 2.40625,-1.40625 0.32416,-0.22324 0.61268,-0.44746 0.84375,-0.65625 0.23107,-0.20879 0.43054,-0.33449 0.59375,-0.78125 l 0.3125,-0.875 -0.8438,-0.34375 c -0.32102,-0.14021 -0.51686,-0.0949 -0.8125,-0.15625 l 1.3125,-0.40625 0.25,-0.0937 0.15625,-0.15625 c -0.007,-2.5e-4 6.5e-4,-0.0278 0.0312,-0.0625 0.007,-0.007 0.0229,0.009 0.0312,0 0.12973,-0.13824 0.68567,-0.38774 2.34375,-0.625 1.56469,-0.2239 5.73741,-0.35521 10.15625,-0.3125 4.41884,0.0427 9.17571,0.24035 12.21875,0.53125 l 4.46875,0.4375 1.125,0.0937 -0.0625,-1.125 -0.375,-7.3125 0,-0.0312 -0.34375,-7.34375 -0.0312,-0.3125 -0.15625,-0.25 -3.40625,-4.46875 c -6.1355,-8.08137 -11.45499,-20.02808 -13.0625,-29.40625 -0.65874,-3.84307 -0.80493,-11.50467 -0.375,-19.71875 l 0.21875,-4.5 2.875,-1.90625 c 5.60023,-3.7569 13.97981,-8.42188 23.40625,-12.96875 4.49467,-2.16804 10.84238,-4.95765 16.21875,-7.1875 2.68818,-1.11492 5.14225,-2.08566 7,-2.78125 0.92888,-0.34779 1.70347,-0.62712 2.28125,-0.8125 0.45648,-0.14646 0.6578,-0.16335 0.71875,-0.1875 z m -56.71875,7.34375 -2.1875,2.21875 -0.40625,0.40625 0.15625,0.5625 0.0625,0.15625 c -0.10585,-0.11328 -0.14213,-0.24728 -0.28125,-0.3125 -0.38146,-0.17883 -0.66723,-0.1719 -1,-0.15625 -0.21854,0.0103 -0.48836,0.0281 -0.78125,0.0625 -0.0473,0.006 -0.0788,0.0249 -0.125,0.0312 0.56368,-0.6708 1.21128,-1.39108 1.71875,-2.03125 0.0266,0.0437 -0.006,0.0821 0.0312,0.125 0.20179,0.23538 0.50063,0.33397 0.6875,0.34375 0.37375,0.0196 0.46616,-0.0763 0.5625,-0.125 0.19269,-0.0974 0.29244,-0.19843 0.4375,-0.3125 0.29011,-0.22814 0.67819,-0.55264 1.125,-0.96875 z m -80.90625,1.75 c -0.73981,0.62168 -0.96588,0.71405 -1.78125,1.40625 -1.13686,0.96513 -1.71504,1.47319 -2,1.6875 -0.11508,0.0865 -0.15174,0.0904 -0.15625,0.0937 0.005,-0.001 -0.45313,0.0162 -0.6875,0.0312 l 0.5,-0.125 0.21875,-0.0625 0.15625,-0.15625 1.09375,-0.9375 0,0.0312 c 0.85449,-0.71043 1.79755,-1.29333 2.65625,-1.96875 z m 3.4375,0.1875 c -0.0435,0.12593 -0.10151,0.23547 -0.15625,0.375 l -0.53125,1.375 -1.96875,0.46875 2,-1.71875 c 0.24171,-0.2048 0.41783,-0.29922 0.65625,-0.5 z m 3.9375,3.625 0.1875,0.4375 c -1.51489,0.47608 -2.72517,0.80648 -4.09375,1.25 -0.0507,0.0164 -0.10624,0.0152 -0.15625,0.0312 l 0.46875,1.84375 0.15625,-0.0312 7.71875,-1.34375 -0.125,0.53125 -5.46875,2.3125 -0.34375,0.125 -0.15625,0.3125 -1.46875,2.9375 -2.59375,2.1875 1.625,-5.78125 0.0625,-0.15625 -1.8125,-0.65625 -0.0625,0.15625 -2.46875,5.15625 -0.9375,0.65625 2.3125,-8.09375 7.15625,-1.875 z m -10.4375,1.6875 c -0.21559,0.44288 -0.41773,0.92682 -0.625,1.15625 -0.20678,0.22888 -0.43225,0.52462 -0.65625,0.875 L 173,233.28125 l 1.6875,-0.53125 -1.15625,2.84375 -2.1875,2.21875 -0.75,-3.78125 1.21875,-0.375 0.59375,-0.15625 0.0937,-0.625 c 0.0492,-0.35132 -0.14103,-0.64492 -0.28125,-0.875 l 0.15625,-0.15625 -0.5,-0.34375 c -0.0858,-0.0911 -0.14442,-0.17577 -0.25,-0.28125 l -0.78125,-0.78125 -0.6875,-0.6875 -0.6875,0.6875 -0.21875,0.21875 -0.40625,0.4375 0.0625,-1 c 0.0147,-0.2074 -0.0634,-0.4453 -0.15625,-0.65625 l 1.03125,-0.0625 5.71875,-0.3125 0.1875,-0.0312 z m -11.21875,0.625 0.0625,0 c -0.0548,0.069 -0.0963,0.11253 -0.15625,0.1875 -0.47035,0.58781 -1.09238,1.33507 -1.75,2.125 -0.67112,0.80616 -1.24975,1.5609 -1.6875,2.15625 -0.21887,0.29767 -0.39604,0.56275 -0.53125,0.78125 -0.0676,0.10925 -0.13184,0.22133 -0.1875,0.34375 -0.0278,0.0612 -0.0663,0.10889 -0.0937,0.21875 -0.0275,0.10986 -0.10324,0.2744 0.0312,0.625 -0.0504,-0.13135 0.0787,0.20564 0.15625,0.53125 0.0776,0.32561 0.16434,0.74364 0.25,1.15625 0.1697,0.81747 0.19795,1.04688 0.15625,1.1875 -0.0105,0.0355 -0.20956,0.27391 -0.25,0.34375 -0.0946,-0.57241 -0.17736,-1.21476 -0.28125,-1.90625 l -0.28125,-1.875 -0.4375,-2.84375 -1.375,2.53125 -0.875,1.625 -0.0312,0.0625 -1.03125,1.53125 -0.375,-4.96875 4.75,-2.8125 -0.53125,1.0625 -0.125,0.1875 1.5625,1.125 c 0.749,-0.84371 1.64527,-1.84713 2.15625,-2.40625 l 0.875,-0.96875 z m 2.96875,1.1875 1,0.65625 0.34375,0.25 0.625,0.40625 -0.46875,0.53125 -0.125,0.15625 -2.375,2.53125 0.0312,0 -0.3125,0.34375 0.0937,0.5 0.4375,2.28125 -1.9375,3.53125 -1.1875,-5.5 3.875,-5.6875 z m 24.96875,0.625 -2.0625,1.6875 -0.0937,-0.84375 1.34375,-0.53125 0.8125,-0.3125 z m 48.6875,4.96875 0.125,0.78125 c 0.54732,-0.0128 1.02746,-0.0312 1.5625,-0.0312 2.34737,-3.4e-4 4.76228,0.10625 6,0.3125 2.2359,0.37323 6.4304,1.43397 9.375,2.375 l 1.625,0.53125 0.375,1.375 0.46875,1.71875 -0.3125,1.90625 c -0.90483,5.58709 -1.00077,11.04608 -0.21875,17.09375 1.67153,12.92657 7.25416,25.4353 16.21875,36.5 l 0,0.0312 0.84375,1 0.28125,5.75 c 5.8e-4,0.012 -5.8e-4,0.0192 0,0.0312 0.0798,1.65226 0.1499,3.18412 0.1875,4.28125 0.0108,0.31588 0.0245,0.50908 0.0312,0.75 -0.0617,-0.005 -0.0899,0.005 -0.15625,0 -0.72105,-0.0579 -1.69406,-0.15873 -2.78125,-0.25 -2.18772,-0.18369 -5.90081,-0.44568 -8.28125,-0.59375 -2.69147,-0.16741 -4.5718,-0.29617 -6.15625,-0.4375 l -0.15625,0.71875 c -1.17485,-0.0761 -2.49884,-0.14085 -3.53125,-0.34375 -1.57894,-0.31031 -3.05137,-1.11261 -4.59375,-2.5 l 0.3125,-0.5625 c -0.26547,-0.2216 -0.51474,-0.44776 -0.53125,-0.46875 -0.0931,-0.11833 -0.17911,-0.21345 -0.3125,-0.34375 -0.13339,-0.1303 -0.35519,-0.3167 -0.65625,-0.375 -0.55212,-0.10692 -0.79185,0.0778 -1.0625,0.21875 l -2.78125,-0.96875 1.6875,1.9375 c -0.18576,0.50313 -0.13095,0.83022 -0.0937,1.34375 0.0625,0.864 -0.17594,1.91819 -0.75,3.09375 -0.0689,0.14102 -0.0581,0.13673 -0.1875,0.21875 -0.12939,0.082 -0.42547,0.23528 -1,0.375 -1.14906,0.27944 -3.30794,0.57491 -7.125,1.0625 l -6.8125,0.875 -0.3125,0.0625 -0.21875,0.21875 -0.75,0.71875 -0.0312,0 -0.46875,0.46875 -3.09375,-0.0312 c -1.9052,-0.002 -5.85119,-0.0601 -8.75,-0.15625 -2.94238,-0.0976 -7.62398,-0.1281 -10.4375,-0.0625 l -5.03125,0.125 -0.46875,0.0312 -0.28125,0.375 -1.5,2.03125 c -0.40097,0.54319 -0.77531,1.03629 -1.0625,1.375 -0.0653,0.077 -0.10314,0.0967 -0.15625,0.15625 -0.14363,-0.0172 -0.16188,-0.004 -0.375,-0.0312 -0.44593,-0.0561 -1.03036,-0.13633 -1.65625,-0.21875 -0.39237,-0.0517 -0.70172,-0.0753 -1.03125,-0.125 0.14678,-0.23242 0.25623,-0.45332 0.4375,-0.71875 l -0.0312,0 1.0625,-1.5625 3.375,-1.75 c 0.98089,-0.51117 1.88346,-0.98775 2.53125,-1.34375 0.32389,-0.178 0.5889,-0.32496 0.78125,-0.4375 0.0962,-0.0563 0.17901,-0.0789 0.25,-0.125 0.0355,-0.023 0.0421,-0.0537 0.0937,-0.0937 0.0258,-0.02 0.0675,-0.0351 0.125,-0.0937 0.0287,-0.0294 0.0715,-0.0752 0.125,-0.15625 0.0268,-0.0405 0.0935,-0.15576 0.0937,-0.15625 2e-4,-4.9e-4 0.0625,-0.37461 0.0625,-0.375 0.002,-0.24785 -0.046,-0.25944 -0.0625,-0.3125 -0.0165,-0.0531 -0.0164,-0.0882 -0.0312,-0.125 -0.0298,-0.0737 -0.0559,-0.14139 -0.0937,-0.21875 -0.0757,-0.15473 -0.19648,-0.34096 -0.3125,-0.53125 l -0.375,-0.59375 -0.0312,-0.0625 c 3.65948,-0.95745 6.93467,-1.41159 12.625,-1.40625 4.36223,0.004 6.43458,0.0828 11.34375,0.5 1.67312,0.14222 3.2126,0.23777 4.34375,0.3125 0.56558,0.0374 1.03707,0.0802 1.375,0.0937 0.16897,0.007 0.28976,6.1e-4 0.40625,0 0.0582,-3.1e-4 0.11667,0.006 0.1875,0 0.0354,-0.003 0.0839,-0.0161 0.15625,-0.0312 0.0361,-0.008 0.0839,-0.004 0.15625,-0.0312 0.0362,-0.0137 0.0687,-0.0307 0.125,-0.0625 0.0563,-0.0318 0.21825,-0.15575 0.21875,-0.15625 6e-4,-6e-4 0.12508,-0.16355 0.15625,-0.21875 0.0312,-0.0552 0.0491,-0.0902 0.0625,-0.125 0.0268,-0.0696 0.0234,-0.12135 0.0312,-0.15625 0.0156,-0.0698 0.0274,-0.0882 0.0312,-0.125 0.008,-0.0736 0.0291,-0.15047 0.0312,-0.21875 0.005,-0.13656 0.002,-0.2937 0,-0.5 -0.003,-0.4126 -0.0419,-0.98241 -0.0625,-1.65625 -0.0411,-1.34768 -0.1064,-3.12595 -0.1875,-4.90625 -0.0811,-1.7803 -0.16791,-3.54903 -0.25,-4.90625 -0.041,-0.67861 -0.0903,-1.26828 -0.125,-1.6875 -0.0174,-0.20961 -0.0145,-0.36151 -0.0312,-0.5 -0.008,-0.0693 -0.0183,-0.14975 -0.0312,-0.21875 -0.006,-0.0345 -0.0154,-0.0691 -0.0312,-0.125 -0.0159,-0.0559 0.009,-0.0894 -0.15625,-0.3125 -0.0937,-0.12635 -0.29069,-0.35607 -0.625,-0.78125 -0.33431,-0.42518 -0.77637,-0.99537 -1.25,-1.59375 -7.43083,-9.38792 -12.10807,-19.35821 -14.3125,-30.5625 -0.82259,-4.18093 -1.21303,-10.09042 -0.96875,-13.96875 l 0.0937,-1.625 1.5,-0.90625 c 0.26362,-0.16111 0.59312,-0.2984 0.9375,-0.5 l -0.28125,-0.625 c 7.73535,-4.46788 14.39528,-6.41266 20.5625,-6.6875 z m 20.6875,3.875 0.125,0.0312 0.0312,-0.0312 -0.0312,0.53125 -0.125,-0.53125 z m -11.34375,68.28125 c 1.91632,1.8064 3.85148,2.8395 5.78125,3.21875 0.42806,0.0841 0.85697,0.0732 1.28125,0.125 -1.37692,0.0517 -3.46659,0.0129 -4.25,0.125 -1.48634,0.21269 -2.42132,0.47308 -3.125,1 l -1.875,0.5625 c -0.0824,-0.0792 -0.16648,-0.12708 -0.28125,-0.1875 0.2166,-0.0861 0.50705,-0.13561 0.6875,-0.25 0.41953,-0.26596 0.73967,-0.65888 0.90625,-1 0.59545,-1.21938 0.86141,-2.43126 0.875,-3.59375 z m -54.03125,2.15625 -0.25,0.15625 -0.0937,0.0312 0.78125,1.78125 c 0.0363,-0.0133 0.0601,-0.0188 0.0937,-0.0312 0.0137,-0.005 0.018,-0.0263 0.0312,-0.0312 0.2748,-0.10338 0.49502,-0.1767 0.78125,-0.28125 1.46849,-0.53639 2.06702,-0.60795 3.21875,-1 -0.70365,0.37229 -1.20247,0.66025 -1.96875,1.0625 l -2.59375,1.375 -0.21875,0.0937 -0.125,0.1875 -1.125,1.5625 -0.8125,1.125 -2.375,-0.0625 c -0.57867,-0.0224 -1.0399,-0.034 -1.5,-0.0625 0.20114,-0.34813 0.3774,-0.70862 0.59375,-1.0625 l 1.78125,-2.90625 -3.03125,1.53125 -1.625,0.8125 -2.15625,-0.46875 3.0625,-2.84375 7.53125,-0.96875 z m 66.84375,0.96875 c 0.47056,0.0328 0.90261,0.0591 1.4375,0.0937 -0.37376,-0.005 -0.66088,-0.0278 -1.03125,-0.0312 -0.17389,-0.002 -0.23371,10e-4 -0.40625,0 l 0,-0.0625 z m 16.15625,0.6875 0,0.1875 -0.15625,0 c 0.0369,-0.041 0.11935,-0.1465 0.15625,-0.1875 z m -38.25,3.0625 -2.125,1.09375 0.53125,1.84375 c 0.34267,-0.0366 0.68581,-0.09 1.125,-0.125 0.33941,-0.027 0.72693,-0.0571 1.125,-0.0937 l -0.5625,0.28125 -0.21875,0.0937 -0.125,0.1875 -1.125,1.5625 -0.84375,1.1875 -1.03125,-0.0312 c -0.82048,-0.0148 -2.14424,-0.0411 -3,-0.0625 0.11855,-0.19264 0.21286,-0.35278 0.34375,-0.5625 l 0.3125,-0.5 1.84375,-2.9375 -3.09375,1.5625 -1.5625,0.78125 -2.15625,-0.46875 3.0625,-2.84375 7.5,-0.96875 z m 6.125,1.46875 c 0.0805,0.0103 0.11095,0.0229 0.1875,0.0312 -0.08,0.0492 -0.16532,0.106 -0.25,0.15625 0.0177,-0.0474 0.0624,-0.18698 0.0625,-0.1875 z M 242.875,319.75 c -0.39995,0.29192 -0.62951,0.59402 -0.9375,0.875 l 0.40625,-0.59375 0.53125,-0.28125 z"
       id="path3610-5"
       transform="translate(129.45562,138.56415)"
       inkscape:connector-curvature="0" />
    <path
       style="fill:#000000;fill-opacity:1;stroke:#000000;stroke-width:0.06651148;stroke-linejoin:round;stroke-miterlimit:4;stroke-opacity:1;stroke-dasharray:none"
       d=""
       id="path4197-7"
       inkscape:connector-curvature="0" />
    <rect
       style="fill:#222222;fill-rule:evenodd;stroke:#000000;stroke-width:0.74403697000000002px;stroke-linecap:butt;stroke-linejoin:miter;stroke-opacity:1;fill-opacity:1"
       id="rect4036"
       width="503.24872"
       height="70.66832"
       x="138.62868"
       y="531.48926" />
    <rect
       style="fill:#ffffff;fill-opacity:1;stroke:none"
       id="rect5759"
       width="249.85135"
       height="67.17514"
       x="260.92239"
       y="394.92535"
       transform="translate(129.45562,138.56415)" />
    <path
       style="font-size:56.40179443000000248px;font-style:normal;font-variant:normal;font-weight:normal;font-stretch:normal;text-indent:0;text-align:start;text-decoration:none;line-height:125%;letter-spacing:normal;word-spacing:normal;text-transform:none;direction:ltr;block-progression:tb;writing-mode:lr-tb;text-anchor:start;baseline-shift:baseline;color:#000000;fill:#222222;fill-opacity:1;fill-rule:nonzero;stroke:none;stroke-width:5.89145756000000009;marker:none;visibility:visible;display:inline;overflow:visible;enable-background:accumulate;font-family:URW Gothic L;-inkscape-font-specification:URW Gothic L Book"
       d="m 423.47745,542.56333 c -13.78077,-0.11511 -24.49301,10.60981 -24.61295,24.61446 -0.11812,13.79113 10.63944,24.6258 24.46966,24.74132 9.31483,0.0778 17.00892,-4.63728 21.62729,-13.12591 l 1.19879,-2.22348 c 3.61299,9.16473 12.46359,15.64417 22.87035,15.73109 13.56742,0.11333 24.86798,-10.89257 24.98386,-24.42261 0.11671,-13.62781 -11.00288,-24.81758 -24.56118,-24.93083 -10.45128,-0.0873 -19.62466,6.52627 -23.29496,15.72296 l -1.09603,-2.52576 c -3.61963,-8.36366 -12.01776,-13.50133 -21.58483,-13.58124 z m 158.44739,1.32351 c -13.78077,-0.11511 -24.46197,10.61007 -24.58191,24.61471 -0.11812,13.79114 10.6084,24.62555 24.43862,24.74107 8.58336,0.0717 15.67771,-4.07291 20.37018,-11.34333 0.71972,2.85286 2.06063,5.3917 4.03528,7.33187 2.81315,2.76404 6.74458,4.27166 11.10861,4.30811 8.5892,0.0717 15.45541,-6.60934 15.52944,-15.25305 0.0386,-4.51131 -1.78861,-8.7716 -5.21123,-11.39973 l -0.031,-2.6e-4 c -1.96612,-1.48681 -4.15371,-2.50332 -8.50444,-3.8774 l -0.0311,-2.6e-4 c -3.63369,-1.13236 -4.29371,-1.4599 -4.9808,-2.05489 -0.009,-0.008 -0.0216,-0.0237 -0.0308,-0.0317 -0.40029,-0.41677 -0.91818,-1.54071 -0.90895,-2.61857 0.0236,-2.75868 1.56318,-4.35955 4.2594,-4.33703 1.4248,0.0119 2.37404,0.47913 3.09414,1.22123 0.7201,0.74211 1.27797,1.86168 1.3668,3.53467 l 0.13124,2.80083 2.76289,0.0231 4.31509,0.0361 2.9802,0.0249 -0.036,-3.05169 c -0.0656,-4.0737 -1.5388,-7.73906 -4.13386,-10.32116 -2.59506,-2.58211 -6.23789,-4.01577 -10.27258,-4.04947 -7.54129,-0.063 -13.56661,5.40527 -14.35874,12.68331 -3.75968,-7.99893 -11.98053,-12.90332 -21.31055,-12.98125 z m -86.83588,0.0296 -0.0253,2.95681 -0.35937,41.96144 0.0234,2.96331 2.86942,0.0179 4.15986,0.0347 2.91812,0.0244 0.0253,-2.95681 0.19424,-22.67931 9.69903,23.89443 0.72942,1.83063 1.95576,0.0163 3.57003,0.0298 1.95576,0.0163 0.76067,-1.81818 10.16952,-23.79138 -0.19477,22.74222 -0.0253,2.9568 2.91811,0.0244 4.15987,0.0348 2.91811,0.0244 0.0253,-2.9568 0.35938,-41.96144 0.0253,-2.95681 -2.91811,-0.0244 -6.45711,-0.0539 -1.92471,-0.0161 -0.79145,1.78647 -12.57545,29.21344 -12.10434,-29.41959 -0.76074,-1.79944 -1.92472,-0.0161 -6.4571,-0.0539 -2.91811,-0.0244 z m 51.53265,0.43045 -0.0253,2.95681 -0.35938,41.96144 0.0323,2.98561 2.89152,-0.004 4.12882,0.0345 2.94916,0.0246 0.0253,-2.95681 0.35937,-41.96144 0.0253,-2.9568 -2.94916,-0.0246 -4.12882,-0.0345 z m -123.07272,8.00031 c 3.06769,0.0256 5.85074,0.86604 8.05144,2.39512 l 0.0308,0.0317 0.0308,0.0317 c 1.51141,0.99266 2.15047,1.70825 3.59764,4.05662 l 0.85737,1.3913 1.61428,0.0135 4.62552,0.0386 3.25959,0.0272 c -0.69076,2.18409 -1.18691,4.46119 -1.20734,6.84767 -0.0217,2.53621 0.43929,4.93556 1.1177,7.24458 l -3.10438,-0.0259 -4.59448,-0.0384 -1.5279,-0.004 -0.77901,1.11741 c -1.71534,2.14883 -2.50608,2.99273 -3.66553,3.87012 l -0.0313,0.0312 c -2.16288,1.71439 -5.35476,2.78646 -8.46815,2.76045 -7.96103,-0.0665 -14.50215,-6.82092 -14.43184,-15.03145 0.0737,-8.60628 6.27115,-14.82707 14.62487,-14.75729 z m 45.8206,0.38274 c 8.01514,0.067 14.65663,6.90799 14.58651,15.09566 -0.069,8.05503 -6.81515,14.7596 -14.84163,14.69256 -8.15705,-0.0681 -14.71941,-6.8279 -14.64806,-15.15909 0.0676,-7.89852 6.95355,-14.69553 14.90318,-14.62913 z m 112.65783,0.94103 c 3.06769,0.0256 5.81969,0.86577 8.0204,2.39486 l 0.0308,0.0317 0.0308,0.0317 c 1.51141,0.99267 2.18151,1.70851 3.62868,4.05689 l 0.82633,1.39103 1.61427,0.0135 4.65657,0.0389 2.60767,0.0218 c 0.52411,2.379 1.59933,4.59897 3.33017,6.28788 0.01,0.01 0.0211,0.0221 0.0308,0.0317 0.93839,0.92863 2.05856,1.75148 3.42538,2.41939 1.37397,0.6714 2.99342,1.23079 5.41596,1.99561 0.0123,0.004 0.0187,-0.004 0.031,2.6e-4 3.09169,1.00292 4.55386,1.74165 5.50532,2.43677 l 0.031,2.5e-4 c 1.01191,0.72748 1.56763,1.83507 1.55253,3.59914 -0.029,3.3838 -2.02591,5.36233 -5.29247,5.33504 -1.76172,-0.0147 -3.47669,-0.90282 -4.35993,-2.0497 -0.84806,-1.08263 -1.06934,-1.62616 -1.30094,-3.97453 l -0.25676,-2.64458 -2.63872,-0.022 -4.40822,-0.0368 -0.006,0.72347 -3.63212,-0.0303 -4.59448,-0.0384 -1.68155,-0.0119 -0.62537,1.12515 c -1.71533,2.14882 -2.47503,2.99299 -3.63448,3.87038 l -0.0313,0.0312 -0.0311,-2.6e-4 c -2.16287,1.71438 -5.35475,2.78645 -8.46815,2.76045 -7.96103,-0.0665 -14.4711,-6.82066 -14.40079,-15.0312 0.0737,-8.60627 6.27115,-14.82706 14.62487,-14.75728 z"
       id="text3605-7-0-7-5-4-6"
       inkscape:connector-curvature="0"
       sodipodi:nodetypes="sssccsssccscsscsssccccccsssccccccsscccccccccccccccccccccccccccccccccccccccccccccccccccccccsccccscccccccssccssssscccccccccccscccccccccccccccccccsscc" />
    <path
       style="font-size:52.40168381px;font-style:normal;font-variant:normal;font-weight:normal;font-stretch:normal;text-indent:0;text-align:start;text-decoration:none;line-height:125%;letter-spacing:normal;word-spacing:normal;text-transform:none;direction:ltr;block-progression:tb;writing-mode:lr-tb;text-anchor:start;baseline-shift:baseline;color:#000000;fill:#ffffff;fill-opacity:1;fill-rule:nonzero;stroke:none;stroke-width:6.14405441;marker:none;visibility:visible;display:inline;overflow:visible;enable-background:accumulate;font-family:URW Gothic L;-inkscape-font-specification:URW Gothic L Book"
       d="m 154.58841,544.23136 -0.0264,3.08679 -0.33333,39.0259 -0.0266,3.11829 3.03818,0.0254 3.84422,0.0322 3.06918,0.0257 0.0266,-3.11829 0.11649,-13.63859 11.21431,15.592 0.88829,1.26745 1.55009,0.013 4.77428,0.04 6.07636,0.0509 -3.61571,-5.00731 -7.93666,-10.93402 c 2.09947,-0.75749 4.00874,-1.7684 5.48485,-3.29308 2.54333,-2.62704 3.83634,-6.3043 3.871,-10.36263 0.0494,-5.77767 -2.60553,-10.83332 -7.2641,-13.4484 -3.0892,-1.73986 -6.92235,-2.32599 -12.19535,-2.37016 l -9.51757,-0.0797 -3.03818,-0.0254 z m 9.86846,9.8162 2.35614,0.0197 c 3.84648,0.0322 6.0755,0.48302 7.52376,1.19703 1.47749,0.75175 2.27724,1.99828 2.25459,4.6494 -0.015,1.75141 -0.40032,2.85064 -0.92972,3.58323 -0.52519,0.72678 -1.25963,1.27276 -2.64942,1.64732 -0.0111,0.003 -0.0198,-0.003 -0.031,-2.6e-4 -1.38421,0.34639 -3.63904,0.53652 -7.7863,0.50179 l -0.83705,-0.007 0.099,-11.59123 z"
       id="text3605-4-6-5-7-2-9"
       inkscape:connector-curvature="0"
       sodipodi:nodetypes="ccccccccccccccccsscscccccccscccccc" />
    <path
       style="font-size:52.50955582px;font-style:normal;font-variant:normal;font-weight:normal;font-stretch:normal;text-indent:0;text-align:start;text-decoration:none;line-height:125%;letter-spacing:normal;word-spacing:normal;text-transform:none;direction:ltr;block-progression:tb;writing-mode:lr-tb;text-anchor:start;baseline-shift:baseline;color:#000000;fill:#ffffff;fill-opacity:1;fill-rule:nonzero;stroke:none;stroke-width:6.14405441;marker:none;visibility:visible;display:inline;overflow:visible;enable-background:accumulate;font-family:URW Gothic L;-inkscape-font-specification:URW Gothic L Book"
       d="m 212.2944,544.61246 -2.01105,-0.001 -0.77468,1.86178 -16.5159,39.1918 -1.77876,4.29527 4.5605,0.0308 4.05304,0.003 2.01105,10e-4 0.80562,-1.86175 4.80289,-11.32837 13.92266,0.009 4.7264,11.33445 0.80322,1.86278 2.01105,10e-4 4.20774,0.003 4.60994,0.003 -1.82262,-4.32541 -16.49629,-39.21285 -0.80322,-1.86278 -2.01105,-10e-4 z m 2.15575,15.49895 2.811,6.94585 -5.7547,-0.004 2.9437,-6.94218 z"
       id="text3605-0-8-3-2-8-5-1"
       inkscape:connector-curvature="0"
       sodipodi:nodetypes="cccccccccccccccccccccccccc" />
    <path
       style="font-size:52.3694191px;font-style:normal;font-variant:normal;font-weight:normal;font-stretch:normal;text-indent:0;text-align:start;text-decoration:none;line-height:125%;letter-spacing:normal;word-spacing:normal;text-transform:none;direction:ltr;block-progression:tb;writing-mode:lr-tb;text-anchor:start;baseline-shift:baseline;color:#000000;fill:#ffffff;fill-opacity:1;fill-rule:nonzero;stroke:none;stroke-width:6.14405441;marker:none;visibility:visible;display:inline;overflow:visible;enable-background:accumulate;font-family:URW Gothic L;-inkscape-font-specification:URW Gothic L Book"
       d="m 270.65031,544.88162 0.0164,3.11645 0.20487,38.97125 -0.007,3.06252 3.06307,0.007 9.52364,-0.049 c 5.37257,-0.0276 9.00735,-0.68531 12.05434,-2.54891 l 0.0308,-0.0316 c 3.7999,-2.40031 5.7338,-6.92065 5.7083,-11.77142 -0.0148,-2.80943 -0.65115,-5.43519 -2.1185,-7.60728 -0.67144,-0.99392 -1.54559,-1.81748 -2.4953,-2.56853 1.47588,-2.11123 2.33306,-4.68874 2.31826,-7.50417 -0.0218,-4.14987 -1.59707,-7.99665 -4.70752,-10.30126 l -0.0312,-0.0313 c -2.87996,-2.06479 -6.55162,-2.831 -11.52408,-2.80543 l -8.99627,0.0463 -3.04012,0.0156 z m 9.97805,9.67603 1.58211,-0.008 c 3.76373,-0.0194 5.23531,0.41053 5.83653,0.81994 l 0.031,-1.6e-4 1.7e-4,0.0315 c 0.0275,0.018 0.87503,1.21849 0.88267,2.67127 0.01,1.88139 -0.43033,2.42942 -1.16426,2.77623 -1.13961,0.52939 -2.15564,0.73513 -5.48702,0.75226 l -1.64415,0.008 -0.0371,-7.05134 z m 0.0882,16.77842 1.55108,-0.008 c 4.38262,-0.0225 6.19479,0.35444 7.07723,0.78209 1.22189,0.62611 1.86969,1.58651 1.88132,3.79941 0.009,1.76004 -0.85373,3.00446 -1.31688,3.24922 l -0.0309,0.0316 -0.031,1.6e-4 c -1.06164,0.59199 -3.19903,1.08677 -6.88118,1.1057 l -2.20253,0.0113 -0.0472,-8.97157 z"
       id="text3605-0-3-2-6-1-9-9-0"
       inkscape:connector-curvature="0"
       sodipodi:nodetypes="cccccscccscsccsccccccccccccccccccccccccc" />
    <path
       style="font-size:49.37613297px;font-style:normal;font-variant:normal;font-weight:normal;font-stretch:normal;text-indent:0;text-align:start;text-decoration:none;line-height:125%;letter-spacing:normal;word-spacing:normal;text-transform:none;direction:ltr;block-progression:tb;writing-mode:lr-tb;text-anchor:start;baseline-shift:baseline;color:#000000;fill:#ffffff;fill-opacity:1;fill-rule:nonzero;stroke:none;stroke-width:6.14405441;marker:none;visibility:visible;display:inline;overflow:visible;enable-background:accumulate;font-family:URW Gothic L;-inkscape-font-specification:URW Gothic L Book"
       d="m 323.81432,544.26593 c -11.19102,1.29989 -19.40198,12.89287 -17.91363,25.63927 1.5337,13.13484 12.02584,22.67012 23.40026,21.34893 11.26766,-1.30879 19.33375,-12.977 17.82867,-25.86669 -1.51537,-12.97787 -12.05647,-22.42928 -23.3153,-21.12151 z m 1.18714,10.16684 c 6.25972,-0.72709 12.20507,4.74571 13.06096,12.07567 0.84107,7.20309 -3.67792,13.85047 -9.94861,14.57885 -6.37965,0.74102 -12.25428,-4.66699 -13.12639,-12.13587 -0.82318,-7.04977 3.80902,-13.79791 10.01404,-14.51865 z"
       id="text3605-0-34-1-8-7-4-2-1"
       inkscape:connector-curvature="0" />
    <path
       style="font-size:52.53368759px;font-style:normal;font-variant:normal;font-weight:normal;font-stretch:normal;text-indent:0;text-align:start;text-decoration:none;line-height:125%;letter-spacing:normal;word-spacing:normal;text-transform:none;direction:ltr;block-progression:tb;writing-mode:lr-tb;text-anchor:start;baseline-shift:baseline;color:#000000;fill:#ffffff;fill-opacity:1;fill-rule:nonzero;stroke:none;stroke-width:6.14405441;marker:none;visibility:visible;display:inline;overflow:visible;enable-background:accumulate;font-family:URW Gothic L;-inkscape-font-specification:URW Gothic L Book"
       d="m 349.23205,546.11485 0.0678,3.09394 0.0782,3.56751 0.0679,3.09394 3.06085,-0.0665 5.75069,-0.12491 0.71449,32.58113 0.0612,3.07482 3.03665,-0.0467 3.83379,-0.0833 3.06085,-0.0665 -0.0679,-3.09394 -0.71449,-32.58113 5.71977,-0.12424 3.06085,-0.0665 -0.0679,-3.09395 -0.0782,-3.5675 -0.0678,-3.09395 -3.06085,0.0665 -21.39503,0.46474 -3.06085,0.0665 z"
       id="text3605-0-7-3-1-4-7-1-6-9-0"
       inkscape:connector-curvature="0"
       sodipodi:nodetypes="cccccccccccccccccccccc" />
    <path
       style="font-size:52.53368759px;font-style:normal;font-variant:normal;font-weight:normal;font-stretch:normal;text-indent:0;text-align:start;text-decoration:none;line-height:125%;letter-spacing:normal;word-spacing:normal;text-transform:none;direction:ltr;block-progression:tb;writing-mode:lr-tb;text-anchor:start;baseline-shift:baseline;color:#000000;fill:#ffffff;fill-opacity:1;fill-rule:nonzero;stroke:none;stroke-width:6.14405441;marker:none;visibility:visible;display:inline;overflow:visible;enable-background:accumulate;font-family:URW Gothic L;-inkscape-font-specification:URW Gothic L Book"
       d="m 236.29531,544.58821 0.0678,3.09395 0.0782,3.5675 0.0678,3.09395 3.02993,-0.0658 5.75069,-0.12491 0.7138,32.54955 0.0768,3.09045 3.02162,-0.0307 3.86471,-0.0839 3.02993,-0.0658 -0.0685,-3.12552 -0.7138,-32.54955 5.75069,-0.12492 3.02993,-0.0658 -0.0678,-3.09395 -0.0782,-3.5675 -0.0679,-3.09395 -3.02993,0.0658 -21.42595,0.46541 -3.02993,0.0658 z"
       id="text3605-0-7-3-1-4-7-8-1-5-8-5"
       inkscape:connector-curvature="0"
       sodipodi:nodetypes="cccccccccccccccccccccc" />
  </g>
  <g
     inkscape:groupmode="layer"
     id="layer2"
     inkscape:label="Subtract"
     style="display:inline"
     transform="translate(-8.8010389,-11.1875)" />
</svg>
