<?xml version="1.0" encoding="UTF-8" standalone="no"?>
<svg xmlns:rdf="http://www.w3.org/1999/02/22-rdf-syntax-ns#" xmlns="http://www.w3.org/2000/svg" height="50px" width="50px" version="1.1" xmlns:cc="http://creativecommons.org/ns#" xmlns:dc="http://purl.org/dc/elements/1.1/" viewBox="0 0 50 50">
<metadata>
<rdf:RDF>
<cc:Work rdf:about="">
<dc:format>image/svg+xml</dc:format>
<dc:type rdf:resource="http://purl.org/dc/dcmitype/StillImage"/>
<dc:title>Facebook</dc:title>
</cc:Work>
</rdf:RDF>
</metadata>
<title>Facebook</title>
<description>Created with Sketch (http://www.bohemiancoding.com/sketch)</description>
<defs></defs>
<path fill-rule="evenodd" fill="#222" d="M25,0c-13.807,0-25,11.193-25,25s11.193,25,25,25c0.684,0,1.361-0.04,2.031-0.094,0.062-0.005,0.126,0.006,0.188,0,0.116-0.01,0.228-0.019,0.343-0.031,0.559-0.057,1.11-0.126,1.657-0.219,0.053-0.009,0.103-0.022,0.156-0.031s0.104-0.022,0.156-0.031c0.582-0.107,1.152-0.229,1.719-0.375,0.083-0.022,0.168-0.041,0.25-0.063,0.679-0.182,1.346-0.419,2-0.656,0.515-0.186,1.033-0.375,1.531-0.594,0.144-0.063,0.296-0.122,0.438-0.187,0.551-0.255,1.065-0.552,1.593-0.844,0.134-0.074,0.275-0.143,0.407-0.219,0.393-0.227,0.777-0.471,1.156-0.718,0.271-0.177,0.549-0.345,0.813-0.532,0.45-0.319,0.885-0.652,1.312-1,0.052-0.042,0.105-0.082,0.156-0.125,0.486-0.401,0.952-0.814,1.406-1.25,0.409-0.393,0.807-0.799,1.188-1.219,0.085-0.093,0.167-0.186,0.25-0.281,0.18-0.204,0.358-0.415,0.531-0.625,0.27-0.326,0.529-0.66,0.781-1,0.229-0.307,0.442-0.619,0.657-0.937,0.174-0.258,0.335-0.517,0.5-0.781,0.261-0.421,0.513-0.845,0.75-1.282,0.096-0.177,0.189-0.351,0.281-0.531,0.278-0.543,0.543-1.091,0.781-1.656,0.035-0.083,0.06-0.167,0.094-0.25,0.267-0.651,0.507-1.323,0.719-2s0.408-1.362,0.562-2.063l-3.75,2.156c-3.084,8.424-11.164,14.438-20.656,14.438-12.15,0-22-9.85-22-22s9.85-22,22-22c9.457,0,17.515,5.9689,20.625,14.344l3.781,2.187c-0.011-0.051-0.019-0.105-0.031-0.156-0.141-0.613-0.315-1.218-0.5-1.813-0.01-0.031-0.021-0.062-0.031-0.093-0.113-0.358-0.247-0.712-0.375-1.063-0.175-0.478-0.36-0.942-0.563-1.406-0.125-0.286-0.239-0.563-0.375-0.844-0.351-0.728-0.738-1.437-1.156-2.125-0.182-0.299-0.369-0.584-0.563-0.875-0.029-0.043-0.064-0.081-0.093-0.125-0.22-0.325-0.453-0.654-0.688-0.969-0.005-0.006,0.005-0.024,0-0.031-0.393-0.5241-0.818-1.0396-1.25-1.531-0.019-0.0221-0.043-0.0404-0.062-0.0625-0.073-0.0827-0.145-0.1683-0.219-0.25-0.391-0.4298-0.799-0.8483-1.219-1.25-0.155-0.1489-0.309-0.2926-0.469-0.4375-0.295-0.269-0.597-0.5265-0.906-0.7812-0.183-0.1512-0.375-0.2915-0.562-0.4376-0.399-0.3102-0.802-0.62-1.219-0.9062-0.031-0.0211-0.063-0.0416-0.094-0.0625-0.019-0.013-0.043-0.0183-0.062-0.0313-0.39-0.2632-0.783-0.5085-1.188-0.75-0.286-0.1705-0.581-0.3406-0.875-0.5-0.441-0.2394-0.887-0.4743-1.344-0.6874-0.041-0.0195-0.083-0.0434-0.124-0.0626-0.361-0.1657-0.725-0.3198-1.094-0.4687-0.506-0.2041-1.01-0.3912-1.532-0.5625-0.434-0.1428-0.868-0.28698-1.312-0.40625-0.01-0.00259-0.022,0.00258-0.031,0-0.073-0.01944-0.146-0.0437-0.219-0.0625-0.566-0.14563-1.138-0.26874-1.719-0.375-0.052-0.00966-0.103-0.02192-0.156-0.03125-0.052-0.00915-0.104-0.02242-0.156-0.03125-0.547-0.09279-1.099-0.16203-1.657-0.21875-0.084-0.00855-0.165-0.02353-0.25-0.03125-0.03-0.002809-0.063,0.002698-0.093,0-0.062-0.005393-0.126,0.004947-0.188,0-0.669-0.053699-1.348-0.09375-2.031-0.09375z"/>
<g fill="#222">
<path style="baseline-shift:baseline;block-progression:tb;color:#000000;direction:ltr;text-indent:0;text-align:start;enable-background:accumulate;text-transform:none;" fill="#222" d="M31.125,12.969v6h-23.594v12h23.594v6l20.75-12-20.75-12z"/>
</g>
</svg>
