<?xml version="1.0" encoding="UTF-8" standalone="no"?>
<!-- Created with Inkscape (http://www.inkscape.org/) -->
<svg xmlns:rdf="http://www.w3.org/1999/02/22-rdf-syntax-ns#" xmlns="http://www.w3.org/2000/svg" height="452.78" width="503.99" version="1.1" xmlns:cc="http://creativecommons.org/ns#" xmlns:dc="http://purl.org/dc/elements/1.1/">
<defs></defs>
<metadata>
<rdf:RDF>
<cc:Work rdf:about="">
<dc:format>image/svg+xml</dc:format>
<dc:type rdf:resource="http://purl.org/dc/dcmitype/StillImage"/>
<dc:title/>
</cc:Work>
</rdf:RDF>
</metadata>
<g transform="translate(-138.25666,-149.75165)">
<path fill="#222" d="m260.53,11.25c-20.517,0.0243-40.941,3.354-60,9.9375-27.272,9.4207-49.538,23.306-69.875,43.562-24.452,24.354-40.588,53.538-47.844,86.5-4.5662,20.745-5.1456,44.658-1.5938,65.625,6.1279,36.173,22.793,68.26,49.219,94.688,30.462,30.464,68.979,48.49,113.31,53.031,7.1859,0.73615,30.26,0.315,37.5-0.6875,15.174-2.1011,27.177-5.8208,40.688-12.594,3.362-1.6854,7.219-3.6411,10.219-5.2188,1.4999-0.78885,2.7818-1.504,3.6875-2.0312,0.45286-0.26362,0.82323-0.46446,1.0938-0.65625,0.13526-0.0959,0.24237-0.17512,0.375-0.3125,0.0663-0.0687,0.12751-0.13411,0.21875-0.34375,0.0456-0.10482,0.10851-0.2844,0.0937-0.5-0.0146-0.2156-0.12515-0.46889-0.28125-0.625-0.27428-0.27423-0.46104-0.26429-0.5625-0.28125-0.10146-0.017-0.13468-0.00052-0.1875,0-0.10564,0.001-0.1979-0.0108-0.28125,0-0.16669,0.0217-0.34062,0.0802-0.5625,0.125-0.44376,0.0896-1.0201,0.22055-1.6562,0.375-1.2722,0.3089-2.7788,0.68612-3.8125,0.96875-6.5412,1.7886-16.818,3.5861-27.812,4.8438-36.927,4.2243-58.989,3.6718-82.031-2.0312-26.548-6.5707-50.915-19.246-70.406-36.625-16.11-14.365-28.047-29.929-37.156-48.375-7.8029-15.8-12.637-31.365-15.625-50.438-1.273-8.1249-1.2732-35.105,0-43.594,3.7666-25.114,13.512-49.783,27.219-68.875,27.819-38.747,71.7-64.49,118.22-69.375,14.259-1.4974,34.116-0.79216,48.188,1.75,31.245,5.6447,60.549,20.13,83.469,41.188,6.5287,5.9982,8.2878,7.8422,13.469,14.062,21.673,26.021,34.366,55.848,37.781,88.812,0.79142,7.6395,0.66199,24.291-0.25,32.812-2.7675,25.858-11.305,49.502-25.031,69.219-9.0204,12.414-18.683,23.338-32.906,27.906-5.5767,1.7755-14.25,2.2181-20.531,1.0312-2.7091-0.51189-6.0607-1.4333-8.8438-2.3438-1.3915-0.45524-2.6393-0.90879-3.5938-1.3125-0.95446-0.40371-1.6652-0.85291-1.6875-0.875-0.22294-0.22039-0.73948-0.97019-1.2812-1.9375-0.54177-0.96731-1.1591-2.169-1.75-3.4688-1.1818-2.5996-2.3101-5.5758-2.8125-7.5625-1.2981-5.1334-1.0322-15.156,0.5625-20.656,2.4873-8.579,3.306-15.837,3.3438-29.531,0.01-3.5215-0.0249-6.782-0.0937-9.1875-0.0107-0.37492-0.0191-0.57532-0.0312-0.90625l-1.08,0.64-1.5,0.9375-1.0625-1.375-10.344-13.281c-18.512,6.6207-36.467,14.951-53.625,25.844-2.3466,22.879,2.7257,42.442,17.406,58.312l0.46875,0.53125,0.0312,0.71875,0.53125,13.312,0.0937,2.375-2.3438-0.40625c-14.181-2.5024-29.765-1.372-45.906,1.25l-4.7812,4.625,3.9062,0.84375c-0.006,0.01-0.0264,0.0222-0.0312,0.0312-0.0218,0.0384-0.0123-0.0432-0.0937,0.15625-0.00035,0.00086-0.0625,0.37414-0.0625,0.375s0.0622,0.37415,0.0625,0.375c0.00034,0.00085,0.10649,0.1877,0.15625,0.25,0.0498,0.0623,0.0835,0.0904,0.125,0.125,0.16602,0.13851,0.24849,0.16457,0.3125,0.1875,0.12801,0.0459,0.18453,0.0516,0.25,0.0625,0.13093,0.0219,0.28387,0.0193,0.4375,0.0312,0.30726,0.0239,0.68371,0.0512,1.125,0.0625,0.86695,0.0221,2.2235,0.0474,3.0625,0.0625l1.5312,0.0312h0.53125c-0.008,0.0475-0.0266,0.0729-0.0312,0.125-0.0402,0.45238,0.33192,1.0511,0.65625,1.25,0.32433,0.19889,0.57366,0.265,0.875,0.34375,1.3675,0.35738,2.5063,0.48361,3.5625,0.125s1.8441-1.1457,2.7188-2.25l1.3438-1.7188,13.156,0.3125c8.4137,0.18549,15.622,0.1207,20.875-0.15625,2.6266-0.13848,4.764-0.34888,6.3438-0.59375,0.78988-0.12244,1.4396-0.24252,1.9688-0.40625,0.52915-0.16373,0.97816-0.26147,1.375-0.78125,0.44009-0.5764,0.56807-1.2778,0.65625-2.1875,0.0882-0.90971,0.0904-2.0516,0.0312-3.5625l-0.125-3.75,4.75-3h0.0312l4.7812-3.0312,2.2812,1.2188c1.3613,0.72705,4.0102,2.7618,5.5938,4.3125,8.1768,8.0074,19.557,12.632,33.938,13.906,38.241,1.7476,59.335-20.35,76.156-51.656,8.543-18.91,16.924-39.047,20.094-58.406,5.81-39.85-2.69-81.01-23.82-115.5-13.06-21.33-29.88-39.192-50.65-53.75-20.01-14.022-45.05-24.68-69.16-29.438-12.12-2.393-24.47-3.577-36.78-3.562zm17.312,55.031,0.0625,0.15625-0.1875-0.09375,0.75,2.2188,3.7188,11.125,0.0625,0.1875,0.125,0.15625,9.2812,10.25,5.3125,27,0.28125,1.5,0.28125-0.21875,0.0625,0.15625,1.0625-0.875,9.0312-7.125,3.5312,4.7188c-2.4828,5.2326-2.5553,12.047,0.34375,19.062,4.2043,10.174,13.271,17.801,22.594,19.812-2.1271,3.1315-3.7148,6.2778-4.4062,9.25-0.0101,0.0429,0.005,0.0282,0,0.0625-0.0111,0.0479,0.004,0.0275,0,0.0625l-11.219,7.7188-15.875-20.625-0.56-0.78-0.75,0.625-0.0937,0.0625-0.0625,0.0625-12.344,7.9062-6.7812,4.8438,37.281,47.75-0.0312,0.0312,9.75,12.5,3.6875-2.3125v0.0312l15.312-9.6562,0.46875-0.28125v-0.0312l0.625-0.34375-0.6875-0.875-17.938-23.344c4.502-3.3025,9.0446-6.5516,13.531-9.875l-0.21875-0.25c3.9762-0.58308,8.3052-2.1081,12.688-4.6562l1.6562,2.1562-5.1562,4.3438h-0.0312l-3.5312,2.875-0.5,0.40625,0.15625,0.59375,5.5625,24.625c24.182-1.87,44.937-22.206,53.094-35.156l0.625-1c-8.6999-3.0252-20.944-7.8424-30.719-11.5l-0.53125-0.1875-0.40625,0.34375c-3.3384,2.2457-5.2151,3.4865-8.7188,6.4062l-1.3125-1.75c5.1554-5.1228,8.6555-10.721,9.8125-15.812,0.13957-0.5999,0.26849-1.1806,0.34375-1.7812,0.15234-1.2563,0.14467-2.4831-0.0312-3.625-0.28803-1.7982-0.90163-3.09-1.9375-4.5312-1.9334-2.4102-5.0032-3.594-8.5312-3.7188-3.1682-0.11207-6.7675,0.71882-10.5,2.1562-0.00006-3.353-0.58823-6.9191-2.0938-10.562-5.4177-13.111-18.941-22.124-30.625-20.062-0.7546,0.13314-1.479,0.34422-2.1875,0.5625l-3.18-4.2,8.19-6.469,1.22-0.969-1.41-0.656-25.09-11.687-8.28-8.969-0.125-0.125-0.15625-0.0625-12.125-6.4062-2.125-1.125zm-70.22,18.907c-0.0355,0.02795-0.0967,0.11086-0.1875,0.28125-0.20289,0.38075-0.4167,1.1815-0.375,2.3438l0.0625,1.8438-1.8438,0.125-3.2812,0.1875h-0.1875l-0.1875-0.03125c-0.36755-0.04854-0.40885-0.01142-0.46875,0-0.029,0.13089-0.13385,0.74106-0.15625,1.6562l-0.0625,1.9062-1.875-0.0625-5.375-0.1875c-0.38024,0.11034-0.77366,0.43285-1.1562,1.3438-0.40162,0.95621-0.6443,2.3824-0.625,3.7812,0.0193,1.3989,0.29544,2.7854,0.6875,3.6875,0.37948,0.87316,0.71545,1.0457,0.78125,1.0625h5.75,1.7812l0.0937,1.8125c0.0413,0.98098,0.164,1.7653,0.25,1.9375,0.0215,0.043,0.0158,0.0784,0,0.0937,0.007-0.01,0.0497-0.0366,0.375-0.0625h0.0625,0.0625l3.4688-0.0937,2-0.0625-0.0937,2c-0.0405,1.1188,0.1529,1.8351,0.3125,2.125,0.14937,0.27135,0.1855,0.29255,0.53125,0.34375l15.04,0.37c1.2844-0.56294,2.4407-2.0743,3.1875-4.5312,0.77845-2.5609,1.0656-5.9098,0.84375-9.1562-0.22184-3.2464-0.94489-6.4032-1.9688-8.5938-0.51193-1.0953-1.0874-1.9358-1.625-2.4375-0.53761-0.50168-0.96637-0.6754-1.4062-0.6875h-0.0312-0.0625l-14.25-1c-0.0172-0.000955-0.027-0.02795-0.0625,0zm45.82,4.312c-2.5512,0.0067-5.6559,0.43522-9.3125,1.6562-0.004,0.005-0.0274-0.005-0.0312,0-3.306,4.3857-4.262,10.189-3.9062,15.25l7.25,11.969c4.8021,0.15147,9.2629-0.70766,13.469-2.5,0.59652-0.40018,1.2-0.81138,1.7812-1.2812-0.0195,0.0166,0.0274-0.0308,0.0625-0.0625,0.0313-0.0246,0.0614-0.0428,0.0937-0.0625,0.1158-0.0703,0.26983-0.17631,0.46875-0.3125,0.39784-0.27239,0.9211-0.66718,1.5-1.25,1.1578-1.1656,2.515-3.0406,3.5-5.9375l0.0625-0.1875v-0.15625c0.009,0.0117,0.039-0.13314,0.15625-0.40625,0.15635-0.3642,0.38669-0.90922,0.53125-1.6562,0.28913-1.4941,0.28752-3.7566-0.71875-7.4688-0.44364-1.7287-1.6299-2.9902-3.0312-3.9375-1.4014-0.94734-3.0466-1.6094-4.6562-2.2812-1.5635-0.6873-3.9387-1.3836-7.2188-1.375zm-23,5.125c0.15235,0.99344,0.27379,2.0074,0.34375,3.0312,0.24737,3.62-0.0362,7.329-1,10.5-0.96384,3.171-2.6739,6.0047-5.625,7.0938l-0.34375,0.125-0.34375-0.0312-15.75-0.375h-0.125-0.0937c-1.3808-0.19411-2.6842-1.0831-3.3438-2.2812-0.3536-0.64233-0.54565-1.3271-0.65625-2.0625l-1.5625,0.0312h-0.0937v-0.0312c-1.6724,0.0907-3.3246-0.83519-3.9375-2.0625-0.29143-0.58355-0.44595-1.1422-0.53125-1.6875h-4.2188-0.125-0.125c-1.9169-0.24464-3.0818-1.7749-3.75-3.3125-0.66825-1.5376-0.975-3.3085-1-5.125-0.0103-0.74952,0.0307-1.5088,0.125-2.25l-7.0938,1.8438-4.4062,42.594,9.5,7.8125,20.156-10.344,0.3125-0.15625,0.375-0.0312,49.156-5.25-2.0938-10.781c-2.5614,0.4209-5.211,0.57052-7.9375,0.40625l-1-0.0625-0.53125-0.875-8.12-13.36-0.25-0.40625-0.0312-0.4375c-0.27635-3.2781-0.0824-6.9507,0.875-10.5l-6.78-2.025zm-69.594,3c-2.2654-0.05909-4.1805,0.49971-5.5,2.25-2.3221,3.6411-1.7218,11.769,0.75,13.156-0.26668,3.5993-0.21354,6.9291,0.65625,9.625,0.93232,2.8897,2.949,5.0977,6.2188,5.7188l0.28125,0.0625,0.25-0.0937c0.33285-0.12758,0.61881-0.45927,0.9375-0.6875l9.05,7.46,3.5-34.12c-5.6586-0.64204-11.625-3.2568-16.156-3.375zm23.344,19.594,0.21875,0.0937,2.8125,1.3438,0.1875,0.0937,0.0312,0.1875,0.78125,3.2188,0.0625,0.25-0.21875,0.15625-2.8125,1.9688-0.15625,0.125-0.21875-0.0625-2.9062-1.125-0.21875-0.0937-0.0312-0.21875-0.5625-3.4375-0.0312-0.25,0.1875-0.15625,2.6875-1.9688,0.1875-0.125zm53.562,8.3438,0.15625,0.1875,1.8438,2.875,0.125,0.1875-0.125,0.21875-1.5312,2.8125-0.0937,0.1875-0.21875,0.0312-3.3125,0.5625-0.28125,0.0625-0.15625-0.25-1.8438-2.9688-0.125-0.1875,0.0937-0.21875,1.3438-2.9062,0.0937-0.21875,0.25,0,3.5312-0.34375,0.25-0.0312zm-19.344,0.9375,0.21875,0.0937,3.0312,1.5312,0.21875,0.0937,0,0.25,0.0937,3.2188,0,0.1875-0.125,0.125-2.5938,2.1875-0.21875,0.1875-0.25-0.125-3.0938-1.6562-0.21875-0.0937,0-0.21875-0.3125-3.1875-0.0312-0.21875,0.1875-0.15625,2.875-2.0938,0.21875-0.125zm-17.844,2.875,0.25,0,3.4375,0.0625,0.25,0,0.125,0.21875,1.4688,2.875,0.0937,0.1875-0.0625,0.1875-1.4062,3.125-0.125,0.25-0.28125,0-3.5312-0.15625-0.21875,0-0.125-0.1875-1.6875-2.75-0.125-0.21875,0.125-0.1875,1.7188-3.1875,0.0937-0.21875zm-13.719,5.0938,0.15625,0.1875,2.3438,2.25,0.125,0.125,0,0.21875-0.3125,3.375-0.0312,0.28125-0.28125,0.0937-3.4062,1-0.21875,0.0625-0.15625-0.15625-2.4688-2.0625-0.1875-0.15625,0.0312-0.21875,0.625-3.5625,0.0312-0.25,0.25-0.0625,3.25-1.0625,0.25-0.0625zm67.688,2.25-46.594,4.9688-14.906,7.625c4.5897,5.6438,9.9876,13.862,13.719,22.781,4.1113,9.8284,6.1197,20.386,3.0312,29.156-2.1812,1.1132-4.2341,2.1592-6.1875,3.1875l-0.4375-0.4375v0.6875c-13.161,6.9489-21.502,12.238-29.719,19.188-8.9772,1.602-10.358,3.0196-19.156,8.2188l-0.5,0.3125,0.0312,0.59375,0.625,8.375,0.21875,2.8125,1.5625-2.3438,1.2812-1.9062,0.75,4.625,0.375,2.1875,1.3438-1.75,2.6875-3.5,0.78125,3.4688,0.57,2.53,1.2188-2.2812,3.3125-6.0938,0.15625-0.3125-0.0625-0.34375-0.40625-2.125,0.75-0.78125,0.84375,4.4062,0.34375,1.7812,1.2812-1.2812,0.28125-0.3125,3.4688-11.469,0.21875-0.71875,0.65625-0.375,5.4062-3.1562,1.4688-2.0312,0.46875-0.65625,0.8125-0.125,11.25-1.5312,0.0937-0.0312,29.5-9.3125c-6.3579-16.051-5.7213-28.531-3.5312-44.406l3.8438,0.53125,44.125,6.1875,1.7188,0.25-0.0625,1.75c-0.52195,13.436-1.0558,26.316-6.3125,37.625,9.7524-10.671,19.114-21.477,24.375-33.719l-11.469-14.688-1.25-1.5938,1.6562-1.1875,7.25-5.1875c-1.6219-1.2005-3.8405-2.7383-6.4062-4.4688-5.1956-3.5041-11.729-7.7037-17.125-10.906-2.6744-1.5872-4.7277-2.6752-6.125-3.4688-0.53603-0.30444-0.88423-0.53433-1.2188-0.75zm-29.625,33.969c-1.1201,8.928-1.5841,16.601-0.25,24.688l40.25,4.9375c1.5979-7.3039,1.9776-15.213,2.3125-23.656l-42.312-5.9688zm6.8125,2.4062c2.5534,0,4.5938,2.143,4.5938,4.6875s-2.0403,4.7188-4.5938,4.7188c-2.5534,0-4.5938-2.1742-4.5938-4.7188,0-2.5445,2.0403-4.6875,4.5938-4.6875zm8.0938,2.5625,15.344,1.3438-0.625,7.3125-15.375-1.375,0.65625-7.2812zm21.812,1.6875c2.0125,0,3.5938,1.682,3.5938,3.6875s-1.5812,3.7188-3.5938,3.7188c-2.0125,0-3.625-1.7133-3.625-3.7188s1.6125-3.6875,3.625-3.6875zm30.25,5.0625c-7.5361,16.154-21.195,29.44-33.219,42.812l3.5625,10.938c16.71-10.48,34.13-18.62,52.03-25.1l-5.7188-7.3438-28.75,16.844-1.5625,0.90625-1.0312-1.5-2.6562-4-0.75-1.1562,0.8125-1.0938,20.625-27.031-3.3438-4.2812zm-61.406,2.1875c2.4795,0,4.4375,2.0917,4.4375,4.5625s-1.958,4.5938-4.4375,4.5938-4.4688-2.1229-4.4688-4.5938c0-2.4708,1.9893-4.5625,4.4688-4.5625zm9.75,1,5,0.53125-1.0938,9.25-5.0312-0.53125,1.125-9.25zm9.7812,1.125,5,0.53125-1.0938,9.25-5.0312-0.53125,1.125-9.25zm8.7812,1.1875,5,0.53125-1.125,9.2812-5-0.53125,1.125-9.2812zm38.906,1.9062-19.156,25.156,0.875,1.3438,26.719-15.656-8.4375-10.844zm-72.219,9.5312c0.87966,3.7494,2.1167,7.6628,3.9062,11.875l0.8125,1.9375-2,0.65625-31.531,9.9688-0.15625,0.0625h-0.15625l-10.781,1.4688-1.25,1.75-0.21875,0.34375-0.375,0.1875-5.0312,2.9375-2.9688,9.8125,2.2812-1.6562-0.5,1.8125-0.84375,3.0312,2.4062-2.0312,5.1875-4.375,0.15625-0.125,0.0937-0.1875,1.4062-2.8438,2.4375-1.0312,0.21875,2.25,0.1875,1.8125,1.4062-1.1562,6.8438-5.625c4.9796,0.31846,9.9896,0.63783,15.062,0.875v-0.0312c10.482-0.46239,27.842-2.8419,39.25-6.5938,6.6766-5.9926,10.412-12.825,12.594-20.375l-38.438-4.75zm29.5,27.062c-0.43544,0.41377-0.88345,0.84372-1.3438,1.25l-0.3125,0.25-0.375,0.125c-10.608,3.5569-25.527,5.7752-36.438,6.5938l0.125,0.53125c1.1146,3.2491,0.79041,5.3221,0.34375,7.5312,15.438-9.0594,31.401-6.7175,41.375-5.9688l-3.375-10.312zm-10.625,13.375c-8.7168-0.0445-18.531,1.3943-28.031,7.9062-0.1406,4.0466,0.26623,9.3904,1.0625,13.438,2.2626,11.5,7.088,21.774,14.688,31.375,0.4723,0.59671,0.91724,1.1705,1.25,1.5938,0.25981,0.33044,0.36367,0.46789,0.4375,0.5625,0.0101,0.093,0.0188,0.18936,0.0312,0.34375,0.0325,0.39245,0.0532,0.95421,0.0937,1.625,0.0811,1.3416,0.20048,3.1332,0.28125,4.9062,0.0808,1.773,0.14687,3.5432,0.1875,4.875,0.0159,0.52231,0.0257,0.8923,0.0312,1.25-0.26653-0.014-0.5044-0.007-0.875-0.0312-1.1124-0.0735-2.6177-0.20235-4.2812-0.34375-4.9362-0.41954-7.1468-0.49599-11.531-0.5-7.1139-0.006-10.245,0.31684-15.75,2.0938l-0.21875-0.75-13.406,1.6875-0.3125,0.0625-0.21875,0.1875-4.6562,4.3438-1.3438,1.2812,1.7812,0.375,4.3125,0.9375c-0.008,0.0202-0.0231,0.0403-0.0312,0.0625-0.0182,0.0476-0.0408,0.0822-0.0625,0.1875-0.0108,0.0527-0.0363,0.12089-0.0312,0.25,0.003,0.0646-0.004,0.13857,0.0312,0.25,0.0176,0.0557,0.0934,0.18694,0.0937,0.1875,0.00032,0.00056,0.15584,0.21834,0.15625,0.21875,0.31468,0.31468,0.37126,0.23083,0.4375,0.25,0.0662,0.0192,0.1145,0.0236,0.15625,0.0312,0.0835,0.0153,0.15814,0.0208,0.25,0.0312,0.18373,0.0211,0.40736,0.042,0.6875,0.0625,0.56028,0.041,1.3221,0.0939,2.125,0.125l2.875,0.0937h0.25c-0.0202,0.0401-0.0444,0.086-0.0625,0.125-0.0362,0.0781-0.0907,0.13127-0.125,0.25-0.0171,0.0594-0.0252,0.14436-0.0312,0.28125s-0.0374,0.43133,0.28125,0.75c0.20913,0.20913,0.28267,0.19374,0.34375,0.21875,0.0611,0.025,0.11736,0.0511,0.15625,0.0625,0.0778,0.0228,0.14034,0.0143,0.21875,0.0312,0.15682,0.0338,0.33558,0.0871,0.5625,0.125,0.45383,0.0759,1.0508,0.16616,1.6875,0.25,0.63017,0.083,1.2378,0.16219,1.6875,0.21875,0.44973,0.0566,0.6453,0.0786,0.8125,0.0937,0.39223,0.0357,0.50748-0.0765,0.59375-0.125,1.2704-1.1419,2.1309-2.4974,3.1875-3.9062l4.55-0.13c2.749-0.0641,7.425-0.0333,10.312,0.0625,2.5676,0.0851,5.7183,0.14273,7.8125,0.15625l4.375-4.2188,0.40625-0.40625,0.59375-0.0937c5.4775-0.90085,10.921-1.6198,16.281-2.0938l0.21875-2.1875,0.25-2.625,2.4375,1.0312,7.4062,3.2188c6.42-0.13842,12.698,0.15017,18.812,1.0625l-0.4-10.41c-14.87-16.399-20.161-36.788-18-59.812-4.2719-0.26256-9.3342-0.87811-14.844-0.90625z" transform="translate(129.45562,138.56415)"/>
<path d="m260.72,11.188c-30.457,0-59.156,7.313-84.375,20.188-3.0536,1.5589-6.0517,3.1864-9,4.9062-1.4613,0.85244-2.9094,1.7341-4.3438,2.625-28.045,17.419-50.857,42.107-65.625,71.344-0.467,0.92453-0.92417,1.8477-1.375,2.7812-0.84481,1.7493-1.6816,3.5012-2.4688,5.2812-0.08267,0.18705-0.16799,0.37514-0.25,0.5625-0.06735,0.15378-0.12058,0.31474-0.1875,0.46875-0.30799,0.70935-0.60779,1.4424-0.90625,2.1562-0.39512,0.94391-0.77747,1.8918-1.1562,2.8438-0.38145,0.96105-0.76061,1.9373-1.125,2.9062-0.01645,0.0436-0.04609,0.0814-0.0625,0.125-0.71404,1.8983-1.3827,3.8219-2.0312,5.75-5.8366,17.352-9.0312,35.876-9.0312,55.125,0,25.098,5.386,48.964,15.062,70.594,1.8263,4.0824,3.8112,8.0847,5.9375,12,18.773,34.568,48.963,62.337,85.688,78.594,15.413,6.8226,31.958,11.654,49.312,14.062,0.23983,0.0351,0.47855,0.0595,0.71875,0.0937,0.67728,0.0913,1.3516,0.16595,2.0312,0.25,2.063,0.27379,4.1296,0.53599,6.2188,0.75,1.129,0.11566,2.7408,0.18924,4.5312,0.25,4.1096,0.26988,8.2575,0.4375,12.438,0.4375,5.73,0,11.323-0.41662,16.875-1.0312,0.0825-0.009,0.16751,0.009,0.25,0,1.3378-0.10602,2.5013-0.21844,3.4062-0.34375,1.509-0.20895,2.9866-0.44512,4.4375-0.6875,0.69924-0.0985,1.3954-0.17931,2.0938-0.28125,14.61-2.5433,27.059-7.6454,38.562-13.844,2.0555-1.0443,4.0704-2.0837,5.8125-3,1.4999-0.78885,2.7818-1.504,3.6875-2.0312,0.45286-0.26362,0.82323-0.46446,1.0938-0.65625,0.13526-0.0959,0.24237-0.17512,0.375-0.3125,0.0663-0.0687,0.12751-0.13411,0.21875-0.34375,0.0168-0.0386,0.0458-0.0994,0.0625-0.15625,1.9936-1.2261,3.9713-2.4916,5.9375-3.75-2.8987,1.0478-5.7992,2.0016-8.6875,2.8438-0.25593,0.0585-0.46307,0.0866-0.75,0.15625-1.2722,0.3089-2.7788,0.68612-3.8125,0.96875-6.5412,1.7886-16.818,3.5861-27.812,4.8438-36.927,4.2243-58.989,3.6718-82.031-2.0312-26.56-6.58-50.93-19.25-70.42-36.63-16.11-14.36-28.05-29.93-37.15-48.38-7.81-15.79-12.64-31.36-15.63-50.43-1.273-8.1249-1.2732-35.105,0-43.594,3.5312-23.545,12.309-46.685,24.688-65.219,0.005-0.007-0.005-0.0241,0-0.0312,0.82066-1.2282,1.6795-2.4386,2.5312-3.625,27.819-38.747,71.7-64.49,118.22-69.375,14.259-1.4974,34.116-0.79216,48.188,1.75,31.245,5.6447,60.549,20.13,83.469,41.188,2.9363,2.6977,4.873,4.5194,6.625,6.3125,0.68608,0.71275,1.3585,1.4308,2.0312,2.1562,0.0854,0.09212,0.16479,0.18893,0.25,0.28125,1.3375,1.4814,2.732,3.1147,4.5625,5.3125,21.673,26.021,34.366,55.848,37.781,88.812,0.79142,7.6395,0.66199,24.291-0.25,32.812-2.7675,25.858-11.305,49.502-25.031,69.219-0.89625,1.2874-1.6214,2.3201-2.3438,3.3125-0.15908,0.21855-0.37719,0.51037-0.53125,0.71875-1.4987,1.9567-3.0812,3.8451-4.6875,5.6875-1.1164,1.223-2.3793,2.5564-4,4.2188l-3.375,3.4688-0.0937,0.0625c-0.73102,0.68659-1.4387,1.3683-2.1875,2.0312l0.125,0.125-0.0312,0.0312,0.53125,0.65625,0.375,0.46875c-0.11088-0.11969-0.2523-0.24572-0.4375-0.34375-0.4178-0.22113-0.96111-0.1967-1.375-0.0625-0.82779,0.26841-1.6628,0.84836-3.3125,1.9375-4.6091,3.043-6.4938,3.98-11.562,5.5938-5.5767,1.7755-14.25,2.2181-20.531,1.0312-2.7091-0.51189-6.0607-1.4333-8.8438-2.3438-1.3915-0.45524-2.6393-0.90879-3.5938-1.3125-0.95446-0.40371-1.6652-0.85291-1.6875-0.875-0.22294-0.22039-0.73948-0.97019-1.2812-1.9375-0.54177-0.96731-1.1591-2.169-1.75-3.4688-1.1818-2.5996-2.3101-5.5758-2.8125-7.5625-1.2981-5.1334-1.0322-15.156,0.5625-20.656,2.4873-8.579,3.306-15.837,3.3438-29.531,0.01-3.5215-0.0249-6.782-0.0937-9.1875-0.0344-1.2028-0.0764-2.1859-0.125-2.9062-0.0243-0.36017-0.063-0.64075-0.0937-0.875-0.0154-0.11712-0.0365-0.23258-0.0625-0.34375s0.10168-0.17947-0.28125-0.5625c-0.13132-0.13136-0.27443-0.12395-0.40625-0.1875l18.281-11.531,0.46875-0.28125v-0.0312l0.625-0.34375-0.6875-0.875-45.781-59.531-0.61-0.81-0.75,0.625-0.0937,0.0625-0.0625,0.0625-12.844,8.2188c-0.0318-0.0569-0.0663-0.17672-0.0937-0.21875-0.0765-0.11722-0.13865-0.22569-0.21875-0.3125-0.1602-0.17362-0.35738-0.3285-0.59375-0.53125-0.47274-0.40549-1.124-0.92799-1.9375-1.5312-1.627-1.2065-3.8709-2.7792-6.4688-4.5312-5.1956-3.5041-11.729-7.7037-17.125-10.906-2.6744-1.5872-4.7277-2.6752-6.125-3.4688-0.69863-0.39678-1.2549-0.72984-1.5938-0.96875-0.25414-0.17918-0.36833-0.32604-0.375-0.3125-0.10833-0.2916-0.24852-0.74285-0.40625-1.1562-0.0833-0.2184-0.17435-0.42429-0.28125-0.625-0.0534-0.10035-0.10906-0.18431-0.21875-0.3125s-0.29504-0.40625-0.8125-0.40625c-0.12892,0-0.0915-0.003-0.125,0s-0.0778,0.0262-0.125,0.0312c-0.0944,0.0103-0.24288,0.0121-0.40625,0.0312-0.32675,0.0383-0.78388,0.11528-1.375,0.1875-1.1822,0.14445-2.8775,0.3361-4.9375,0.59375-4.1199,0.5153-9.7359,1.2168-15.875,2-10.244,1.3069-16.723,2.227-20.688,2.9688-1.9823,0.3709-3.3189,0.68411-4.25,1.0312-0.46553,0.17357-0.83399,0.36296-1.1562,0.625-0.32226,0.26204-0.65216,0.73413-0.625,1.25,0.0184,0.34991,0.12675,0.44486,0.1875,0.53125,0.0607,0.0864,0.1108,0.14175,0.15625,0.1875,0.0909,0.0915,0.18322,0.14159,0.28125,0.21875,0.19606,0.15432,0.45173,0.33294,0.75,0.53125,0.59654,0.39661,1.395,0.90058,2.2812,1.4062,6.8503,3.9087,11.061,7.8188,14.156,13.125-3.3192-5.5741-8.4945-10.011-16.625-14.438l-2.3125-1.2812-0.4375-0.25-0.4375,0.21875-3.5312,1.6562c-0.97053,0.45607-1.8784,0.88122-2.5312,1.1875-0.32643,0.15314-0.5946,0.28734-0.78125,0.375-0.0933,0.0438-0.16742,0.0696-0.21875,0.0937-0.0257,0.0121-0.0473,0.024-0.0625,0.0312-0.0152,0.007,0.0737-0.0419-0.0625,0.0312-0.00009,0.00005-0.28118,0.21867-0.28125,0.21875s-0.15621,0.28114-0.15625,0.28125c-0.00008,0.00021-0.0625,0.37467-0.0625,0.375,0.00001,0.00033,0.0311,0.18706,0.0312,0.1875,0.00011,0.00044,0.022,0.0991,0.0312,0.125,0.0372,0.10342,0.0467,0.12829,0.0625,0.15625,0.0317,0.0559,0.0445,0.0676,0.0625,0.0937,0.036,0.0526,0.0792,0.0951,0.125,0.15625,0.0916,0.12226,0.21932,0.30147,0.375,0.5,0.31136,0.39706,0.74491,0.91233,1.2188,1.5,2.2024,2.7314,5.9488,8.278,8,11.844,7.2464,12.597,10.709,25.559,9.4375,34.469-0.14705,1.0302-0.45912,2.5168-0.78125,3.7812-0.16106,0.63224-0.32991,1.1927-0.46875,1.625-0.0694,0.21615-0.10733,0.40985-0.15625,0.53125-0.0489,0.1214-0.14302,0.19881-0.0625,0.0937-0.0233,0.0161-0.0333,0.0119-0.0625,0.0312-0.15266,0.1017-0.38442,0.24405-0.65625,0.40625-0.54365,0.3244-1.2956,0.74802-2.0625,1.1562-1.1895,0.63314-2.1533,1.3631-3.2812,2-0.12061-0.0704-0.24983-0.1562-0.25-0.15625-0.00029-0.00008-0.24958-0.0312-0.25-0.0312-0.00085-0.00001-0.17579,0.0221-0.21875,0.0312-0.0859,0.0186-0.0969,0.0208-0.125,0.0312-0.0563,0.0209-0.0954,0.0487-0.125,0.0625-0.0316,0.0147-0.0611,0.0461-0.0937,0.0625-0.0285,0.0143-0.0609,0.0143-0.0937,0.0312-0.0153,0.009-0.0134,0.0206-0.0312,0.0312-0.13716,0.0715-0.31781,0.13362-0.53125,0.25-0.45737,0.24939-1.0698,0.58895-1.75,0.96875-1.3604,0.7596-2.9557,1.6708-3.9375,2.2188-9.4117,5.2523-15.872,9.5311-22.375,14.938v0.0312l-0.90625,0.78125-4.25,1.1562c-1.2206,0.33749-2.3646,0.64875-3.1875,0.875-0.41147,0.11313-0.73205,0.21585-0.96875,0.28125-0.11835,0.0327-0.21461,0.0438-0.28125,0.0625-0.0578,0.0162-0.15686,0.0523-0.1875,0.0625-0.005,0.002-0.0308-0.00024-0.0312,0-0.0508,0.0203-0.1157,0.0771-0.21875,0.15625-0.0566,0.0435-0.18718,0.18705-0.1875,0.1875-0.00009,0.00013-0.0416,0.0721-0.0625,0.125h-0.25l1.25-2.2812-3,1.75-8.2812,4.9062-0.5,0.3125,0.0312,0.59375,0.625,8.375,0.21875,2.8125,1.5625-2.3438,2.1875-3.25c0.0762,0.48707,0.15194,1.0107,0.21875,1.4062,0.091,0.53877,0.14432,0.82419,0.21875,1.125l-0.0625,0.9375v0.1875l0.0312,0.15625c0.0372,0.12525,0.008,0.27157,0.34375,0.5625,0.16794,0.14547,0.53978,0.27753,0.84375,0.21875,0.30397-0.0588,0.47341-0.21812,0.5625-0.3125,0.35635-0.37754,0.28524-0.44357,0.34375-0.59375,0.11702-0.30036,0.24939-0.63163,0.34375-0.75,0.5453-0.68405,0.82747-1.1086,1.0625-1.625l1.125,5.0625,0.54,2.5,1.2188-2.2812,3.3125-6.0938,0.15625-0.3125-0.0625-0.34375-0.40625-2.125,0.75-0.78125,0.84375,4.4062,0.34375,1.7812,1.2812-1.2812,3.1875-3.2188-0.625,2.1875-0.75,2.6875,2.25-1.625,2.5-1.8125-0.5,1.8125-0.84375,3.0312,2.4062-2.0312,5.1875-4.375,0.15625-0.125,0.0937-0.1875,1.4062-2.8438,2.4375-1.0312,0.21875,2.25,0.1875,1.8125,1.4062-1.1562,6.8438-5.625c6.1348,0.39234,12.297,0.7963,18.594,1.0312l0.0625,0.28125,0.96875,3.625c0.46429,1.6823,0.72482,2.5968,0.8125,3.1875,0.0877,0.59065,0.0585,0.88539-0.0625,1.5938-0.0744,0.43566-0.16556,0.84616-0.21875,1.1875-0.0532,0.34134-0.0937,0.46574-0.0937,0.8125,0,0.0734,0.0009,0.15539,0.0312,0.3125,0.0203,0.10474,0.14412,0.27991,0.25,0.4375-0.24792,0.1547-0.46887,0.24653-0.71875,0.40625l0.34375,0.71875h-0.0312l-0.4375,0.25-0.0312,0.5-0.125,2.0938c-0.26002,4.1281,0.1664,10.073,1.0312,14.469,2.2626,11.5,7.088,21.774,14.688,31.375,0.4723,0.59671,0.91724,1.1705,1.25,1.5938,0.25981,0.33044,0.36367,0.46789,0.4375,0.5625,0.0101,0.093,0.0186,0.18936,0.0312,0.34375,0.0325,0.39245,0.0532,0.95421,0.0937,1.625,0.0811,1.3416,0.20048,3.1332,0.28125,4.9062,0.0808,1.773,0.14687,3.5432,0.1875,4.875,0.0159,0.52231,0.0257,0.8923,0.0312,1.25-0.26653-0.014-0.5044-0.007-0.875-0.0312-1.1124-0.0735-2.6177-0.20235-4.2812-0.34375-4.9362-0.41954-7.1468-0.49599-11.531-0.5-7.114-0.007-10.245,0.31675-15.75,2.0938l-0.21875-0.75-13.406,1.6875-0.3125,0.0625-0.21875,0.1875-4.6562,4.3438-1.3438,1.2812,1.7812,0.375,4.3125,0.9375c-0.008,0.0202-0.0229,0.0403-0.0312,0.0625-0.0182,0.0476-0.0408,0.0822-0.0625,0.1875-0.0108,0.0527-0.0363,0.12089-0.0312,0.25,0.003,0.0646-0.004,0.13857,0.0312,0.25,0.0176,0.0557,0.0934,0.18694,0.0937,0.1875,0.00032,0.00056,0.15584,0.21834,0.15625,0.21875,0.31475,0.3147,0.37127,0.23083,0.4375,0.25,0.0662,0.0192,0.11451,0.0236,0.15625,0.0312,0.0835,0.0153,0.15814,0.0208,0.25,0.0312,0.18372,0.0211,0.40736,0.042,0.6875,0.0625,0.56027,0.041,1.3221,0.0939,2.125,0.125l2.875,0.0937h0.25c-0.0202,0.0401-0.0444,0.086-0.0625,0.125-0.0362,0.0781-0.0907,0.13127-0.125,0.25-0.0171,0.0594-0.0252,0.14436-0.0312,0.28125s-0.0374,0.43133,0.28125,0.75c0.2092,0.20917,0.28269,0.19375,0.34375,0.21875,0.0611,0.025,0.11736,0.0511,0.15625,0.0625,0.0778,0.0228,0.14035,0.0145,0.21875,0.0312,0.15681,0.0338,0.33558,0.0871,0.5625,0.125,0.45383,0.0759,1.0508,0.16616,1.6875,0.25,0.63017,0.083,1.2378,0.16219,1.6875,0.21875,0.44973,0.0566,0.6453,0.0786,0.8125,0.0937,0.3913,0.0342,0.50786-0.0766,0.59375-0.125,0.0859-0.0484,0.14616-0.0917,0.1875-0.125,0.0827-0.0665,0.12346-0.12255,0.1875-0.1875,0.12809-0.1299,0.27474-0.30804,0.4375-0.5,0.32551-0.38391,0.73184-0.8938,1.1562-1.4688l1.2188-1.625,4.5625-0.125c2.7489-0.0641,7.425-0.0333,10.312,0.0625,2.9311,0.0972,6.8715,0.15423,8.8125,0.15625l2.125,0.0312-2.0312,1.875-1.3438,1.2812,1.7812,0.375,4.1562,0.90625c-0.006,0.01-0.0262,0.0222-0.0312,0.0312-0.0218,0.0384-0.0123-0.0432-0.0937,0.15625-0.00035,0.00086-0.0625,0.37414-0.0625,0.375s0.0622,0.37415,0.0625,0.375c0.00034,0.00085,0.1065,0.18764,0.15625,0.25,0.0498,0.0624,0.0835,0.0903,0.125,0.125,0.16608,0.13868,0.24845,0.16454,0.3125,0.1875,0.12809,0.0459,0.18451,0.0516,0.25,0.0625,0.13097,0.0219,0.28387,0.0193,0.4375,0.0312,0.30727,0.0239,0.68373,0.0512,1.125,0.0625,0.86695,0.0221,2.2235,0.0474,3.0625,0.0625l1.5312,0.0312h0.53125c-0.008,0.0475-0.0266,0.0729-0.0312,0.125-0.0402,0.45238,0.33192,1.0511,0.65625,1.25,0.32433,0.19889,0.57366,0.265,0.875,0.34375,1.3675,0.35738,2.5063,0.48361,3.5625,0.125s1.8441-1.1457,2.7188-2.25l1.3438-1.7188,13.156,0.3125c8.4137,0.18549,15.622,0.1207,20.875-0.15625,2.6266-0.13848,4.764-0.34888,6.3438-0.59375,0.78988-0.12244,1.4396-0.24252,1.9688-0.40625,0.52915-0.16373,0.97816-0.26147,1.375-0.78125,0.44009-0.5764,0.56807-1.2778,0.65625-2.1875,0.0882-0.90971,0.0903-2.0516,0.0312-3.5625l-0.125-3.75,4.75-3h0.0312l4.7812-3.0312,2.2812,1.2188c1.3613,0.72705,4.0102,2.7618,5.5938,4.3125,8.1768,8.0074,19.557,12.632,33.938,13.906,11.436,1.0134,23.184-0.89066,33.344-5.3438,2.9572-1.2962,6.4598-3.2468,9.25-5.0625,1.3951-0.90784,2.602-1.7847,3.5-2.5312,0.44901-0.37327,0.83563-0.69984,1.125-1.0312,0.28937-0.33141,0.59375-0.5972,0.59375-1.2812,0-0.40926-0.0912-0.39896-0.125-0.46875-0.0337-0.0698-0.0609-0.1327-0.0937-0.1875-0.0659-0.10961-0.15275-0.23329-0.25-0.375-0.1945-0.28342-0.45159-0.64975-0.78125-1.0938-0.65931-0.888-1.5679-2.0512-2.5625-3.3125-1.2986-1.6469-2.0227-2.6312-2.7812-3.625l2.3125,2.9375,5,6.4062c0.0106-0.0102,0.0206-0.021,0.0312-0.0312l0.1875,0.25,0.75-0.875,1.7812-2.0312,0.1875-0.1875c13.846-14.007,24.829-30.556,32.656-48.781,0.34406-0.79312,0.69983-1.575,1.0312-2.375,0.0427-0.10396,0.0825-0.20844,0.125-0.3125,0.47937-1.1641,0.9535-2.3525,1.4062-3.5312,0.24878-0.6514,0.4779-1.3135,0.71875-1.9688,0.339-0.92234,0.67678-1.8514,1-2.7812,0.0862-0.24762,0.16489-0.50173,0.25-0.75,0.23461-0.68533,0.49273-1.3732,0.71875-2.0625,0.0342-0.10422,0.0598-0.20817,0.0937-0.3125,0.0983-0.30181,0.18458-0.6037,0.28125-0.90625,0.17106-0.53586,0.33405-1.0549,0.5-1.5938,0.27943-0.90553,0.54782-1.8068,0.8125-2.7188,0.0156-0.0536,0.047-0.10266,0.0625-0.15625,0.25038-0.86812,0.51256-1.7491,0.75-2.625,0.0251-0.0922,0.0376-0.18902,0.0625-0.28125,0.12059-0.44784,0.22653-0.89387,0.34375-1.3438,0.13556-0.51864,0.27542-1.042,0.40625-1.5625,0.0748-0.29872,0.14538-0.60663,0.21875-0.90625,0.16898-0.68808,0.33928-1.3712,0.5-2.0625,0.0578-0.24904,0.0994-0.50034,0.15625-0.75,0.1685-0.73968,0.34098-1.4756,0.5-2.2188,0.0381-0.17773,0.0874-0.35321,0.125-0.53125,0.17275-0.81997,0.33882-1.6446,0.5-2.4688,0.014-0.0715,0.0173-0.14721,0.0312-0.21875,0.18314-0.94274,0.36332-1.8958,0.53125-2.8438,0.0803-0.44773,0.17274-0.89406,0.25-1.3438,0.0965-0.57083,0.19024-1.1461,0.28125-1.7188,0.13492-0.83085,0.2502-1.6625,0.375-2.5,0.0285-0.19765,0.0659-0.39589,0.0937-0.59375,1.8851-12.924,2.2528-25.984,1.1875-38.906-0.10495-1.273-0.21079-2.5424-0.34375-3.8125-0.0227-0.21726-0.0389-0.43908-0.0625-0.65625-0.0568-0.54084-0.12574-1.0856-0.1875-1.625-0.1119-0.94863-0.21626-1.8972-0.34375-2.8438-0.0385-0.29331-0.0851-0.58214-0.125-0.875-11.85-86.792-88.03-153.71-180.36-153.71zm-9.1562,124.5c0.005,0.0121-0.005,0.0189,0,0.0312,0.14045,0.3681,0.29726,0.84987,0.4375,1.2188,0.22559,0.59334,0.61562,0.84118,1.0625,1.1562,0.44688,0.31507,1.002,0.6242,1.7188,1.0312,1.4334,0.81411,3.454,1.9334,6.0938,3.5,5.3488,3.1743,11.866,7.329,17.031,10.812,2.5825,1.7417,4.8196,3.3234,6.4062,4.5,0.7552,0.56002,1.3409,1.0285,1.75,1.375-0.0759,0.0552-0.10131,0.0954-0.1875,0.15625-0.62741,0.44307-1.5226,1.0219-2.5,1.625-1.0226,0.63103-1.9418,1.2523-2.625,1.8125-0.34158,0.28009-0.61342,0.55513-0.84375,0.8125s-0.53125,0.40126-0.53125,1.0938c0,0.46955,0.10273,0.50597,0.1875,0.6875,0.0848,0.18153,0.21044,0.39331,0.34375,0.625,0.26662,0.46337,0.63623,1.0617,1.0938,1.75,0.91505,1.3766,2.1778,3.1384,3.5938,4.9688l4.6875,6.0938-1.3125,2.4688c-4.3004,7.9707-12.922,20.584-18.875,27.656-1.673,1.9877-4.5762,5.1132-7.125,7.7188,2.5364-4.0446,3.9978-7.473,4.7188-11.656,0.44681-2.5928,1.3024-9.7862,2-16.469,0.34879-3.3413,0.63734-6.5519,0.84375-8.9375,0.10321-1.1928,0.20811-2.1924,0.25-2.9062,0.0209-0.35691,0.0294-0.61899,0.0312-0.84375,0.00098-0.11238-0.0231-0.20749-0.0312-0.3125-0.004-0.0525,0.0182-0.102,0-0.1875s0.0303-0.21969-0.28125-0.53125c-0.20893-0.20894-0.28749-0.19566-0.34375-0.21875-0.0563-0.0231-0.0932-0.0219-0.125-0.0312-0.0636-0.0188-0.0993-0.0499-0.15625-0.0625-0.11396-0.0251-0.26639-0.0324-0.4375-0.0625-0.34223-0.0601-0.79832-0.12699-1.4062-0.21875-1.2158-0.18352-2.9703-0.42882-5.0938-0.71875-4.2469-0.57987-10.041-1.3631-16.406-2.1562-6.3608-0.79266-12.181-1.5199-16.406-2.0625-2.1125-0.27132-3.8081-0.49602-5-0.65625-0.37958-0.051-0.60697-0.0875-0.875-0.125,0.15306-0.53492,0.363-1.2239,0.625-2l1-3,0.125-0.375-0.15625-0.375-1.7188-3.4062c-3.3533-6.6588-8.1584-11.383-16.031-15.875-0.82937-0.47323-1.5519-0.92308-2.0938-1.2812,0.72172-0.26387,1.9729-0.55035,3.875-0.90625,3.8693-0.72398,10.359-1.6319,20.594-2.9375,6.1377-0.78298,11.757-1.5162,15.875-2.0312,2.0589-0.25752,3.7586-0.44971,4.9375-0.59375,0.5498-0.0672,0.96401-0.11885,1.2812-0.15625zm-50.688,8.9375,1.875,1.0312c9.0965,4.953,14.111,9.6845,17.125,16.031l0.78125,1.6562-0.40625,1.25v0.0312c-1.8881,5.8244-2.4182,14.372-1.4375,23.469,0.74199,6.8826,2.5106,15.102,4.3125,20.219l0.625,1.8125-1.5,0.34375c-7.7268,1.8393-18.333,5.6525-25.062,9.0312-0.82102,0.41222-1.2358,0.60442-2.0625,0.78125-0.82673,0.17683-2.0723,0.32407-4.375,0.5625-3.4193,0.35405-4.7173,0.48395-5.875,0.75,8.472-6.9312,15.395-11.78,23.969-16.344,0.79315-0.42217,1.5145-0.84184,2.0938-1.1875,0.28965-0.17283,0.55363-0.30667,0.75-0.4375,0.0982-0.0654,0.16948-0.12602,0.25-0.1875,0.0805-0.0615,0.16372-0.0872,0.3125-0.28125,0.17235-0.22477,0.2052-0.3738,0.28125-0.5625,0.0761-0.1887,0.14002-0.41113,0.21875-0.65625,0.15745-0.49025,0.33187-1.09,0.5-1.75,0.33626-1.32,0.67917-2.847,0.84375-4,1.376-9.6402-2.2916-22.799-9.6875-35.656-2.1255-3.695-5.86-9.2072-8.1875-12.094-0.37171-0.461-0.66034-0.83704-0.9375-1.1875,0.65285-0.30628,1.5288-0.7311,2.5-1.1875l3.0938-1.4375zm100.84,8.0625,44.594,58-19.344,12.156-7.9375-10.344-0.8125-1.0625-0.0312-0.0312-0.375-0.5l-35.3-45.92,19.22-12.31zm-80.094,8.1875,1.3125,2.5312-0.875,2.5938c-0.28226,0.83607-0.52062,1.6276-0.6875,2.2188,0.22114-1.0358,0.3998-2.1158,0.6875-3v-0.0312l0.53125-1.6562,0.125-0.34375-0.15625-0.34375-0.9375-1.9688zm-0.5,8.4062c-0.005,0.0601-0.0128,0.10164,0,0.21875s-0.0326,0.37327,0.34375,0.6875c0.00033,0.00028,0.17655,0.10444,0.21875,0.125,0.0422,0.0206,0.0402,0.0231,0.0625,0.0312,0.0446,0.0164,0.0736,0.0258,0.0937,0.0312,0.0402,0.0109,0.0714,0.0267,0.0937,0.0312,0.0448,0.009,0.0763-0.008,0.125,0,0.0974,0.0163,0.24271,0.0387,0.40625,0.0625,0.32707,0.0476,0.77543,0.1069,1.375,0.1875,0.31332,0.0421,0.93036,0.13705,1.3125,0.1875l-0.125,0.8125c-1.2651,8.9536-1.4633,15.874-0.21875,22.781l0.125,0.71875,0.71875,0.0937,37.625,4.125,0.8125,0.0937,0.21875-0.8125c1.9343-7.5155,2.4927-13.842,2.7188-20.969l0.0312-0.875-0.875-0.125-32.219-4.7188c3.5237,0.44693,6.9257,0.89083,11.312,1.4375,6.3584,0.79236,12.17,1.5466,16.406,2.125,2.1182,0.28921,3.8631,0.5377,5.0625,0.71875,0.47796,0.0721,0.79451,0.13735,1.0938,0.1875-0.005,0.10201,0.007,0.15906,0,0.28125-0.0399,0.67992-0.11637,1.6605-0.21875,2.8438-0.20476,2.3665-0.52705,5.5418-0.875,8.875-0.51399,4.9238-0.99337,8.7107-1.4375,12.094l-0.40625,0.15625-3.7188,1.4688c-2.4898-0.35567-6.967-0.8539-15.812-1.8438-5.1025-0.57099-9.8276-1.0981-13.344-1.5-1.7581-0.20097-3.2078-0.37773-4.25-0.5s-1.7889-0.19406-1.75-0.1875l-0.875-0.15625-1.5-0.28125,0.40625,1.4688,0.28125,1.0312c0.74184,2.838,2.0961,6.5343,3.5625,9.7812,0.43425,0.96154,0.80427,1.8559,1.0625,2.5,0.0271,0.0677,0.0381,0.0942,0.0625,0.15625-0.15911,0.0526-0.26653,0.0901-0.46875,0.15625-0.86558,0.2831-2.0906,0.66395-3.625,1.1562-3.0688,0.98459-7.2855,2.3491-11.906,3.8125-15.2,4.8139-17.036,5.0955-20.125,5.7188l-6.9688,1.4375h-0.0937l-0.0937,0.0312,0.0625,0.5-2.4688,0.65625,0.5-1.3125c0.22669-0.57781,0.3429-0.95053,0.40625-1.0625,0.0634-0.11197-0.0153-0.0593,0.28125-0.15625,0.59303-0.19396,2.4222-0.36872,6.4062-0.78125,2.3119-0.23938,3.6028-0.38179,4.5938-0.59375,0.99098-0.21196,1.6751-0.50767,2.5312-0.9375,6.5229-3.275,17.101-7.1153,24.625-8.9062l2.5312-0.59375,1.0312-0.25-0.34375-1-0.96875-2.8125c-1.7159-4.8728-3.463-13.061-4.1875-19.781-0.74677-6.9269-0.55711-13.492,0.375-18.625zm5.75,3.625,38.156,5.5938c-0.23252,6.4119-0.79699,12.183-2.4375,18.844l-36-3.9375c-1.0126-6.1359-0.79036-12.501,0.28125-20.5zm64.969,9.375,1.4062,1.8125c0.60325,0.77687,1.123,1.5452,1.4688,2.125,0.14771,0.24774,0.21276,0.44533,0.28125,0.59375-0.14547,0.20356-0.36154,0.48954-0.625,0.84375-0.54887,0.73793-1.3222,1.7751-2.2812,3.0312-1.9181,2.5123-4.5258,5.9077-7.375,9.5625-2.8534,3.6601-5.4581,7.0336-7.3438,9.5312-0.94281,1.2488-1.7155,2.2916-2.25,3.0312-0.26725,0.36982-0.47397,0.6493-0.625,0.875-0.0755,0.11285-0.13394,0.22079-0.1875,0.3125-0.0268,0.0459-0.0638,0.0917-0.0937,0.15625-0.0301,0.0645-0.0937,0.0589-0.0937,0.4375,0,0.40887,0.11238,0.58971,0.21875,0.84375s0.24601,0.51708,0.40625,0.8125c0.32047,0.59085,0.72585,1.2837,1.1562,1.9375,0.4304,0.65382,0.87054,1.2663,1.25,1.75,0.18973,0.24183,0.3616,0.45152,0.53125,0.625,0.0848,0.0867,0.16745,0.16555,0.28125,0.25,0.1138,0.0845,0.22036,0.25,0.6875,0.25,0.00057,0,0.11859-0.0252,0.15625-0.0312,0.0377-0.006,0.0707,0.006,0.0937,0,0.0464-0.0118,0.0706-0.0229,0.0937-0.0312,0.0464-0.0168,0.0711-0.0208,0.0937-0.0312,0.0454-0.0209,0.0602-0.0447,0.0937-0.0625,0.0671-0.0357,0.13983-0.0798,0.21875-0.125,0.15784-0.0903,0.34084-0.18925,0.5-0.28125l0.78125-0.46875-0.375-0.78125-1.0312-2.125v-0.0312l-1.125-2.25,9.9688-12.719,9.5625-12.25,4.125,5.375,4.2812,5.5625-11.594,8.125c-3.9713,2.7836-5.4978,3.8441-8.0625,5.625-0.0294,0.0204-0.0641,0.0419-0.0937,0.0625l1.0312,1.625c0.0303-0.0165,0.0634-0.046,0.0937-0.0625,1.8615-1.011,3.8659-2.0471,6.0938-3.125,4.2885-2.075,8.0335-4.3839,10.75-6.1875,1.3583-0.90181,2.472-1.695,3.25-2.25,0.30938-0.22069,0.51813-0.35692,0.71875-0.5,0.18895,0.18285,0.40787,0.37958,0.6875,0.6875,0.68635,0.75581,1.556,1.8103,2.4062,2.875,0.85023,1.0647,1.6814,2.1534,2.25,2.9688,0.1389,0.19921,0.20822,0.3077,0.3125,0.46875-0.39475,0.16315-0.85437,0.37764-1.4688,0.625-1.4342,0.57742-3.3771,1.3306-5.5,2.1562-1.8085,0.70332-3.6382,1.4105-5.4375,2.1562l0.3125,0.875c-11.702,4.8776-27.001,12.159-40.219,21.312-5.1415-1.8102-10.209-3.1421-15.5-3.5938l-0.0937-0.875c-0.40377-0.0343-0.81673-0.0649-1.25-0.0937-7.6867-0.51338-16.588,1.8333-24.812,6.5-0.46081,0.26148-0.48228,0.24374-0.78125,0.40625,0.0204-0.12106,0.0411-0.21845,0.0625-0.34375,0.13033-0.76316,0.21152-1.3945,0.0937-2.1875-0.11772-0.79302-0.37832-1.7198-0.84375-3.4062l-0.65625-2.4375,6.6562-0.125c9.9633-0.20737,16.575-0.93604,24.781-2.6875,1.4594-0.31146,2.2991-0.47213,2.9688-0.75,0.66966-0.27787,1.1196-0.70133,1.5625-1.1875,0.6975-0.76554,0.59324-0.68758,1.6562-0.8125,0.22648-0.0266,0.36122-0.0536,0.5-0.0625,0.55581,1.8768,0.94739,3.19,1.3438,4.5312l0.28125,0.9375,0.96875-0.3125,1.625-0.53125,0.875-0.28125-0.25-0.90625-1.5625-5.0625,5-4.9688c9.1662-9.1662,18.576-21.76,25.625-34.219l1.9688-3.5zm-4.6875,4.3125c-0.57905,0.98302-1.1716,1.9596-1.7812,2.9375-0.70188,1.1258-1.4228,2.2559-2.1562,3.375,0.74244-1.1375,1.4702-2.2756,2.1562-3.375,0.62463-1.001,1.214-1.9841,1.7812-2.9375zm9.8125,0.375,0.28125,0.34375-0.3125,0.40625-10.312,13.219c2.6761-3.4359,5.1786-6.6768,7-9.0625,0.96192-1.2599,1.7549-2.3128,2.3125-3.0625,0.27879-0.37482,0.49628-0.68171,0.65625-0.90625,0.08-0.11227,0.13456-0.20156,0.1875-0.28125,0.0529-0.0797,0.0831-0.0404,0.1875-0.3125,0.0666-0.17366,0.001-0.2313,0-0.34375zm-70.594,13.125c0.31286,0.0393,0.51442,0.0773,1.1875,0.15625,1.0456,0.12267,2.4908,0.26765,4.25,0.46875,3.5184,0.4022,8.2713,0.96012,13.375,1.5312,8.9853,1.0055,13.616,1.53,16,1.875l0.25,0.0312,0.21875-0.0937,2.5-1c-0.12227,1.5361-0.32978,3.2751-1.1562,5.625-1.098,3.1218-3.2102,7.1534-7.375,12.469-1.2206,1.5578-2.6478,3.2128-4.25,5-20.87,4.9906-36.691,3.2742-53.156,2.1875l-0.15625-1.0938-1.7188-0.125-0.375-0.0312-0.3125,0.25-1.375,1.1562h-0.0312c-0.16014,0.12977-0.2947,0.26535-0.46875,0.40625l0.5625,0.96875-1.875,1.5312-0.3125-0.84375c-0.098-0.28049-0.18322-0.3761-0.15625-0.3125,0.39301-0.16841,0.83067-0.39405,1-0.8125,0.17271-0.42681,0.12356-0.83744,0.0625-1.25l0.40625-1.1562-0.625,0.125c-0.0277-0.0642-0.0245-0.11935-0.0625-0.1875-0.19412-0.34808-0.76745-0.70524-1.1562-0.71875-0.34162-0.0119-0.47613,0.07-0.59375,0.0937-0.0434,0.009-0.17254,0.0525-0.21875,0.0625,0.006-0.11875,0.1595-0.27451,0.15625-0.375-0.002-0.0724-0.0225-0.14743-0.0312-0.21875l2.3438-0.46875c3.0584-0.61705,5.0901-0.96041,20.312-5.7812,4.6225-1.4639,8.8649-2.7954,11.938-3.7812,1.5363-0.4929,2.7841-0.90225,3.6562-1.1875,0.43608-0.14263,0.76089-0.26279,1-0.34375,0.11956-0.0405,0.20828-0.0676,0.28125-0.0937,0.0365-0.0131,0.0894-0.0171,0.125-0.0312,0.0178-0.007,0.0298-0.0161,0.0625-0.0312,0.0164-0.008,0.0275-0.0117,0.0625-0.0312,0.0175-0.01,0.0308-0.0101,0.0625-0.0312,0.0317-0.0214,0.15599-0.12474,0.15625-0.125,0.00052-0.00052,0.0896-0.12895,0.125-0.1875,0.0354-0.0585,0.0757-0.10877,0.0937-0.15625,0.036-0.095,0.055-0.16174,0.0625-0.21875,0.015-0.11402,0.004-0.19864,0-0.25-0.009-0.10272-0.0182-0.13341-0.0312-0.1875-0.0262-0.10819-0.0557-0.20064-0.0937-0.3125-0.0761-0.22371-0.20719-0.50312-0.34375-0.84375-0.27312-0.68127-0.64973-1.6106-1.0938-2.5938-1.3606-3.0128-2.5606-6.4218-3.2812-9.0625zm81.906,1.5625,0.28125,0.375c-0.13744-0.0441-0.27985-0.0955-0.5625,0-0.3395,0.11468-0.26239,0.13343-0.34375,0.1875-0.0814,0.0541-0.1677,0.10716-0.28125,0.1875-0.2271,0.16067-0.5527,0.38176-0.9375,0.65625-0.7696,0.54898-1.8538,1.302-3.1875,2.1875-0.18162,0.12059-0.52792,0.28132-0.71875,0.40625l5.5-3.8438,0.25-0.15625zm-31.812,0.9375c-1.2449,1.6565-2.4996,3.2816-3.7812,4.875,1.2323-1.5534,2.4949-3.17,3.7812-4.875zm38.938,10.031,0.0312,0.0625c-0.12644,0.042-0.21735,0.0433-0.375,0.0937,0.12988-0.0514,0.25195-0.11631,0.34375-0.15625zm0.96875,1.8125c0.0538,0.0457,0.0823,0.0552,0.15625,0.125,0.27832,0.26285,0.66689,0.6706,1.125,1.1875,0.91622,1.0338,2.1008,2.5045,3.3125,4.0938,1.2328,1.6169,2.4075,3.0558,3.3125,4.125,0.45251,0.53462,0.85313,0.99423,1.1562,1.3125,0.15156,0.15913,0.27801,0.26293,0.40625,0.375,0.0641,0.056,0.12784,0.12768,0.21875,0.1875,0.0909,0.0598,0.14724,0.1875,0.59375,0.1875,0.45993,0,0.66219-0.12165,0.96875-0.25s0.61839-0.30072,0.9375-0.5c0.0224-0.014,0.0391-0.0187,0.0625-0.0312,0.007,0.0857,0.0247,0.11977,0.0312,0.21875,0.0456,0.67537,0.091,1.6556,0.125,2.8438,0.068,2.3762,0.10345,5.6208,0.0937,9.125-0.0375,13.62-0.84243,20.557-3.2812,28.969-1.7456,6.0209-2.013,15.983-0.5625,21.719,0.55738,2.2041,1.7204,5.1665,2.9375,7.8438,0.60856,1.3386,1.2336,2.5915,1.8125,3.625,0.57885,1.0335,1.0507,1.8381,1.5938,2.375,0.55141,0.54509,1.2827,0.84568,2.3125,1.2812,1.0298,0.43557,2.3211,0.90755,3.75,1.375,2.8577,0.93489,6.2322,1.8402,9.0625,2.375,6.6747,1.2612,15.444,0.82452,21.469-1.0938,5.143-1.6374,7.3944-2.6993,12.062-5.7812,1.6074-1.0612,2.4937-1.5843,2.7812-1.6875,0.0251,0.0275-0.009-0.006,0.0625,0.0937,0.44101,0.61673,2.3288,3.0467,4.3125,5.5625,0.98505,1.2493,1.8573,2.4157,2.5,3.2812,0.31033,0.41797,0.54869,0.75341,0.71875,1-0.17941,0.20121-0.45711,0.49108-0.84375,0.8125-0.80245,0.6671-1.991,1.4947-3.3438,2.375-2.7056,1.7606-6.1277,3.7059-8.9375,4.9375-9.8411,4.3136-21.297,6.1408-32.406,5.1562-14.062-1.2462-24.947-5.7023-32.75-13.344-1.7355-1.6995-4.3114-3.7064-6.0312-4.625l-2.8125-1.5-0.5-0.28125-0.5,0.3125-5.2188,3.3438h-0.0312l-5.2188,3.3125-0.5,0.28125,0.0312,0.5625,0.17,4.28c0.0572,1.4668,0.0419,2.5583-0.0312,3.3125-0.0655,0.67614-0.19755,1.0233-0.25,1.125-0.0458,0.0274-0.17825,0.1167-0.40625,0.1875-0.3803,0.11768-0.95389,0.23004-1.6875,0.34375-1.4672,0.22743-3.5681,0.42605-6.1562,0.5625-5.1763,0.2729-12.34,0.34098-20.719,0.15625l-13.625-0.3125h-0.5l-0.28125,0.375-1.6562,2.0938c-0.78821,0.99519-1.3236,1.4484-1.8438,1.625-0.4804,0.16311-1.1912,0.0676-2.25-0.1875,0.1398-0.21322,0.2893-0.41021,0.53125-0.75,0.13903-0.19524,0.77163-0.80945,1.5625-1.375s1.7704-1.1319,2.6875-1.5938c0.93353-0.47011,1.7579-0.95976,2.4062-1.4062,0.32416-0.22324,0.61268-0.44746,0.84375-0.65625s0.43054-0.33449,0.59375-0.78125l0.3125-0.875-0.8438-0.34375c-0.32102-0.14021-0.51686-0.0949-0.8125-0.15625l1.3125-0.40625,0.25-0.0937,0.15625-0.15625c-0.007-0.00025,0.00065-0.0278,0.0312-0.0625,0.007-0.007,0.0229,0.009,0.0312,0,0.12973-0.13824,0.68567-0.38774,2.3438-0.625,1.5647-0.2239,5.7374-0.35521,10.156-0.3125,4.4188,0.0427,9.1757,0.24035,12.219,0.53125l4.4688,0.4375,1.125,0.0937-0.0625-1.125-0.375-7.3125v-0.0312l-0.34375-7.3438-0.0312-0.3125-0.15625-0.25-3.4062-4.4688c-6.1355-8.0814-11.455-20.028-13.062-29.406-0.65874-3.8431-0.80493-11.505-0.375-19.719l0.21875-4.5,2.875-1.9062c5.6002-3.7569,13.98-8.4219,23.406-12.969,4.4947-2.168,10.842-4.9576,16.219-7.1875,2.6882-1.1149,5.1422-2.0857,7-2.7812,0.92888-0.34779,1.7035-0.62712,2.2812-0.8125,0.45648-0.14646,0.6578-0.16335,0.71875-0.1875zm-56.719,7.3438-2.1875,2.2188-0.40625,0.40625,0.15625,0.5625,0.0625,0.15625c-0.10585-0.11328-0.14213-0.24728-0.28125-0.3125-0.38146-0.17883-0.66723-0.1719-1-0.15625-0.21854,0.0103-0.48836,0.0281-0.78125,0.0625-0.0473,0.006-0.0788,0.0249-0.125,0.0312,0.56368-0.6708,1.2113-1.3911,1.7188-2.0312,0.0266,0.0437-0.006,0.0821,0.0312,0.125,0.20179,0.23538,0.50063,0.33397,0.6875,0.34375,0.37375,0.0196,0.46616-0.0763,0.5625-0.125,0.19269-0.0974,0.29244-0.19843,0.4375-0.3125,0.29011-0.22814,0.67819-0.55264,1.125-0.96875zm-80.906,1.75c-0.73981,0.62168-0.96588,0.71405-1.7812,1.4062-1.1369,0.96513-1.715,1.4732-2,1.6875-0.11508,0.0865-0.15174,0.0904-0.15625,0.0937,0.005-0.001-0.45313,0.0162-0.6875,0.0312l0.5-0.125,0.21875-0.0625,0.15625-0.15625,1.0938-0.9375v0.0312c0.85449-0.71043,1.7976-1.2933,2.6562-1.9688zm3.4375,0.1875c-0.0435,0.12593-0.10151,0.23547-0.15625,0.375l-0.53125,1.375-1.9688,0.46875,2-1.7188c0.24171-0.2048,0.41783-0.29922,0.65625-0.5zm3.9375,3.625,0.1875,0.4375c-1.5149,0.47608-2.7252,0.80648-4.0938,1.25-0.0507,0.0164-0.10624,0.0152-0.15625,0.0312l0.46875,1.8438,0.15625-0.0312,7.7188-1.3438-0.125,0.53125-5.4688,2.3125-0.34375,0.125-0.15625,0.3125-1.4688,2.9375-2.5938,2.1875,1.625-5.7812,0.0625-0.15625-1.8125-0.65625-0.0625,0.15625-2.4688,5.1562-0.9375,0.65625,2.3125-8.0938,7.1562-1.875zm-10.438,1.6875c-0.21559,0.44288-0.41773,0.92682-0.625,1.1562-0.20678,0.22888-0.43225,0.52462-0.65625,0.875l-1.4,2.22,1.6875-0.53125-1.1562,2.8438-2.1875,2.2188-0.75-3.7812,1.2188-0.375,0.59375-0.15625,0.0937-0.625c0.0492-0.35132-0.14103-0.64492-0.28125-0.875l0.15625-0.15625-0.5-0.34375c-0.0858-0.0911-0.14442-0.17577-0.25-0.28125l-0.78125-0.78125-0.6875-0.6875-0.6875,0.6875-0.21875,0.21875-0.40625,0.4375,0.0625-1c0.0147-0.2074-0.0634-0.4453-0.15625-0.65625l1.0312-0.0625,5.7188-0.3125,0.1875-0.0312zm-11.219,0.625,0.0625,0c-0.0548,0.069-0.0963,0.11253-0.15625,0.1875-0.47035,0.58781-1.0924,1.3351-1.75,2.125-0.67112,0.80616-1.2498,1.5609-1.6875,2.1562-0.21887,0.29767-0.39604,0.56275-0.53125,0.78125-0.0676,0.10925-0.13184,0.22133-0.1875,0.34375-0.0278,0.0612-0.0663,0.10889-0.0937,0.21875-0.0275,0.10986-0.10324,0.2744,0.0312,0.625-0.0504-0.13135,0.0787,0.20564,0.15625,0.53125,0.0776,0.32561,0.16434,0.74364,0.25,1.1562,0.1697,0.81747,0.19795,1.0469,0.15625,1.1875-0.0105,0.0355-0.20956,0.27391-0.25,0.34375-0.0946-0.57241-0.17736-1.2148-0.28125-1.9062l-0.28125-1.875-0.4375-2.8438-1.375,2.5312-0.875,1.625-0.0312,0.0625-1.0312,1.5312-0.375-4.9688,4.75-2.8125-0.53125,1.0625-0.125,0.1875,1.5625,1.125c0.749-0.84371,1.6453-1.8471,2.1562-2.4062l0.875-0.96875zm2.9688,1.1875,1,0.65625,0.34375,0.25,0.625,0.40625-0.46875,0.53125-0.125,0.15625-2.375,2.5312,0.0312,0-0.3125,0.34375,0.0937,0.5,0.4375,2.2812-1.9375,3.5312-1.1875-5.5,3.875-5.6875zm24.969,0.625-2.0625,1.6875-0.0937-0.84375,1.3438-0.53125,0.8125-0.3125zm48.688,4.9688,0.125,0.78125c0.54732-0.0128,1.0275-0.0312,1.5625-0.0312,2.3474-0.00034,4.7623,0.10625,6,0.3125,2.2359,0.37323,6.4304,1.434,9.375,2.375l1.625,0.53125,0.375,1.375,0.46875,1.7188-0.3125,1.9062c-0.90483,5.5871-1.0008,11.046-0.21875,17.094,1.6715,12.927,7.2542,25.435,16.219,36.5v0.0312l0.84375,1,0.28125,5.75c0.00058,0.012-0.00058,0.0192,0,0.0312,0.0798,1.6523,0.1499,3.1841,0.1875,4.2812,0.0108,0.31588,0.0245,0.50908,0.0312,0.75-0.0617-0.005-0.0899,0.005-0.15625,0-0.72105-0.0579-1.6941-0.15873-2.7812-0.25-2.1877-0.18369-5.9008-0.44568-8.2812-0.59375-2.6915-0.16741-4.5718-0.29617-6.1562-0.4375l-0.15625,0.71875c-1.1748-0.0761-2.4988-0.14085-3.5312-0.34375-1.5789-0.31031-3.0514-1.1126-4.5938-2.5l0.3125-0.5625c-0.26547-0.2216-0.51474-0.44776-0.53125-0.46875-0.0931-0.11833-0.17911-0.21345-0.3125-0.34375s-0.35519-0.3167-0.65625-0.375c-0.55212-0.10692-0.79185,0.0778-1.0625,0.21875l-2.7812-0.96875,1.6875,1.9375c-0.18576,0.50313-0.13095,0.83022-0.0937,1.3438,0.0625,0.864-0.17594,1.9182-0.75,3.0938-0.0689,0.14102-0.0581,0.13673-0.1875,0.21875-0.12939,0.082-0.42547,0.23528-1,0.375-1.1491,0.27944-3.3079,0.57491-7.125,1.0625l-6.8125,0.875-0.3125,0.0625-0.21875,0.21875-0.75,0.71875h-0.0312l-0.46875,0.46875-3.0938-0.0312c-1.9052-0.002-5.8512-0.0601-8.75-0.15625-2.9424-0.0976-7.624-0.1281-10.438-0.0625l-5.0312,0.125-0.46875,0.0312-0.28125,0.375-1.5,2.0312c-0.40097,0.54319-0.77531,1.0363-1.0625,1.375-0.0653,0.077-0.10314,0.0967-0.15625,0.15625-0.14363-0.0172-0.16188-0.004-0.375-0.0312-0.44593-0.0561-1.0304-0.13633-1.6562-0.21875-0.39237-0.0517-0.70172-0.0753-1.0312-0.125,0.14678-0.23242,0.25623-0.45332,0.4375-0.71875h-0.0312l1.0625-1.5625,3.375-1.75c0.98089-0.51117,1.8835-0.98775,2.5312-1.3438,0.32389-0.178,0.5889-0.32496,0.78125-0.4375,0.0962-0.0563,0.17901-0.0789,0.25-0.125,0.0355-0.023,0.0421-0.0537,0.0937-0.0937,0.0258-0.02,0.0675-0.0351,0.125-0.0937,0.0287-0.0294,0.0715-0.0752,0.125-0.15625,0.0268-0.0405,0.0935-0.15576,0.0937-0.15625s0.0625-0.37461,0.0625-0.375c0.002-0.24785-0.046-0.25944-0.0625-0.3125-0.0165-0.0531-0.0164-0.0882-0.0312-0.125-0.0298-0.0737-0.0559-0.14139-0.0937-0.21875-0.0757-0.15473-0.19648-0.34096-0.3125-0.53125l-0.375-0.59375-0.0312-0.0625c3.6595-0.95745,6.9347-1.4116,12.625-1.4062,4.3622,0.004,6.4346,0.0828,11.344,0.5,1.6731,0.14222,3.2126,0.23777,4.3438,0.3125,0.56558,0.0374,1.0371,0.0802,1.375,0.0937,0.16897,0.007,0.28976,0.00061,0.40625,0,0.0582-0.00031,0.11667,0.006,0.1875,0,0.0354-0.003,0.0839-0.0161,0.15625-0.0312,0.0361-0.008,0.0839-0.004,0.15625-0.0312,0.0362-0.0137,0.0687-0.0307,0.125-0.0625s0.21825-0.15575,0.21875-0.15625c0.0006-0.0006,0.12508-0.16355,0.15625-0.21875,0.0312-0.0552,0.0491-0.0902,0.0625-0.125,0.0268-0.0696,0.0234-0.12135,0.0312-0.15625,0.0156-0.0698,0.0274-0.0882,0.0312-0.125,0.008-0.0736,0.0291-0.15047,0.0312-0.21875,0.005-0.13656,0.002-0.2937,0-0.5-0.003-0.4126-0.0419-0.98241-0.0625-1.6562-0.0411-1.3477-0.1064-3.126-0.1875-4.9062-0.0811-1.7803-0.16791-3.549-0.25-4.9062-0.041-0.67861-0.0903-1.2683-0.125-1.6875-0.0174-0.20961-0.0145-0.36151-0.0312-0.5-0.008-0.0693-0.0183-0.14975-0.0312-0.21875-0.006-0.0345-0.0154-0.0691-0.0312-0.125-0.0159-0.0559,0.009-0.0894-0.15625-0.3125-0.0937-0.12635-0.29069-0.35607-0.625-0.78125s-0.77637-0.99537-1.25-1.5938c-7.4308-9.3879-12.108-19.358-14.312-30.562-0.82259-4.1809-1.213-10.09-0.96875-13.969l0.0937-1.625,1.5-0.90625c0.26362-0.16111,0.59312-0.2984,0.9375-0.5l-0.28125-0.625c7.7354-4.4679,14.395-6.4127,20.562-6.6875zm20.688,3.875,0.125,0.0312,0.0312-0.0312-0.0312,0.53125-0.125-0.53125zm-11.344,68.281c1.9163,1.8064,3.8515,2.8395,5.7812,3.2188,0.42806,0.0841,0.85697,0.0732,1.2812,0.125-1.3769,0.0517-3.4666,0.0129-4.25,0.125-1.4863,0.21269-2.4213,0.47308-3.125,1l-1.875,0.5625c-0.0824-0.0792-0.16648-0.12708-0.28125-0.1875,0.2166-0.0861,0.50705-0.13561,0.6875-0.25,0.41953-0.26596,0.73967-0.65888,0.90625-1,0.59545-1.2194,0.86141-2.4313,0.875-3.5938zm-54.031,2.1562-0.25,0.15625-0.0937,0.0312,0.78125,1.7812c0.0363-0.0133,0.0601-0.0188,0.0937-0.0312,0.0137-0.005,0.018-0.0263,0.0312-0.0312,0.2748-0.10338,0.49502-0.1767,0.78125-0.28125,1.4685-0.53639,2.067-0.60795,3.2188-1-0.70365,0.37229-1.2025,0.66025-1.9688,1.0625l-2.5938,1.375-0.21875,0.0937-0.125,0.1875-1.125,1.5625-0.8125,1.125-2.375-0.0625c-0.57867-0.0224-1.0399-0.034-1.5-0.0625,0.20114-0.34813,0.3774-0.70862,0.59375-1.0625l1.7812-2.9062-3.0312,1.5312-1.625,0.8125-2.1562-0.46875,3.0625-2.8438,7.5312-0.96875zm66.844,0.96875c0.47056,0.0328,0.90261,0.0591,1.4375,0.0937-0.37376-0.005-0.66088-0.0278-1.0312-0.0312-0.17389-0.002-0.23371,0.001-0.40625,0v-0.0625zm16.156,0.6875,0,0.1875-0.15625,0c0.0369-0.041,0.11935-0.1465,0.15625-0.1875zm-38.25,3.0625-2.125,1.0938,0.53125,1.8438c0.34267-0.0366,0.68581-0.09,1.125-0.125,0.33941-0.027,0.72693-0.0571,1.125-0.0937l-0.5625,0.28125-0.21875,0.0937-0.125,0.1875-1.125,1.5625-0.84375,1.1875-1.0312-0.0312c-0.82048-0.0148-2.1442-0.0411-3-0.0625,0.11855-0.19264,0.21286-0.35278,0.34375-0.5625l0.3125-0.5,1.8438-2.9375-3.0938,1.5625-1.5625,0.78125-2.1562-0.46875,3.0625-2.8438,7.5-0.96875zm6.125,1.4688c0.0805,0.0103,0.11095,0.0229,0.1875,0.0312-0.08,0.0492-0.16532,0.106-0.25,0.15625,0.0177-0.0474,0.0624-0.18698,0.0625-0.1875zm-4.42,2.8c-0.39995,0.29192-0.62951,0.59402-0.9375,0.875l0.40625-0.59375,0.53125-0.28125z" transform="translate(129.45562,138.56415)" fill="none"/>
<rect stroke-linejoin="miter" fill-rule="evenodd" height="70.668" width="503.25" stroke="#000" stroke-linecap="butt" y="531.49" x="138.63" stroke-width="0.74404px" fill="#222"/>
<rect transform="translate(129.45562,138.56415)" height="67.175" width="249.85" y="394.93" x="260.92" fill="#FFF"/>
<path style="baseline-shift:baseline;block-progression:tb;color:#000000;direction:ltr;text-indent:0;text-align:start;enable-background:accumulate;text-transform:none;" d="m423.48,542.56c-13.781-0.11511-24.493,10.61-24.613,24.614-0.11812,13.791,10.639,24.626,24.47,24.741,9.3148,0.0778,17.009-4.6373,21.627-13.126l1.1988-2.2235c3.613,9.1647,12.464,15.644,22.87,15.731,13.567,0.11333,24.868-10.893,24.984-24.423,0.11671-13.628-11.003-24.818-24.561-24.931-10.451-0.0873-19.625,6.5263-23.295,15.723l-1.096-2.5258c-3.6196-8.3637-12.018-13.501-21.585-13.581zm158.45,1.3235c-13.781-0.11511-24.462,10.61-24.582,24.615-0.11812,13.791,10.608,24.626,24.439,24.741,8.5834,0.0717,15.678-4.0729,20.37-11.343,0.71972,2.8529,2.0606,5.3917,4.0353,7.3319,2.8132,2.764,6.7446,4.2717,11.109,4.3081,8.5892,0.0717,15.455-6.6093,15.529-15.253,0.0386-4.5113-1.7886-8.7716-5.2112-11.4l-0.031-0.00026c-1.9661-1.4868-4.1537-2.5033-8.5044-3.8774l-0.0311-0.00026c-3.6337-1.1324-4.2937-1.4599-4.9808-2.0549-0.009-0.008-0.0216-0.0237-0.0308-0.0317-0.40029-0.41677-0.91818-1.5407-0.90895-2.6186,0.0236-2.7587,1.5632-4.3596,4.2594-4.337,1.4248,0.0119,2.374,0.47913,3.0941,1.2212,0.7201,0.74211,1.278,1.8617,1.3668,3.5347l0.13124,2.8008,2.7629,0.0231,4.3151,0.0361,2.9802,0.0249-0.036-3.0517c-0.0656-4.0737-1.5388-7.7391-4.1339-10.321-2.5951-2.5821-6.2379-4.0158-10.273-4.0495-7.5413-0.063-13.567,5.4053-14.359,12.683-3.7597-7.9989-11.981-12.903-21.311-12.981zm-86.836,0.0296-0.0253,2.9568-0.35937,41.961,0.0234,2.9633,2.8694,0.0179,4.1599,0.0347,2.9181,0.0244,0.0253-2.9568,0.19424-22.679,9.699,23.894,0.72942,1.8306,1.9558,0.0163,3.57,0.0298,1.9558,0.0163,0.76067-1.8182,10.17-23.791-0.19477,22.742-0.0253,2.9568,2.9181,0.0244,4.1599,0.0348,2.9181,0.0244,0.0253-2.9568,0.35938-41.961,0.0253-2.9568-2.9181-0.0244-6.4571-0.0539-1.9247-0.0161-0.79145,1.7865-12.575,29.213-12.104-29.42-0.76074-1.7994-1.9247-0.0161-6.4571-0.0539-2.9181-0.0244zm51.533,0.43045-0.0253,2.9568-0.35938,41.961,0.0323,2.9856,2.8915-0.004,4.1288,0.0345,2.9492,0.0246,0.0253-2.9568,0.35937-41.961,0.0253-2.9568-2.9492-0.0246-4.1288-0.0345zm-123.07,8.0003c3.0677,0.0256,5.8507,0.86604,8.0514,2.3951l0.0308,0.0317,0.0308,0.0317c1.5114,0.99266,2.1505,1.7082,3.5976,4.0566l0.85737,1.3913,1.6143,0.0135,4.6255,0.0386,3.2596,0.0272c-0.69076,2.1841-1.1869,4.4612-1.2073,6.8477-0.0217,2.5362,0.43929,4.9356,1.1177,7.2446l-3.1044-0.0259-4.5945-0.0384-1.5279-0.004-0.77901,1.1174c-1.7153,2.1488-2.5061,2.9927-3.6655,3.8701l-0.0313,0.0312c-2.1629,1.7144-5.3548,2.7865-8.4682,2.7604-7.961-0.0665-14.502-6.8209-14.432-15.031,0.0737-8.6063,6.2712-14.827,14.625-14.757zm45.821,0.38274c8.0151,0.067,14.657,6.908,14.587,15.096-0.069,8.055-6.8152,14.76-14.842,14.693-8.157-0.0681-14.719-6.8279-14.648-15.159,0.0676-7.8985,6.9536-14.696,14.903-14.629zm112.66,0.94103c3.0677,0.0256,5.8197,0.86577,8.0204,2.3949l0.0308,0.0317,0.0308,0.0317c1.5114,0.99267,2.1815,1.7085,3.6287,4.0569l0.82633,1.391,1.6143,0.0135,4.6566,0.0389,2.6077,0.0218c0.52411,2.379,1.5993,4.599,3.3302,6.2879,0.01,0.01,0.0211,0.0221,0.0308,0.0317,0.93839,0.92863,2.0586,1.7515,3.4254,2.4194,1.374,0.6714,2.9934,1.2308,5.416,1.9956,0.0123,0.004,0.0187-0.004,0.031,0.00026,3.0917,1.0029,4.5539,1.7416,5.5053,2.4368l0.031,0.00025c1.0119,0.72748,1.5676,1.8351,1.5525,3.5991-0.029,3.3838-2.0259,5.3623-5.2925,5.335-1.7617-0.0147-3.4767-0.90282-4.3599-2.0497-0.84806-1.0826-1.0693-1.6262-1.3009-3.9745l-0.25676-2.6446-2.6387-0.022-4.4082-0.0368-0.006,0.72347-3.6321-0.0303-4.5945-0.0384-1.6816-0.0119-0.62537,1.1252c-1.7153,2.1488-2.475,2.993-3.6345,3.8704l-0.0313,0.0312-0.0311-0.00026c-2.1629,1.7144-5.3548,2.7864-8.4682,2.7604-7.961-0.0665-14.471-6.8207-14.401-15.031,0.0737-8.6063,6.2712-14.827,14.625-14.757z" fill-rule="nonzero" fill="#222"/>
<path style="baseline-shift:baseline;block-progression:tb;color:#000000;direction:ltr;text-indent:0;text-align:start;enable-background:accumulate;text-transform:none;" d="m154.59,544.23-0.0264,3.0868-0.33333,39.026-0.0266,3.1183,3.0382,0.0254,3.8442,0.0322,3.0692,0.0257,0.0266-3.1183,0.11649-13.639,11.214,15.592,0.88829,1.2674,1.5501,0.013,4.7743,0.04,6.0764,0.0509-3.6157-5.0073-7.9367-10.934c2.0995-0.75749,4.0087-1.7684,5.4848-3.2931,2.5433-2.627,3.8363-6.3043,3.871-10.363,0.0494-5.7777-2.6055-10.833-7.2641-13.448-3.0892-1.7399-6.9224-2.326-12.195-2.3702l-9.5176-0.0797-3.0382-0.0254zm9.8685,9.8162,2.3561,0.0197c3.8465,0.0322,6.0755,0.48302,7.5238,1.197,1.4775,0.75175,2.2772,1.9983,2.2546,4.6494-0.015,1.7514-0.40032,2.8506-0.92972,3.5832-0.52519,0.72678-1.2596,1.2728-2.6494,1.6473-0.0111,0.003-0.0198-0.003-0.031-0.00026-1.3842,0.34639-3.639,0.53652-7.7863,0.50179l-0.83705-0.007,0.099-11.591z" fill-rule="nonzero" fill="#FFF"/>
<path style="baseline-shift:baseline;block-progression:tb;color:#000000;direction:ltr;text-indent:0;text-align:start;enable-background:accumulate;text-transform:none;" d="m212.29,544.61-2.011-0.001-0.77468,1.8618-16.516,39.192-1.7788,4.2953,4.5605,0.0308,4.053,0.003,2.011,0.001,0.80562-1.8618,4.8029-11.328,13.923,0.009,4.7264,11.334,0.80322,1.8628,2.011,0.001,4.2077,0.003,4.6099,0.003-1.8226-4.3254-16.496-39.213-0.80322-1.8628-2.011-0.001zm2.1558,15.499,2.811,6.9458-5.7547-0.004,2.9437-6.9422z" fill-rule="nonzero" fill="#FFF"/>
<path style="baseline-shift:baseline;block-progression:tb;color:#000000;direction:ltr;text-indent:0;text-align:start;enable-background:accumulate;text-transform:none;" d="m270.65,544.88,0.0164,3.1164,0.20487,38.971-0.007,3.0625,3.0631,0.007,9.5236-0.049c5.3726-0.0276,9.0074-0.68531,12.054-2.5489l0.0308-0.0316c3.7999-2.4003,5.7338-6.9206,5.7083-11.771-0.0148-2.8094-0.65115-5.4352-2.1185-7.6073-0.67144-0.99392-1.5456-1.8175-2.4953-2.5685,1.4759-2.1112,2.3331-4.6887,2.3183-7.5042-0.0218-4.1499-1.5971-7.9966-4.7075-10.301l-0.0312-0.0313c-2.88-2.0648-6.5516-2.831-11.524-2.8054l-8.9963,0.0463-3.0401,0.0156zm9.978,9.676,1.5821-0.008c3.7637-0.0194,5.2353,0.41053,5.8365,0.81994l0.031-0.00016,0.00017,0.0315c0.0275,0.018,0.87503,1.2185,0.88267,2.6713,0.01,1.8814-0.43033,2.4294-1.1643,2.7762-1.1396,0.52939-2.1556,0.73513-5.487,0.75226l-1.6442,0.008-0.0371-7.0513zm0.0882,16.778,1.5511-0.008c4.3826-0.0225,6.1948,0.35444,7.0772,0.78209,1.2219,0.62611,1.8697,1.5865,1.8813,3.7994,0.009,1.76-0.85373,3.0045-1.3169,3.2492l-0.0309,0.0316-0.031,0.00016c-1.0616,0.59199-3.199,1.0868-6.8812,1.1057l-2.2025,0.0113-0.0472-8.9716z" fill-rule="nonzero" fill="#FFF"/>
<path fill-rule="nonzero" style="baseline-shift:baseline;block-progression:tb;color:#000000;direction:ltr;text-indent:0;text-align:start;enable-background:accumulate;text-transform:none;" fill="#FFF" d="m323.81,544.27c-11.191,1.2999-19.402,12.893-17.914,25.639,1.5337,13.135,12.026,22.67,23.4,21.349,11.268-1.3088,19.334-12.977,17.829-25.867-1.5154-12.978-12.056-22.429-23.315-21.122zm1.1871,10.167c6.2597-0.72709,12.205,4.7457,13.061,12.076,0.84107,7.2031-3.6779,13.85-9.9486,14.579-6.3796,0.74102-12.254-4.667-13.126-12.136-0.82318-7.0498,3.809-13.798,10.014-14.519z"/>
<path style="baseline-shift:baseline;block-progression:tb;color:#000000;direction:ltr;text-indent:0;text-align:start;enable-background:accumulate;text-transform:none;" d="m349.23,546.11,0.0678,3.0939,0.0782,3.5675,0.0679,3.0939,3.0608-0.0665,5.7507-0.12491,0.71449,32.581,0.0612,3.0748,3.0366-0.0467,3.8338-0.0833,3.0608-0.0665-0.0679-3.0939-0.71449-32.581,5.7198-0.12424,3.0608-0.0665-0.0679-3.094-0.0782-3.5675-0.0678-3.094-3.0608,0.0665-21.395,0.46474-3.0608,0.0665z" fill-rule="nonzero" fill="#FFF"/>
<path style="baseline-shift:baseline;block-progression:tb;color:#000000;direction:ltr;text-indent:0;text-align:start;enable-background:accumulate;text-transform:none;" d="m236.3,544.59,0.0678,3.094,0.0782,3.5675,0.0678,3.094,3.0299-0.0658,5.7507-0.12491,0.7138,32.55,0.0768,3.0904,3.0216-0.0307,3.8647-0.0839,3.0299-0.0658-0.0685-3.1255-0.7138-32.55,5.7507-0.12492,3.0299-0.0658-0.0678-3.094-0.0782-3.5675-0.0679-3.094-3.0299,0.0658-21.426,0.46541-3.0299,0.0658z" fill-rule="nonzero" fill="#FFF"/>
</g>
</svg>
