<?xml version="1.0" encoding="UTF-8"?>
<svg width="50" height="50" version="1.1" viewBox="0 0 13.229 13.229" xmlns="http://www.w3.org/2000/svg"><path d="m1.3516 13.211c-0.0537-0.01384-0.19788-0.04015-0.32052-0.05845-0.28975-0.04324-0.44454-0.11088-0.51724-0.22602-0.0485-0.07682-0.0556-0.12186-0.0439-0.27788 0.0109-0.14435 5e-3 -0.19401-0.0278-0.22094-0.0873-0.07249-0.11628-0.19128-0.15029-0.61699-0.0716-0.89624-0.0181-1.4331 0.3053-3.0618 0.0925-0.46604 0.21919-1.1412 0.28147-1.5005 0.10391-0.59936 0.2039-1.1009 0.31989-1.6045 0.0247-0.10731 0.11453-0.4334 0.19958-0.72466 0.085-0.29126 0.19171-0.66125 0.23703-0.82221 0.14934-0.53047 0.2463-0.78081 0.42854-1.1065 0.22084-0.39466 0.33547-0.55305 0.521-0.71985 0.16077-0.14455 0.16031-0.0936 4e-3 -0.45912-0.0625-0.14633-0.0776-0.22404-0.0785-0.40414-2e-3 -0.32994 0.0589-0.49254 0.30411-0.81813 0.37387-0.49631 0.53061-0.58868 0.9996-0.58911 0.27527-2.53e-4 0.35669 0.01349 0.90582 0.15286 0.68848 0.17474 1.1342 0.23786 1.8162 0.25723 0.44701 0.01269 0.48269 0.0094 1.2398-0.11594 0.42873-0.07096 0.85218-0.14784 0.941-0.17086 0.20475-0.05306 0.62797-0.02832 0.77472 0.04528 0.17571 0.08812 0.44891 0.40726 0.53755 0.62793 0.0696 0.17317 0.0791 0.23229 0.0784 0.48752-4e-4 0.162-0.0183 0.3557-0.0406 0.438l-0.0398 0.14756 0.0868 0.04486c0.2647 0.13677 0.64344 0.41638 0.75287 0.5558 0.16551 0.21088 0.43645 0.76422 0.58492 1.1946 0.0688 0.19928 0.19365 0.55224 0.27754 0.78435 0.3447 0.95368 0.57019 1.7281 0.72923 2.5045 0.23925 1.1679 0.34579 1.8299 0.47772 2.9683 0.0458 0.39558 0.0375 1.0475-0.0207 1.6305-0.0324 0.32372-0.0344 0.46767-0.01 0.69152 0.0348 0.31567-0.0669 0.40901-0.53479 0.49085-0.48045 0.08404-0.65783 0.0954-0.76843 0.04919-0.11847-0.0495-0.20767-0.1589-0.24618-0.30191-0.0215-0.07999-0.058-0.12646-0.13973-0.17805-0.12808-0.08086-0.22367-0.22155-0.42054-0.61902-0.0778-0.15701-0.15118-0.27944-0.16313-0.27206-0.0119 0.0074-0.0299 0.05709-0.0399 0.11046-0.0205 0.10939-0.13021 0.25418-0.21231 0.28023-0.0453 0.01438-0.0545 0.04292-0.0545 0.16902 0 0.19548-0.0822 0.37145-0.23735 0.508-0.13739 0.12094-0.32889 0.18896-0.64364 0.22862-0.12096 0.01524-0.37671 0.05217-0.56832 0.08207-0.37976 0.05925-0.94264 0.11523-1.8582 0.18481-1.0482 0.07966-3.0432-0.0205-3.4708-0.17426-0.0737-0.02649-0.16416-0.08016-0.20111-0.11927-0.0586-0.06198-0.18319-0.37349-0.18363-0.45894-5.3e-4 -0.11864-0.0654-0.23093-0.17017-0.29501-0.14528-0.08885-0.19044-0.18195-0.30421-0.62711-0.0509-0.19928-0.0967-0.36756-0.10168-0.37394-0.0217-0.02773-0.0471 0.04785-0.18801 0.55844-0.20578 0.74584-0.26912 0.95146-0.30806 1-0.0184 0.023-0.0495 0.11614-0.069 0.20699-0.0816 0.37979-0.1953 0.52244-0.42625 0.53486-0.0806 0.0043-0.19043-0.0034-0.24409-0.0173zm0.2618-0.35056c9e-3 -0.02424 0.0169-0.07441 0.0169-0.11148 0-0.06505-7e-3 -0.06741-0.20207-0.06783-0.11114-2.37e-4 -0.27732-0.0186-0.3693-0.04081-0.23591-0.05696-0.26477-0.05436-0.26477 0.0239 0 0.09846 0.0426 0.11937 0.34839 0.1711 0.15329 0.02593 0.28394 0.05211 0.29033 0.05818 0.032 0.03039 0.16554 0.0059 0.1805-0.03305zm5.8978-0.27248c0.87853-0.07686 1.098-0.10265 1.3239-0.15559 0.12264-0.02873 0.32331-0.06664 0.44595-0.08424 0.35073-0.05033 0.50151-0.10164 0.58288-0.19834 0.0396-0.04712 0.0721-0.11664 0.0721-0.15448 0-0.06402-7e-3 -0.06759-0.10451-0.0514-0.0575 0.0096-0.20542 0.04166-0.32874 0.07131s-0.41805 0.07897-0.65497 0.1096c-0.75334 0.0974-1.2558 0.16652-1.6571 0.22796-0.57617 0.0882-1.56 0.06989-2.6617-0.04954-0.47068-0.05102-0.5243-0.05987-0.77592-0.12802-0.1125-0.03047-0.21171-0.04824-0.22047-0.03949-0.0281 0.02809 0.0477 0.23288 0.0926 0.25009 0.11866 0.04553 0.44567 0.10626 0.69478 0.12902 0.15329 0.014 0.47311 0.04452 0.71072 0.06781 0.2376 0.02329 0.49472 0.04718 0.57136 0.05309 0.28755 0.02216 1.4392-0.0067 1.9092-0.04778zm4.6615-0.21146c0.37702-0.06221 0.39387-0.06884 0.3558-0.13998-0.0254-0.04739-0.0375-0.04845-0.15367-0.01349-0.0694 0.02088-0.24828 0.05802-0.39758 0.08254-0.35003 0.0575-0.35606 0.05961-0.31396 0.11034 0.02 0.02414 0.0632 0.03515 0.10766 0.02746 0.0408-0.0071 0.22161-0.03716 0.40175-0.06688zm-10.346-1.0467c0.11677-0.42922 0.25115-0.91209 0.29862-1.073 0.21022-0.7128 0.29934-1.1333 0.44299-2.0904l0.10668-0.71072v-1.9974c0-1.0986-0.01-2.007-0.0212-2.0186-0.0555-0.05546-0.16156 0.19598-0.3422 0.81088-0.0675 0.22994-0.18051 0.61247-0.25104 0.85008-0.17255 0.58132-0.25127 0.91317-0.51571 2.174-0.65198 3.1085-0.66098 3.1642-0.67058 4.1493-5e-3 0.50775-5.3e-4 0.57065 0.0416 0.59423 0.0865 0.04842 0.39166 0.1029 0.546 0.09748l0.15255-0.0054zm5.1126 0.45946c0.092-0.01538 0.39926-0.05877 0.68285-0.09643 0.28359-0.03765 0.74765-0.09961 1.0312-0.13768 0.48978-0.06575 1.2656-0.23968 1.3225-0.29652 0.0339-0.03379 0.0951-1.0754 0.0973-1.654 1e-3 -0.38241-0.0118-0.52297-0.0963-1.0261-0.11217-0.66798-0.21906-1.5776-0.26624-2.2655-0.052-0.75874 8e-3 -2.6814 0.10354-3.3224 0.0546-0.36606 0.0528-0.3705-0.18007-0.44517-0.1273-0.04081-0.24644-0.05054-0.6045-0.04934-0.42393 0.0014-0.45832 0.0057-0.69678 0.08774-0.23183 0.07972-0.75659 0.29574-0.78331 0.32246-0.0157 0.01569-0.0419 0.89321-0.0481 1.6122-5e-3 0.54471-9e-3 0.58966-0.059 0.62624-0.0789 0.0577-0.17571 0.04862-0.21239-0.01991-0.0226-0.0422-0.0289-0.3432-0.0219-1.0429 5e-3 -0.54097 4e-3 -0.98988-4e-3 -0.99757-8e-3 -0.0077-0.13937 0.01634-0.2926 0.05342-0.35815 0.08666-0.58641 0.08641-0.91053-9.78e-4l-0.0745-0.02009-9e-3 1.0128c-0.01 1.0878-0.0164 1.1382-0.14882 1.1382-0.14019 0-0.14747-0.04641-0.17916-1.1427-0.0162-0.55952-0.0373-1.0589-0.0469-1.1098-0.0143-0.0759-0.0655-0.12955-0.28518-0.29894-0.32785-0.2528-0.54426-0.36229-0.79535-0.4024-0.27842-0.04448-0.56797 0.0083-1.0204 0.18601-0.26433 0.10382-0.34321 0.16624-0.32377 0.25618 0.0323 0.14925 0.0982 0.81352 0.12896 1.2993 0.0175 0.27593 0.034 1.1476 0.0366 1.9371l5e-3 1.4354-0.10593 0.7074c-0.0583 0.38907-0.0993 0.74025-0.0912 0.7804 8e-3 0.04015 0.0213 0.29249 0.0294 0.56075 0.025 0.82723 0.0566 1.1063 0.18667 1.6444 0.0463 0.19162 0.0874 0.35181 0.0913 0.35599 4e-3 0.0042 0.17512 0.04986 0.38044 0.10153 0.36898 0.09284 0.88544 0.1602 1.5996 0.20865 0.49016 0.03325 1.3681 0.03456 1.5608 0.0023zm-1.4924-0.81154c-0.49282-0.03319-1.0344-0.11905-1.1249-0.17834-0.12404-0.08127-0.1496-0.17043-0.18476-0.6445-0.0399-0.53724-0.013-0.67819 0.16938-0.8889 0.24988-0.28871 0.33651-0.57491 0.35393-1.1693 0.0112-0.38349 0.0211-0.46051 0.0708-0.54997 0.10602-0.19118 0.30875-0.28348 0.91199-0.4152 0.26739-0.05838 0.36242-0.06392 1.1009-0.06412 0.77699-2.37e-4 0.82175 0.0027 1.1567 0.07585 0.56944 0.12432 0.63906 0.21758 0.64038 0.8578 1e-3 0.4936 0.11031 0.76582 0.40658 1.0127 0.19511 0.16258 0.24169 0.29244 0.25726 0.7171 7e-3 0.19365 4e-3 0.4485-7e-3 0.56634-0.017 0.18089-0.0327 0.22859-0.10093 0.30634-0.1206 0.13736-0.29823 0.1987-0.68049 0.23501-0.74541 0.07079-0.97428 0.08961-1.5726 0.12927-0.67481 0.04474-0.85994 0.04604-1.397 0.0099zm1.7572-0.48538c1.0898-0.08218 1.4528-0.12702 1.5588-0.19257 0.0369-0.0228 0.0393-0.62357 3e-3 -0.77952-0.0182-0.07853-0.0616-0.14034-0.15366-0.21906-0.16802-0.14362-0.3443-0.40629-0.41431-0.61733-0.0426-0.12859-0.0599-0.27579-0.0721-0.61473-0.0189-0.52366 0.0183-0.47607-0.4482-0.57351-0.27168-0.05674-0.34409-0.05998-1.0172-0.04556-0.69776 0.01496-0.73706 0.01879-1.0591 0.10315-0.34492 0.09036-0.571 0.17514-0.57185 0.21444-2.6e-4 0.01236-4e-3 0.21687-9e-3 0.45448-8e-3 0.38156-0.0176 0.45741-0.0833 0.64956-0.0915 0.26734-0.15411 0.39199-0.27865 0.55515-0.16641 0.21801-0.16727 0.22164-0.14632 0.6185 0.0105 0.19968 0.0309 0.3703 0.0452 0.37915 0.0327 0.0202 0.58792 0.08445 0.97465 0.11278 0.35399 0.02593 0.94195 0.01013 1.6723-0.04494zm4.7034 1.21c0.23333-0.04348 0.33871-0.07653 0.39279-0.12318l0.0739-0.06375-3e-3 -0.56664c-4e-3 -0.8533-0.15469-2.0192-0.45966-3.5628-0.17913-0.90667-0.2317-1.1011-0.56523-2.0904-0.44512-1.3202-0.58508-1.7048-0.73036-2.0065-0.1051-0.21831-0.13218-0.25598-0.15488-0.21542-0.0484 0.08644-0.0928 2.694-0.0551 3.2393 0.11324 1.641 0.45285 3.5773 0.82652 4.7125 0.18813 0.5715 0.25826 0.73635 0.31324 0.73635 0.0235 0 0.18624-0.02674 0.36163-0.05943zm-4.6392-10.209c0.15626-0.19782 0.34368-0.42684 0.4165-0.50895 0.13884-0.15656 0.16536-0.218 0.0836-0.19368-0.294 0.08743-0.67536 0.16042-0.98371 0.18827-0.36993 0.03341-0.63048 0.01915-1.4202-0.07774l-0.12543-0.01539 0.43913 0.44177c0.24488 0.24636 0.52715 0.56301 0.63813 0.71584l0.199 0.27406 0.23442-0.23226c0.12893-0.12774 0.36228-0.39411 0.51854-0.59193zm0.86487 0.41751c0.26742-0.10594 0.52892-0.15248 0.97634-0.17374l0.3865-0.01837 0.0385-0.09223c0.0226-0.05415 0.0385-0.19081 0.0385-0.33096 0-0.19718-0.0117-0.26161-0.0671-0.37019-0.14349-0.2812-0.29768-0.35093-0.60302-0.27271-0.2869 0.0735-0.47094 0.21622-0.8111 0.62899-0.29432 0.35714-0.60916 0.75643-0.60916 0.77256 0 0.0096 0.0202 0.03975 0.045 0.0671 0.0429 0.04743 0.0535 0.04547 0.22994-0.04262 0.10172-0.05079 0.2707-0.12631 0.37551-0.16783zm-2.5457 0.20648c0.0802-0.05268-0.93961-0.98622-1.4719-1.3474-0.38369-0.26038-0.49861-0.2381-0.80374 0.1558-0.23028 0.29728-0.25726 0.46477-0.12269 0.76157 0.0721 0.15899 0.0902 0.17971 0.14633 0.16756 0.70616-0.15278 0.9178-0.17238 1.2462-0.11544 0.26982 0.0468 0.61233 0.18715 0.81072 0.33221 0.10871 0.07949 0.13452 0.08554 0.1951 0.04573z" stroke-width=".027872"/></svg>
