<?xml version="1.0" encoding="UTF-8" standalone="no"?>
<svg
   xmlns:dc="http://purl.org/dc/elements/1.1/"
   xmlns:cc="http://creativecommons.org/ns#"
   xmlns:rdf="http://www.w3.org/1999/02/22-rdf-syntax-ns#"
   xmlns:svg="http://www.w3.org/2000/svg"
   xmlns="http://www.w3.org/2000/svg"
   xmlns:sodipodi="http://sodipodi.sourceforge.net/DTD/sodipodi-0.dtd"
   xmlns:inkscape="http://www.inkscape.org/namespaces/inkscape"
   width="50"
   height="50"
   viewBox="0 0 13.229166 13.229167"
   version="1.1"
   id="svg8"
   inkscape:version="1.0.2 (e86c8708, 2021-01-15)"
   sodipodi:docname="icon_store.svg">
  <defs
     id="defs2" />
  <sodipodi:namedview
     id="base"
     pagecolor="#ffffff"
     bordercolor="#666666"
     borderopacity="1.0"
     inkscape:pageopacity="0.0"
     inkscape:pageshadow="2"
     inkscape:zoom="3.959798"
     inkscape:cx="32.80272"
     inkscape:cy="49.088421"
     inkscape:document-units="mm"
     inkscape:current-layer="layer1"
     inkscape:document-rotation="0"
     showgrid="false"
     units="px"
     inkscape:window-width="1420"
     inkscape:window-height="1027"
     inkscape:window-x="0"
     inkscape:window-y="25"
     inkscape:window-maximized="0" />
  <metadata
     id="metadata5">
    <rdf:RDF>
      <cc:Work
         rdf:about="">
        <dc:format>image/svg+xml</dc:format>
        <dc:type
           rdf:resource="http://purl.org/dc/dcmitype/StillImage" />
        <dc:title />
      </cc:Work>
    </rdf:RDF>
  </metadata>
  <g
     inkscape:label="Layer 1"
     inkscape:groupmode="layer"
     id="layer1">
    <path
       style="fill:#000000;stroke-width:0.0278715"
       d="m 1.3515706,13.210669 c -0.0537,-0.01384 -0.19788,-0.04015 -0.32052,-0.05845 -0.28974999,-0.04324 -0.44453999,-0.110879 -0.51723999,-0.22602 -0.0485,-0.07682 -0.0556,-0.121864 -0.0439,-0.277883 0.0109,-0.144351 0.005,-0.194007 -0.0278,-0.220941 -0.0873,-0.07249 -0.11628,-0.191278 -0.15029,-0.616991 -0.0716,-0.896235 -0.0181,-1.433149 0.3053,-3.0617588 0.0925,-0.466041 0.21919,-1.141249 0.28147,-1.500463 0.10391,-0.599364 0.20389999,-1.100888 0.31988999,-1.604467 0.0247,-0.107306 0.11453,-0.433401 0.19958,-0.724656 0.085,-0.291257 0.19171,-0.66125 0.23703,-0.822207 0.14934,-0.530474 0.2463,-0.780809 0.42854,-1.106484 0.22084,-0.394664 0.33547,-0.553047 0.521,-0.719851 0.16077,-0.144548 0.16031,-0.0936 0.004,-0.45912 -0.0625,-0.14633 -0.0776,-0.224036 -0.0785,-0.404135 -0.002,-0.329941 0.0589,-0.49254396 0.30411,-0.81812796 C 3.1881106,0.09280422 3.3448506,4.3121998e-4 3.8138406,9.2199822e-6 4.0891106,-2.4378002e-4 4.1705306,0.01349922 4.7196606,0.15287322 c 0.68848,0.17474 1.13417,0.237864 1.81615,0.257228 0.44701,0.01269 0.48269,0.0094 1.23976,-0.115943 0.42873,-0.07096 0.85218,-0.147842 0.941,-0.170857 0.20475,-0.05306 0.62797,-0.02832 0.77472,0.04528 0.17571,0.08812 0.44891,0.40726202 0.5375504,0.62792602 0.0696,0.173173 0.0791,0.23228896 0.0784,0.48751696 -4e-4,0.162003 -0.0183,0.355701 -0.0406,0.438003 l -0.0398,0.147555 0.0868,0.04486 c 0.2647,0.136773 0.64344,0.416378 0.75287,0.555805 0.16551,0.210875 0.43645,0.764225 0.58492,1.194578 0.0688,0.199281 0.19365,0.552238 0.27754,0.784351 0.3447,0.953683 0.57019,1.72811 0.72923,2.504474 0.23925,1.167905 0.34579,1.829889 0.47772,2.9683042 0.0458,0.3955826 0.0375,1.0474856 -0.0207,1.6304766 -0.0324,0.323721 -0.0344,0.467672 -0.01,0.691515 0.0348,0.315666 -0.0669,0.409012 -0.53479,0.490854 -0.48045,0.08404 -0.65783,0.0954 -0.76843,0.04919 -0.11847,-0.0495 -0.20767,-0.158899 -0.24618,-0.301906 -0.0215,-0.07999 -0.058,-0.126461 -0.13973,-0.178048 -0.12808,-0.08086 -0.22367,-0.221551 -0.42054,-0.619017 -0.0778,-0.157014 -0.15118,-0.279439 -0.16313,-0.272055 -0.0119,0.0074 -0.0299,0.05709 -0.0399,0.110463 -0.0205,0.10939 -0.13021,0.254175 -0.21231,0.280231 -0.0453,0.01438 -0.0545,0.04292 -0.0545,0.169022 0,0.195485 -0.0822,0.371449 -0.23735,0.508005 -0.1373904,0.12094 -0.3288904,0.188958 -0.6436404,0.228619 -0.12096,0.01524 -0.37671,0.05217 -0.56832,0.08207 -0.37976,0.05925 -0.94264,0.115229 -1.85825,0.184809 -1.04823,0.07966 -3.04321,-0.0205 -3.4708,-0.174265 -0.0737,-0.02649 -0.16416,-0.08016 -0.20111,-0.119267 -0.0586,-0.06198 -0.18319,-0.373489 -0.18363,-0.458943 -5.3e-4,-0.118641 -0.0654,-0.230926 -0.17017,-0.295014 -0.14528,-0.08885 -0.19044,-0.181948 -0.30421,-0.627106 -0.0509,-0.199281 -0.0967,-0.367555 -0.10168,-0.373942 -0.0217,-0.02773 -0.0471,0.04785 -0.18801,0.558437 -0.20578,0.745844 -0.26912,0.951464 -0.30806,1.000039 -0.0184,0.023 -0.0495,0.116139 -0.069,0.20699 -0.0816,0.379792 -0.1953,0.522442 -0.42625,0.534857 -0.0806,0.0043 -0.19043,-0.0034 -0.24409,-0.0173 z m 0.2618,-0.350565 c 0.009,-0.02424 0.0169,-0.07441 0.0169,-0.111485 0,-0.06505 -0.007,-0.06741 -0.20207,-0.06783 -0.11114,-2.37e-4 -0.27732,-0.0186 -0.3693,-0.04081 -0.23590999,-0.05696 -0.26476999,-0.05436 -0.26476999,0.0239 0,0.09846 0.0426,0.119372 0.34838999,0.171096 0.15329,0.02593 0.28394,0.05211 0.29033,0.05818 0.032,0.03039 0.16554,0.0059 0.1805,-0.03305 z m 5.89778,-0.272483 c 0.87853,-0.07686 1.09795,-0.102652 1.32389,-0.15559 0.12264,-0.02873 0.32331,-0.06664 0.44595,-0.08424 0.35073,-0.05033 0.50151,-0.101637 0.58288,-0.198343 0.0396,-0.04712 0.0721,-0.116638 0.0721,-0.154479 0,-0.06402 -0.007,-0.06759 -0.10451,-0.0514 -0.0575,0.0096 -0.20542,0.04166 -0.32874,0.07131 -0.12332,0.02965 -0.41805,0.07897 -0.65497,0.109604 -0.75334,0.0974 -1.25575,0.166518 -1.65711,0.227959 -0.57617,0.0882 -1.55999,0.06989 -2.66172,-0.04954 -0.47068,-0.05102 -0.5243,-0.05987 -0.77592,-0.128021 -0.1125,-0.03047 -0.21171,-0.04824 -0.22047,-0.03949 -0.0281,0.02809 0.0477,0.23288 0.0926,0.250091 0.11866,0.04553 0.44567,0.106259 0.69478,0.12902 0.15329,0.014 0.47311,0.04452 0.71072,0.06781 0.2376,0.02329 0.49472,0.04718 0.57136,0.05309 0.28755,0.02216 1.43922,-0.0067 1.90919,-0.04778 z m 4.6615404,-0.211456 c 0.37702,-0.06221 0.39387,-0.06884 0.3558,-0.139975 -0.0254,-0.04739 -0.0375,-0.04845 -0.15367,-0.01349 -0.0694,0.02088 -0.24828,0.05802 -0.39758,0.08254 -0.35003,0.0575 -0.35606,0.05961 -0.31396,0.11034 0.02,0.02414 0.0632,0.03515 0.10766,0.02746 0.0408,-0.0071 0.22161,-0.03716 0.40175,-0.06688 z M 1.8271806,11.329458 c 0.11677,-0.42922 0.25115,-0.912092 0.29862,-1.073049 0.21022,-0.7127976 0.29934,-1.1333138 0.44299,-2.0903548 l 0.10668,-0.710721 v -1.99745 c 0,-1.098597 -0.01,-2.006986 -0.0212,-2.018641 -0.0555,-0.05546 -0.16156,0.195978 -0.3422,0.810881 -0.0675,0.229939 -0.18051,0.612474 -0.25104,0.850077 -0.17255,0.58132 -0.25127,0.913169 -0.51571,2.173969 -0.65197999,3.1085208 -0.66097999,3.1642158 -0.67057999,4.1493368 -0.005,0.507752 -5.3e-4,0.570652 0.0416,0.594227 0.0865,0.04842 0.39165999,0.102895 0.54599999,0.09748 l 0.15255,-0.0054 z m 5.11261,0.459458 c 0.092,-0.01538 0.39926,-0.05877 0.68285,-0.09643 0.28359,-0.03765 0.74765,-0.09961 1.03124,-0.137678 0.48978,-0.06575 1.26558,-0.239685 1.32253,-0.296515 0.0339,-0.03379 0.0951,-1.075428 0.0973,-1.6540276 0.001,-0.3824132 -0.0118,-0.5229662 -0.0963,-1.0261442 -0.11217,-0.667984 -0.21906,-1.577599 -0.26624,-2.265517 -0.052,-0.758738 0.008,-2.681385 0.10354,-3.32238 0.0546,-0.366055 0.0528,-0.370504 -0.18007,-0.445169 -0.1273,-0.04081 -0.24644,-0.05054 -0.6045,-0.04934 -0.42393,0.0014 -0.45832,0.0057 -0.69678,0.08774 -0.23183,0.07972 -0.75659,0.295742 -0.78331,0.32246 -0.0157,0.01569 -0.0419,0.893213 -0.0481,1.612243 -0.005,0.544714 -0.009,0.589656 -0.059,0.626241 -0.0789,0.0577 -0.17571,0.04862 -0.21239,-0.01991 -0.0226,-0.0422 -0.0289,-0.343205 -0.0219,-1.042904 0.005,-0.540968 0.004,-0.989875 -0.004,-0.997572 -0.008,-0.0077 -0.13937,0.01634 -0.2926,0.05342 -0.35815,0.08666 -0.58641,0.08641 -0.91053,-9.78e-4 l -0.0745,-0.02009 -0.009,1.012819 c -0.01,1.087789 -0.0164,1.13824 -0.14882,1.13824 -0.14019,0 -0.14747,-0.04641 -0.17916,-1.142727 -0.0162,-0.559518 -0.0373,-1.058931 -0.0469,-1.109807 -0.0143,-0.0759 -0.0655,-0.129553 -0.28518,-0.29894 -0.32785,-0.252801 -0.54426,-0.362291 -0.79535,-0.402403 -0.27842,-0.04448 -0.56797,0.0083 -1.02038,0.186009 -0.26433,0.103823 -0.34321,0.166243 -0.32377,0.256182 0.0323,0.149248 0.0982,0.81352 0.12896,1.29928 0.0175,0.275927 0.034,1.147605 0.0366,1.937062 l 0.005,1.435378 -0.10593,0.707398 c -0.0583,0.389069 -0.0993,0.740249 -0.0912,0.780399 0.008,0.04015 0.0213,0.292488 0.0294,0.56075 0.025,0.8272258 0.0566,1.1062948 0.18667,1.6444118 0.0463,0.191617 0.0874,0.351812 0.0913,0.355992 0.004,0.0042 0.17512,0.04986 0.38044,0.101526 0.36898,0.09284 0.88544,0.160204 1.59965,0.208652 0.49016,0.03325 1.36807,0.03456 1.5608,0.0023 z m -1.49245,-0.811538 c -0.49282,-0.03319 -1.03438,-0.119048 -1.12486,-0.178336 -0.12404,-0.08127 -0.1496,-0.170431 -0.18476,-0.644503 -0.0399,-0.5372356 -0.013,-0.6781868 0.16938,-0.8889008 0.24988,-0.28871 0.33651,-0.574914 0.35393,-1.169263 0.0112,-0.383494 0.0211,-0.460509 0.0708,-0.54997 0.10602,-0.191184 0.30875,-0.283478 0.91199,-0.415195 0.26739,-0.05838 0.36242,-0.06392 1.10092,-0.06412 0.77699,-2.37e-4 0.82175,0.0027 1.15666,0.07585 0.56944,0.124325 0.63906,0.217579 0.64038,0.857799 0.001,0.493597 0.11031,0.765816 0.40658,1.012709 0.19511,0.162585 0.24169,0.292445 0.25726,0.7171042 0.007,0.193649 0.004,0.4485026 -0.007,0.5663416 -0.017,0.180892 -0.0327,0.228593 -0.10093,0.306338 -0.1206,0.137359 -0.29823,0.198702 -0.68049,0.235007 -0.74541,0.07079 -0.97428,0.08961 -1.57258,0.129271 -0.67481,0.04474 -0.85994,0.04604 -1.39705,0.0099 z m 1.75723,-0.485379 c 1.08978,-0.08218 1.45277,-0.12702 1.55883,-0.19257 0.0369,-0.0228 0.0393,-0.6235706 0.003,-0.7795226 -0.0182,-0.07853 -0.0616,-0.1403352 -0.15366,-0.2190562 -0.16802,-0.143617 -0.3443,-0.406289 -0.41431,-0.617329 -0.0426,-0.128589 -0.0599,-0.275787 -0.0721,-0.614727 -0.0189,-0.523655 0.0183,-0.476069 -0.4482,-0.573511 -0.27168,-0.05674 -0.34409,-0.05998 -1.01716,-0.04556 -0.69776,0.01496 -0.73706,0.01879 -1.05911,0.103152 -0.34492,0.09036 -0.571,0.175139 -0.57185,0.214442 -2.6e-4,0.01236 -0.004,0.216873 -0.009,0.454477 -0.008,0.381559 -0.0176,0.457412 -0.0833,0.649563 -0.0915,0.267337 -0.15411,0.391989 -0.27865,0.555152 -0.16641,0.2180052 -0.16727,0.2216362 -0.14632,0.6185038 0.0105,0.199685 0.0309,0.370301 0.0452,0.379147 0.0327,0.0202 0.58792,0.08445 0.97465,0.112776 0.35399,0.02593 0.94195,0.01013 1.67228,-0.04494 z m 4.7034304,1.210038 c 0.23333,-0.04348 0.33871,-0.07653 0.39279,-0.123178 l 0.0739,-0.06375 -0.003,-0.566638 c -0.004,-0.853304 -0.15469,-2.0192368 -0.45966,-3.5628148 -0.17913,-0.906671 -0.2317,-1.101064 -0.56523,-2.090355 -0.44512,-1.320225 -0.58508,-1.704763 -0.73036,-2.006542 -0.1051,-0.218312 -0.13218,-0.255984 -0.15488,-0.215425 -0.0484,0.08644 -0.0928,2.694032 -0.0551,3.239273 0.11324,1.641 0.45285,3.5773472 0.82652,4.7125078 0.18813,0.571498 0.25826,0.73635 0.31324,0.73635 0.0235,0 0.18624,-0.02674 0.36163,-0.05943 z M 7.2688506,1.4935132 c 0.15626,-0.197818 0.34368,-0.426844 0.4165,-0.50894796 0.13884,-0.156556 0.16536,-0.217995 0.0836,-0.193683 -0.294,0.08743 -0.67536,0.16042 -0.98371,0.18827 -0.36993,0.03341 -0.63048,0.01915 -1.42019,-0.07774 l -0.12543,-0.01539 0.43913,0.44177396 c 0.24488,0.246358 0.52715,0.563006 0.63813,0.71584 l 0.199,0.274065 0.23442,-0.232258 c 0.12893,-0.127742 0.36228,-0.394109 0.51854,-0.591928 z m 0.86487,0.417514 c 0.26742,-0.105945 0.52892,-0.15248 0.97634,-0.173743 l 0.3865,-0.01837 0.0385,-0.09223 c 0.0226,-0.05415 0.0385,-0.190812 0.0385,-0.330961 0,-0.197181 -0.0117,-0.261607 -0.0671,-0.37019096 -0.14349,-0.281198 -0.29768,-0.35093 -0.60302,-0.272706 -0.2869,0.0735 -0.47094,0.216221 -0.8111,0.62899296 -0.29432,0.357145 -0.60916,0.756434 -0.60916,0.772564 0,0.0096 0.0202,0.03975 0.045,0.0671 0.0429,0.04743 0.0535,0.04547 0.22994,-0.04262 0.10172,-0.05079 0.2707,-0.12631 0.37551,-0.167833 z m -2.54569,0.206476 c 0.0802,-0.05268 -0.93961,-0.986225 -1.47187,-1.34743196 -0.38369,-0.260376 -0.49861,-0.238098 -0.80374,0.155799 -0.23028,0.29727796 -0.25726,0.46476596 -0.12269,0.76156696 0.0721,0.158991 0.0902,0.179709 0.14633,0.167562 0.70616,-0.152778 0.9178,-0.172384 1.24615,-0.115437 0.26982,0.0468 0.61233,0.187146 0.81072,0.332208 0.10871,0.07949 0.13452,0.08554 0.1951,0.04573 z"
       id="path853"
       sodipodi:nodetypes="sssscssssssssscscsssssscscssssssssssssssssssssssssssssssssssssssssscssssssssssssssscsssssssssscscsssscscsssssssssssssssssssscsssssssssscsssssssssssssssscssssssssssssssssssscsssssssssscsssssssssssssscsscsssscssssssssssssscsss" />
  </g>
</svg>
