<?xml version="1.0" encoding="UTF-8" standalone="no"?>
<svg xmlns:sketch="http://www.bohemiancoding.com/sketch/ns" xmlns:rdf="http://www.w3.org/1999/02/22-rdf-syntax-ns#" xmlns="http://www.w3.org/2000/svg" height="50px" width="50px" version="1.1" xmlns:cc="http://creativecommons.org/ns#" viewBox="0 0 50 50" xmlns:dc="http://purl.org/dc/elements/1.1/">
<metadata>
<rdf:RDF>
<cc:Work rdf:about="">
<dc:format>image/svg+xml</dc:format>
<dc:type rdf:resource="http://purl.org/dc/dcmitype/StillImage"/>
<dc:title>Twitter</dc:title>
</cc:Work>
</rdf:RDF>
</metadata>
<title>Twitter</title>
<description>Created with Sketch (http://www.bohemiancoding.com/sketch)</description>
<g fill-rule="evenodd" sketch:type="MSPage" stroke="none" stroke-width="1" fill="#222">
<g fill="#222" sketch:type="MSArtboardGroup">
<path sketch:type="MSShapeGroup" fill="#222" d="M25,50c13.807,0,25-11.193,25-25s-11.193-25-25-25-25,11.193-25,25,11.193,25,25,25zm0-3c12.15,0,22-9.85,22-22s-9.85-22-22-22-22,9.85-22,22,9.85,22,22,22zm-0.318-26.446l0.048,0.822-0.795-0.101c-2.893-0.385-5.42-1.693-7.566-3.891l-1.05-1.09-0.27,0.805c-0.572,1.795-0.207,3.69,0.986,4.965,0.636,0.704,0.492,0.805-0.604,0.385-0.382-0.134-0.716-0.234-0.747-0.184-0.112,0.117,0.27,1.644,0.572,2.247,0.413,0.839,1.256,1.661,2.178,2.147l0.778,0.386-0.921,0.017c-0.891,0-0.922,0.016-0.827,0.369,0.318,1.09,1.574,2.247,2.973,2.75l0.985,0.352-0.858,0.537c-1.272,0.772-2.766,1.208-4.261,1.241-0.715,0.017-1.303,0.084-1.303,0.134,0,0.168,1.939,1.107,3.068,1.476,3.386,1.09,7.408,0.621,10.428-1.241,2.146-1.325,4.292-3.958,5.293-6.507,0.541-1.359,1.081-3.841,1.081-5.032,0-0.771,0.048-0.872,0.938-1.794,0.525-0.537,1.018-1.124,1.113-1.292,0.159-0.318,0.143-0.318-0.668-0.033-1.351,0.503-1.542,0.436-0.874-0.319,0.493-0.537,1.081-1.509,1.081-1.794,0-0.051-0.239,0.033-0.509,0.184-0.286,0.168-0.922,0.419-1.399,0.57l-0.858,0.285-0.779-0.553c-0.429-0.302-1.033-0.637-1.351-0.738-0.811-0.235-2.051-0.201-2.782,0.067-1.987,0.755-3.243,2.7-3.1,4.83z"/>
</g>
</g>
</svg>
