<?xml version="1.0" encoding="UTF-8" standalone="no"?>
<!-- Created with Inkscape (http://www.inkscape.org/) -->

<svg
   xmlns:dc="http://purl.org/dc/elements/1.1/"
   xmlns:cc="http://creativecommons.org/ns#"
   xmlns:rdf="http://www.w3.org/1999/02/22-rdf-syntax-ns#"
   xmlns:svg="http://www.w3.org/2000/svg"
   xmlns="http://www.w3.org/2000/svg"
   xmlns:sodipodi="http://sodipodi.sourceforge.net/DTD/sodipodi-0.dtd"
   xmlns:inkscape="http://www.inkscape.org/namespaces/inkscape"
   width="200"
   height="200"
   viewBox="0 0 200 200"
   id="svg4801"
   version="1.1"
   inkscape:version="0.91 r13725"
   sodipodi:docname="unpublished.svg">
  <defs
     id="defs4803" />
  <sodipodi:namedview
     id="base"
     pagecolor="#ffffff"
     bordercolor="#666666"
     borderopacity="1.0"
     inkscape:pageopacity="0.0"
     inkscape:pageshadow="2"
     inkscape:zoom="1.979899"
     inkscape:cx="105.59888"
     inkscape:cy="139.98128"
     inkscape:document-units="px"
     inkscape:current-layer="layer1"
     showgrid="false"
     units="px"
     inkscape:snap-bbox="true"
     inkscape:snap-bbox-edge-midpoints="true"
     inkscape:object-nodes="true"
     inkscape:snap-midpoints="false"
     inkscape:snap-smooth-nodes="true"
     inkscape:snap-intersection-paths="false"
     inkscape:object-paths="false"
     inkscape:window-width="1920"
     inkscape:window-height="1056"
     inkscape:window-x="0"
     inkscape:window-y="24"
     inkscape:window-maximized="1" />
  <metadata
     id="metadata4806">
    <rdf:RDF>
      <cc:Work
         rdf:about="">
        <dc:format>image/svg+xml</dc:format>
        <dc:type
           rdf:resource="http://purl.org/dc/dcmitype/StillImage" />
        <dc:title></dc:title>
      </cc:Work>
    </rdf:RDF>
  </metadata>
  <g
     inkscape:label="Layer 1"
     inkscape:groupmode="layer"
     id="layer1"
     transform="translate(0,-852.36216)">
    <g
       id="g5477"
       transform="matrix(1.518124,0,0,1.518124,-25.922752,-488.83246)">
      <path
         id="rect5349"
         transform="translate(0,852.36216)"
         d="m 39.642578,37.5 a 3.75,7.5 0 0 0 -3.75,7.5 l 0,103.92773 a 3.75,7.5 0 0 0 3.75,7.5 l 90.357422,0 a 3.75,7.5 0 0 1 -3.75,-7.5 3.75,7.5 0 0 1 3.75,-7.5 L 130,37.5 l -90.357422,0 z"
         style="color:#000000;clip-rule:nonzero;display:inline;overflow:visible;visibility:visible;opacity:1;isolation:auto;mix-blend-mode:normal;color-interpolation:sRGB;color-interpolation-filters:linearRGB;solid-color:#000000;solid-opacity:1;fill:#3b576a;fill-opacity:1;fill-rule:nonzero;stroke:none;stroke-width:4;stroke-linecap:round;stroke-linejoin:round;stroke-miterlimit:4;stroke-dasharray:none;stroke-dashoffset:0;stroke-opacity:1;color-rendering:auto;image-rendering:auto;shape-rendering:auto;text-rendering:auto;enable-background:accumulate"
         inkscape:connector-curvature="0" />
      <path
         inkscape:connector-curvature="0"
         id="rect5406"
         d="m 39.746094,994.79102 c -3.945487,2.31461 -3.954533,10.59018 -0.06641,12.99808 28.889414,-0.1438 58.841581,0.2871 87.068366,-0.2149 -2.05392,-3.8895 -2.0581,-8.95471 0.13867,-12.78514 -29.046611,0.001 -58.095373,-0.003 -87.14063,0.002 z"
         style="color:#000000;clip-rule:nonzero;display:inline;overflow:visible;visibility:visible;opacity:1;isolation:auto;mix-blend-mode:normal;color-interpolation:sRGB;color-interpolation-filters:linearRGB;solid-color:#000000;solid-opacity:1;fill:#b0c5d3;fill-opacity:1;fill-rule:nonzero;stroke:none;stroke-width:4;stroke-linecap:round;stroke-linejoin:round;stroke-miterlimit:4;stroke-dasharray:none;stroke-dashoffset:0;stroke-opacity:1;color-rendering:auto;image-rendering:auto;shape-rendering:auto;text-rendering:auto;enable-background:accumulate" />
      <g
         transform="matrix(5.9684211,0,0,5.9684211,-320.33165,-4608.6385)"
         id="text5470"
         style="color:#000000;font-style:normal;font-variant:normal;font-weight:normal;font-stretch:normal;font-size:20px;line-height:125%;font-family:sans-serif;text-indent:0;text-align:start;text-decoration:none;text-decoration-line:none;text-decoration-style:solid;text-decoration-color:#000000;letter-spacing:0px;word-spacing:0px;text-transform:none;direction:ltr;block-progression:tb;writing-mode:lr-tb;baseline-shift:baseline;text-anchor:start;white-space:normal;clip-rule:nonzero;display:inline;overflow:visible;visibility:visible;opacity:1;isolation:auto;mix-blend-mode:normal;color-interpolation:sRGB;color-interpolation-filters:linearRGB;solid-color:#000000;solid-opacity:1;fill:#b0c5d3;fill-opacity:1;fill-rule:nonzero;stroke:none;stroke-width:1px;stroke-linecap:butt;stroke-linejoin:miter;stroke-miterlimit:4;stroke-dasharray:none;stroke-dashoffset:0;stroke-opacity:1;color-rendering:auto;image-rendering:auto;shape-rendering:auto;text-rendering:auto;enable-background:accumulate">
        <path
           style="fill:#b0c5d3;fill-opacity:1"
           inkscape:connector-curvature="0"
           id="path5475"
           d="m 66.496933,934.88171 1.982422,0 0,2.48047 -1.982422,0 0,-2.48047 z m 1.923828,-1.43554 -1.865234,0 0,-1.50391 q 0,-0.98633 0.273437,-1.62109 0.273438,-0.63477 1.152344,-1.47461 l 0.878906,-0.86914 q 0.556641,-0.51758 0.800781,-0.97657 0.253907,-0.45898 0.253907,-0.9375 0,-0.86914 -0.644532,-1.40625 -0.634765,-0.5371 -1.689453,-0.5371 -0.771484,0 -1.65039,0.34179 -0.869141,0.3418 -1.816407,0.9961 l 0,-1.83594 q 0.917969,-0.55664 1.855469,-0.83008 0.947266,-0.27344 1.953125,-0.27344 1.796875,0 2.88086,0.94727 1.09375,0.94726 1.09375,2.5 0,0.74219 -0.351563,1.41601 -0.351562,0.66407 -1.230469,1.50391 l -0.859375,0.83984 q -0.458984,0.45899 -0.654297,0.72266 -0.185546,0.25391 -0.263671,0.49805 -0.05859,0.20508 -0.08789,0.49804 -0.0293,0.29297 -0.0293,0.80079 l 0,1.20117 z" />
      </g>
    </g>
  </g>
</svg>
