<?xml version="1.0" encoding="UTF-8" standalone="no"?>
<!-- Created with Inkscape (http://www.inkscape.org/) -->
<svg xmlns:rdf="http://www.w3.org/1999/02/22-rdf-syntax-ns#" xmlns="http://www.w3.org/2000/svg" height="280" width="200" version="1.1" xmlns:cc="http://creativecommons.org/ns#" xmlns:dc="http://purl.org/dc/elements/1.1/">
<defs>
<filter id="filter3821">
<feGaussianBlur stdDeviation="1.652394"/>
</filter>
</defs>
<metadata>
<rdf:RDF>
<cc:Work rdf:about="">
<dc:format>image/svg+xml</dc:format>
<dc:type rdf:resource="http://purl.org/dc/dcmitype/StillImage"/>
<dc:title/>
</cc:Work>
</rdf:RDF>
</metadata>
<g transform="translate(0,-772.36218)">
<path opacity="0.75" d="m8.3189,825.59,46.274,0c22.221,0,46.274,6.2488,46.274,18,0-11.995,23.24-18,46.274-18h46.274v127.38h-46.274c-17.766,0-46.274,5.7559-46.274,18,0.17331-12.239-27.662-18-46.274-18h-46.274z" filter="url(#filter3821)" fill="#000"/>
<path d="m8.3189,51.23,46.274,0c22.221,0,46.274,6.2488,46.274,18,0-11.995,23.24-18,46.274-18h46.274v127.38h-46.274c-17.766,0-46.274,5.7559-46.274,18,0.17331-12.239-27.662-18-46.274-18h-46.274z" transform="translate(0,772.36218)" stroke="#222" fill="#FFF"/>
<path d="m10.319,821.59,46.274,0c22.221,0,44.274,6.2488,44.274,18,0-11.995,21.24-18,44.274-18h46.274v127.38h-46.274c-17.766,0-44.274,5.7559-44.274,18,0.17331-12.239-25.662-18-44.274-18h-46.274z" stroke="#222" fill="#FFF"/>
<path d="m12.319,819.59,46.274,0c22.221,0,42.274,6.2488,42.274,18,0-11.995,19.24-18,42.274-18h46.274v127.38h-46.274c-17.766,0-42.274,5.7559-42.274,18,0.17331-12.239-23.662-18-42.274-18h-46.274z" stroke="#222" fill="#FFF"/>
<path stroke-linejoin="miter" d="m100.92,65.424,0.0459,122.89" stroke-dashoffset="0" transform="translate(0,772.36218)" stroke="#848484" stroke-linecap="butt" stroke-miterlimit="4" stroke-dasharray="1, 1" stroke-width="1" fill="none"/>
<g style="letter-spacing:0px;word-spacing:0px;" font-weight="normal" fill-opacity="0.94117647" transform="matrix(0.88712204,0.46153493,-0.46153493,0.88712204,0,0)" line-height="125%" font-size="119.63439178px" font-style="normal" font-family="Sans" fill="#66666f">
<path d="m530.44,678.22c-3.0574,0.2776-6.0664,0.96989-9.0514,1.6731-3.1796,0.81504-6.2829,1.9793-9.1668,3.5488-1.2395,0.62979-2.2542,1.8098-2.3036,3.2501-0.27067,2.2458-0.13932,4.5204-0.29072,6.7733-0.0572,1.1445,1.4495,1.406,2.1888,0.787,3.6947-2.1223,7.5805-3.9536,11.655-5.2198,2.1627-0.63724,4.381-1.0968,6.6413-1.1554,2.1348-0.12949,4.3539-0.0403,6.3681,0.73273,2.174,0.95023,3.642,3.1271,4.1468,5.3914,0.6521,2.7578,0.0872,5.6658-1.179,8.165-1.3636,3.1106-3.3574,5.8838-5.2751,8.6682-1.8327,2.5067-3.9739,4.7597-6.0558,7.0547-2.2594,2.6712-4.1974,5.7453-5.0039,9.1811-1.0578,4.7443-1.2132,9.6426-0.90916,14.481-0.0537,1.2041,1.3942,1.8124,2.4136,1.5342,1.0359-0.23942,2.399-0.2656,2.9233-1.361,0.43637-1.6861,0.47096-3.4595,0.69503-5.1863,0.37169-3.7706,0.50844-7.709,2.2324-11.164,1.0054-1.9168,2.4084-3.5764,3.9399-5.0917,2.5765-2.7842,5.0865-5.6437,7.2302-8.7801,2.4085-3.6012,4.7724-7.2417,6.9059-11.012,1.3928-2.8536,1.8267-6.0972,1.5169-9.24-0.0742-1.5742-0.33019-3.155-0.82493-4.6489-0.63125-1.8414-1.7474-3.5273-3.2031-4.8188-2.6713-2.236-6.215-3.0607-9.6196-3.297-1.9842-0.16784-3.9827-0.31987-5.9741-0.26555zm-6.1875,87.562c1.8125,0.80208,3.6016,0.15111,5.4141,0.95319-0.40625-5-0.78914-8.5469-1.1954-13.547-1.9062-0.20833-3.8125-0.41667-5.7188-0.625,0.5,4.4062,1,8.8125,1.5,13.219z"/>
</g>
</g>
</svg>
