<?xml version="1.0" encoding="UTF-8" standalone="no"?>
<svg xmlns:rdf="http://www.w3.org/1999/02/22-rdf-syntax-ns#" xmlns="http://www.w3.org/2000/svg" height="200" width="200" version="1.1" xmlns:cc="http://creativecommons.org/ns#" xmlns:dc="http://purl.org/dc/elements/1.1/" viewBox="0 0 200 200">
 <metadata>
  <rdf:RDF>
   <cc:Work rdf:about="">
    <dc:format>image/svg+xml</dc:format>
    <dc:type rdf:resource="http://purl.org/dc/dcmitype/StillImage"/>
    <dc:title/>
   </cc:Work>
  </rdf:RDF>
 </metadata>
 <g transform="translate(0 -852.36)">
  <g transform="matrix(1.5181 0 0 1.5181 -25.923 -488.83)">
   <path style="color-rendering:auto;color:#000000;isolation:auto;mix-blend-mode:normal;shape-rendering:auto;solid-color:#000000;image-rendering:auto" d="m39.643 37.5a3.75 7.5 0 0 0 -3.75 7.5v103.93a3.75 7.5 0 0 0 3.75 7.5h90.357a3.75 7.5 0 0 1 -3.75 -7.5 3.75 7.5 0 0 1 3.75 -7.5v-103.93h-90.357z" transform="translate(0 852.36)" fill="#3b576a"/>
   <path style="color-rendering:auto;color:#000000;isolation:auto;mix-blend-mode:normal;shape-rendering:auto;solid-color:#000000;image-rendering:auto" d="m39.746 994.79c-3.9455 2.3146-3.9545 10.59-0.06641 12.998 28.889-0.1438 58.842 0.2871 87.068-0.2149-2.0539-3.8895-2.0581-8.9547 0.13867-12.785-29.047 0.001-58.095-0.003-87.141 0.002z" fill="#b0c5d3"/>
   <g style="color-rendering:auto;text-decoration-color:#000000;color:#000000;isolation:auto;mix-blend-mode:normal;shape-rendering:auto;solid-color:#000000;block-progression:tb;text-decoration-line:none;text-decoration-style:solid;image-rendering:auto;white-space:normal;text-indent:0;text-transform:none" transform="matrix(5.9684 0 0 5.9684 -320.33 -4608.6)" fill="#b0c5d3">
    <path d="m66.497 934.88h1.9824v2.4805h-1.9824v-2.4805zm1.9238-1.4355h-1.8652v-1.5039q0-0.98633 0.27344-1.6211t1.1523-1.4746l0.87891-0.86914q0.55664-0.51758 0.80078-0.97657 0.25391-0.45898 0.25391-0.9375 0-0.86914-0.64453-1.4062-0.63476-0.5371-1.6895-0.5371-0.77148 0-1.6504 0.34179-0.86914 0.3418-1.8164 0.9961v-1.8359q0.91797-0.55664 1.8555-0.83008 0.94727-0.27344 1.9531-0.27344 1.7969 0 2.8809 0.94727 1.0938 0.94726 1.0938 2.5 0 0.74219-0.35156 1.416-0.35156 0.66407-1.2305 1.5039l-0.85938 0.83984q-0.45898 0.45899-0.6543 0.72266-0.18555 0.25391-0.26367 0.49805-0.05859 0.20508-0.08789 0.49804-0.0293 0.29297-0.0293 0.80079v1.2012z" fill="#b0c5d3"/>
   </g>
  </g>
 </g>
</svg>
