<?xml version="1.0" encoding="UTF-8" standalone="no"?>
<!-- Created with Inkscape (http://www.inkscape.org/) -->

<svg
   xmlns:dc="http://purl.org/dc/elements/1.1/"
   xmlns:cc="http://creativecommons.org/ns#"
   xmlns:rdf="http://www.w3.org/1999/02/22-rdf-syntax-ns#"
   xmlns:svg="http://www.w3.org/2000/svg"
   xmlns="http://www.w3.org/2000/svg"
   xmlns:sodipodi="http://sodipodi.sourceforge.net/DTD/sodipodi-0.dtd"
   xmlns:inkscape="http://www.inkscape.org/namespaces/inkscape"
   width="200"
   height="280"
   id="svg2996"
   version="1.1"
   inkscape:version="0.48.4 r9939"
   sodipodi:docname="unpublished.svg">
  <defs
     id="defs2998">
    <filter
       inkscape:collect="always"
       id="filter3821">
      <feGaussianBlur
         inkscape:collect="always"
         stdDeviation="1.652394"
         id="feGaussianBlur3823" />
    </filter>
  </defs>
  <sodipodi:namedview
     id="base"
     pagecolor="#ffffff"
     bordercolor="#000000"
     borderopacity="1.0"
     inkscape:pageopacity="1.0"
     inkscape:pageshadow="0"
     inkscape:zoom="2.72"
     inkscape:cx="65.629743"
     inkscape:cy="178.75109"
     inkscape:document-units="px"
     inkscape:current-layer="layer1"
     showgrid="false"
     inkscape:showpageshadow="true"
     inkscape:window-width="1920"
     inkscape:window-height="1056"
     inkscape:window-x="0"
     inkscape:window-y="24"
     inkscape:window-maximized="1" />
  <metadata
     id="metadata3001">
    <rdf:RDF>
      <cc:Work
         rdf:about="">
        <dc:format>image/svg+xml</dc:format>
        <dc:type
           rdf:resource="http://purl.org/dc/dcmitype/StillImage" />
        <dc:title />
      </cc:Work>
    </rdf:RDF>
  </metadata>
  <g
     inkscape:label="Layer 1"
     inkscape:groupmode="layer"
     id="layer1"
     transform="translate(0,-772.36218)">
    <path
       sodipodi:nodetypes="ccccccccccc"
       inkscape:connector-curvature="0"
       id="path3811"
       d="m 8.318903,825.59234 46.273899,0 c 22.220583,0 46.273898,6.24876 46.273898,18 0,-11.99456 23.23991,-18 46.2739,-18 l 46.2739,0 0,127.38321 -46.2739,0 c -17.76593,0 -46.2739,5.75592 -46.2739,18 0.17331,-12.23918 -27.662439,-18 -46.273898,-18 l -46.273899,0 z"
       style="fill:#000000;fill-opacity:1;stroke:none;stroke-opacity:1;filter:url(#filter3821);opacity:0.75" />
    <path
       transform="translate(0,772.36218)"
       style="fill:#ffffff;stroke:#222222;stroke-opacity:1;fill-opacity:1"
       d="m 8.318903,51.23016 46.273899,0 c 22.220583,0 46.273898,6.24876 46.273898,18 0,-11.99456 23.23991,-18 46.2739,-18 l 46.2739,0 0,127.38321 -46.2739,0 c -17.76593,0 -46.2739,5.75592 -46.2739,18 0.17331,-12.23918 -27.662439,-18 -46.273898,-18 l -46.273899,0 z"
       id="rect3004"
       inkscape:connector-curvature="0"
       sodipodi:nodetypes="ccccccccccc" />
    <path
       sodipodi:nodetypes="ccccccccccc"
       inkscape:connector-curvature="0"
       id="path3805"
       d="m 10.318903,821.59234 46.273899,0 c 22.220583,0 44.273898,6.24876 44.273898,18 0,-11.99456 21.23991,-18 44.2739,-18 l 46.2739,0 0,127.38321 -46.2739,0 c -17.76593,0 -44.2739,5.75592 -44.2739,18 0.17331,-12.23918 -25.662439,-18 -44.273898,-18 l -46.273899,0 z"
       style="fill:#ffffff;fill-opacity:1;stroke:#222222;stroke-opacity:1" />
    <path
       style="fill:#ffffff;fill-opacity:1;stroke:#222222;stroke-opacity:1"
       d="m 12.318903,819.59234 46.273899,0 c 22.220583,0 42.273898,6.24876 42.273898,18 0,-11.99456 19.23991,-18 42.2739,-18 l 46.2739,0 0,127.38321 -46.2739,0 c -17.76593,0 -42.2739,5.75592 -42.2739,18 0.17331,-12.23918 -23.662439,-18 -42.273898,-18 l -46.273899,0 z"
       id="path3807"
       inkscape:connector-curvature="0"
       sodipodi:nodetypes="ccccccccccc" />
    <path
       style="fill:none;stroke:#848484;stroke-width:1;stroke-linecap:butt;stroke-linejoin:miter;stroke-miterlimit:4;stroke-opacity:1;stroke-dasharray:1, 1;stroke-dashoffset:0"
       d="m 100.91912,65.4241 0.0459,122.89392"
       id="path3809"
       inkscape:connector-curvature="0"
       transform="translate(0,772.36218)"
       sodipodi:nodetypes="cc" />
    <g
       transform="matrix(0.88712204,0.46153493,-0.46153493,0.88712204,0,0)"
       style="font-size:119.63439178px;font-style:normal;font-weight:normal;line-height:125%;letter-spacing:0px;word-spacing:0px;fill:#66666f;fill-opacity:0.94117647;stroke:none;font-family:Sans"
       id="text3047">
      <path
         d="m 530.4375,678.21875 c -3.05743,0.2776 -6.06641,0.96989 -9.05137,1.6731 -3.17964,0.81504 -6.28289,1.97926 -9.16685,3.5488 -1.23953,0.62979 -2.25419,1.80979 -2.30356,3.25014 -0.27067,2.24583 -0.13932,4.52042 -0.29072,6.77327 -0.0572,1.14452 1.4495,1.40605 2.18882,0.787 3.69474,-2.12233 7.58054,-3.95359 11.65493,-5.21981 2.16266,-0.63724 4.381,-1.09683 6.64133,-1.15542 2.13479,-0.12949 4.35394,-0.0403 6.36808,0.73273 2.17399,0.95023 3.64203,3.12708 4.14684,5.39144 0.6521,2.75782 0.0872,5.66576 -1.17902,8.16503 -1.36359,3.11059 -3.3574,5.88382 -5.27512,8.66818 -1.83274,2.50673 -3.97391,4.75966 -6.05577,7.05469 -2.2594,2.67123 -4.19743,5.74529 -5.00389,9.18112 -1.0578,4.74434 -1.21319,9.64261 -0.90916,14.48069 -0.0537,1.20413 1.3942,1.81237 2.41359,1.53418 1.03588,-0.23942 2.39897,-0.2656 2.92327,-1.36099 0.43637,-1.68607 0.47096,-3.45948 0.69503,-5.18633 0.37169,-3.77055 0.50844,-7.709 2.23242,-11.16366 1.00545,-1.91681 2.40836,-3.57635 3.9399,-5.09166 2.57648,-2.7842 5.08653,-5.64374 7.23025,-8.78006 2.40846,-3.60119 4.77241,-7.24171 6.90587,-11.01227 1.39283,-2.85364 1.82669,-6.09715 1.51694,-9.24004 -0.0742,-1.57423 -0.33019,-3.15505 -0.82493,-4.64887 -0.63125,-1.8414 -1.7474,-3.5273 -3.20313,-4.81876 -2.67132,-2.23603 -6.21496,-3.06068 -9.61963,-3.29695 -1.98417,-0.16784 -3.98274,-0.31987 -5.97412,-0.26555 z m -6.1875,87.5625 c 1.8125,0.80208 3.60164,0.15111 5.41414,0.95319 -0.40625,-5 -0.78914,-8.54694 -1.19539,-13.54694 -1.90625,-0.20833 -3.8125,-0.41667 -5.71875,-0.625 0.5,4.40625 1,8.8125 1.5,13.21875 z"
         id="path3823"
         inkscape:connector-curvature="0"
         sodipodi:nodetypes="cccccccccccccccccccccccccccccccc" />
    </g>
  </g>
</svg>
